<svg xmlns="http://www.w3.org/2000/svg" viewBox="0 0 256 256"><title>Foodies Expanded</title><polygon points="116.442 100.559 70.182 155.999 23.932 100.559 116.442 100.559" fill="#ff4a73"/><polygon points="116.442 100.559 70.182 155.999 62.682 147.009 101.442 100.559 116.442 100.559" fill="#ea2a6a"/><polygon points="77.682 147.009 70.182 155.999 23.932 100.559 38.932 100.559 77.682 147.009" fill="#f973a3"/><path d="M224.627,115.417a57.663,57.663,0,0,1-82.92-75.86l11.72,10.72a42.32,42.32,0,0,0,59.48,54.42Z" fill="#ff4a73"/><path d="M249.537,67.957a57.309,57.309,0,0,1-10.42,33.05l-11.43-10.45a42.321,42.321,0,0,0-61.48-56.24l-11.44-10.47a57.651,57.651,0,0,1,94.77,44.11Z" fill="#ff4a73"/><path d="M227.687,90.559l-61.48-56.24-11.44-10.47a57.976,57.976,0,0,0-13.06,15.71l11.72,10.72,59.48,54.42,11.72,10.72a57.685,57.685,0,0,0,14.49-14.41Z" fill="#ff4a73"/><path d="M152.19,20.787a61.467,61.467,0,0,0-21.928,48.158c-1.057-.158,6.838-.106-118.78-.106A9,9,0,0,0,4.571,83.6c21.079,25.257,8.385,10.044,61.615,73.851v83.57h-30.9a4,4,0,1,0,0,8h71.346a4,4,0,0,0,0-8H74.186V157.444c53.227-63.79,41.308-49.507,58.99-70.694,15.686,48.89,80.408,57.859,109.222,16.547a61.233,61.233,0,0,0,11.139-35.34C253.537,15.608,192.078-12.814,152.19,20.787ZM70.182,149.755l-37.7-45.2H107.9Zm59.479-71.278L114.57,96.559H25.8L10.713,78.477a.993.993,0,0,1,.769-1.638h117.41A.994.994,0,0,1,129.661,78.477Zm62.225,43.13c-38.8,0-64.806-40.153-48.994-75.542l5.747,5.257c-15.083,38.91,25.789,76.863,63.652,58.233l5.751,5.26A53.354,53.354,0,0,1,191.886,121.607Zm-36.8-64.385,50.749,46.427C176.1,115.293,146.206,87.469,155.087,57.222Zm69.818,53.029c-23.031-21.065-62.8-57.453-78.076-71.428a53.607,53.607,0,0,1,7.913-9.575L224.987,93.51h0l8.758,8.007A53.484,53.484,0,0,1,224.905,110.251ZM172.656,34.792c31.9-18.677,69.959,15.206,53.968,49.367Zm65.657,60.061-5.545-5.073a46.162,46.162,0,0,0,5.469-21.823c0-36.947-41.268-58.844-71.712-38.774l-5.546-5.073-.005,0c35.413-24.963,84.563.442,84.563,43.852A53.267,53.267,0,0,1,238.313,94.853Z" fill="#5f266d"/><path d="M82,119.419h2a4,4,0,0,0,0-8H82a4,4,0,0,0,0,8Z" fill="#5f266d"/><path d="M55,119.419H67a4,4,0,0,0,0-8H55a4,4,0,1,0,0,8Z" fill="#5f266d"/></svg>