<svg xmlns="http://www.w3.org/2000/svg" viewBox="0 0 256 256"><title>Foodies Expanded</title><circle cx="128" cy="128" r="113.633" fill="#f9d335"/><circle cx="128" cy="128" r="89.834" fill="#ffe2e2"/><path d="M135.5,217.52q-3.7.315-7.5.31a89.83,89.83,0,0,1,0-179.66q3.8,0,7.5.31a89.834,89.834,0,0,0,0,179.04Z" fill="#ffefee"/><path d="M217.83,128A89.832,89.832,0,0,1,128,217.83q-3.8,0-7.5-.31a89.834,89.834,0,0,0,0-179.04q3.7-.315,7.5-.31A89.832,89.832,0,0,1,217.83,128Z" fill="#ffcfcf"/><path d="M94.73,156.47l-3.88,18.62a8.357,8.357,0,0,1-16.44-.44L71.3,154.38a12.186,12.186,0,0,0,2.2.38L94,156.44C94.25,156.46,94.49,156.47,94.73,156.47Z" fill="#ffaa80"/><polygon points="71.29 154.38 71.3 154.381 71.3 154.38 71.29 154.38" fill="#ffaa80"/><path d="M182.6,82.16a8.357,8.357,0,0,1-6.64,7.82l-18.62,3.88c0-.24-.01-.49-.03-.73l-1.68-20.5a12.186,12.186,0,0,0-.38-2.2l20.27,3.11A8.363,8.363,0,0,1,182.6,82.16Z" fill="#ffaa80"/><polygon points="155.25 70.43 155.251 70.43 155.25 70.42 155.25 70.43" fill="#ffaa80"/><path d="M138.23,110.31a17.488,17.488,0,0,0-1.42-4.58L121.05,72.05A16.054,16.054,0,0,0,99.4,64.44l-.48.24A76.123,76.123,0,0,0,65.55,98.05l-.24.48a16.08,16.08,0,0,0,7.61,21.65l33.68,15.76a17.488,17.488,0,0,0,4.58,1.42,17.159,17.159,0,0,0,9.3-1.08,2.443,2.443,0,0,1,.24-.1,30.639,30.639,0,0,0,16.33-16.33c.03-.08.07-.16.1-.24A17.159,17.159,0,0,0,138.23,110.31Z" fill="#ffbb98"/><path d="M111.18,137.36c-1.82,4.11-3.44,8.05-4.73,11.32a12.278,12.278,0,0,1-11.71,7.79h-.01c-.24,0-.48-.01-.73-.03l-20.5-1.68a12.186,12.186,0,0,1-2.2-.38h-.01a12.3,12.3,0,0,1-8.91-13.94,107.214,107.214,0,0,1,6.56-22.91,15.882,15.882,0,0,0,3.98,2.65l33.68,15.76A17.488,17.488,0,0,0,111.18,137.36Z" fill="#ffcaa6"/><path d="M157.34,93.86v.01a12.264,12.264,0,0,1-7.79,11.71c-3.27,1.29-7.21,2.9-11.32,4.73a17.488,17.488,0,0,0-1.42-4.58L121.05,72.05a15.939,15.939,0,0,0-2.65-3.99,107.813,107.813,0,0,1,22.91-6.55,12.3,12.3,0,0,1,13.94,8.91v.01a12.186,12.186,0,0,1,.38,2.2l1.68,20.5C157.33,93.37,157.34,93.62,157.34,93.86Z" fill="#ffcaa6"/><path d="M128,10.367A117.633,117.633,0,1,0,245.633,128,117.766,117.766,0,0,0,128,10.367Zm0,227.266A109.633,109.633,0,1,1,237.633,128,109.757,109.757,0,0,1,128,237.633Z" fill="#5f266d"/><path d="M128,34.167A93.833,93.833,0,1,0,221.833,128,93.939,93.939,0,0,0,128,34.167Zm0,179.666A85.833,85.833,0,1,1,213.833,128,85.93,85.93,0,0,1,128,213.833Z" fill="#5f266d"/><path d="M184.981,165.4a4,4,0,0,0-5.611.713,66.937,66.937,0,0,1-18.142,16.319,4,4,0,1,0,4.155,6.836,74.885,74.885,0,0,0,20.311-18.256A4,4,0,0,0,184.981,165.4Z" fill="#5f266d"/><path d="M148.457,188.371a64.014,64.014,0,0,1-10.663,2.589,4,4,0,0,0,1.213,7.907,71.948,71.948,0,0,0,12-2.913,4,4,0,1,0-2.549-7.583Z" fill="#5f266d"/><path d="M96.238,104.4c-3.774-3.062-9.842,2.317-4.222,6.876C95.791,114.34,101.858,108.961,96.238,104.4Z" fill="#5f266d"/><path d="M176.126,69.586l-17.942-2.753a16.184,16.184,0,0,0-17.558-9.265A113.608,113.608,0,0,0,119.29,63.4a20.072,20.072,0,0,0-22.181-2.29,80.6,80.6,0,0,0-35.38,35.635A20.05,20.05,0,0,0,64.28,118.42a113.013,113.013,0,0,0-5.842,21.337A16.178,16.178,0,0,0,67.7,157.313l2.754,17.947c2.1,13.591,21.525,13.992,24.309.646l3.278-15.73a16.364,16.364,0,0,0,12.127-10.028c1.134-2.875,2.338-5.794,3.536-8.577,11.274.143,22.587-9.661,27.056-20.235.034-.078.068-.156.1-.235a21.034,21.034,0,0,0,1.58-8.269c2.685-1.158,5.513-2.323,8.575-3.531A16.36,16.36,0,0,0,161.062,97.17L176.777,93.9a12.357,12.357,0,0,0-.651-24.31ZM86.935,174.273a4.357,4.357,0,0,1-8.571-.23l-2.311-15.06,13.831,1.133Zm15.794-27.06a8.345,8.345,0,0,1-7.9,5.258c-.819-.017-21.354-1.648-22.5-1.955-.035-.01-.07-.018-.105-.027a8.341,8.341,0,0,1-5.907-9.365,106.19,106.19,0,0,1,4.562-17.5c.115.057.225.121.342.176,37.244,17.428,33.5,15.689,34.5,16.108Q104.2,143.492,102.729,147.213Zm30.306-28.231-2.649-3.283a4,4,0,0,0-6.226,5.024l4.238,5.25c-5.258,5.715-12.976,9.691-20.1,6.344L74.622,116.56a12.085,12.085,0,0,1-5.5-16.7q1.278-2.517,2.754-4.924c8.318,6.748,8.361,7.123,10.2,7.123a4,4,0,0,0,2.522-7.107l-8.145-6.607A72.968,72.968,0,0,1,88.3,76.3c28.47,35.275,26.912,34.243,29.551,34.243a4,4,0,0,0,3.111-6.512L94.819,71.63c6.1-3.874,8.619-4.853,11.667-4.853a12.07,12.07,0,0,1,8.961,3.981c1.643,1.8.66.168,17.742,36.671A13.085,13.085,0,0,1,133.035,118.982Zm15.047-17.123c-2.58,1.018-4.989,2.006-7.3,2.987-.485-1.157-15.823-33.9-16.285-34.837a106.673,106.673,0,0,1,17.5-4.558,8.342,8.342,0,0,1,9.365,5.9c.009.037.018.073.028.11.277,1.034,1.912,21,1.955,22.508A8.3,8.3,0,0,1,148.082,101.859Zm27.062-15.8-14.158,2.95-1.133-13.831,15.057,2.31a4.357,4.357,0,0,1,.234,8.571Z" fill="#5f266d"/></svg>