<svg xmlns="http://www.w3.org/2000/svg" viewBox="0 0 256 256"><title>Foodies Expanded</title><circle cx="128" cy="128" r="113.633" fill="#b76c6c"/><circle cx="128" cy="128" r="89.834" fill="#ffe2e2"/><path d="M135.5,217.52q-3.7.315-7.5.31a89.83,89.83,0,0,1,0-179.66q3.8,0,7.5.31a89.834,89.834,0,0,0,0,179.04Z" fill="#ffefee"/><path d="M217.83,128A89.832,89.832,0,0,1,128,217.83q-3.8,0-7.5-.31a89.834,89.834,0,0,0,0-179.04q3.7-.315,7.5-.31A89.832,89.832,0,0,1,217.83,128Z" fill="#ffcfcf"/><path d="M120.038,113.251s-27.673-16.78-10.271-50.374C109.767,62.877,142.706,83.518,120.038,113.251Z" fill="#44c7b6"/><path d="M119.081,114.208s-21.076-34.757-63.27-12.9C55.811,101.308,81.736,142.68,119.081,114.208Z" fill="#44c7b6"/><path d="M128,10.367A117.633,117.633,0,1,0,245.633,128,117.766,117.766,0,0,0,128,10.367Zm0,227.266A109.633,109.633,0,1,1,237.633,128,109.757,109.757,0,0,1,128,237.633Z" fill="#5f266d"/><path d="M128,34.166A93.834,93.834,0,1,0,221.833,128,93.94,93.94,0,0,0,128,34.166Zm0,179.668A85.834,85.834,0,1,1,213.833,128,85.93,85.93,0,0,1,128,213.834Z" fill="#5f266d"/><path d="M122.346,116.494c1.123-.8,12.047-13.721,9.151-29.653-3.056-16.812-18.932-26.931-19.606-27.354a4,4,0,0,0-5.676,1.55c-6.984,13.483-7.242,24.568-4.78,33.2-11.339-5.18-27.2-6.978-47.464,3.519a4,4,0,0,0-1.55,5.676c7.641,12.188,23.214,24.78,40.5,24.78C107.462,128.213,120.9,118.555,122.346,116.494ZM111.3,69.032c12.762,10.786,16.829,24.309,7.808,38.566C108.5,98.561,104.7,84.9,111.3,69.032Zm-49.4,33.8c21.416-9.412,39.837-3.986,51.586,10.462C94.3,126,76.047,120.289,61.9,102.827Z" fill="#5f266d"/><path d="M170.187,92a4,4,0,0,0-4-4h-8.806a4,4,0,0,0,0,8h8.806A4,4,0,0,0,170.187,92Z" fill="#5f266d"/><path d="M152.333,109.252h-8.805a4,4,0,0,0,0,8h8.805a4,4,0,0,0,0-8Z" fill="#5f266d"/><path d="M178.823,138h-8.805a4,4,0,0,0,0,8h8.805a4,4,0,0,0,0-8Z" fill="#5f266d"/><path d="M132.4,161.5H123.6a4,4,0,1,0,0,8H132.4a4,4,0,1,0,0-8Z" fill="#5f266d"/><path d="M107.025,146a4,4,0,0,0-4-4H94.22a4,4,0,0,0,0,8h8.805A4,4,0,0,0,107.025,146Z" fill="#5f266d"/><path d="M116.312,184h-8.8a4,4,0,0,0,0,8h8.8a4,4,0,1,0,0-8Z" fill="#5f266d"/><path d="M170.589,173h-8.805a4,4,0,0,0,0,8h8.805a4,4,0,0,0,0-8Z" fill="#5f266d"/><path d="M81.58,155.5H72.774a4,4,0,0,0,0,8H81.58a4,4,0,0,0,0-8Z" fill="#5f266d"/><path d="M145.2,62.735a78.257,78.257,0,0,1,18.879,8.674,4,4,0,1,0,4.29-6.752,85.561,85.561,0,0,0-21.059-9.638,4,4,0,0,0-2.11,7.716Z" fill="#5f266d"/><path d="M180.751,74.706a4,4,0,1,0-5.805,5.5c2.874,3.034,3.325,4.707,5.89,4.707a4,4,0,0,0,3.149-6.463C182.991,77.182,181.9,75.921,180.751,74.706Z" fill="#5f266d"/></svg>