<svg xmlns="http://www.w3.org/2000/svg" viewBox="0 0 256 256"><title>Foodies Expanded</title><path d="M174.781,15.84V29.33H81.221V15.84a10,10,0,0,1,10-10h73.56A10,10,0,0,1,174.781,15.84Z" fill="#ffe2e2"/><path d="M174.781,29.33V50.56c0,5.16-.25,10.33-.76,15.47s-1.26,10.27-2.27,15.36a361.923,361.923,0,0,0-3.07,123.12l3.15,21.42H84.171l3.15-21.42a361.877,361.877,0,0,0,3.85-52.65,362.91,362.91,0,0,0-6.92-70.47,158.351,158.351,0,0,1-3.03-30.83V29.33Z" fill="#f9d335"/><path d="M163.821,250.16H92.181a10,10,0,0,1-9.89-11.46l1.88-12.77h87.66l1.88,12.77A10,10,0,0,1,163.821,250.16Z" fill="#ffe2e2"/><path d="M135.5,29.329H152a0,0,0,0,1,0,0V78.406a8.25,8.25,0,0,1-8.25,8.25h0a8.25,8.25,0,0,1-8.25-8.25V29.329A0,0,0,0,1,135.5,29.329Z" fill="#ffe2e2"/><path d="M119,29.329h16.5a0,0,0,0,1,0,0V48.656a8.25,8.25,0,0,1-8.25,8.25h0a8.25,8.25,0,0,1-8.25-8.25V29.329a0,0,0,0,1,0,0Z" fill="#ffe2e2"/><path d="M106.221,5.84a10,10,0,0,0-10,10V29.33h-15V15.84a10,10,0,0,1,10-10Z" fill="#ffefee"/><path d="M106.171,151.86a361.877,361.877,0,0,1-3.85,52.65l-3.15,21.42h-15l3.15-21.42a361.877,361.877,0,0,0,3.85-52.65,362.91,362.91,0,0,0-6.92-70.47,158.351,158.351,0,0,1-3.03-30.83V29.33h15V50.56a158.351,158.351,0,0,0,3.03,30.83A362.91,362.91,0,0,1,106.171,151.86Z" fill="#f9e27d"/><path d="M107.181,250.16h-15a10,10,0,0,1-9.89-11.46l1.88-12.77h15l-1.88,12.77A10,10,0,0,0,107.181,250.16Z" fill="#ffefee"/><path d="M174.781,15.84V29.33h-15V15.84a10,10,0,0,0-10-10h15A10,10,0,0,1,174.781,15.84Z" fill="#ffcfcf"/><path d="M174.781,29.33V50.56c0,5.16-.25,10.33-.76,15.47s-1.26,10.27-2.27,15.36a361.923,361.923,0,0,0-3.07,123.12l3.15,21.42h-15l-3.15-21.42a361.923,361.923,0,0,1,3.07-123.12q1.515-7.635,2.27-15.36c.51-5.14.76-10.31.76-15.47V29.33Z" fill="#f2c300"/><path d="M163.821,250.16h-15a10,10,0,0,0,9.89-11.46l-1.88-12.77h15l1.88,12.77A10,10,0,0,1,163.821,250.16Z" fill="#ffcfcf"/><path d="M175.675,82.169c3.827-19.3,3.106-32.326,3.106-52.839V15.84a14.015,14.015,0,0,0-14-14H91.221a14.015,14.015,0,0,0-14,14c0,36.314-.734,46.972,3.106,66.327a359.864,359.864,0,0,1,6.844,69.692,359.279,359.279,0,0,1-3.807,52.069c-3.772,25.65-2.5,17-5.03,34.189A14,14,0,0,0,92.181,254.16h71.64a14,14,0,0,0,13.847-16.043C171.635,197.135,162.205,150.216,175.675,82.169ZM85.221,15.84a6.006,6.006,0,0,1,6-6h73.56a6.006,6.006,0,0,1,6,6v9.49H85.221ZM148,33.33V78.406a4.25,4.25,0,0,1-8.5,0V33.33Zm-16.5,0V48.656a4.25,4.25,0,0,1-8.5,0V33.33Zm-46.28,0H115V48.656a12.244,12.244,0,0,0,16.5,11.473V78.406a12.25,12.25,0,0,0,24.5,0V33.33h14.78c0,17.974.557,29.584-2.954,47.284-11.89,60.07-6.231,103.2-.628,141.316H88.8l2.476-16.838a367.247,367.247,0,0,0,3.893-53.233,367.924,367.924,0,0,0-7-71.247C84.692,63.055,85.221,51.666,85.221,33.33Zm78.6,212.83H92.181a5.993,5.993,0,0,1-5.933-6.877l1.377-9.353h80.752l1.377,9.353A5.993,5.993,0,0,1,163.821,246.16Z" fill="#5f266d"/><path d="M152.77,147.5c.064-13.707,1.2-26.522,1.215-26.65.472-5.256-7.493-6-7.967-.717-.049.535-1.182,13.268-1.248,27.33C144.744,152.771,152.743,152.837,152.77,147.5Z" fill="#5f266d"/><path d="M153.215,162.168a4,4,0,0,0-7.977.6c.2,2.665.474,5.127.809,7.32.807,5.3,8.705,4.014,7.908-1.207C153.651,166.893,153.4,164.632,153.215,162.168Z" fill="#5f266d"/></svg>