<svg xmlns="http://www.w3.org/2000/svg" viewBox="0 0 256 256"><title>Foodies Expanded</title><path d="M187.5,13.53V92.32a4.844,4.844,0,0,1-.03.53L171.569,243a5,5,0,0,1-4.97,4.47H89.589a5,5,0,0,1-4.97-4.47L68.529,92.85a4.844,4.844,0,0,1-.03-.53V13.53a5,5,0,0,1,5-5h109A5,5,0,0,1,187.5,13.53Z" fill="#ffe2e2"/><path d="M104.589,247.47h-15a5,5,0,0,1-4.97-4.47L68.529,92.85a4.844,4.844,0,0,1-.03-.53V13.53a5,5,0,0,1,5-5h15a5,5,0,0,0-5,5V92.32a4.844,4.844,0,0,0,.03.53L99.619,243A5,5,0,0,0,104.589,247.47Z" fill="#ffefee"/><path d="M187.5,13.53V92.32a4.844,4.844,0,0,1-.03.53L171.569,243a5,5,0,0,1-4.97,4.47h-15a5,5,0,0,0,4.97-4.47l15.9-150.15a4.844,4.844,0,0,0,.03-.53V13.53a5,5,0,0,0-5-5h15A5,5,0,0,1,187.5,13.53Z" fill="#ffcfcf"/><path d="M187.5,35.08V92.32a4.844,4.844,0,0,1-.03.53L171.569,243a5,5,0,0,1-4.97,4.47h-15a5,5,0,0,0,4.97-4.47l15.9-150.15a4.844,4.844,0,0,0,.03-.53V35.08Z" fill="#ea2a6a"/><path d="M187.5,35.08V92.32a4.844,4.844,0,0,1-.03.53L171.569,243a5,5,0,0,1-4.97,4.47H89.589a5,5,0,0,1-4.97-4.47L68.529,92.85a4.844,4.844,0,0,1-.03-.53V35.08Z" fill="#ff4a73"/><circle cx="161.139" cy="61.031" r="9.008" fill="#f973a3"/><circle cx="138.369" cy="92.455" r="9.008" fill="#f973a3"/><circle cx="108.566" cy="215.011" r="9.008" fill="#f973a3"/><circle cx="149.754" cy="186.5" r="9.008" fill="#f973a3"/><circle cx="113.23" cy="171.549" r="9.008" fill="#f973a3"/><path d="M104.589,247.47h-15a5,5,0,0,1-4.97-4.47L68.529,92.85a4.844,4.844,0,0,1-.03-.53V35.08h15V92.32a4.844,4.844,0,0,0,.03.53L99.619,243A5,5,0,0,0,104.589,247.47Z" fill="#f973a3"/><path d="M191.5,92.318V13.531a9.01,9.01,0,0,0-9-9H73.5a9.01,9.01,0,0,0-9,9c0,84.361-.029,78.988.05,79.743L80.642,243.429a8.984,8.984,0,0,0,8.949,8.04H166.6a8.979,8.979,0,0,0,8.949-8.053C192.377,84.5,191.5,93.057,191.5,92.318ZM72.5,13.531a1,1,0,0,1,1-1h109a1,1,0,0,1,1,1V31.08H72.5Zm95.1,229.044a1,1,0,0,1-.994.894H89.591a1,1,0,0,1-.994-.893C69.675,66.02,72.5,107.25,72.5,39.08h111C183.5,107.477,186.271,66.2,167.594,242.575Z" fill="#5f266d"/><path d="M161.138,48.023a13.009,13.009,0,1,0,13.009,13.008A13.022,13.022,0,0,0,161.138,48.023Zm0,18.017a5.009,5.009,0,1,1,5.009-5.009A5.014,5.014,0,0,1,161.138,66.04Z" fill="#5f266d"/><path d="M151.377,92.455a13.008,13.008,0,1,0-13.007,13.009A13.022,13.022,0,0,0,151.377,92.455Zm-18.016,0a5.008,5.008,0,1,1,5.009,5.009A5.014,5.014,0,0,1,133.361,92.455Z" fill="#5f266d"/><path d="M108.566,202a13.009,13.009,0,1,0,13.008,13.009A13.024,13.024,0,0,0,108.566,202Zm0,18.017a5.009,5.009,0,1,1,5.008-5.008A5.014,5.014,0,0,1,108.566,220.02Z" fill="#5f266d"/><path d="M149.754,173.491A13.009,13.009,0,1,0,162.762,186.5,13.024,13.024,0,0,0,149.754,173.491Zm0,18.018a5.009,5.009,0,1,1,5.008-5.009A5.014,5.014,0,0,1,149.754,191.509Z" fill="#5f266d"/><path d="M113.23,158.54a13.009,13.009,0,1,0,13.009,13.009A13.023,13.023,0,0,0,113.23,158.54Zm0,18.018a5.009,5.009,0,1,1,5.009-5.009A5.014,5.014,0,0,1,113.23,176.558Z" fill="#5f266d"/><path d="M87.666,80a4,4,0,0,0-4,4v5a4,4,0,0,0,8,0V84A4,4,0,0,0,87.666,80Z" fill="#5f266d"/><path d="M87.666,47a4,4,0,0,0-4,4V69a4,4,0,0,0,8,0V51A4,4,0,0,0,87.666,47Z" fill="#5f266d"/></svg>