<svg xmlns="http://www.w3.org/2000/svg" viewBox="0 0 256 256"><title>Foodies Expanded</title><path d="M184.86,44.973c-23.3,0-43.97,16.25-56.86,41.33-12.89-25.08-33.56-41.33-56.86-41.33,0-13.41,4.34-25.07,14.95-26.77,10.25-1.23,11.42,4.56,21.67,1.72,6.13-1.69,9.1-13.56,17.66-13.081h1.87c8.56-.479,14.82,11.391,20.95,13.081,10.25,2.84,11.42-2.95,21.67-1.72C180.52,19.9,184.86,31.563,184.86,44.973Z" fill="#44c7b6"/><path d="M135.5,73.933A98.669,98.669,0,0,0,128,86.3c-12.89-25.08-33.56-41.33-56.86-41.33,0-13.41,4.34-25.07,14.95-26.77a21.256,21.256,0,0,1,10.66,1.41c-7.47,3.81-10.61,13.95-10.61,25.36C105.34,44.973,122.76,56.013,135.5,73.933Z" fill="#4bdbc3"/><path d="M159.04,51.993c-12.46,7.04-23.19,19.04-31.04,34.31-7.85-15.27-18.58-27.27-31.04-34.31a36.791,36.791,0,0,1,62.08,0Z" fill="#ff4a73"/><path d="M128,86.3C115.107,61.225,94.441,44.974,71.143,44.974v204.2c23.3,0,43.964-16.251,56.857-41.324,12.893,25.073,33.559,41.324,56.857,41.324V44.974C161.559,44.974,140.893,61.225,128,86.3Z" fill="#f9d335"/><path d="M128,207.853c-12.89,25.07-33.56,41.32-56.86,41.32H184.86C161.56,249.173,140.89,232.923,128,207.853Z" fill="#f2c300"/><path d="M71.143,44.974v204.2c39.077,0,70.756-45.712,70.756-102.1S110.22,44.974,71.143,44.974Z" fill="#f9d335"/><path d="M86.14,47.273v199.6a50.1,50.1,0,0,1-15,2.3V44.973A50.1,50.1,0,0,1,86.14,47.273Z" fill="#f9e27d"/><path d="M184.86,44.973v204.2a50.149,50.149,0,0,1-15-2.3V47.273A50.149,50.149,0,0,1,184.86,44.973Z" fill="#f2c300"/><path d="M135.5,73.933A99.591,99.591,0,0,0,128,86.3c-7.183-13.826-17.465-26.653-31.04-34.31a35.793,35.793,0,0,1,3.7-4.86C114.06,51.163,126.06,60.663,135.5,73.933Z" fill="#f973a3"/><path d="M135.5,73.933A99.591,99.591,0,0,0,128,86.3c-7.17-13.8-17.433-26.635-31.04-34.31a35.793,35.793,0,0,1,3.7-4.86C114.06,51.163,126.06,60.663,135.5,73.933Z" fill="#f973a3"/><path d="M188.86,44.972c0-17.4-6.847-28.881-18.317-30.719l-.156-.022c-14.2-1.706-15.213,8.431-27.134-2.855-9.125-8.641-12.144-8.534-17.731-8.534-10.674-.5-14.86,12.13-18.83,13.226-4.329,1.2-6.24.559-9.135-.407C77.445,8.95,67.14,24.046,67.14,44.972c0,.01,0,.019,0,.029V249.143c0,.01,0,.019,0,.029a4,4,0,0,0,4,4H184.86a4,4,0,0,0,4-4c0-.01,0-.019,0-.029C188.857,209.668,188.86,49.575,188.86,44.972ZM132.986,208.7c-.087-.158-.176-.312-.262-.471-.078-.142-.152-.289-.229-.432,8.7-17.672,13.4-38.686,13.4-60.719s-4.705-43.039-13.4-60.709c10.179-18.913,27.146-35.29,48.358-37.208V244.989C162.313,243.312,144.791,230.062,132.986,208.7ZM75.143,49.156C108.881,52.207,137.9,93.3,137.9,147.073c0,54.535-29.576,94.915-62.756,97.916ZM128,78.081c-6.388-10.622-14.9-20.436-25.244-27.268a32.8,32.8,0,0,1,50.509.024C143.564,57.229,134.959,66.512,128,78.081ZM95.022,23.249a20.56,20.56,0,0,0,13.8.53c7.851-2.163,10.113-12.937,16.6-12.937,4.036,0,4.942-.655,12.332,6.342,4.554,4.311,10.3,10.385,23.226,6.065,13.1-4.378,18.755,4.175,19.745,17.886a56.467,56.467,0,0,0-20.416,5.735A40.745,40.745,0,0,0,95.751,46.8a55.966,55.966,0,0,0-20.4-5.654l-.072-.007C76.266,27.429,81.913,18.869,95.022,23.249ZM156.4,245.172H99.809c11.854-6.948,21.215-17.549,28.191-29.108C135.08,227.8,144.664,238.324,156.4,245.172Z" fill="#5f266d"/><path d="M91.217,181.7a4,4,0,0,0-4,4v7.5a4,4,0,0,0,8,0v-7.5A4,4,0,0,0,91.217,181.7Z" fill="#5f266d"/><path d="M91.217,135.7a4,4,0,0,0-4,4v31a4,4,0,0,0,8,0v-31A4,4,0,0,0,91.217,135.7Z" fill="#5f266d"/></svg>