<svg xmlns="http://www.w3.org/2000/svg" viewBox="0 0 256 256"><title>Foodies Expanded</title><circle cx="128" cy="128" r="113.633" fill="#f9d335"/><circle cx="128" cy="128" r="89.834" fill="#ffe2e2"/><path d="M176.02,86.6A24.621,24.621,0,0,0,128,80.387a24.62,24.62,0,1,0-40.55,25.24,2.649,2.649,0,0,1,.83,1.91v77.78a5,5,0,0,0,5,5h69.44a5,5,0,0,0,5-5v-77.78a2.649,2.649,0,0,1,.83-1.91A24.549,24.549,0,0,0,176.02,86.6Z" fill="#b76c6c"/><path d="M135.5,217.52q-3.7.315-7.5.31a89.83,89.83,0,0,1,0-179.66q3.8,0,7.5.31a89.834,89.834,0,0,0,0,179.04Z" fill="#ffefee"/><path d="M217.83,128A89.832,89.832,0,0,1,128,217.83q-3.8,0-7.5-.31a89.834,89.834,0,0,0,0-179.04q3.7-.315,7.5-.31A89.832,89.832,0,0,1,217.83,128Z" fill="#ffcfcf"/><path d="M196.988,109.762v-6.681a10.164,10.164,0,0,0-10.164-10.164H122.293a10.164,10.164,0,0,0-10.164,10.164v6.681a10.163,10.163,0,0,1-10.164,10.163H98.43a10.165,10.165,0,0,0-10.164,10.164v6.681A10.165,10.165,0,0,0,98.43,146.934h0A10.164,10.164,0,0,1,108.594,157.1v6.681a10.163,10.163,0,0,0,10.164,10.163h64.53a10.163,10.163,0,0,0,10.164-10.163V157.1a10.163,10.163,0,0,0-10.164-10.164h0a10.164,10.164,0,0,1-10.163-10.164v-6.681a10.164,10.164,0,0,1,10.163-10.164h3.536A10.164,10.164,0,0,0,196.988,109.762Z" fill="#ffe2e2"/><path d="M196.99,103.08v6.68a10.172,10.172,0,0,1-10.17,10.17h-3.53a10.17,10.17,0,0,0-10.17,10.16v6.68a10.174,10.174,0,0,0,10.17,10.16,10.164,10.164,0,0,1,10.16,10.17v6.68a10.162,10.162,0,0,1-10.16,10.16h-15a10.162,10.162,0,0,0,10.16-10.16V157.1a10.164,10.164,0,0,0-10.16-10.17,10.174,10.174,0,0,1-10.17-10.16v-6.68a10.17,10.17,0,0,1,10.17-10.16h3.53a10.172,10.172,0,0,0,10.17-10.17v-6.68a10.164,10.164,0,0,0-10.17-10.16h15A10.164,10.164,0,0,1,196.99,103.08Z" fill="#ffcfcf"/><circle cx="137.828" cy="133.43" r="16.167" fill="#f2c300"/><path d="M133.76,173.94h-15a10.164,10.164,0,0,1-10.17-10.16V157.1a10.174,10.174,0,0,0-10.16-10.17,10.162,10.162,0,0,1-10.16-10.16v-6.68a10.162,10.162,0,0,1,10.16-10.16h3.54a10.17,10.17,0,0,0,10.16-10.17v-6.68a10.162,10.162,0,0,1,10.16-10.16h15a10.162,10.162,0,0,0-10.16,10.16v6.68a10.17,10.17,0,0,1-10.16,10.17h-3.54a10.162,10.162,0,0,0-10.16,10.16v6.68a10.162,10.162,0,0,0,10.16,10.16,10.174,10.174,0,0,1,10.16,10.17v6.68A10.164,10.164,0,0,0,133.76,173.94Z" fill="#ffefee"/><path d="M128,10.367A117.633,117.633,0,1,0,245.633,128,117.766,117.766,0,0,0,128,10.367Zm0,227.266A109.633,109.633,0,1,1,237.633,128,109.757,109.757,0,0,1,128,237.633Z" fill="#5f266d"/><path d="M128,34.166A93.834,93.834,0,1,0,221.834,128,93.94,93.94,0,0,0,128,34.166Zm0,179.668A85.834,85.834,0,1,1,213.834,128,85.93,85.93,0,0,1,128,213.834Z" fill="#5f266d"/><path d="M56.221,147.691a4,4,0,0,0,3.415-4.509c-.184-1.337-.317-2.694-.392-4.033a4,4,0,0,0-7.988.454c.089,1.552.242,3.125.455,4.672a4,4,0,0,0,4.51,3.416Z" fill="#5f266d"/><path d="M63.346,156.6a4,4,0,1,0-7.376,3.1,69.071,69.071,0,0,0,17.1,24.045,4,4,0,0,0,5.393-5.91A61.007,61.007,0,0,1,63.346,156.6Z" fill="#5f266d"/><path d="M183.288,123.926h3.536a14.179,14.179,0,0,0,14.163-14.164v-6.681a14.179,14.179,0,0,0-14.163-14.164h-6.8A28.629,28.629,0,0,0,128,71.472a28.629,28.629,0,1,0-43.72,36.649v77.2a9.01,9.01,0,0,0,9,9h69.44a9.01,9.01,0,0,0,9-9v-7.378h11.568a14.179,14.179,0,0,0,14.164-14.164V157.1a14.179,14.179,0,0,0-14.164-14.164,6.17,6.17,0,0,1-6.163-6.163v-6.682A6.17,6.17,0,0,1,183.288,123.926ZM83.975,86.811a20.621,20.621,0,0,1,40.217-5.2,4,4,0,0,0,7.616,0,20.616,20.616,0,0,1,40.217,7.3H122.293a14.18,14.18,0,0,0-14.164,14.164v6.681a6.171,6.171,0,0,1-6.164,6.164c-3.789,0-6.233-.249-9.685,1.425V107.54a6.684,6.684,0,0,0-2.049-4.785A20.632,20.632,0,0,1,83.975,86.811ZM163.72,185.32a1,1,0,0,1-1,1H93.28a1,1,0,0,1-1-1V149.509a14.056,14.056,0,0,0,6.15,1.425,6.171,6.171,0,0,1,6.164,6.164v6.68a14.179,14.179,0,0,0,14.164,14.164H163.72Zm19.568-34.386a6.171,6.171,0,0,1,6.164,6.164v6.68a6.171,6.171,0,0,1-6.164,6.164h-64.53a6.171,6.171,0,0,1-6.164-6.164V157.1A14.179,14.179,0,0,0,98.43,142.934a6.166,6.166,0,0,1-6.15-5.893v-7.222a6.165,6.165,0,0,1,6.15-5.893h3.535a14.18,14.18,0,0,0,14.164-14.164v-6.681a6.172,6.172,0,0,1,6.164-6.164h64.531a6.171,6.171,0,0,1,6.163,6.164v6.681a6.171,6.171,0,0,1-6.163,6.164h-3.536a14.179,14.179,0,0,0-14.163,14.163v6.682A14.18,14.18,0,0,0,183.288,150.934Z" fill="#5f266d"/><path d="M137.827,113.263a20.167,20.167,0,1,0,20.167,20.167A20.19,20.19,0,0,0,137.827,113.263Zm0,32.334a12.167,12.167,0,1,1,12.167-12.167A12.18,12.18,0,0,1,137.827,145.6Z" fill="#5f266d"/></svg>