<svg xmlns="http://www.w3.org/2000/svg" viewBox="0 0 256 256"><title>Foodies Expanded</title><path d="M229.563,108H208.937V58a5,5,0,0,0-5-5H11.437a5,5,0,0,0-5,5V198a5,5,0,0,0,5,5h192.5a5,5,0,0,0,5-5V148h20.626a20,20,0,0,0,20-20h0A20,20,0,0,0,229.563,108Z" fill="#b76c6c"/><rect x="47.687" y="41.75" width="120" height="172.5" transform="translate(235.687 20.313) rotate(90)" fill="#b76c6c"/><rect x="21.44" y="68" width="172.5" height="15" fill="#c98585"/><rect x="21.44" y="173" width="172.5" height="15" fill="#965959"/><rect x="49" y="83" width="18" height="18" fill="#ff4a73"/><rect x="49" y="119" width="18" height="18" fill="#ff4a73"/><rect x="58" y="137" width="18" height="18" fill="#ff4a73"/><rect x="40" y="155" width="18" height="18" fill="#ff4a73"/><rect x="40" y="101" width="18" height="18" fill="#ff4a73"/><rect x="58" y="101" width="18" height="18" fill="#ff4a73"/><rect x="147.333" y="155" width="18" height="18" transform="translate(312.667 328) rotate(180)" fill="#ffe2e2"/><rect x="147.333" y="119" width="18" height="18" transform="translate(312.667 256) rotate(180)" fill="#ffe2e2"/><rect x="138.333" y="101" width="18" height="18" transform="translate(294.667 220) rotate(180)" fill="#ffe2e2"/><rect x="156.333" y="101" width="18" height="18" transform="translate(330.667 220) rotate(180)" fill="#ffe2e2"/><rect x="156.333" y="83" width="18" height="18" transform="translate(330.667 184) rotate(180)" fill="#ffe2e2"/><rect x="156.333" y="137" width="18" height="18" transform="translate(330.667 292) rotate(180)" fill="#ffe2e2"/><rect x="138.333" y="137" width="18" height="18" transform="translate(294.667 292) rotate(180)" fill="#ffe2e2"/><rect x="98.167" y="101" width="18" height="18" fill="#44c7b6"/><rect x="89.167" y="83" width="18" height="18" fill="#44c7b6"/><rect x="107.167" y="83" width="18" height="18" fill="#44c7b6"/><rect x="89.167" y="119" width="18" height="18" fill="#44c7b6"/><rect x="98.167" y="137" width="18" height="18" fill="#44c7b6"/><rect x="98.167" y="155" width="18" height="18" fill="#44c7b6"/><rect x="107.167" y="119" width="18" height="18" fill="#44c7b6"/><path d="M193.937,64H21.437a4,4,0,0,0-4,4V188a4,4,0,0,0,4,4h172.5a4,4,0,0,0,4-4V68A4,4,0,0,0,193.937,64Zm-4,120H25.437V72h164.5Z" fill="#5f266d"/><path d="M229.563,104H212.937V58a9.01,9.01,0,0,0-9-9H11.437a9.01,9.01,0,0,0-9,9V198a9.01,9.01,0,0,0,9,9h192.5a9.01,9.01,0,0,0,9-9V152h16.626a24,24,0,0,0,0-48Zm0,40H208.937a4,4,0,0,0-4,4v50a1,1,0,0,1-1,1H11.437a1,1,0,0,1-1-1V58a1,1,0,0,1,1-1h192.5a1,1,0,0,1,1,1v50a4,4,0,0,0,4,4h20.626a16,16,0,0,1,0,32Z" fill="#5f266d"/><path d="M40,177H58a4,4,0,0,0,4-4V159H76a4,4,0,0,0,4-4V137a4,4,0,0,0-4-4H71V123h5a4,4,0,0,0,4-4V101a4,4,0,0,0-4-4H71V83a4,4,0,0,0-4-4H49a4,4,0,0,0-4,4V97H40a4,4,0,0,0-4,4v18a4,4,0,0,0,4,4h5v14a4,4,0,0,0,4,4h5v10H40a4,4,0,0,0-4,4v18A4,4,0,0,0,40,177Zm32-62H62V105H72ZM53,87H63V97H53Zm-9,18H54v10H44Zm9,18H63v10H53Zm14,18h5v10H62V141ZM44,159H54v10H44Z" fill="#5f266d"/><path d="M138.333,159h5v14a4,4,0,0,0,4,4h18a4,4,0,0,0,4-4V159h5a4,4,0,0,0,4-4V137a4,4,0,0,0-4-4h-5V123h5a4,4,0,0,0,4-4V83a4,4,0,0,0-4-4h-18a4,4,0,0,0-4,4V97h-14a4,4,0,0,0-4,4v18a4,4,0,0,0,4,4h5v10h-5a4,4,0,0,0-4,4v18A4,4,0,0,0,138.333,159Zm23,10h-10V159h10Zm9-18h-10V141h10Zm0-36h-10V105h10Zm-10-28h10V97h-10Zm-18,18h10v10h-10Zm9,18h10v10h-10Zm-9,18h10v10h-10Z" fill="#5f266d"/><path d="M89.167,141h5v32a4,4,0,0,0,4,4h18a4,4,0,0,0,4-4V141h5a4,4,0,0,0,4-4V119a4,4,0,0,0-4-4h-5V105h5a4,4,0,0,0,4-4V83a4,4,0,0,0-4-4h-36a4,4,0,0,0-4,4v18a4,4,0,0,0,4,4h5v10h-5a4,4,0,0,0-4,4v18A4,4,0,0,0,89.167,141Zm23,28h-10V159h10Zm0-18h-10V141h10Zm9-18h-10V123h10Zm0-36h-10V87h10Zm-28-10h10V97h-10Zm9,18h10v10h-10Zm-9,18h10v10h-10Z" fill="#5f266d"/><path d="M214,129.667h-4a4,4,0,0,0,0,8h4a4,4,0,0,0,0-8Z" fill="#5f266d"/><path d="M229.667,129.667H229a4,4,0,0,0,0,8h.667a4,4,0,0,0,0-8Z" fill="#5f266d"/></svg>