<svg xmlns="http://www.w3.org/2000/svg" viewBox="0 0 256 256"><title>Foodies Expanded</title><path d="M198.045,149.967c-2.275-.206-4.563-.315-6.851-.315a75.966,75.966,0,0,0-24.284,3.983,74.233,74.233,0,0,0-9.139,3.753L110.04,180.739,30.168,137.4a15.308,15.308,0,1,0-15.252,26.547L93.879,236.29c.048.037.1.085.145.121a28.238,28.238,0,0,0,27.08,3.741l63.819-24.1a44.719,44.719,0,0,1,33.58,2.07V154.749A76.372,76.372,0,0,0,198.045,149.967Z" fill="#ffbb98"/><rect x="218.507" y="139.243" width="30.26" height="90.39" rx="5.48" ry="5.48" fill="#5fcdff"/><rect x="233.507" y="139.243" width="15.26" height="90.39" rx="5.48" ry="5.48" fill="#30b6ff"/><path d="M198.045,149.967c-2.275-.206-4.563-.315-6.851-.315a75.966,75.966,0,0,0-24.284,3.983,74.233,74.233,0,0,0-9.139,3.753L110.04,180.739l-7.566,3.7a14.2,14.2,0,0,0-7.808,12.687,14.216,14.216,0,0,0,20.6,12.686l58.6-28.665a87.161,87.161,0,0,1,37.808-6.157l6.826.548V154.749A76.372,76.372,0,0,0,198.045,149.967Z" fill="#ffcaa6"/><rect x="52.404" y="98.894" width="151.134" height="26.745" rx="6.22" ry="6.22" fill="#796e84"/><path d="M127.971,39.5h0a58.877,58.877,0,0,1,58.877,58.877v.521a0,0,0,0,1,0,0H69.095a0,0,0,0,1,0,0v-.521A58.877,58.877,0,0,1,127.971,39.5Z" fill="#87828e"/><path d="M186.854,98.372v.522h-18.66v-.522a58.858,58.858,0,0,0-49.546-58.13,57.6,57.6,0,0,1,9.317-.746h.013A58.876,58.876,0,0,1,186.854,98.372Z" fill="#796e84"/><path d="M77.287,125.639H58.628a6.223,6.223,0,0,1-6.22-6.22v-14.3a6.222,6.222,0,0,1,6.22-6.22H77.287a6.222,6.222,0,0,0-6.22,6.22v14.3A6.223,6.223,0,0,0,77.287,125.639Z" fill="#87828e"/><path d="M137.307,40.242a58.868,58.868,0,0,0-49.558,58.13v.522H69.09v-.522A58.875,58.875,0,0,1,127.965,39.5h.013A57.752,57.752,0,0,1,137.307,40.242Z" fill="#a4a4a5"/><path d="M203.535,105.114v14.3a6.223,6.223,0,0,1-6.22,6.22H178.656a6.223,6.223,0,0,0,6.22-6.22v-14.3a6.222,6.222,0,0,0-6.22-6.22h18.659A6.222,6.222,0,0,1,203.535,105.114Z" fill="#796e84"/><path d="M243.287,135.242h-19.3a9.491,9.491,0,0,0-9.48,9.481v4.424a79.642,79.642,0,0,0-16.1-3.164c-28.324-2.555-39.634,6.866-88.286,30.249l-77.962-42.3A19.337,19.337,0,0,0,5.8,141.061c-5.035,8.754-2.535,18.679,6.52,25.93l78.862,72.248c.057.053.116.1.175.153.074.062.186.154.246.2a31.868,31.868,0,0,0,19.321,6.414c8.014,0,6.124-.043,75.346-26.187a40.619,40.619,0,0,1,28.242.919v3.415a9.491,9.491,0,0,0,9.48,9.481h19.3a9.49,9.49,0,0,0,9.479-9.481V144.723A9.49,9.49,0,0,0,243.287,135.242ZM214.5,212.2c-11.107-3.687-22.918-2.877-30.994.108l-63.819,24.1a24.4,24.4,0,0,1-23.176-3.131L17.618,161c-.07-.064-.142-.126-.216-.185-2.837-2.251-8.971-8.292-4.672-15.766a11.33,11.33,0,0,1,15.532-4.132l72.963,39.59-.624.3c-16.909,8.572-11.065,34.458,8.319,34.458,5.658,0,2.283.916,67.845-31.1a4,4,0,0,0-3.509-7.19L113.421,206.2c-7.968,3.986-17.157-3.58-14.331-12.272a10.152,10.152,0,0,1,5.052-5.944c57.629-27.691,67.247-36.39,93.544-34.029a72.4,72.4,0,0,1,16.818,3.6Zm30.262,11.952a1.482,1.482,0,0,1-1.479,1.481h-19.3a1.482,1.482,0,0,1-1.48-1.481V144.723a1.482,1.482,0,0,1,1.48-1.481h19.3a1.482,1.482,0,0,1,1.479,1.481Z" fill="#5f266d"/><path d="M58.624,129.639h138.7a10.232,10.232,0,0,0,10.22-10.22v-14.3A10.231,10.231,0,0,0,197.319,94.9h-6.571a62.957,62.957,0,0,0-58.776-59.258V18.349c0-.121-.026-.235-.036-.354h13.387a4,4,0,0,0,0-8h-34.7a4,4,0,1,0,0,8h13.387c-.01.119-.035.233-.035.354V35.637A62.957,62.957,0,0,0,65.195,94.9H58.624A10.231,10.231,0,0,0,48.4,105.114v14.3A10.232,10.232,0,0,0,58.624,129.639ZM127.972,43.5a54.95,54.95,0,0,1,54.767,51.4H73.2A54.951,54.951,0,0,1,127.972,43.5ZM56.4,105.114a2.222,2.222,0,0,1,2.22-2.219h138.7a2.222,2.222,0,0,1,2.22,2.219v14.3a2.223,2.223,0,0,1-2.22,2.22H58.624a2.223,2.223,0,0,1-2.22-2.22Z" fill="#5f266d"/></svg>