<svg xmlns="http://www.w3.org/2000/svg" viewBox="0 0 256 256"><title>Foodies Expanded</title><rect x="6.504" y="189.266" width="242.991" height="22.121" rx="10.667" ry="10.667" fill="#b76c6c"/><path d="M121.74,132.52a17.631,17.631,0,0,0,16.94,17.61v39.13H21.54V87.67a5.183,5.183,0,0,1,5.18-5.19H46.36a5.16,5.16,0,0,1,4.88,3.47,16.85,16.85,0,0,0,31.82,0,5.16,5.16,0,0,1,4.88-3.47H133.5a5.183,5.183,0,0,1,5.18,5.19v27.24A17.618,17.618,0,0,0,121.74,132.52Z" fill="#f9d335"/><rect x="163.256" y="141.048" width="57.254" height="48.214" fill="#ffbb98"/><rect x="185.377" y="92.831" width="57.254" height="48.214" fill="#ffbb98"/><rect x="173.452" y="44.613" width="57.254" height="48.214" fill="#ffbb98"/><path d="M41.72,82.48a5.183,5.183,0,0,0-5.18,5.19V189.26h-15V87.67a5.183,5.183,0,0,1,5.18-5.19Z" fill="#f9e27d"/><rect x="163.26" y="141.05" width="15" height="48.21" fill="#ffcaa6"/><rect x="185.38" y="92.83" width="15" height="48.21" fill="#ffcaa6"/><rect x="173.45" y="44.61" width="15" height="48.22" fill="#ffcaa6"/><rect x="205.51" y="141.05" width="15" height="48.21" fill="#ffaa80"/><rect x="227.63" y="92.83" width="15" height="48.21" fill="#ffaa80"/><rect x="215.71" y="44.61" width="15" height="48.22" fill="#ffaa80"/><path d="M121.74,132.52a17.631,17.631,0,0,0,16.94,17.61v39.13h-15V150.13a17.623,17.623,0,0,1,0-35.22V87.67a5.183,5.183,0,0,0-5.18-5.19h15a5.183,5.183,0,0,1,5.18,5.19v27.24A17.618,17.618,0,0,0,121.74,132.52Z" fill="#f2c300"/><path d="M238.829,185.266H224.51V145.044h18.122a4,4,0,0,0,4-4V92.831a4,4,0,0,0-4-4h-7.925V44.613a4,4,0,0,0-4-4H173.452a4,4,0,0,0-4,4V92.827a4,4,0,0,0,4,4h7.925v40.221H163.256a4,4,0,0,0-4,4v44.218H142.679V150.13a4,4,0,0,0-3.846-4,13.623,13.623,0,0,1,0-27.226,4,4,0,0,0,3.851-4V87.67a9.2,9.2,0,0,0-9.179-9.19H87.94a9.164,9.164,0,0,0-8.656,6.148,12.85,12.85,0,0,1-24.264.014,9.168,9.168,0,0,0-8.66-6.162H26.719a9.2,9.2,0,0,0-9.179,9.19v97.6h-.369c-7.5,0-14.667,5.722-14.667,15.454a14.683,14.683,0,0,0,14.667,14.667H238.829c7.5,0,14.667-5.725,14.667-15.455A14.683,14.683,0,0,0,238.829,185.266Zm-.2-88.435v40.213H189.377V96.831Zm-61.18-8V48.613h49.255V88.827Zm-10.2,56.221H216.51v40.214H167.256ZM25.54,87.67a1.186,1.186,0,0,1,1.179-1.19H46.36a1.164,1.164,0,0,1,1.1.785,20.851,20.851,0,0,0,39.378-.006,1.162,1.162,0,0,1,1.1-.779H133.5a1.186,1.186,0,0,1,1.179,1.19V111.4a21.637,21.637,0,0,0,0,42.241V185.26H25.54ZM238.829,207.387H17.171c-8.9,0-8.9-14.121,0-14.121H238.829C247.82,193.266,247.56,207.387,238.829,207.387Z" fill="#5f266d"/><path d="M41.934,141.048a7.777,7.777,0,1,0,7.777,7.777A7.777,7.777,0,0,0,41.934,141.048Z" fill="#5f266d"/><path d="M100,95.184a7.778,7.778,0,1,0,7.777,7.777A7.777,7.777,0,0,0,100,95.184Z" fill="#5f266d"/><circle cx="64.574" cy="159.094" r="7.777" transform="translate(-24.65 12.398) rotate(-9.217)" fill="#5f266d"/><path d="M116.075,156.6a7.777,7.777,0,1,0,7.777,7.777A7.777,7.777,0,0,0,116.075,156.6Z" fill="#5f266d"/><circle cx="59.842" cy="128" r="7.777" fill="#5f266d"/><path d="M216.483,110.81h12a4,4,0,0,0,0-8h-12a4,4,0,0,0,0,8Z" fill="#5f266d"/><path d="M199.525,110.81h1.958a4,4,0,0,0,0-8h-1.958a4,4,0,0,0,0,8Z" fill="#5f266d"/></svg>