<svg xmlns="http://www.w3.org/2000/svg" viewBox="0 0 256 256"><title>Foodies Expanded</title><circle cx="128" cy="128" r="113.633" fill="#b76c6c"/><circle cx="128" cy="128" r="89.834" fill="#ffe2e2"/><circle cx="102.5" cy="72.899" r="10.833" fill="#ff4a73"/><circle cx="75.202" cy="98.805" r="10.833" fill="#ff4a73"/><circle cx="112.018" cy="109.639" r="10.833" fill="#ff4a73"/><circle cx="73.421" cy="148.237" r="10.833" fill="#ff4a73"/><circle cx="95.088" cy="181.842" r="10.833" fill="#ff4a73"/><circle cx="121.481" cy="149.859" r="10.833" fill="#ff4a73"/><rect x="135.667" y="79" width="49.667" height="23.667" transform="translate(-17.22 140.095) rotate(-45)" fill="#f9d335"/><rect x="137.593" y="110.542" width="49.667" height="23.667" transform="translate(-38.958 150.696) rotate(-45)" fill="#f9d335"/><path d="M135.5,217.52q-3.7.315-7.5.31a89.83,89.83,0,0,1,0-179.66q3.8,0,7.5.31a89.834,89.834,0,0,0,0,179.04Z" fill="#ffefee"/><path d="M217.83,128A89.832,89.832,0,0,1,128,217.83q-3.8,0-7.5-.31a89.834,89.834,0,0,0,0-179.04q3.7-.315,7.5-.31A89.832,89.832,0,0,1,217.83,128Z" fill="#ffcfcf"/><path d="M128,10.367A117.633,117.633,0,1,0,245.633,128,117.766,117.766,0,0,0,128,10.367Zm0,227.266A109.633,109.633,0,1,1,237.633,128,109.757,109.757,0,0,1,128,237.633Z" fill="#5f266d"/><path d="M128,34.167A93.833,93.833,0,1,0,221.834,128,93.94,93.94,0,0,0,128,34.167Zm0,179.666A85.833,85.833,0,1,1,213.834,128,85.93,85.93,0,0,1,128,213.833Z" fill="#5f266d"/><path d="M148.456,188.371a63.979,63.979,0,0,1-10.662,2.589c-5.18.795-4.067,8.724,1.213,7.907a71.983,71.983,0,0,0,12-2.913,4,4,0,0,0-2.551-7.583Z" fill="#5f266d"/><path d="M184.981,165.4a4,4,0,0,0-5.611.713,66.912,66.912,0,0,1-18.141,16.318,4,4,0,0,0,2.081,7.419c3.17,0,14.82-9.075,22.384-18.838A4,4,0,0,0,184.981,165.4Z" fill="#5f266d"/><path d="M102.5,87.732A14.834,14.834,0,1,0,87.667,72.9,14.85,14.85,0,0,0,102.5,87.732Zm0-21.667A6.834,6.834,0,1,1,95.667,72.9,6.841,6.841,0,0,1,102.5,66.065Z" fill="#5f266d"/><path d="M75.2,113.639A14.834,14.834,0,1,0,60.368,98.805,14.851,14.851,0,0,0,75.2,113.639Zm0-21.667a6.834,6.834,0,1,1-6.833,6.833A6.841,6.841,0,0,1,75.2,91.972Z" fill="#5f266d"/><path d="M97.185,109.639a14.834,14.834,0,1,0,14.834-14.834A14.851,14.851,0,0,0,97.185,109.639Zm21.667,0a6.834,6.834,0,1,1-6.833-6.834A6.842,6.842,0,0,1,118.852,109.639Z" fill="#5f266d"/><path d="M88.254,148.237A14.833,14.833,0,1,0,73.421,163.07,14.85,14.85,0,0,0,88.254,148.237ZM73.421,155.07a6.833,6.833,0,1,1,6.833-6.833A6.84,6.84,0,0,1,73.421,155.07Z" fill="#5f266d"/><path d="M95.088,167.009a14.834,14.834,0,1,0,14.833,14.833A14.85,14.85,0,0,0,95.088,167.009Zm0,21.667a6.834,6.834,0,1,1,6.833-6.834A6.841,6.841,0,0,1,95.088,188.676Z" fill="#5f266d"/><path d="M121.481,135.025a14.834,14.834,0,1,0,14.833,14.834A14.851,14.851,0,0,0,121.481,135.025Zm0,21.667a6.834,6.834,0,1,1,6.833-6.833A6.841,6.841,0,0,1,121.481,156.692Z" fill="#5f266d"/><path d="M191.182,110.354l-13.9-13.9L189.256,84.47a4,4,0,0,0,0-5.657L172.521,62.078a4,4,0,0,0-5.657,0L131.744,97.2a4,4,0,0,0,0,5.657L145.65,116.76l-11.979,11.979a4,4,0,0,0,0,5.657l16.735,16.735a4,4,0,0,0,5.657,0l35.119-35.12A4,4,0,0,0,191.182,110.354Zm-50.953-10.328,29.463-29.463,11.079,11.078L168.8,93.613l-.008.006L151.307,111.1Zm13,42.62-11.078-11.079L154.128,119.6l.008-.007,17.484-17.484L182.7,113.183Z" fill="#5f266d"/></svg>