<svg xmlns="http://www.w3.org/2000/svg" viewBox="0 0 256 256"><title>Foodies Expanded</title><rect x="6.254" y="192.837" width="242.991" height="22.121" rx="10.667" ry="10.667" fill="#ffe2e2"/><path d="M99.749,117.752h0A72.247,72.247,0,0,1,159.6,149.473a13.4,13.4,0,0,0,11.1,5.821h11.37a37.543,37.543,0,0,1,37.542,37.543H27.416v-2.752A72.334,72.334,0,0,1,99.749,117.752Z" fill="#b76c6c"/><path d="M107.189,118.142a72.339,72.339,0,0,0-64.77,71.94v2.75h-15v-2.75a72.326,72.326,0,0,1,72.33-72.33A70.441,70.441,0,0,1,107.189,118.142Z" fill="#c98585"/><path d="M219.609,192.832h-15a37.537,37.537,0,0,0-37.539-37.54H155.7a13.376,13.376,0,0,1-11.091-5.82,72.288,72.288,0,0,0-52.42-31.33,72.442,72.442,0,0,1,67.42,31.33,13.376,13.376,0,0,0,11.091,5.82h11.37A37.537,37.537,0,0,1,219.609,192.832Z" fill="#965959"/><path d="M246.284,59.838a11.751,11.751,0,0,0-12.795-2.551A11.775,11.775,0,1,0,216.015,62.5l-46.229,46.23,12.256,12.256,46.23-46.229a11.747,11.747,0,1,0,18.012-14.923Z" fill="#ffe2e2"/><path d="M177.848,93.419l-.308.307a33.6,33.6,0,0,1-23.487,10.08,32.8,32.8,0,1,0,32.909,33.537,34.672,34.672,0,0,1,9.892-23.911l.5-.5a13.8,13.8,0,0,0,0-19.51h0A13.794,13.794,0,0,0,177.848,93.419Z" fill="#b76c6c"/><path d="M197.359,112.932l-.51.5a34.683,34.683,0,0,0-9.889,23.91,32.8,32.8,0,0,1-40.3,31.19,32.779,32.779,0,0,0,25.3-31.19,34.683,34.683,0,0,1,9.889-23.91l.51-.5a13.83,13.83,0,0,0-2.25-21.34,13.8,13.8,0,0,1,17.25,21.34Z" fill="#965959"/><path d="M195.109,91.592a13.935,13.935,0,0,0-2.26,1.83l-.31.3a33.588,33.588,0,0,1-23.49,10.08,32.8,32.8,0,0,0-7.39,64.73,32.8,32.8,0,1,1-7.61-64.73,33.588,33.588,0,0,0,23.49-10.08l.31-.3a13.818,13.818,0,0,1,17.26-1.83Z" fill="#c98585"/><path d="M238.579,188.837H223.414a41.612,41.612,0,0,0-35.673-37.148,36.7,36.7,0,0,0,3.22-14.256,30.639,30.639,0,0,1,8.721-21.172,17.814,17.814,0,0,0,5.7-12.957L228.2,80.491a15.629,15.629,0,0,0,9.781,3.4h.009c13.853-.007,21.1-16.923,11.125-26.877A15.67,15.67,0,0,0,238.383,52.4c-.338-13.7-17.085-20.539-26.891-10.733a15.775,15.775,0,0,0-1.211,20.919l-22.8,22.8a17.72,17.72,0,0,0-12.77,5.514,29.775,29.775,0,0,1-20.671,8.909,36.539,36.539,0,0,0-31.185,17.51,76.356,76.356,0,0,0-99.4,71.52H16.92c-7.5,0-14.666,5.725-14.666,15.455A14.682,14.682,0,0,0,16.92,218.958H238.579c7.5,0,14.667-5.722,14.667-15.454A14.683,14.683,0,0,0,238.579,188.837ZM218.847,65.33a4,4,0,0,0-.606-6.154,7.116,7.116,0,0,1-1.092-.892,7.752,7.752,0,1,1,12.643-2.519,4,4,0,0,0,5.225,5.224A7.747,7.747,0,1,1,232.5,73.624c-1-1-1.585-2.642-3.874-2.847a4,4,0,0,0-3.183,1.157l-22.409,22.41a17.4,17.4,0,0,0-6.594-6.6Zm-64.78,42.477c9.166-.033,18.765-3.717,26.608-11.56a9.791,9.791,0,0,1,13.855,0c3.469,3.47,4.334,9.519-.5,14.357a38.6,38.6,0,0,0-11.063,26.651c-.576,25.841-32.877,38.224-50.417,18.359C116.468,137.4,129.161,107.892,154.067,107.807ZM99.749,121.752a68.057,68.057,0,0,1,19.681,2.893,36.76,36.76,0,0,0,63.688,34.671,33.59,33.59,0,0,1,32.255,29.516H31.431A68.412,68.412,0,0,1,99.749,121.752Zm138.83,89.206H16.92c-8.763,0-8.959-14.121,0-14.121H238.579C247.479,196.837,247.481,210.958,238.579,210.958Z" fill="#5f266d"/><path d="M91.732,134.579a43.24,43.24,0,0,0-11.217,2.546,4,4,0,0,0,2.78,7.5,35.2,35.2,0,0,1,9.139-2.079,4,4,0,0,0-.7-7.969Z" fill="#5f266d"/><path d="M66.455,145.15a63.9,63.9,0,0,0-13.779,14.983c-2.809,4.566,4.08,8.636,6.814,4.193a56.052,56.052,0,0,1,11.919-12.894,4,4,0,0,0-4.954-6.282Z" fill="#5f266d"/></svg>