<svg xmlns="http://www.w3.org/2000/svg" viewBox="0 0 256 256"><title>Foodies Expanded</title><path d="M61.782,228.49a215.888,215.888,0,0,0,64.12-1.23v18.36a5,5,0,0,1-5,5H13.532a5,5,0,0,1-5-5V115.07a4.954,4.954,0,0,1,1.83-3.86l30.15,36.63a4.993,4.993,0,0,0,5.99,1.39l78.43-37.11a4.921,4.921,0,0,1,.97,2.95v94.84C106.152,222.51,84.122,230.66,61.782,228.49Z" fill="#f9d335"/><path d="M115.162,10.38v99.69H19.282V10.38a5,5,0,0,1,5-5h85.88A5,5,0,0,1,115.162,10.38Z" fill="#b76c6c"/><path d="M124.932,112.12,46.5,149.23a4.993,4.993,0,0,1-5.99-1.39l-30.15-36.63a4.976,4.976,0,0,1,3.17-1.14H120.9A4.944,4.944,0,0,1,124.932,112.12Z" fill="#87828e"/><path d="M28.53,250.62h-15a5,5,0,0,1-5-5V115.07a4.954,4.954,0,0,1,1.83-3.86l13.17,16V245.62A5,5,0,0,0,28.53,250.62Z" fill="#f9e27d"/><path d="M39.28,5.38a5,5,0,0,0-5,5v99.69h-15V10.38a5,5,0,0,1,5-5Z" fill="#c98585"/><path d="M115.16,10.38v99.69h-15V10.38a5,5,0,0,0-5-5h15A5,5,0,0,1,115.16,10.38Z" fill="#965959"/><path d="M124.93,112.12l-14.03,6.64V245.62a5,5,0,0,1-5,5h15a5,5,0,0,0,5-5V115.07A4.921,4.921,0,0,0,124.93,112.12Z" fill="#f2c300"/><path d="M233.262,157.44a158.4,158.4,0,0,1-11.45,15.74L216.082,152a5.188,5.188,0,0,0-4.57-3.81l-21.62-1.01c3.06-4.33,5.62-8.29,7.62-11.7a20.981,20.981,0,1,1,35.75,21.96Z" fill="#44c7b6"/><path d="M221.81,173.18c-28.02,34.03-64.16,48.53-95.91,54.08a215.888,215.888,0,0,1-64.12,1.23,76.669,76.669,0,0,0,14.92-.03c16.62-1.62,32.81-8.33,47.74-17.64.49-.3.97-.6,1.46-.91,27.47-17.53,50.54-43.68,63.99-62.73l14.52.68,7.1.33a5.188,5.188,0,0,1,4.57,3.81Z" fill="#ff4a73"/><path d="M53.81,145.77l-7.31,3.46a4.993,4.993,0,0,1-5.99-1.39L10.36,111.21a4.976,4.976,0,0,1,3.17-1.14H28.5a1.96,1.96,0,0,0-1.42,3.22Z" fill="#a4a4a5"/><path d="M223.03,126.57a20.714,20.714,0,0,0-10.52,8.91c-1.8,3.08-5.23,8.23-8.13,12.38l-14.49-.68c3.06-4.33,5.62-8.29,7.62-11.7a20.917,20.917,0,0,1,25.52-8.91Z" fill="#4bdbc3"/><path d="M204.41,147.86c-13.52,18.99-36.37,44.73-63.51,62.05-19.75,12.6-41.78,20.75-64.12,18.58l-.08-.03c16.62-1.62,32.81-8.33,47.74-17.64.49-.3.97-.6,1.46-.91,27.47-17.53,50.54-43.68,63.99-62.73Z" fill="#f973a3"/><path d="M250.152,106.22a4,4,0,0,0-5.649.28l-16.377,18.084c-.415-.241-.836-.474-1.266-.692a24.965,24.965,0,0,0-32.8,9.565C183.615,151.268,159,182,129.9,202.415V115.07a9.02,9.02,0,0,0-9-9h-1.74V10.38a9.01,9.01,0,0,0-9-9H24.282a9.01,9.01,0,0,0-9,9v95.69h-1.75a9.01,9.01,0,0,0-9,9V245.62a9.01,9.01,0,0,0,9,9H120.9a9.01,9.01,0,0,0,9-9V230.588c46.606-8.957,82.618-33.3,106.731-70.993v0a24.947,24.947,0,0,0-2.328-29.916l16.127-17.807A4,4,0,0,0,250.152,106.22ZM43.6,145.3,17.9,114.07H111.46L44.812,145.6A1,1,0,0,1,43.6,145.3ZM71.223,106.07V61.725h39.939V106.07Zm39.939-95.69V53.725H71.223V9.38h38.939A1,1,0,0,1,111.162,10.38Zm-86.88-1H63.223V53.725H23.282V10.38A1,1,0,0,1,24.282,9.38Zm-1,52.345H63.223V106.07H23.282Zm98.62,183.9a1,1,0,0,1-1,1H13.532a1,1,0,0,1-1-1V120.14L37.4,150.355a9.007,9.007,0,0,0,10.812,2.491L121.9,117.979v89.7C102.712,219.565,84.277,226,62.061,224.509c-5.109-.367-5.9,7.268-.808,7.947a222.735,222.735,0,0,0,60.649-.494ZM103.71,225.859a141.682,141.682,0,0,0,24.344-12.577l.016-.012c31.991-20.421,55.631-50.692,63.807-61.992l19.349.9a1.18,1.18,0,0,1,.993.864l5.186,19.17C188.342,206.561,148.073,223.016,103.71,225.859Zm126.183-70.574c-2.017,3.153-4.124,6.211-6.3,9.146l-3.651-13.492a9.223,9.223,0,0,0-8.095-6.735l-.145-.01-14.474-.676q2.051-3.138,3.738-6.015a16.982,16.982,0,0,1,30.988,4.216A16.732,16.732,0,0,1,229.893,155.285Z" fill="#5f266d"/><path d="M105.968,174.48a4,4,0,0,0,4-4v-13a4,4,0,0,0-8,0v13A4,4,0,0,0,105.968,174.48Z" fill="#5f266d"/><path d="M105.968,192.88a4,4,0,0,0,4-4v-3.4a4,4,0,0,0-8,0v3.4A4,4,0,0,0,105.968,192.88Z" fill="#5f266d"/></svg>