<svg xmlns="http://www.w3.org/2000/svg" viewBox="0 0 256 256"><title>Foodies Expanded</title><path d="M128,65.271v153.8H4.96V65.271c0-15.68,27.55-28.38,61.52-28.38S128,49.591,128,65.271Z" fill="#ffe2e2"/><path d="M73.98,37.1c-30.44,1.71-54.02,13.66-54.02,28.17v153.8h-15V65.271c0-15.68,27.55-28.38,61.52-28.38Q70.29,36.891,73.98,37.1Z" fill="#ffefee"/><path d="M128,65.271v153.8H113V65.271c0-14.51-23.58-26.46-54.02-28.17q3.69-.21,7.5-.21C100.45,36.891,128,49.591,128,65.271Z" fill="#ffcfcf"/><path d="M251.04,65.271v153.8H128V65.271c0-15.68,27.55-28.38,61.52-28.38S251.04,49.591,251.04,65.271Z" fill="#ffe2e2"/><path d="M128,217.978c0,.359-.017.735-.051,1.094H5.013c-.034-.359-.052-.735-.052-1.094,0-15.67,27.547-28.384,61.52-28.384S128,202.308,128,217.978Z" fill="#ffcfcf"/><rect x="21.489" y="134.131" width="92.391" height="16.35" rx="5" ry="5" fill="#796e84"/><path d="M67.685,97.82h0a35.992,35.992,0,0,1,35.992,35.992v.319a0,0,0,0,1,0,0H31.692a0,0,0,0,1,0,0v-.319A35.992,35.992,0,0,1,67.685,97.82Z" fill="#87828e"/><path d="M197.02,37.1C166.58,38.811,143,50.761,143,65.271v153.8H128V65.271c0-15.68,27.55-28.38,61.52-28.38Q193.33,36.891,197.02,37.1Z" fill="#ffefee"/><path d="M251.04,65.271v153.8h-15V65.271c0-14.51-23.58-26.46-54.02-28.17q3.69-.21,7.5-.21C223.49,36.891,251.04,49.591,251.04,65.271Z" fill="#ffcfcf"/><path d="M251.038,217.978c0,.359-.017.735-.051,1.094H128.051c-.034-.359-.051-.735-.051-1.094,0-15.67,27.547-28.384,61.519-28.384S251.038,202.308,251.038,217.978Z" fill="#ffcfcf"/><path d="M189.52,32.89c-28.612,0-52.4,8.628-61.52,21.021C118.876,41.518,95.092,32.89,66.48,32.89,29.741,32.89.962,47.115.962,65.274v153.8a3.964,3.964,0,0,0,2.09,3.473c1.4.777-3.764.527,124.9.527h123.09a4,4,0,0,0,4-4V65.274C255.038,47.115,226.259,32.89,189.52,32.89ZM9.447,215.072c3.529-10.682,25.965-21.478,57.033-21.478s53.506,10.8,57.035,21.478ZM124,202.243c-11.027-10-32.411-16.649-57.52-16.649S19.989,192.24,8.962,202.243V65.274c0-11.533,23.622-24.384,57.518-24.384S124,53.741,124,65.274Zm8.485,12.829c3.529-10.682,25.965-21.478,57.035-21.478s53.5,10.8,57.033,21.478Zm114.553-12.829c-11.027-10-32.41-16.649-57.518-16.649S143.027,192.24,132,202.243V65.274c0-11.533,23.622-24.384,57.52-24.384s57.518,12.851,57.518,24.384Z" fill="#5f266d"/><path d="M108.881,130.131H107.5A40.06,40.06,0,0,0,71.685,94.02V86.231h6.608a4,4,0,0,0,0-8H57.077a4,4,0,0,0,0,8h6.608V94.02a40.057,40.057,0,0,0-35.816,36.111h-1.38a9.01,9.01,0,0,0-9,9v6.35a9.01,9.01,0,0,0,9,9h82.392a9.01,9.01,0,0,0,9-9v-6.35A9.01,9.01,0,0,0,108.881,130.131Zm-41.2-28.311a32.038,32.038,0,0,1,31.782,28.311H35.9A32.038,32.038,0,0,1,67.685,101.82Zm42.2,37.311v6.35a1,1,0,0,1-1,1H26.489a1,1,0,0,1-1-1v-6.35a1,1,0,0,1,1-1C114.911,138.131,109.881,137.661,109.881,139.131Z" fill="#5f266d"/><path d="M231,80.892H155a4,4,0,0,0,0,8h76a4,4,0,0,0,0-8Z" fill="#5f266d"/><path d="M231,103.981H155a4,4,0,0,0,0,8h76a4,4,0,0,0,0-8Z" fill="#5f266d"/><path d="M231,127.07H155a4,4,0,0,0,0,8h76a4,4,0,0,0,0-8Z" fill="#5f266d"/><path d="M231,150.158H155a4,4,0,0,0,0,8h76a4,4,0,0,0,0-8Z" fill="#5f266d"/><path d="M21.489,108.981a4,4,0,0,0,4-4v-4.25a4,4,0,0,0-8,0v4.25A4,4,0,0,0,21.489,108.981Z" fill="#5f266d"/><path d="M21.489,89.731a4,4,0,0,0,4-4v-14a4,4,0,0,0-8,0v14A4,4,0,0,0,21.489,89.731Z" fill="#5f266d"/></svg>