<svg xmlns="http://www.w3.org/2000/svg" viewBox="0 0 256 256"><title>Foodies Expanded</title><path d="M218.969,94.953V8.326H183.7V94.953a18.825,18.825,0,0,0-18.808,17.772c-.028.354-.035.709-.035,1.07l.032,96.95a6.947,6.947,0,0,0,6.948,6.945h59.023a6.948,6.948,0,0,0,6.948-6.948V113.8A18.839,18.839,0,0,0,218.969,94.953Z" fill="#44c7b6"/><path d="M179.89,112.72c-.03.36-.04.71-.04,1.07l.04,96.95a6.946,6.946,0,0,0,6.94,6.95h-15a6.946,6.946,0,0,1-6.94-6.95l-.04-96.95c0-.36.01-.71.04-1.07A18.829,18.829,0,0,1,183.7,94.95V8.33h15V94.95a18.829,18.829,0,0,0-18.81,17.77Z" fill="#4bdbc3"/><path d="M73.068,93.242V6.615H37.794V93.242a18.825,18.825,0,0,0-18.808,17.772c-.028.354-.035.709-.035,1.07l.032,96.95a6.947,6.947,0,0,0,6.948,6.945H84.954a6.948,6.948,0,0,0,6.948-6.948V112.084A18.838,18.838,0,0,0,73.068,93.242Z" fill="#44c7b6"/><path d="M33.99,111.01c-.03.36-.04.71-.04,1.07l.03,96.95a6.948,6.948,0,0,0,6.95,6.95h-15a6.948,6.948,0,0,1-6.95-6.95l-.03-96.95c0-.36.01-.71.04-1.07a18.829,18.829,0,0,1,18.8-17.77V6.61h15V93.24a18.829,18.829,0,0,0-18.8,17.77Z" fill="#4bdbc3"/><path d="M73.444,20.81H37.418a3,3,0,0,1-3-3V8.375a3,3,0,0,1,3-3H73.444a3,3,0,0,1,3,3V17.81A3,3,0,0,1,73.444,20.81Z" fill="#3bb2a0"/><path d="M146.018,93.242V6.615H110.744V93.242a18.825,18.825,0,0,0-18.808,17.772c-.028.354-.035.709-.035,1.07l.032,96.95a6.947,6.947,0,0,0,6.948,6.945H157.9a6.948,6.948,0,0,0,6.948-6.948V112.084A18.838,18.838,0,0,0,146.018,93.242Z" fill="#44c7b6"/><path d="M106.94,111.01c-.03.36-.04.71-.04,1.07l.03,96.95a6.948,6.948,0,0,0,6.95,6.95h-15a6.948,6.948,0,0,1-6.95-6.95l-.03-96.95c0-.36.01-.71.04-1.07a18.829,18.829,0,0,1,18.8-17.77V6.61h15V93.24a18.829,18.829,0,0,0-18.8,17.77Z" fill="#4bdbc3"/><path d="M146.394,20.81H110.368a3,3,0,0,1-3-3V8.375a3,3,0,0,1,3-3h36.026a3,3,0,0,1,3,3V17.81A3,3,0,0,1,146.394,20.81Z" fill="#3bb2a0"/><path d="M219.342,22.52H183.316a3,3,0,0,1-3-3V10.086a3,3,0,0,1,3-3h36.026a3,3,0,0,1,3,3v9.435A3,3,0,0,1,219.342,22.52Z" fill="#3bb2a0"/><path d="M6.02,128.125v112.5a10,10,0,0,0,10,10H239.98a10,10,0,0,0,10-10v-112.5Z" fill="#b76c6c"/><path d="M31.02,250.62h-15a10,10,0,0,1-10-10V128.12h15v112.5A10,10,0,0,0,31.02,250.62Z" fill="#c98585"/><path d="M249.98,128.12v112.5a10,10,0,0,1-10,10h-15a10,10,0,0,0,10-10V128.12Z" fill="#965959"/><path d="M234.98,46.805H222.97V25.5a7,7,0,0,0,3.372-5.974V10.086a7.008,7.008,0,0,0-7-7H183.316a7.008,7.008,0,0,0-7,7V19.52A7,7,0,0,0,179.7,25.5v21.3H150.022V23.786A7,7,0,0,0,153.4,17.81V8.375a7.008,7.008,0,0,0-7-7H110.37a7.008,7.008,0,0,0-7,7V17.81a7,7,0,0,0,3.372,5.975v23.02H77.07V23.786a6.993,6.993,0,0,0,3.374-5.976V8.375a7.008,7.008,0,0,0-7-7H37.418a7.008,7.008,0,0,0-7,7V17.81a7,7,0,0,0,3.372,5.975v23.02H21.02a19.022,19.022,0,0,0-19,19v174.82a14.015,14.015,0,0,0,14,14H239.98a14.015,14.015,0,0,0,14-14V65.805A19.022,19.022,0,0,0,234.98,46.805Zm11,160.574H10.02V171.371H245.98ZM10.02,163.371V132.125H245.98v31.246ZM41.79,93.24V24.81H69.07V93.24a4,4,0,0,0,4,4A14.851,14.851,0,0,1,87.9,112.08v12.045H22.95c0-3-.02-11.818.034-12.9A14.828,14.828,0,0,1,37.79,97.24,4,4,0,0,0,41.79,93.24Zm68.952,4a4,4,0,0,0,4-4V24.81h27.28V50.776c0,.01,0,.019,0,.029s0,.019,0,.029V93.24a4,4,0,0,0,4,4,14.852,14.852,0,0,1,14.83,14.84v12.045H95.9c0-.5-.016-12.283.027-12.78,0-.04.006-.079.008-.118A14.826,14.826,0,0,1,110.742,97.24ZM187.7,94.95V26.52h27.27V94.95a4,4,0,0,0,4,4A14.857,14.857,0,0,1,233.8,113.8v10.325H168.857c0-.558-.024-10.526.019-11.08,0-.036.006-.071.008-.107A14.829,14.829,0,0,1,183.7,98.95,4,4,0,0,0,187.7,94.95Zm47.28-40.145a11.012,11.012,0,0,1,11,11v58.32H241.8V113.8a22.884,22.884,0,0,0-18.83-22.5v-36.5ZM184.316,11.086h34.026V18.52H184.316ZM179.7,54.805V91.3a22.517,22.517,0,0,0-14.266,8.8,22.874,22.874,0,0,0-15.412-10.51V54.805ZM111.37,9.375H145.4V16.81H111.37Zm-4.628,45.43V89.587a22.9,22.9,0,0,0-14.852,9.6,22.864,22.864,0,0,0-14.82-9.6V54.805ZM38.418,9.375H72.444V16.81H38.418Zm-17.4,45.43H33.79V89.587A22.844,22.844,0,0,0,15,110.736c-.08,1-.049,1.181-.049,13.389H10.02V65.805A11.012,11.012,0,0,1,21.02,54.805Zm218.96,191.82H16.02a6.006,6.006,0,0,1-6-6V215.379H245.98v25.246A6.006,6.006,0,0,1,239.98,246.625Z" fill="#5f266d"/><path d="M227,187.792h3.333a4,4,0,0,0,0-8H227a4,4,0,0,0,0,8Z" fill="#5f266d"/><path d="M189,187.792h23a4,4,0,0,0,0-8H189a4,4,0,0,0,0,8Z" fill="#5f266d"/></svg>