<svg xmlns="http://www.w3.org/2000/svg" viewBox="0 0 256 256"><title>Foodies Expanded</title><path d="M243.69,18.61V83.74c-57.84,0-57.84,18.34-115.69,18.34S70.15,83.74,12.31,83.74V18.61a5.013,5.013,0,0,1,5.11-5C70.21,14.66,71.91,31.9,128,31.9s57.79-17.24,110.58-18.29A5.013,5.013,0,0,1,243.69,18.61Z" fill="#ff4a73"/><path d="M243.69,83.74v70.18c-57.84,0-57.84,18.34-115.69,18.34S70.15,153.92,12.31,153.92V83.74c57.84,0,57.84,18.34,115.69,18.34S185.85,83.74,243.69,83.74Z" fill="#ff4a73"/><path d="M243.69,83.74v19.83c-57.84,0-57.84,18.34-115.69,18.34S70.15,103.57,12.31,103.57V83.74c57.84,0,57.84,18.34,115.69,18.34S185.85,83.74,243.69,83.74Z" fill="#ffe2e2"/><path d="M243.69,153.92v65.23a4.992,4.992,0,0,1-4.89,5c-53,1-54.63,18.29-110.8,18.29S70.2,225.15,17.2,224.15a4.992,4.992,0,0,1-4.89-5V153.92c57.84,0,57.84,18.34,115.69,18.34S185.85,153.92,243.69,153.92Z" fill="#ff4a73"/><path d="M243.69,153.92v19.83c-57.84,0-57.84,18.34-115.69,18.34S70.15,173.75,12.31,173.75V153.92c57.84,0,57.84,18.34,115.69,18.34S185.85,153.92,243.69,153.92Z" fill="#ffe2e2"/><path d="M29.92,14.22a5,5,0,0,0-2.61,4.39V84.2c-4.55-.3-9.51-.46-15-.46V18.61a5.013,5.013,0,0,1,5.11-5C21.94,13.7,26.08,13.91,29.92,14.22Z" fill="#f973a3"/><path d="M243.69,18.61V83.74c-5.49,0-10.45.16-15,.46V14.03c3.09-.21,6.38-.35,9.89-.42A5.013,5.013,0,0,1,243.69,18.61Z" fill="#ea2a6a"/><path d="M29.92,14.22a5,5,0,0,0-2.61,4.39V33.85c-4.55-.29-9.51-.46-15-.46V18.61a5.013,5.013,0,0,1,5.11-5C21.042,13.676,25.475,13.859,29.92,14.22Z" fill="#ffefee"/><path d="M243.69,18.61V33.39c-5.49,0-10.45.17-15,.46V14.03c3.161-.217,7.073-.367,9.89-.42A5.013,5.013,0,0,1,243.69,18.61Z" fill="#ffcfcf"/><path d="M243.69,18.61V33.39c-57.84,0-57.84,18.34-115.69,18.34S70.15,33.39,12.31,33.39V18.61a5.013,5.013,0,0,1,5.11-5C70.21,14.66,71.91,31.9,128,31.9s57.79-17.24,110.58-18.29A5.013,5.013,0,0,1,243.69,18.61Z" fill="#ffe2e2"/><path d="M29.92,14.22a5,5,0,0,0-2.61,4.39V33.85c-4.55-.29-9.51-.46-15-.46V18.61a5.013,5.013,0,0,1,5.11-5C21.042,13.676,25.475,13.859,29.92,14.22Z" fill="#ffefee"/><path d="M243.69,18.61V33.39c-5.49,0-10.45.17-15,.46V14.03c3.161-.217,7.073-.367,9.89-.42A5.013,5.013,0,0,1,243.69,18.61Z" fill="#ffcfcf"/><path d="M243.69,88.765V153.9c-57.84,0-57.84,18.34-115.69,18.34S70.15,153.9,12.31,153.9V88.765a5.015,5.015,0,0,1,5.11-5c52.79,1.05,54.49,18.29,110.58,18.29s57.79-17.24,110.58-18.29A5.015,5.015,0,0,1,243.69,88.765Z" fill="#ff4a73"/><path d="M29.92,84.376a5,5,0,0,0-2.61,4.389v65.591c-4.55-.3-9.51-.46-15-.46V88.765a5.015,5.015,0,0,1,5.11-5C21.94,83.856,26.08,84.065,29.92,84.376Z" fill="#f973a3"/><path d="M243.69,88.765V153.9c-5.49,0-10.45.159-15,.46V84.186c3.09-.21,6.38-.35,9.89-.421A5.015,5.015,0,0,1,243.69,88.765Z" fill="#ea2a6a"/><path d="M29.92,84.376a5,5,0,0,0-2.61,4.389v15.241c-4.55-.29-9.51-.46-15-.46V88.765a5.015,5.015,0,0,1,5.11-5C21.042,83.832,25.475,84.015,29.92,84.376Z" fill="#ffefee"/><path d="M243.69,88.765v14.781c-5.49,0-10.45.17-15,.46V84.186c3.161-.218,7.073-.368,9.89-.421A5.015,5.015,0,0,1,243.69,88.765Z" fill="#ffcfcf"/><path d="M243.69,88.765v14.781c-57.84,0-57.84,18.34-115.69,18.34s-57.85-18.34-115.69-18.34V88.765a5.015,5.015,0,0,1,5.11-5c52.79,1.05,54.49,18.29,110.58,18.29s57.79-17.24,110.58-18.29A5.015,5.015,0,0,1,243.69,88.765Z" fill="#ffe2e2"/><path d="M29.92,84.376a5,5,0,0,0-2.61,4.389v15.241c-4.55-.29-9.51-.46-15-.46V88.765a5.015,5.015,0,0,1,5.11-5C21.042,83.832,25.475,84.015,29.92,84.376Z" fill="#ffefee"/><path d="M243.69,88.765v14.781c-5.49,0-10.45.17-15,.46V84.186c3.161-.218,7.073-.368,9.89-.421A5.015,5.015,0,0,1,243.69,88.765Z" fill="#ffcfcf"/><path d="M243.69,158.921v65.13c-57.84,0-57.84,18.34-115.69,18.34s-57.85-18.34-115.69-18.34v-65.13a5.013,5.013,0,0,1,5.11-5c52.79,1.05,54.49,18.29,110.58,18.29s57.79-17.24,110.58-18.29A5.013,5.013,0,0,1,243.69,158.921Z" fill="#ff4a73"/><path d="M29.92,154.531a5,5,0,0,0-2.61,4.39v65.59c-4.55-.3-9.51-.46-15-.46v-65.13a5.013,5.013,0,0,1,5.11-5C21.94,154.011,26.08,154.221,29.92,154.531Z" fill="#f973a3"/><path d="M243.69,158.921v65.13c-5.49,0-10.45.16-15,.46v-70.17c3.09-.21,6.38-.35,9.89-.42A5.013,5.013,0,0,1,243.69,158.921Z" fill="#ea2a6a"/><path d="M29.92,154.531a5,5,0,0,0-2.61,4.39v15.24c-4.55-.29-9.51-.46-15-.46v-14.78a5.013,5.013,0,0,1,5.11-5C21.441,154,25.742,154.192,29.92,154.531Z" fill="#ffefee"/><path d="M243.69,158.921V173.7c-5.49,0-10.45.17-15,.46v-19.82c3.161-.217,7.073-.368,9.89-.42A5.013,5.013,0,0,1,243.69,158.921Z" fill="#ffcfcf"/><path d="M243.69,158.921V173.7c-57.84,0-57.84,18.34-115.69,18.34S70.15,173.7,12.31,173.7v-14.78a5.013,5.013,0,0,1,5.11-5c52.79,1.05,54.49,18.29,110.58,18.29s57.79-17.24,110.58-18.29A5.013,5.013,0,0,1,243.69,158.921Z" fill="#ffe2e2"/><path d="M29.92,154.531a5,5,0,0,0-2.61,4.39v15.24c-4.55-.29-9.51-.46-15-.46v-14.78a5.013,5.013,0,0,1,5.11-5C21.441,154,25.742,154.192,29.92,154.531Z" fill="#ffefee"/><path d="M243.69,158.921V173.7c-5.49,0-10.45.17-15,.46v-19.82c3.161-.217,7.073-.368,9.89-.42A5.013,5.013,0,0,1,243.69,158.921Z" fill="#ffcfcf"/><path d="M238.5,9.61C184.932,10.677,183.372,27.9,128,27.9,72.6,27.9,71.1,10.677,17.49,9.61a9.009,9.009,0,0,0-9.18,9V224.051a4,4,0,0,0,4,4c56.977,0,57.138,18.34,115.69,18.34s58.693-18.34,115.69-18.34a4,4,0,0,0,4-4V18.61A9.013,9.013,0,0,0,238.5,9.61Zm-222.19,9a1.013,1.013,0,0,1,1.03-1C69.365,18.645,71.171,35.9,128,35.9s58.645-17.256,110.649-18.292a1.016,1.016,0,0,1,1.041,1V29.421c-54.749.83-55.9,18.31-111.69,18.31-55.893,0-56.836-17.476-111.69-18.31Zm0,18.814C69.315,38.236,70.788,55.731,128,55.731s58.685-17.5,111.69-18.307V79.771c-54.795.8-55.856,18.285-111.69,18.285-55.864,0-56.844-17.471-111.69-18.285ZM239.69,220.081c-54.749.83-55.9,18.31-111.69,18.31-55.893,0-56.836-17.476-111.69-18.31V177.735c53.005.812,54.478,18.306,111.69,18.306s58.685-17.494,111.69-18.306Zm0-50.349c-54.749.83-55.9,18.309-111.69,18.309-55.893,0-56.836-17.476-111.69-18.309V158.921a.974.974,0,0,1,.3-.706,1.25,1.25,0,0,1,.607-.273c52.074.989,53.9,18.293,110.785,18.293,56.911,0,58.705-17.321,110.871-18.294C240,158.155,239.69,158.367,239.69,169.732ZM16.31,149.926V107.579c53.005.813,54.478,18.307,111.69,18.307s58.685-17.494,111.69-18.307v42.347c-54.769.792-55.863,18.285-111.69,18.285-55.4,0-56.906-17.224-110.509-18.289-.19,0-.377.009-.565.016C16.719,149.935,16.518,149.929,16.31,149.926Zm223.38-50.35c-54.749.83-55.9,18.31-111.69,18.31-55.893,0-56.836-17.476-111.69-18.31,0-10.936-.376-11.571.87-11.789C69.314,88.769,71.094,106.08,128,106.08s58.677-17.3,110.742-18.292C240.047,87.987,239.69,87.981,239.69,99.576Z" fill="#5f266d"/><path d="M183.18,72.047c7.3-2.279,13.789-4.492,21.779-6.329a4,4,0,0,0-1.793-7.8c-8.377,1.927-15.44,4.329-22.368,6.489a4,4,0,0,0,2.382,7.637Z" fill="#5f266d"/><path d="M219.314,63.2q2.179-.267,4.507-.49a4,4,0,1,0-.758-7.965q-2.445.234-4.727.516C213.116,55.905,214.026,63.854,219.314,63.2Z" fill="#5f266d"/></svg>