<svg xmlns="http://www.w3.org/2000/svg" viewBox="0 0 256 256"><title>Foodies Expanded</title><rect x="41.495" y="52.213" width="173.01" height="151.574" fill="#b76c6c"/><path d="M8,52.213H41.495a0,0,0,0,1,0,0V203.787a0,0,0,0,1,0,0H8a2,2,0,0,1-2-2V54.213A2,2,0,0,1,8,52.213Z" fill="#965959"/><path d="M214.505,52.213H248a2,2,0,0,1,2,2V201.787a2,2,0,0,1-2,2H214.505a0,0,0,0,1,0,0V52.213A0,0,0,0,1,214.505,52.213Z" fill="#965959"/><circle cx="123.241" cy="128" r="40.806" fill="#ffe2e2"/><rect x="41.49" y="52.21" width="15" height="151.58" fill="#c98585"/><path d="M70.739,87.194h0a0,0,0,0,1,0,0V128a0,0,0,0,1,0,0H60.261a5,5,0,0,1-5-5V102.672A15.478,15.478,0,0,1,70.739,87.194Z" fill="#a4a4a5"/><path d="M130.74,168.12a40.81,40.81,0,1,1,0-80.24,40.816,40.816,0,0,0,0,80.24Z" fill="#ffefee"/><path d="M164.05,128a40.835,40.835,0,0,1-48.31,40.12,40.816,40.816,0,0,0,0-80.24A40.835,40.835,0,0,1,164.05,128Z" fill="#ffcfcf"/><rect x="199.51" y="52.21" width="15" height="151.58" fill="#965959"/><path d="M248,48.213H8a6.006,6.006,0,0,0-6,6V201.787a6.006,6.006,0,0,0,6,6H248a6.006,6.006,0,0,0,6-6V54.213A6.006,6.006,0,0,0,248,48.213Zm-238,8H37.495V199.787H10Zm35.495,0h165.01V199.787H45.5ZM246,199.787h-27.5V56.213H246Z" fill="#5f266d"/><path d="M23.748,98.078a4,4,0,0,0-4,4v51.844a4,4,0,0,0,8,0V102.078A4,4,0,0,0,23.748,98.078Z" fill="#5f266d"/><path d="M232.252,157.922a4,4,0,0,0,4-4V102.078a4,4,0,0,0-8,0v51.844A4,4,0,0,0,232.252,157.922Z" fill="#5f266d"/><path d="M123.241,83.194A44.806,44.806,0,1,0,168.047,128,44.857,44.857,0,0,0,123.241,83.194Zm0,81.612A36.806,36.806,0,1,1,160.047,128,36.848,36.848,0,0,1,123.241,164.806Z" fill="#5f266d"/><path d="M126.882,147.472a20.041,20.041,0,0,1-3.641.334,4,4,0,0,0,0,8,27.938,27.938,0,0,0,5.106-.47,4,4,0,0,0-1.465-7.864Z" fill="#5f266d"/><path d="M143.047,128a19.723,19.723,0,0,1-5.4,13.58,4,4,0,1,0,5.819,5.489A27.686,27.686,0,0,0,151.047,128a4,4,0,0,0-8,0Z" fill="#5f266d"/><path d="M199.591,83.194a4,4,0,0,0-4,4v28.057c0,.249-.758,1-2.136,1h-1.788V87.194a4,4,0,1,0-8,0v29.057h-1.789c-1.378,0-2.135-.751-2.135-1V87.194a4,4,0,0,0-8,0v28.057c0,4.963,4.547,9,10.135,9h1.789v44.555a4,4,0,0,0,8,0V124.251h1.788c5.589,0,10.136-4.037,10.136-9V87.194A4,4,0,0,0,199.591,83.194Z" fill="#5f266d"/><path d="M70.739,83.194a19.5,19.5,0,0,0-19.478,19.478V123a9.01,9.01,0,0,0,9,9h6.478v36.806a4,4,0,0,0,8,0V87.194A4,4,0,0,0,70.739,83.194ZM59.261,123V102.672a11.5,11.5,0,0,1,7.478-10.759V124H60.261A1,1,0,0,1,59.261,123Z" fill="#5f266d"/></svg>