<svg xmlns="http://www.w3.org/2000/svg" viewBox="0 0 256 256"><title>Foodies Expanded</title><rect x="41.706" y="6" width="148.096" height="214.5" rx="4.952" ry="4.952" fill="#87828e"/><rect x="26.161" y="57.202" width="179.186" height="112.097" transform="translate(229.005 -2.504) rotate(90)" fill="#ffe2e2"/><path d="M67.605,220.5H90.244a0,0,0,0,1,0,0V245a5,5,0,0,1-5,5H72.605a5,5,0,0,1-5-5V220.5A0,0,0,0,1,67.605,220.5Z" fill="#965959"/><path d="M141.265,220.5H163.9a0,0,0,0,1,0,0V245a5,5,0,0,1-5,5H146.265a5,5,0,0,1-5-5V220.5A0,0,0,0,1,141.265,220.5Z" fill="#965959"/><rect x="59.71" y="23.66" width="15" height="179.18" fill="#ffefee"/><rect x="156.8" y="23.66" width="15" height="179.18" fill="#ffcfcf"/><path d="M115.755,92.493c-10.309,0-19.672-2.7-27.078-7.8A35.765,35.765,0,0,1,74.135,64.243c-1.2-4.688,1.243-9.569,5.453-10.9s8.6,1.385,9.793,6.072c1.963,7.681,10.879,15.431,26.374,15.431,14.007,0,24.326-5.913,26.287-15.064,1.017-4.741,5.293-7.668,9.55-6.535s6.885,5.892,5.869,10.633C153.734,81.261,137.363,92.493,115.755,92.493Z" fill="#ff4a73"/><circle cx="180.96" cy="154.489" r="33.333" fill="#ffe2e2"/><path d="M188.46,186.98a33.674,33.674,0,0,1-7.5.84,33.33,33.33,0,0,1,0-66.66,33.674,33.674,0,0,1,7.5.84,33.349,33.349,0,0,0,0,64.98Z" fill="#ffefee"/><path d="M214.29,154.49a33.327,33.327,0,0,1-33.33,33.33,33.674,33.674,0,0,1-7.5-.84,33.349,33.349,0,0,0,0-64.98,33.674,33.674,0,0,1,7.5-.84A33.327,33.327,0,0,1,214.29,154.49Z" fill="#ffcfcf"/><path d="M197.073,147.634l-8.855-1.28a2,2,0,0,1-1.507-1.093l-3.965-8.02a2,2,0,0,0-3.587,0l-3.954,8.026a2,2,0,0,1-1.505,1.095l-8.853,1.293a2,2,0,0,0-1.106,3.412l6.412,6.241a2,2,0,0,1,.576,1.769l-1.506,8.82a2,2,0,0,0,2.9,2.106l7.916-4.169a2,2,0,0,1,1.861,0l7.922,4.158a2,2,0,0,0,2.9-2.111l-1.519-8.817a2,2,0,0,1,.574-1.77l6.4-6.25A2,2,0,0,0,197.073,147.634Z" fill="#f2c300"/><path d="M86.407,87.982A46.346,46.346,0,0,0,98.78,93.966V113.49c0,5.211,4.786,9.45,10.67,9.45h2.3V183.5a4,4,0,0,0,8,0V122.94h2.3c5.889,0,10.68-4.239,10.68-9.45v-19.4c14.919-4.5,25.572-15.054,28.642-29.376,1.455-6.788-2.472-13.668-8.752-15.337-6.574-1.748-13.016,2.7-14.489,9.56-1.55,7.232-10.333,11.9-22.376,11.9-13.349,0-20.919-6.239-22.5-12.421-1.747-6.836-8.4-10.949-14.876-8.9-6.19,1.962-9.833,9.008-8.121,15.707A39.765,39.765,0,0,0,86.407,87.982ZM109.45,114.94c-1.657,0-2.67-.938-2.67-1.45V95.817c1.628.248,3.284.435,4.97.545V114.94Zm15.28-1.45c0,.512-1.018,1.45-2.68,1.45h-2.3V96.366q2.542-.156,4.98-.512ZM80.8,57.152c2.073-.659,4.105.9,4.707,3.25,6.306,24.676,55.236,24.528,60.449.215.523-2.441,2.543-4.061,4.61-3.507,2.183.58,3.55,3.3,2.986,5.928-5.529,25.786-42.318,32.342-62.6,18.358A31.771,31.771,0,0,1,78.01,63.253C77.341,60.637,78.618,57.844,80.8,57.152Z" fill="#5f266d"/><path d="M193.8,119.433V10.95A8.96,8.96,0,0,0,184.85,2H46.66a8.96,8.96,0,0,0-8.95,8.95v204.6a8.96,8.96,0,0,0,8.95,8.95H63.605V245a9.01,9.01,0,0,0,9,9H85.244a9.01,9.01,0,0,0,9-9V224.5h43.021V245a9.01,9.01,0,0,0,9,9H158.9a9.01,9.01,0,0,0,9-9V224.5H184.85a8.96,8.96,0,0,0,8.95-8.95v-26a37.337,37.337,0,0,0,0-70.114ZM86.244,245a1,1,0,0,1-1,1H72.605a1,1,0,0,1-1-1V224.5H86.244Zm73.66,0a1,1,0,0,1-1,1H146.265a1,1,0,0,1-1-1V224.5H159.9Zm25.9-29.45a.951.951,0,0,1-.95.95H46.66a.951.951,0,0,1-.95-.95V10.95a.951.951,0,0,1,.95-.95H184.85a.951.951,0,0,1,.95.95V117.471a37.962,37.962,0,0,0-10,.054V23.66a4,4,0,0,0-4-4H59.71a4,4,0,0,0-4,4V202.84a4,4,0,0,0,4,4H171.8a4,4,0,0,0,4-4V191.454a38.006,38.006,0,0,0,10,.056Zm-18-187.89v91.885a37.346,37.346,0,0,0,0,69.889v9.406H63.71V27.66Zm20.943,155.112,0,0h-.01A29.652,29.652,0,0,1,172.9,182.7h0a29.348,29.348,0,0,1,0-56.426h0a29.715,29.715,0,0,1,15.833-.072h.008l0,0a29.335,29.335,0,0,1,0,56.565Z" fill="#5f266d"/><path d="M202.491,147.755a5.96,5.96,0,0,0-4.845-4.08h0l-7.814-1.129-3.5-7.077a5.961,5.961,0,0,0-5.378-3.341h0a5.962,5.962,0,0,0-5.378,3.349l-3.489,7.083-7.811,1.14a6,6,0,0,0-3.319,10.237l5.658,5.506-1.329,7.784a5.992,5.992,0,0,0,8.71,6.318l6.987-3.68,6.992,3.671a6,6,0,0,0,8.7-6.333l-1.34-7.78,5.65-5.517A5.961,5.961,0,0,0,202.491,147.755Zm-13.5,6.675a6,6,0,0,0-1.725,5.314l.831,4.823-4.335-2.275a6,6,0,0,0-5.583.006l-4.331,2.28.824-4.824a6,6,0,0,0-1.73-5.31l-3.507-3.414,4.847-.708a6,6,0,0,0,4.511-3.285l2.163-4.39,2.17,4.389a6,6,0,0,0,4.52,3.277l4.844.7Z" fill="#5f266d"/><path d="M100.667,182.55H97.83a4,4,0,1,0,0,8h2.837a4,4,0,0,0,0-8Z" fill="#5f266d"/><path d="M73.83,190.55h9a4,4,0,0,0,0-8h-9a4,4,0,1,0,0,8Z" fill="#5f266d"/></svg>