<svg xmlns="http://www.w3.org/2000/svg" viewBox="0 0 256 256"><title>Foodies Expanded</title><rect x="6.504" y="175.769" width="242.991" height="22.121" rx="10.667" ry="10.667" fill="#ffe2e2"/><path d="M62.722,118.943H193.278a10,10,0,0,1,10,10v46.826a0,0,0,0,1,0,0H52.722a0,0,0,0,1,0,0V128.943A10,10,0,0,1,62.722,118.943Z" fill="#b76c6c"/><path d="M154.313,91.9h0a12.646,12.646,0,0,1-12.646-12.647v-4.25h0a16.9,16.9,0,0,0-16.9-16.9H103.6a16.9,16.9,0,0,1,16.9,16.9h0a16.9,16.9,0,0,1-16.9,16.9H99.27A12.437,12.437,0,0,0,86.833,104.34v14.6h82.334V106.756A14.853,14.853,0,0,0,154.313,91.9Z" fill="#ffe2e2"/><path d="M77.72,118.94a10,10,0,0,0-10,10v46.83h-15V128.94a10,10,0,0,1,10-10Z" fill="#c98585"/><path d="M169.17,106.76v12.18h-15V106.76A14.856,14.856,0,0,0,139.31,91.9a12.641,12.641,0,0,1-12.64-12.64V75.01a16.9,16.9,0,0,0-16.9-16.9h15a16.9,16.9,0,0,1,16.9,16.9v4.25A12.641,12.641,0,0,0,154.31,91.9,14.856,14.856,0,0,1,169.17,106.76Z" fill="#ffcfcf"/><path d="M135.5,75.01A16.9,16.9,0,0,1,118.6,91.9h-4.33a12.441,12.441,0,0,0-12.44,12.44v14.6h-15v-14.6A12.441,12.441,0,0,1,99.27,91.9h4.33a16.9,16.9,0,1,0,0-33.79h15A16.892,16.892,0,0,1,135.5,75.01Z" fill="#ffefee"/><path d="M203.28,128.94v46.83h-15V128.94a10,10,0,0,0-10-10h15A10,10,0,0,1,203.28,128.94Z" fill="#965959"/><circle cx="80.465" cy="105.174" r="13.77" fill="#ff4a73"/><path d="M238.83,171.77H207.28V128.94a14.015,14.015,0,0,0-14-14H173.17v-8.18A18.881,18.881,0,0,0,154.31,87.9a8.655,8.655,0,0,1-8.64-8.64V75.01a20.923,20.923,0,0,0-20.9-20.9H103.6a4,4,0,0,0,0,8,12.9,12.9,0,1,1,0,25.79c-4.831,0-8.533-.378-13.16,2.58a17.666,17.666,0,0,0-6.917-2.81C82.152,83.042,74.88,61,59.471,56.164A4,4,0,1,0,57.076,63.8c9.385,2.945,15.75,16.9,18.226,24.372h0a17.805,17.805,0,0,0-12.61,17,17.622,17.622,0,0,0,2.94,9.77H62.72a14.015,14.015,0,0,0-14,14v42.83H17.17A14.685,14.685,0,0,0,2.5,186.44c0,9.74,7.2,15.45,14.67,15.45H238.83c7.514,0,14.67-5.738,14.67-15.45A14.685,14.685,0,0,0,238.83,171.77ZM96,96.57c1.949-.838,3.071-.67,7.6-.67,17.42,0,27.161-20.148,16.44-33.79h4.73a12.912,12.912,0,0,1,12.9,12.9v4.25A16.659,16.659,0,0,0,154.31,95.9a10.87,10.87,0,0,1,10.86,10.86v8.18H95.29A17.7,17.7,0,0,0,96,96.57ZM80.46,95.4a9.77,9.77,0,1,1-9.77,9.77A9.786,9.786,0,0,1,80.46,95.4ZM56.72,128.94a6,6,0,0,1,6-6H193.28a6,6,0,0,1,6,6v42.83H56.72Zm182.11,64.95H17.17c-8.75,0-8.975-14.12,0-14.12H238.83C247.749,179.77,247.722,193.89,238.83,193.89Z" fill="#5f266d"/><path d="M162.75,135.35h-15a4,4,0,0,0,0,8h15a4,4,0,0,0,0-8Z" fill="#5f266d"/><path d="M181,135.35h-3.25a4,4,0,0,0,0,8H181a4,4,0,0,0,0-8Z" fill="#5f266d"/></svg>