<svg xmlns="http://www.w3.org/2000/svg" viewBox="0 0 256 256"><title>Foodies Expanded</title><circle cx="128" cy="128" r="113.633" fill="#f9d335"/><circle cx="128" cy="128" r="89.834" fill="#ffe2e2"/><path d="M135.5,217.52q-3.7.315-7.5.31a89.83,89.83,0,0,1,0-179.66q3.8,0,7.5.31a89.834,89.834,0,0,0,0,179.04Z" fill="#ffefee"/><path d="M217.83,128A89.832,89.832,0,0,1,128,217.83q-3.8,0-7.5-.31a89.834,89.834,0,0,0,0-179.04q3.7-.315,7.5-.31A89.832,89.832,0,0,1,217.83,128Z" fill="#ffcfcf"/><path d="M84.415,88.418h0a0,0,0,0,1,0,0V133.43a0,0,0,0,1,0,0h0a21.3,21.3,0,0,1-21.3-21.3v-2.417A21.3,21.3,0,0,1,84.415,88.418Z" fill="#b76c6c"/><rect x="99.274" y="88.418" width="21.297" height="45.011" rx="5" ry="5" fill="#b76c6c"/><rect x="135.429" y="88.418" width="21.297" height="45.011" rx="5" ry="5" fill="#b76c6c"/><path d="M171.585,88.418h0a21.3,21.3,0,0,1,21.3,21.3v2.417a21.3,21.3,0,0,1-21.3,21.3h0a0,0,0,0,1,0,0V88.418A0,0,0,0,1,171.585,88.418Z" fill="#b76c6c"/><circle cx="90.223" cy="160.08" r="9.047" fill="#ff4a73"/><circle cx="109.593" cy="185.39" r="9.047" fill="#ff4a73"/><circle cx="128" cy="61.75" r="9.047" fill="#ff4a73"/><circle cx="162.103" cy="70.797" r="9.047" fill="#ff4a73"/><path d="M72.28,109.72v2.41a21.292,21.292,0,0,0,12.14,19.23v2.07a21.3,21.3,0,0,1-21.3-21.3v-2.41a21.292,21.292,0,0,1,21.3-21.3v2.07A21.281,21.281,0,0,0,72.28,109.72Z" fill="#c98585"/><path d="M113.44,133.43h-9.17a5,5,0,0,1-5-5V93.42a5,5,0,0,1,5-5h9.17a5,5,0,0,0-5,5v35.01A5,5,0,0,0,113.44,133.43Z" fill="#c98585"/><path d="M149.6,133.43h-9.17a5,5,0,0,1-5-5V93.42a5,5,0,0,1,5-5h9.17a5,5,0,0,0-5,5v35.01A5,5,0,0,0,149.6,133.43Z" fill="#c98585"/><path d="M180.75,90.49v40.87a21.189,21.189,0,0,1-9.17,2.07V88.42A21.189,21.189,0,0,1,180.75,90.49Z" fill="#c98585"/><path d="M125.842,163.5c.2,0,.39-.01.58-.02a13.843,13.843,0,0,0-.14,1.94,13.546,13.546,0,0,0,13.55,13.54,13.9,13.9,0,0,0,3.25-.39,10.142,10.142,0,0,0,19.95,0,13.9,13.9,0,0,0,3.25.39,13.546,13.546,0,0,0,13.55-13.54,13.843,13.843,0,0,0-.14-1.94c.19.01.39.02.58.02A10.437,10.437,0,0,0,186.9,145h-67.68a10.431,10.431,0,0,0,6.62,18.5Z" fill="#44c7b6"/><path d="M158.08,178.57a13.9,13.9,0,0,1-3.25.39,13.546,13.546,0,0,1-13.55-13.54,13.843,13.843,0,0,1,.14-1.94c-.19.01-.38.02-.58.02a10.431,10.431,0,0,1-6.62-18.5h-15a10.431,10.431,0,0,0,6.62,18.5c.2,0,.39-.01.58-.02a13.843,13.843,0,0,0-.14,1.94,13.546,13.546,0,0,0,13.55,13.54,13.9,13.9,0,0,0,3.25-.39,10.142,10.142,0,0,0,17.48,4.99A10.005,10.005,0,0,1,158.08,178.57Z" fill="#4bdbc3"/><path d="M128,10.367A117.633,117.633,0,1,0,245.633,128,117.766,117.766,0,0,0,128,10.367Zm0,227.266A109.633,109.633,0,1,1,237.633,128,109.757,109.757,0,0,1,128,237.633Z" fill="#5f266d"/><path d="M128,34.166A93.834,93.834,0,1,0,221.834,128,93.941,93.941,0,0,0,128,34.166Zm0,179.668A85.834,85.834,0,1,1,213.834,128,85.931,85.931,0,0,1,128,213.834Z" fill="#5f266d"/><path d="M59.635,143.18c-.185-1.339-.317-2.694-.391-4.027a4,4,0,0,0-7.988.446c.087,1.549.239,3.124.455,4.678C52.445,149.579,60.359,148.415,59.635,143.18Z" fill="#5f266d"/><path d="M63.347,156.6a4,4,0,1,0-7.377,3.1,69.084,69.084,0,0,0,17.1,24.045,4,4,0,1,0,5.393-5.91A61,61,0,0,1,63.347,156.6Z" fill="#5f266d"/><path d="M103.27,160.08a13.047,13.047,0,1,0-13.046,13.047A13.062,13.062,0,0,0,103.27,160.08Zm-13.046,5.047a5.047,5.047,0,1,1,5.046-5.047A5.052,5.052,0,0,1,90.224,165.127Z" fill="#5f266d"/><path d="M109.594,172.344a13.047,13.047,0,1,0,13.047,13.047A13.061,13.061,0,0,0,109.594,172.344Zm0,18.093a5.047,5.047,0,1,1,5.047-5.046A5.052,5.052,0,0,1,109.594,190.437Z" fill="#5f266d"/><path d="M128,74.8A13.047,13.047,0,1,0,114.953,61.75,13.062,13.062,0,0,0,128,74.8ZM128,56.7a5.047,5.047,0,1,1-5.047,5.047A5.053,5.053,0,0,1,128,56.7Z" fill="#5f266d"/><path d="M162.1,83.844A13.047,13.047,0,1,0,149.057,70.8,13.061,13.061,0,0,0,162.1,83.844Zm0-18.094a5.047,5.047,0,1,1-5.047,5.047A5.052,5.052,0,0,1,162.1,65.75Z" fill="#5f266d"/><path d="M189.445,141.913c-1.591-1.311,2.573-.913-70.223-.913-2.838,0-7.821,5.146-7.821,12.061a14.464,14.464,0,0,0,10.958,14.014,17.57,17.57,0,0,0,17.988,15.877,14.163,14.163,0,0,0,25.421,0,17.57,17.57,0,0,0,17.987-15.877,14.437,14.437,0,0,0,5.69-25.162ZM179.9,159.485a4,4,0,0,0-4.165,4.558,9.557,9.557,0,0,1-11.763,10.639,4,4,0,0,0-4.871,3.172c-1.214,6.68-10.869,6.659-12.079,0a4,4,0,0,0-3.936-3.285c-.5,0-1.887.39-3.25.39a9.55,9.55,0,0,1-9.449-10.923c.267-1.906-.827-4.537-4.541-4.537a6.432,6.432,0,0,1-4.991-10.5h64.416a6.434,6.434,0,0,1-5.371,10.485Z" fill="#5f266d"/><path d="M84.415,137.43a4,4,0,0,0,4-4V88.418a4,4,0,0,0-4-4,25.326,25.326,0,0,0-25.3,25.3v2.417A25.325,25.325,0,0,0,84.415,137.43Zm-4-44.545v36.078C62.557,124.72,62.56,97.127,80.415,92.885Z" fill="#5f266d"/><path d="M104.273,137.43h11.3a9.01,9.01,0,0,0,9-9V93.418a9.01,9.01,0,0,0-9-9h-11.3a9.01,9.01,0,0,0-9,9V128.43A9.01,9.01,0,0,0,104.273,137.43Zm-1-44.012a1,1,0,0,1,1-1h11.3a1,1,0,0,1,1,1V128.43a1,1,0,0,1-1,1h-11.3a1,1,0,0,1-1-1Z" fill="#5f266d"/><path d="M140.43,84.418a9.01,9.01,0,0,0-9,9V128.43a9.01,9.01,0,0,0,9,9h11.3a9.01,9.01,0,0,0,9-9V93.418a9.01,9.01,0,0,0-9-9Zm12.3,9V128.43a1,1,0,0,1-1,1h-11.3a1,1,0,0,1-1-1V93.418a1,1,0,0,1,1-1h11.3A1,1,0,0,1,152.727,93.418Z" fill="#5f266d"/><path d="M171.585,84.418a4,4,0,0,0-4,4V133.43a4,4,0,0,0,4,4,25.325,25.325,0,0,0,25.3-25.3v-2.417A25.326,25.326,0,0,0,171.585,84.418Zm4,44.545V92.885C193.442,97.128,193.442,124.72,175.585,128.963Z" fill="#5f266d"/></svg>