<svg xmlns="http://www.w3.org/2000/svg" viewBox="0 0 256 256"><title>Foodies Expanded</title><circle cx="139.631" cy="130.492" r="104.764" fill="#ffe2e2"/><circle cx="139.631" cy="130.492" r="82.822" fill="#44c7b6"/><path d="M147.133,212.97q-3.705.345-7.5.34a82.82,82.82,0,0,1,0-165.64q3.795,0,7.5.34a82.82,82.82,0,0,0,0,164.96Z" fill="#4bdbc3"/><path d="M222.453,130.49a82.82,82.82,0,0,1-82.82,82.82q-3.793,0-7.5-.34a82.82,82.82,0,0,0,0-164.96q3.707-.345,7.5-.34A82.82,82.82,0,0,1,222.453,130.49Z" fill="#3bb2a0"/><path d="M197.121,38.205q7.086-12.327,15.614-24.931a4,4,0,0,0-6.624-4.486q-8.7,12.845-15.927,25.427A108.71,108.71,0,0,0,58.467,202.808,351.572,351.572,0,0,1,9.424,241.574c-4.39,2.905-.008,9.6,4.416,6.67A359.164,359.164,0,0,0,64,208.576C132.513,274.955,248.4,226.6,248.4,130.492A108.785,108.785,0,0,0,197.121,38.205Zm-57.489-8.477A100.125,100.125,0,0,1,186.278,41.2q-3.395,6.219-6.424,12.37A86.781,86.781,0,0,0,73.781,187.012q-4.513,5.046-9.6,10.193A100.707,100.707,0,0,1,139.632,29.728Zm24.858,61.5-16.2,4.187a4,4,0,0,0,1,7.873c.823,0,.538-.008,12.515-3.1a207.943,207.943,0,0,0-4.926,22.471l-15.669,3.982a4,4,0,0,0,.982,7.878c.818,0,.507,0,13.537-3.313-.678,5.966-1,11.344-1.1,16.214l-16.086,7.412a4,4,0,0,0,3.347,7.266l12.765-5.882c.113,3.575.309,6.88.735,11.114l-13.047,15.814a4,4,0,1,0,6.169,5.092l8.343-10.112q1.279,7.479,3.266,14.8a4,4,0,0,0,7.717-2.108,147.625,147.625,0,0,1-4.095-20.83l8.849,6.906a4,4,0,1,0,4.921-6.307L162.8,159.1q-.375-7.3-.079-14.746c11.049,8.623,10.786,8.764,12.6,8.764a4,4,0,0,0,2.464-7.153L163.4,134.732q.853-8.679,2.606-17.558c9.783,10.581,9.7,11.07,11.985,11.07a4.006,4.006,0,0,0,2.937-6.716l-12.8-13.848q2-8.046,4.718-16.248l11.949,9.325a4,4,0,1,0,4.922-6.306l-14.081-10.99q3.4-9.177,7.689-18.538a78.8,78.8,0,0,1,35.137,65.569c0,69.588-84.144,104.975-133.893,56.32a239.471,239.471,0,0,0,18.6-25.037c.464.066,15.685,2.267,16.154,2.267,4.922,0,5.456-7.261.561-7.961l-12.139-1.734c3.013-5.127,5.614-10.049,7.854-14.723l16.361-.671a4,4,0,1,0-.328-7.993l-12.365.507c1.461-3.48,2.812-6.963,4.3-11.337.369-.178,15.389-8.644,15.746-8.845a4,4,0,0,0-3.924-6.972l-8.5,4.787a142.881,142.881,0,0,0,3.479-17.579l12.8-9.765A4,4,0,1,0,138.3,75.4l-7.028,5.361a66.62,66.62,0,0,0-.245-10.022c-.671-5.243-8.607-4.233-7.936,1.016.016.123.872,7.366-.8,19.536l-4.754-8.355a4,4,0,1,0-6.953,3.956l9.437,16.587c-1.039,4.441-2.4,9.269-4.157,14.411l-7-12.3a4,4,0,1,0-6.953,3.956l10.2,17.934c.024.044.055.081.081.124-1.681,4.061-3.66,8.38-5.983,12.914l-6.981-12.271a4,4,0,0,0-6.953,3.956l9.434,16.582c-2.743,4.765-5.849,9.716-9.394,14.828l-4.749-12.795a4,4,0,1,0-7.5,2.784l6.6,17.788q-3.549,4.684-7.595,9.5A78.775,78.775,0,0,1,176.407,60.805,267.735,267.735,0,0,0,164.49,91.231ZM69.719,202.984c3.382-3.408,6.552-6.788,9.563-10.137,54.968,53.217,147.172,14.02,147.172-62.355A86.822,86.822,0,0,0,186.78,57.621q3.029-6.176,6.434-12.427a100.779,100.779,0,0,1,47.181,85.3C240.4,219.322,133.32,264.342,69.719,202.984Z" fill="#5f266d"/><path d="M192.814,164.139a4,4,0,0,0,5.432-1.581,66.711,66.711,0,0,0,3.438-7.27,4,4,0,1,0-7.425-2.977,58.8,58.8,0,0,1-3.025,6.4A4,4,0,0,0,192.814,164.139Z" fill="#5f266d"/><path d="M198.453,130.493a59.208,59.208,0,0,1-.582,8.289,4,4,0,1,0,7.922,1.121,67.6,67.6,0,0,0,.66-9.41,70.56,70.56,0,0,0-2.357-17.947,4,4,0,0,0-7.736,2.036A62.568,62.568,0,0,1,198.453,130.493Z" fill="#5f266d"/></svg>