<svg xmlns="http://www.w3.org/2000/svg" viewBox="0 0 256 256"><title>Foodies Expanded</title><path d="M51.87,9.25H193.5a0,0,0,0,1,0,0v227.5a10,10,0,0,1-10,10H51.87a10,10,0,0,1-10-10V19.25a10,10,0,0,1,10-10Z" fill="#44c7b6"/><path d="M193.5,9.25h15.63a5,5,0,0,1,5,5v43a0,0,0,0,1,0,0H193.5a0,0,0,0,1,0,0v-48A0,0,0,0,1,193.5,9.25Z" fill="#f9d335"/><path d="M193.5,57.25h20.63a0,0,0,0,1,0,0v43a5,5,0,0,1-5,5H193.5a0,0,0,0,1,0,0v-48A0,0,0,0,1,193.5,57.25Z" fill="#3193f3"/><path d="M152.214,56.579a18.361,18.361,0,0,0-14.9,5.354,22.793,22.793,0,0,0-42.248,0A18.4,18.4,0,1,0,82,93.285V148.2a5,5,0,0,0,5,5h58.372a5,5,0,0,0,5-5V93.285a18.4,18.4,0,0,0,1.843-36.706Z" fill="#ffe2e2"/><path d="M66.87,246.75h-15a10,10,0,0,1-10-10V19.25a10,10,0,0,1,10-10h15a10,10,0,0,0-10,10v217.5A10,10,0,0,0,66.87,246.75Z" fill="#4bdbc3"/><path d="M97,148.2V93.29a18.4,18.4,0,0,1-7.5-35.2,18.218,18.218,0,0,0-9.34-1.51A18.4,18.4,0,0,0,82,93.29V148.2a5,5,0,0,0,5,5h15A5,5,0,0,1,97,148.2Z" fill="#ffefee"/><path d="M193.5,9.25v227.5a10,10,0,0,1-10,10h-15a10,10,0,0,0,10-10V9.25Z" fill="#3bb2a0"/><polygon points="87.246 188.621 75.69 186.951 70.515 176.485 65.356 186.959 53.802 188.646 62.169 196.79 60.204 208.299 70.535 202.858 80.874 208.284 78.891 196.777 87.246 188.621" fill="#f9d335"/><polygon points="132.907 188.621 121.351 186.951 116.176 176.485 111.016 186.959 99.463 188.646 107.83 196.79 105.865 208.299 116.196 202.858 126.534 208.284 124.552 196.777 132.907 188.621" fill="#3bb2a0"/><polygon points="178.568 188.621 167.012 186.951 161.837 176.485 156.677 186.959 145.124 188.646 153.491 196.79 151.526 208.299 161.856 202.858 172.195 208.284 170.213 196.777 178.568 188.621" fill="#3bb2a0"/><path d="M168.65,72.77a18.45,18.45,0,0,0-16.44-16.19,18.218,18.218,0,0,0-9.34,1.51,18.4,18.4,0,0,1-7.5,35.2V148.2a5,5,0,0,1-5,5h15a5,5,0,0,0,5-5V93.29A18.406,18.406,0,0,0,168.65,72.77Z" fill="#ffcfcf"/><path d="M209.13,5.25H51.87a14.015,14.015,0,0,0-14,14v217.5a14.015,14.015,0,0,0,14,14H183.5a14.015,14.015,0,0,0,14-14V109.25h11.63a9.011,9.011,0,0,0,9-9v-86A9.011,9.011,0,0,0,209.13,5.25Zm1,9v39H197.5v-40h11.63A1,1,0,0,1,210.13,14.25ZM189.5,236.75a6.006,6.006,0,0,1-6,6H51.87a6.007,6.007,0,0,1-6-6V19.25a6.007,6.007,0,0,1,6-6H189.5v223.5Zm20.63-136.5a1,1,0,0,1-1,1H197.5v-40h12.63Z" fill="#5f266d"/><path d="M78,96.924V148.2a9.01,9.01,0,0,0,9,9h58.371a9.011,9.011,0,0,0,9-9V96.924a22.4,22.4,0,1,0-15.76-41.1,26.807,26.807,0,0,0-44.852,0A22.4,22.4,0,1,0,78,96.924ZM67.695,73.215c1.33-11.926,16.041-17.021,24.526-8.465a4,4,0,0,0,6.547-1.313,18.792,18.792,0,0,1,34.834,0,4,4,0,0,0,6.546,1.314,14.413,14.413,0,0,1,11.678-4.19h0a14.4,14.4,0,0,1-1.455,28.724,4,4,0,0,0-4,4V148.2a1,1,0,0,1-1,1H87a1,1,0,0,1-1-1V93.285a4,4,0,0,0-4-4,14.4,14.4,0,0,1-14.305-16.07Z" fill="#5f266d"/><path d="M87.818,184.662l-9.474-1.37L74.1,174.711a4,4,0,0,0-7.174.006L62.7,183.3l-9.472,1.384a4,4,0,0,0-2.212,6.824l6.86,6.677-1.612,9.437a4,4,0,0,0,5.807,4.212l8.471-4.461,8.476,4.449a4,4,0,0,0,5.8-4.222L83.19,198.17l6.851-6.687A4,4,0,0,0,87.818,184.662ZM76.1,193.915a4,4,0,0,0-1.147,3.542l.606,3.519-3.162-1.66a4,4,0,0,0-3.723,0l-3.16,1.664.6-3.52a4,4,0,0,0-1.153-3.539L62.4,191.433l3.534-.516a4,4,0,0,0,3.01-2.191l1.578-3.2,1.583,3.2a4,4,0,0,0,3.013,2.186l3.535.51Z" fill="#5f266d"/><path d="M133.479,184.662,124,183.292l-4.243-8.581a4,4,0,0,0-3.585-2.227h0a4,4,0,0,0-3.586,2.233l-4.23,8.587-9.472,1.384a4,4,0,0,0-2.212,6.824l6.86,6.677-1.611,9.437a4,4,0,0,0,5.807,4.212l8.47-4.461,8.476,4.449a4,4,0,0,0,5.8-4.222l-1.625-9.434,6.85-6.687A4,4,0,0,0,133.479,184.662Zm-11.721,9.253a4,4,0,0,0-1.148,3.542l.606,3.519-3.161-1.66a4,4,0,0,0-3.723,0l-3.16,1.664.6-3.52a4,4,0,0,0-1.153-3.539l-2.559-2.491,3.534-.516a4,4,0,0,0,3.01-2.191l1.578-3.2,1.583,3.2a4,4,0,0,0,3.013,2.186l3.534.51Z" fill="#5f266d"/><path d="M179.14,184.662l-9.475-1.37-4.243-8.581a4,4,0,0,0-7.174.006l-4.23,8.587-9.473,1.384a4,4,0,0,0-2.212,6.824l6.861,6.677-1.611,9.437a4,4,0,0,0,5.806,4.212l8.471-4.461,8.476,4.449a4,4,0,0,0,5.8-4.222l-1.626-9.434,6.85-6.687A4,4,0,0,0,179.14,184.662Zm-11.722,9.253a4,4,0,0,0-1.147,3.542l.606,3.519-3.162-1.66a4,4,0,0,0-3.722,0l-3.16,1.664.6-3.52a4,4,0,0,0-1.153-3.539l-2.56-2.491,3.534-.516a4,4,0,0,0,3.011-2.191l1.577-3.2,1.583,3.2a4,4,0,0,0,3.013,2.186l3.535.51Z" fill="#5f266d"/><path d="M181.5,21.75h-3.75a4,4,0,0,0,0,8h3.75a4,4,0,0,0,0-8Z" fill="#5f266d"/><path d="M151.75,29.75h11a4,4,0,0,0,0-8h-11a4,4,0,0,0,0,8Z" fill="#5f266d"/></svg>