<svg xmlns="http://www.w3.org/2000/svg" viewBox="0 0 256 256"><title>Foodies Expanded</title><circle cx="128" cy="95.188" r="88.836" fill="#796e84"/><circle cx="128" cy="95.187" r="67.809" fill="#87828e"/><path d="M175.229,73.841V67.816a9.167,9.167,0,0,0-9.167-9.167h-54.6a9.167,9.167,0,0,0-9.167,9.167v6.025a9.167,9.167,0,0,1-9.166,9.167H89.938a9.167,9.167,0,0,0-9.167,9.167V98.2a9.167,9.167,0,0,0,9.167,9.167h0a9.167,9.167,0,0,1,9.167,9.167v6.025a9.167,9.167,0,0,0,9.167,9.167h54.6a9.167,9.167,0,0,0,9.167-9.167v-6.025a9.167,9.167,0,0,0-9.167-9.167h0a9.167,9.167,0,0,1-9.166-9.167V92.175a9.167,9.167,0,0,1,9.166-9.167h3.189A9.167,9.167,0,0,0,175.229,73.841Z" fill="#ffe2e2"/><path d="M125.271,209.649h5.458a15.1,15.1,0,0,1,15.1,15.1v24.9a0,0,0,0,1,0,0H110.167a0,0,0,0,1,0,0v-24.9A15.1,15.1,0,0,1,125.271,209.649Z" fill="#87828e"/><path d="M123.27,131.724h-15a9.167,9.167,0,0,1-9.17-9.16v-6.03a9.169,9.169,0,0,0-9.16-9.171A9.166,9.166,0,0,1,80.77,98.2V92.173A9.175,9.175,0,0,1,89.94,83h3.19a9.159,9.159,0,0,0,9.16-9.16v-6.03a9.168,9.168,0,0,1,9.17-9.161h15a9.168,9.168,0,0,0-9.17,9.161v6.03A9.159,9.159,0,0,1,108.13,83h-3.19a9.175,9.175,0,0,0-9.17,9.169V98.2a9.166,9.166,0,0,0,9.17,9.159,9.169,9.169,0,0,1,9.16,9.171v6.03A9.167,9.167,0,0,0,123.27,131.724Z" fill="#ffefee"/><path d="M175.23,67.814v6.03A9.168,9.168,0,0,1,166.06,83h-3.19a9.166,9.166,0,0,0-9.16,9.169V98.2a9.148,9.148,0,0,0,9.16,9.159,9.17,9.17,0,0,1,9.17,9.171v6.03a9.161,9.161,0,0,1-9.17,9.16h-15a9.161,9.161,0,0,0,9.17-9.16v-6.03a9.17,9.17,0,0,0-9.17-9.171,9.148,9.148,0,0,1-9.16-9.159V92.173A9.166,9.166,0,0,1,147.87,83h3.19a9.168,9.168,0,0,0,9.17-9.16v-6.03a9.168,9.168,0,0,0-9.17-9.161h15A9.168,9.168,0,0,1,175.23,67.814Z" fill="#ffcfcf"/><path d="M135.5,162.574a66.271,66.271,0,0,1-7.5.42,67.806,67.806,0,1,1,0-135.611,66.27,66.27,0,0,1,7.5.421,67.8,67.8,0,0,0,0,134.77Z" fill="#a4a4a5"/><path d="M195.81,95.184A67.888,67.888,0,0,1,128,162.994a66.271,66.271,0,0,1-7.5-.42,67.8,67.8,0,0,0,0-134.77,66.27,66.27,0,0,1,7.5-.421A67.88,67.88,0,0,1,195.81,95.184Z" fill="#796e84"/><path d="M220.836,95.188A92.836,92.836,0,1,0,124,187.932v17.781a19.114,19.114,0,0,0-17.833,19.04v24.9a4,4,0,0,0,4,4h35.666a4,4,0,0,0,4-4v-24.9A19.113,19.113,0,0,0,132,205.713V187.932A92.947,92.947,0,0,0,220.836,95.188Zm-177.672,0A84.836,84.836,0,1,1,128,180.023,84.932,84.932,0,0,1,43.164,95.188Zm98.669,129.565v20.9H114.167v-20.9a11.117,11.117,0,0,1,11.1-11.1h5.458A11.117,11.117,0,0,1,141.833,224.753Z" fill="#5f266d"/><path d="M199.81,95.188A71.81,71.81,0,1,0,128,167,71.891,71.891,0,0,0,199.81,95.188Zm-135.619,0A63.81,63.81,0,1,1,128,159,63.88,63.88,0,0,1,64.191,95.188Z" fill="#5f266d"/><path d="M176.04,122.56v-6.026a13.181,13.181,0,0,0-13.167-13.167,5.172,5.172,0,0,1-5.166-5.167V92.175a5.172,5.172,0,0,1,5.166-5.167h3.189a13.181,13.181,0,0,0,13.167-13.166V67.815a13.182,13.182,0,0,0-13.167-13.166h-54.6A13.182,13.182,0,0,0,98.293,67.815v6.027a5.172,5.172,0,0,1-5.167,5.166H89.938A13.182,13.182,0,0,0,76.771,92.175V98.2a13.182,13.182,0,0,0,13.167,13.167,5.174,5.174,0,0,1,5.167,5.167v6.026a13.181,13.181,0,0,0,13.166,13.166h54.6A13.181,13.181,0,0,0,176.04,122.56Zm-72.935,0v-6.026a13.182,13.182,0,0,0-13.167-13.167A5.173,5.173,0,0,1,84.771,98.2V92.175a5.173,5.173,0,0,1,5.167-5.167h3.188a13.181,13.181,0,0,0,13.167-13.166V67.815a5.173,5.173,0,0,1,5.167-5.166h54.6a5.173,5.173,0,0,1,5.167,5.166v6.027a5.173,5.173,0,0,1-5.167,5.166h-3.189a13.181,13.181,0,0,0-13.166,13.167V98.2a13.181,13.181,0,0,0,13.166,13.167,5.174,5.174,0,0,1,5.167,5.167v6.026a5.173,5.173,0,0,1-5.167,5.166h-54.6A5.173,5.173,0,0,1,103.105,122.56Z" fill="#5f266d"/><path d="M154,75.4h5.25a4,4,0,0,0,0-8H154a4,4,0,0,0,0,8Z" fill="#5f266d"/><path d="M139,67.4H119a4,4,0,0,0,0,8h20a4,4,0,0,0,0-8Z" fill="#5f266d"/></svg>