<svg xmlns="http://www.w3.org/2000/svg" viewBox="0 0 256 256"><title>Foodies Expanded</title><circle cx="128" cy="128" r="120.5" fill="#f9d335"/><circle cx="128" cy="128" r="95.263" fill="#ffe2e2"/><path d="M135.953,222.93q-3.929.334-7.953.329a95.259,95.259,0,0,1,0-190.518q4.024,0,7.953.329a95.263,95.263,0,0,0,0,189.86Z" fill="#ffefee"/><path d="M223.259,128A95.262,95.262,0,0,1,128,223.259q-4.025,0-7.953-.329a95.263,95.263,0,0,0,0-189.86q3.928-.334,7.953-.329A95.262,95.262,0,0,1,223.259,128Z" fill="#ffcfcf"/><path d="M68.677,66.158c-1.48.09-2.131.912-3.131,1.912A3.451,3.451,0,0,0,64.541,70.3c-3.712,61.949,33.69,90.855,96.5,89.643C162.2,100.719,131.522,62.366,68.677,66.158Z" fill="#87828e"/><path d="M161.021,159.955c3.565-.091,9.679-.095,41.562-.206a1.558,1.558,0,0,1,1.021,2.74l-7.494,6.4a19.1,19.1,0,0,1-24.931-.107Z" fill="#87828e"/><path d="M161.021,159.955c-.09,3.564-.094,9.678-.2,41.561a1.558,1.558,0,0,0,2.74,1.022l6.4-7.494a19.1,19.1,0,0,0-.107-24.932Z" fill="#87828e"/><path d="M161.1,157.61c-.03.82-.05,1.52-.06,2.33-.84.01-1.51.03-2.33.06-14.79.46-99.64,1.67-94.17-89.7a3.42,3.42,0,0,1,1.01-2.23l.9-.91a3.48,3.48,0,0,1,2.23-1c1.81-.11,3.58-.19,5.31-.22,1.1,71.37,62.47,79,86.79,79.51A113.181,113.181,0,0,1,161.1,157.61Z" fill="#a4a4a5"/><path d="M89.668,85.617a5.159,5.159,0,1,0-7.3,0A5.16,5.16,0,0,0,89.668,85.617Z" fill="#5f266d"/><path d="M106.218,76.922h-.074A4,4,0,0,0,102.218,81c.012.734.089,17.989-20.6,20.138a4,4,0,0,0,.408,7.978c.138,0,.278-.007.418-.021,22.336-2.319,27.936-19.486,27.776-28.241A4,4,0,0,0,106.218,76.922Z" fill="#5f266d"/><path d="M202.569,155.749c-25.665.088-33,.108-37.432.146.167-12.921-1.793-48.371-26.145-72.038C122.311,67.645,98.565,60.35,68.435,62.166a9.018,9.018,0,0,0-7.887,7.891C58.8,99.2,65.855,122.142,81.512,138.26c19.136,19.7,48.3,26.28,75.449,25.782-.037,4.454-.057,11.76-.146,37.461a5.561,5.561,0,0,0,9.782,3.634l6.4-7.5a23.22,23.22,0,0,0,4.706-21,23.221,23.221,0,0,0,21-4.708l7.494-6.4A5.559,5.559,0,0,0,202.569,155.749Zm-45.432.291c-17.961.362-49.511-2.378-69.887-23.354-13.987-14.4-20.288-35.239-18.729-61.934l.614-.614c27.7-1.621,49.32,4.916,64.281,19.456C155.7,111.253,157.324,144.343,157.137,156.04Zm9.78,36.405-2.079,2.434c.045-13.119.061-18.367.086-24.337l1.908,2.194A15.19,15.19,0,0,1,166.917,192.445Zm26.6-26.594a15.19,15.19,0,0,1-19.71-.085l-2.195-1.909c5.97-.024,11.255-.04,24.337-.086Z" fill="#5f266d"/><path d="M128,3.5A124.5,124.5,0,1,0,252.5,128,124.642,124.642,0,0,0,128,3.5Zm0,241A116.5,116.5,0,1,1,244.5,128,116.632,116.632,0,0,1,128,244.5Z" fill="#5f266d"/><path d="M128,28.737A99.263,99.263,0,1,0,227.263,128,99.376,99.376,0,0,0,128,28.737Zm0,190.526A91.263,91.263,0,1,1,219.263,128,91.367,91.367,0,0,1,128,219.263Z" fill="#5f266d"/><path d="M53.017,135.427c-.347-2.308-.589-4.657-.72-6.984a4,4,0,1,0-7.988.452c.145,2.571.413,5.168.8,7.719C45.9,141.913,53.8,140.649,53.017,135.427Z" fill="#5f266d"/><path d="M56.439,149.232a4,4,0,1,0-7.548,2.649A83.239,83.239,0,0,0,71.279,185.7c3.889,3.543,9.3-2.343,5.393-5.91A75.224,75.224,0,0,1,56.439,149.232Z" fill="#5f266d"/></svg>