<svg xmlns="http://www.w3.org/2000/svg" viewBox="0 0 256 256"><title>Foodies Expanded</title><path d="M218.5,124.821V177.3a3.684,3.684,0,0,1-5.58,3.151l-28.49-17.2a3.7,3.7,0,0,0-3.8,0l-28.49,17.2a3.676,3.676,0,0,1-5.57-3.151v-52.48a56.283,56.283,0,0,0,71.93,0Z" fill="#5fcdff"/><path d="M182.53,25.212a56.3,56.3,0,1,0,33.75,101.359c.76-.56,1.5-1.149,2.22-1.75a56.3,56.3,0,0,0-35.97-99.609Z" fill="#ff4a73"/><path d="M161.57,133.78v40.98l-9.43,5.69a3.676,3.676,0,0,1-5.57-3.15V124.82A56.01,56.01,0,0,0,161.57,133.78Z" fill="#73d7f9"/><path d="M161.57,124.82a55.858,55.858,0,0,0,28.44,12.49,56.3,56.3,0,1,1,.02-111.6,56.294,56.294,0,0,0-28.46,99.11Z" fill="#f973a3"/><path d="M218.5,124.82V177.3a3.684,3.684,0,0,1-5.58,3.15l-9.42-5.69V133.77A56.134,56.134,0,0,0,218.5,124.82Z" fill="#30b6ff"/><path d="M238.83,81.51a56.2,56.2,0,0,1-20.33,43.31c-.72.6-1.46,1.19-2.22,1.75a56.375,56.375,0,0,1-41.27,10.74,55.846,55.846,0,0,0,26.27-10.74c.76-.56,1.5-1.15,2.22-1.75a56.3,56.3,0,0,0-28.47-99.11,56.313,56.313,0,0,1,63.8,55.8Z" fill="#ea2a6a"/><path d="M170.8,91.561H138.51a4.423,4.423,0,0,1-1.78-8.47l25.05-11a18.927,18.927,0,0,0-.12,2.111C161.66,81.021,165.16,87.172,170.8,91.561Z" fill="#f2c300"/><path d="M237.75,92.521a56.279,56.279,0,0,1-19.25,32.3c-.72.6-1.46,1.19-2.22,1.75a79.863,79.863,0,0,0-8.99-31.67c8.68-4.25,14.48-11.929,14.48-20.7,0-.341-.01-.691-.03-1.03A119.2,119.2,0,0,1,237.75,92.521Z" fill="#ffe2e2"/><path d="M221.74,73.172c-.66-13.22-13.84-30.021-30.02-30.021-15.75,0-28.66,15.9-29.94,28.94a18.927,18.927,0,0,0-.12,2.111c0,6.819,3.5,12.97,9.14,17.359a34.027,34.027,0,0,0,20.92,6.83,35.632,35.632,0,0,0,15.57-3.49c8.68-4.25,14.48-11.929,14.48-20.7C221.77,73.861,221.76,73.511,221.74,73.172Z" fill="#ffe2e2"/><rect x="6.504" y="208.667" width="242.991" height="22.121" rx="10.667" ry="10.667" fill="#b76c6c"/><path d="M75.833,117.54h0A52.167,52.167,0,0,1,128,169.707v38.961a0,0,0,0,1,0,0H23.667a0,0,0,0,1,0,0V169.707A52.167,52.167,0,0,1,75.833,117.54Z" fill="#ffbb98"/><path d="M83.33,118.08a52.176,52.176,0,0,0-44.66,51.63v38.96h-15V169.71a52.165,52.165,0,0,1,52.16-52.17A51.526,51.526,0,0,1,83.33,118.08Z" fill="#ffcaa6"/><path d="M128,169.71v38.96H113V169.71a52.173,52.173,0,0,0-44.67-51.63A52.172,52.172,0,0,1,128,169.71Z" fill="#ffaa80"/><path d="M237.75,92.52a56.286,56.286,0,0,1-19.25,32.3c-.72.6-1.46,1.19-2.22,1.75a89.107,89.107,0,0,0-2.14-13.49,56.372,56.372,0,0,0,9.3-38.22A120.514,120.514,0,0,1,237.75,92.52Z" fill="#ffcfcf"/><path d="M237.75,92.52a56.286,56.286,0,0,1-19.25,32.3c-.72.6-1.46,1.19-2.22,1.75a89.107,89.107,0,0,0-2.14-13.49,56.372,56.372,0,0,0,9.3-38.22A120.514,120.514,0,0,1,237.75,92.52Z" fill="#ffcfcf"/><path d="M238.829,204.667H132V169.706a56.167,56.167,0,0,0-112.333,0v34.961h-2.5c-7.5,0-14.667,5.722-14.667,15.455a14.683,14.683,0,0,0,14.667,14.666H238.829c7.5,0,14.667-5.722,14.667-15.454A14.684,14.684,0,0,0,238.829,204.667ZM27.667,169.706a48.167,48.167,0,0,1,96.333,0v34.961H27.667Zm211.162,57.082H17.171c-8.9,0-8.9-14.121,0-14.121H238.829C247.82,212.667,247.56,226.788,238.829,226.788Z" fill="#5f266d"/><path d="M103.473,146.4a36.12,36.12,0,0,0-27.64-12.862,4,4,0,0,0,0,8,28.132,28.132,0,0,1,21.526,10.023,4,4,0,0,0,6.114-5.161Z" fill="#5f266d"/><path d="M106.2,158.351a4,4,0,0,0-2.963,4.819,28.25,28.25,0,0,1,.765,6.537,4,4,0,0,0,8,0,36.242,36.242,0,0,0-.983-8.392A4,4,0,0,0,106.2,158.351Z" fill="#5f266d"/><path d="M142.57,126.631V177.3a7.682,7.682,0,0,0,11.637,6.574l28.322-17.1,28.333,17.1A7.686,7.686,0,0,0,222.5,177.3V126.643A60.287,60.287,0,0,0,182.53,21.212C127.109,21.212,101.217,90.043,142.57,126.631Zm15.41-48.5a25.052,25.052,0,0,0,3.7,9.432H138.51c-.183,0-.34,0-.41-.339s.065-.392.239-.468Zm66.51,3.7a120.355,120.355,0,0,1,8.983,11.515,52.418,52.418,0,0,1-14.129,25.3A82.3,82.3,0,0,0,212.583,96.5,28.993,28.993,0,0,0,224.49,81.831Zm-18.951,9.474c-18.229,8.874-41.576-2.388-39.778-18.823,1.15-11.714,12.74-25.33,25.959-25.33C210.517,47.152,231.69,78.5,205.539,91.305ZM138.51,95.561h30.965c10.053,7.186,24.041,8.75,35.92,4.463a76.627,76.627,0,0,1,6.664,24.648c-30.881,21.127-73.892,3.78-80.9-33.431A8.335,8.335,0,0,0,138.51,95.561Zm47.973,64.259a7.692,7.692,0,0,0-7.92.007l-27.993,16.9V132.643a60.371,60.371,0,0,0,63.93,0v44.086ZM182.53,29.212a52.351,52.351,0,0,1,52.295,52.516A117.1,117.1,0,0,0,225.6,71.375c-1.674-15.254-16.3-32.223-33.884-32.223-16.7,0-30.9,15.5-33.579,30.169L135.125,79.428a8.345,8.345,0,0,0-4.767,5.565A52.333,52.333,0,0,1,182.53,29.212Z" fill="#5f266d"/><circle cx="183.42" cy="65.36" r="5.408" fill="#5f266d"/></svg>