<svg xmlns="http://www.w3.org/2000/svg" viewBox="0 0 256 256"><title>Foodies Expanded</title><circle cx="128" cy="128" r="81" fill="#5fcdff"/><path d="M135.5,208.65q-3.7.345-7.5.35a81,81,0,0,1,0-162q3.8,0,7.5.35a81,81,0,0,0,0,161.3Z" fill="#73d7f9"/><path d="M209,128a80.994,80.994,0,0,1-81,81q-3.8,0-7.5-.35a81,81,0,0,0,0-161.3q3.7-.345,7.5-.35A80.994,80.994,0,0,1,209,128Z" fill="#30b6ff"/><circle cx="225.263" cy="30.737" r="14.974" fill="#5fcdff"/><circle cx="30.737" cy="225.263" r="14.974" fill="#5fcdff"/><circle cx="30.737" cy="30.737" r="14.974" fill="#5fcdff"/><circle cx="225.263" cy="225.263" r="14.974" fill="#5fcdff"/><rect x="67.255" y="142.375" width="121.496" height="21.5" rx="5" ry="5" fill="#796e84"/><path d="M128,94.625h0a47.331,47.331,0,0,1,47.331,47.331v.419a0,0,0,0,1,0,0H80.672a0,0,0,0,1,0,0v-.419A47.331,47.331,0,0,1,128,94.625Z" fill="#87828e"/><path d="M175.338,141.955v.42h-15v-.42a47.316,47.316,0,0,0-39.83-46.73,46.257,46.257,0,0,1,7.49-.6h.01A47.33,47.33,0,0,1,175.338,141.955Z" fill="#796e84"/><path d="M87.258,163.875h-15a5,5,0,0,1-5-5v-11.5a5,5,0,0,1,5-5h15a5,5,0,0,0-5,5v11.5A5,5,0,0,0,87.258,163.875Z" fill="#87828e"/><path d="M135.508,95.225a47.324,47.324,0,0,0-39.84,46.73v.42h-15v-.42A47.33,47.33,0,0,1,128,94.625h.01A46.381,46.381,0,0,1,135.508,95.225Z" fill="#a4a4a5"/><path d="M188.748,147.375v11.5a5,5,0,0,1-5,5h-15a5,5,0,0,0,5-5v-11.5a5,5,0,0,0-5-5h15A5,5,0,0,1,188.748,147.375Z" fill="#796e84"/><path d="M225.264,206.29a18.848,18.848,0,0,0-10.273,3.044L190.837,185.18a84.843,84.843,0,0,0,0-114.36l24.154-24.154a19.027,19.027,0,1,0-5.657-5.657L185.18,65.163a84.843,84.843,0,0,0-114.36,0L46.666,41.009a19.023,19.023,0,1,0-5.657,5.657L65.163,70.82a84.843,84.843,0,0,0,0,114.36L41.009,209.334a19.027,19.027,0,1,0,5.657,5.657L70.82,190.837a84.843,84.843,0,0,0,114.36,0l24.154,24.154a18.959,18.959,0,1,0,15.93-8.7Zm0-186.527a10.974,10.974,0,1,1-10.975,10.974A10.986,10.986,0,0,1,225.264,19.763ZM30.736,41.71A10.974,10.974,0,1,1,41.711,30.737,10.985,10.985,0,0,1,30.736,41.71Zm0,194.527a10.974,10.974,0,1,1,10.975-10.974A10.986,10.986,0,0,1,30.736,236.237ZM128,205a77,77,0,1,1,77-77A77.087,77.087,0,0,1,128,205Zm97.264,31.237a10.974,10.974,0,1,1,10.973-10.974A10.987,10.987,0,0,1,225.264,236.237Z" fill="#5f266d"/><path d="M183.751,138.375H179.2A51.39,51.39,0,0,0,132,90.8V78.125h9.949a4,4,0,0,0,0-8h-27.9a4,4,0,1,0,0,8H124V90.8a51.392,51.392,0,0,0-47.189,47.579H72.255a9.01,9.01,0,0,0-9,9v11.5a9.01,9.01,0,0,0,9,9h111.5a9.01,9.01,0,0,0,9-9v-11.5A9.01,9.01,0,0,0,183.751,138.375ZM128,98.625a43.393,43.393,0,0,1,43.185,39.75H84.818A43.392,43.392,0,0,1,128,98.625Zm56.748,60.25a1,1,0,0,1-1,1H72.255a1,1,0,0,1-1-1v-11.5a1,1,0,0,1,1-1h111.5a1,1,0,0,1,1,1Z" fill="#5f266d"/><path d="M158.643,124.381q-.537-.931-1.127-1.827a4,4,0,1,0-6.678,4.406q.456.69.869,1.409a4,4,0,1,0,6.936-3.988Z" fill="#5f266d"/><path d="M145.271,111.14A35.3,35.3,0,0,0,128,106.625a4,4,0,0,0,0,8,27.288,27.288,0,0,1,13.349,3.487C145.988,120.72,149.846,113.713,145.271,111.14Z" fill="#5f266d"/></svg>