<svg xmlns="http://www.w3.org/2000/svg" viewBox="0 0 256 256"><title>Foodies Expanded</title><rect x="34.79" y="81.51" width="18.74" height="74.38" fill="#87828e"/><rect x="202.47" y="81.51" width="18.74" height="74.38" fill="#87828e"/><path d="M247.67,66.71,222.85,12.56a10.3,10.3,0,0,0-9.56-6.92H43.19a10.3,10.3,0,0,0-9.53,6.85L8.36,66.64c-2.68,7.13,2.28,14.87,9.53,14.87H87.34c-.1-1.13-.15-2.28-.15-3.44a40.81,40.81,0,0,1,81.62,0c0,1.16-.05,2.31-.15,3.44h69.45C245.33,81.51,250.29,73.83,247.67,66.71Z" fill="#ff4a73"/><path d="M238.45,206.59v38.77a5,5,0,0,1-5,5H22.55a5,5,0,0,1-5-5V206.59c5.16-3.06,8.73-7.18,18.39-7.18,15.35,0,15.35,10.41,30.7,10.41s15.34-10.41,30.68-10.41,15.35,10.41,30.69,10.41,15.34-10.41,30.69-10.41,15.34,10.41,30.68,10.41,15.35-10.41,30.69-10.41C229.73,199.41,233.3,203.53,238.45,206.59Z" fill="#ff4a73"/><path d="M245.75,155.89H10.25a5,5,0,0,0-5,5v48.93a22.453,22.453,0,0,0,12.3-3.23c5.16-3.06,8.73-7.18,18.39-7.18,15.35,0,15.35,10.41,30.7,10.41s15.34-10.41,30.68-10.41,15.35,10.41,30.69,10.41,15.34-10.41,30.69-10.41,15.34,10.41,30.68,10.41,15.35-10.41,30.69-10.41c9.66,0,13.23,4.12,18.38,7.18a22.453,22.453,0,0,0,12.3,3.23V160.89A5,5,0,0,0,245.75,155.89Z" fill="#ffe2e2"/><path d="M128,37.27a40.806,40.806,0,0,0-40.81,40.8c0,1.16.05,2.31.15,3.44a40.8,40.8,0,0,0,81.32,0c.1-1.13.15-2.28.15-3.44A40.806,40.806,0,0,0,128,37.27Z" fill="#f9d335"/><path d="M37.55,250.36h-15a5,5,0,0,1-5-5V206.59c5.16-3.06,8.73-7.18,18.39-7.18a24.579,24.579,0,0,1,7.5,1.05l-.136.043A15.7,15.7,0,0,0,32.55,215.521V245.36A5,5,0,0,0,37.55,250.36Z" fill="#f973a3"/><path d="M33.66,12.49,8.36,66.64c-2.68,7.13,2.28,14.87,9.53,14.87h15c-7.25,0-12.21-7.74-9.53-14.87l25.3-54.15a10.3,10.3,0,0,1,9.53-6.85h-15A10.3,10.3,0,0,0,33.66,12.49Z" fill="#f973a3"/><path d="M5.25,160.89v48.93a22.453,22.453,0,0,0,12.3-3.23c.94-.56,1.82-1.15,2.7-1.75V160.89a5,5,0,0,1,5-5h-15A5,5,0,0,0,5.25,160.89Z" fill="#ffefee"/><path d="M102.34,81.51c-.1-1.13-.15-2.28-.15-3.44A40.811,40.811,0,0,1,135.5,37.96,40.835,40.835,0,0,0,87.19,78.07c0,1.16.05,2.31.15,3.44a40.832,40.832,0,0,0,48.16,36.68A40.815,40.815,0,0,1,102.34,81.51Z" fill="#f9e27d"/><path d="M238.11,81.51h-15c7.22,0,12.18-7.68,9.56-14.8L207.85,12.56a10.3,10.3,0,0,0-9.56-6.92h15a10.3,10.3,0,0,1,9.56,6.92l24.82,54.15C250.29,73.83,245.33,81.51,238.11,81.51Z" fill="#ea2a6a"/><path d="M238.45,206.59v38.77a5,5,0,0,1-5,5h-15a5,5,0,0,0,5-5V215.5A15.678,15.678,0,0,0,212.716,200.5l-.136-.043a24.557,24.557,0,0,1,7.49-1.05C229.73,199.41,233.3,203.53,238.45,206.59Z" fill="#ea2a6a"/><path d="M250.75,160.89v48.93a22.453,22.453,0,0,1-12.3-3.23c-.94-.56-1.82-1.15-2.7-1.75V160.89a5,5,0,0,0-5-5h15A5,5,0,0,1,250.75,160.89Z" fill="#ffcfcf"/><path d="M245.75,151.89H225.21V85.51h12.9c10.1,0,16.862-10.538,13.314-20.181-.035-.1-.075-.192-.118-.286L226.544,11.021A14.374,14.374,0,0,0,213.29,1.64H43.19a14.2,14.2,0,0,0-13.213,9.285L4.736,64.947c-.044.094-.084.189-.12.286A15.325,15.325,0,0,0,6.332,79.354,13.927,13.927,0,0,0,17.89,85.51h12.9v66.38H10.25a9.011,9.011,0,0,0-9,9v48.93a4,4,0,0,0,4,4,29.175,29.175,0,0,0,8.3-1.116V245.36a9.01,9.01,0,0,0,9,9h210.9a9.01,9.01,0,0,0,9-9V212.7a29.18,29.18,0,0,0,8.3,1.116,4,4,0,0,0,4-4V160.89A9.01,9.01,0,0,0,245.75,151.89ZM213.29,9.64a6.279,6.279,0,0,1,5.808,4.306c.035.1.073.189.116.281l24.749,53.994c1.553,4.477-1.471,9.289-5.853,9.289H226.623a3.952,3.952,0,0,0-.3-1.084L196.178,9.64Zm-25.888,0,30.637,67.87H193.656a3.975,3.975,0,0,0-.1-.545L174.169,9.64ZM217.21,85.51v66.38H206.47V85.51Zm-18.74,0v66.38H57.53V85.51H83.824a44.8,44.8,0,0,0,88.353,0ZM165.844,9.64l19.545,67.87H172.806A44.732,44.732,0,0,0,157.169,44.1L150.991,9.64ZM132,9.64h10.863l5.078,28.327A44.433,44.433,0,0,0,132,33.457Zm32.81,68.43c0,1.041-.045,2.08-.136,3.109A36.79,36.79,0,0,1,149.313,108V92.146h.675c4.938,0,8.955-3.606,8.955-8.039V63.691a4,4,0,0,0-8,0V83.879a1.618,1.618,0,0,1-.955.267h-.675V63.691a4,4,0,0,0-8,0V84.146h-.674a1.618,1.618,0,0,1-.955-.267V63.691a4,4,0,0,0-8,0V84.107c0,4.433,4.017,8.039,8.955,8.039h.674v20.2a36.267,36.267,0,0,1-23.817.974V97.961c7.671-1.713,12.44-8.45,12.44-18.151,0-12.539-7.222-22.361-16.44-22.361S97.057,67.271,97.057,79.81c0,9.7,4.768,16.438,12.439,18.151v11.858A36.78,36.78,0,1,1,164.81,78.07ZM113.5,90.4c-6.975,0-8.439-5.76-8.439-10.593,0-8.463,4.447-14.361,8.439-14.361s8.44,5.9,8.44,14.361C121.936,84.643,120.471,90.4,113.5,90.4ZM113.137,9.64H124V33.457a44.283,44.283,0,0,0-15.941,4.51Zm-8.128,0L98.833,44.1A44.728,44.728,0,0,0,83.193,77.51H70.611L90.156,9.64Zm-23.178,0L62.443,76.965a3.975,3.975,0,0,0-.1.545H37.962L68.6,9.64ZM49.53,85.51v66.38H38.79V85.51Zm-20.153-8H17.89a6.037,6.037,0,0,1-4.981-2.71,7.322,7.322,0,0,1-.852-6.622L37.284,14.184c.043-.092.083-.186.118-.281A6.282,6.282,0,0,1,43.19,9.64H59.821C27.549,81.131,29.515,76.54,29.377,77.51ZM234.45,245.36a1,1,0,0,1-1,1H22.55a1,1,0,0,1-1-1V208.793c4.364-2.887,7.182-5.383,14.39-5.383,13.589,0,13.963,10.41,30.7,10.41s17.078-10.41,30.68-10.41c13.58,0,13.968,10.41,30.69,10.41s17.1-10.41,30.69-10.41,13.952,10.41,30.68,10.41c16.747,0,17.1-10.41,30.69-10.41,7.185,0,10.006,2.477,14.38,5.382Zm12.3-39.853c-9.483-1.612-11.753-10.1-26.68-10.1-16.728,0-17.1,10.41-30.69,10.41-6.441,0-9.377-1.992-13.094-4.515-4.072-2.763-8.686-5.9-17.586-5.9-16.747,0-17.095,10.41-30.69,10.41s-13.941-10.41-30.69-10.41-17.078,10.41-30.68,10.41c-12.329,0-13.442-8.309-26.119-10.1-17.842-2.524-21.243,8.086-31.271,9.79V160.89a1,1,0,0,1,1-1h235.5a1,1,0,0,1,1,1Z" fill="#5f266d"/><path d="M196,167.858h-3.8a4,4,0,0,0,0,8H196a4,4,0,0,0,0-8Z" fill="#5f266d"/><path d="M177.2,167.858h-18a4,4,0,0,0,0,8h18a4,4,0,0,0,0-8Z" fill="#5f266d"/></svg>