<svg xmlns="http://www.w3.org/2000/svg" viewBox="0 0 256 256"><title>Foodies Expanded</title><path d="M229.564,150.6H208.937v-50a5,5,0,0,0-5-5H11.437a5,5,0,0,0-5,5v140a5,5,0,0,0,5,5h192.5a5,5,0,0,0,5-5v-50h20.627a20,20,0,0,0,20-20h0A20,20,0,0,0,229.564,150.6Z" fill="#b76c6c"/><rect x="47.687" y="84.347" width="120" height="172.5" transform="translate(278.283 62.91) rotate(90)" fill="#b76c6c"/><rect x="21.44" y="110.597" width="172.5" height="15" fill="#c98585"/><rect x="21.44" y="215.597" width="172.5" height="15" fill="#965959"/><path d="M168.75,110.594h-20.5a5,5,0,0,0-5,5v61.49a5,5,0,0,0,5,5h20.5a5,5,0,0,0,5-5v-61.49A5,5,0,0,0,168.75,110.594Z" fill="#87828e"/><path d="M173.75,177.084v53.51H155.67v-48.51h13.08A5,5,0,0,0,173.75,177.084Z" fill="#965959"/><rect x="38.588" y="159.097" width="48.412" height="23" rx="5" ry="5" fill="#ff4a73"/><rect x="102.961" y="159.097" width="17.706" height="23" rx="5" ry="5" fill="#ff4a73"/><path d="M163.25,182.084h-15a5,5,0,0,1-5-5v-61.49a5,5,0,0,1,5-5h15a5,5,0,0,0-5,5v61.49A5,5,0,0,0,163.25,182.084Z" fill="#a4a4a5"/><circle cx="38.588" cy="43.66" r="33.257" fill="#b76c6c"/><circle cx="128" cy="43.66" r="33.257" fill="#f9d335"/><circle cx="217.412" cy="43.66" r="33.257" fill="#44c7b6"/><path d="M46.08,76.064A33.257,33.257,0,1,1,38.59,10.4a32.946,32.946,0,0,1,7.49.85,33.265,33.265,0,0,0,0,64.81Z" fill="#c98585"/><path d="M135.49,76.064a33.255,33.255,0,1,1,0-64.81,33.265,33.265,0,0,0,0,64.81Z" fill="#f9e27d"/><path d="M224.9,76.064a33.256,33.256,0,1,1-7.49-65.66,32.946,32.946,0,0,1,7.49.85,33.268,33.268,0,0,0,0,64.81Z" fill="#4bdbc3"/><path d="M193.937,106.6H21.437a4,4,0,0,0-4,4v120a4,4,0,0,0,4,4h172.5a4,4,0,0,0,4-4v-120A4,4,0,0,0,193.937,106.6ZM159.67,186.084h9.08a9.064,9.064,0,0,0,.966-.054l.034,0v40.566H159.67Zm10.08-70.49v61.49a1,1,0,0,1-1,1h-20.5a1,1,0,0,1-1-1v-61.49a1,1,0,0,1,.986-1h20.529A1,1,0,0,1,169.75,115.594Zm-144.313-1H139.309a8.867,8.867,0,0,0-.059,1v61.49a9.01,9.01,0,0,0,9,9h3.42V226.6H25.437Zm164.5,112H177.75v-111a9.11,9.11,0,0,0-.058-1h12.245Z" fill="#5f266d"/><path d="M229.564,146.6H212.937v-46a9.01,9.01,0,0,0-9-9H11.437a9.01,9.01,0,0,0-9,9v140a9.01,9.01,0,0,0,9,9h192.5a9.01,9.01,0,0,0,9-9v-46h16.627a24,24,0,0,0,0-48Zm0,40H208.937a4,4,0,0,0-4,4v50a1,1,0,0,1-1,1H11.437a1,1,0,0,1-1-1v-140a1,1,0,0,1,1-1h192.5a1,1,0,0,1,1,1v50a4,4,0,0,0,4,4h20.627a16,16,0,0,1,0,32Z" fill="#5f266d"/><path d="M38.588,80.917A37.257,37.257,0,1,0,1.331,43.66,37.3,37.3,0,0,0,38.588,80.917Zm0-66.514A29.257,29.257,0,1,1,9.331,43.66,29.291,29.291,0,0,1,38.588,14.4Z" fill="#5f266d"/><path d="M38.588,29.4A14.264,14.264,0,0,1,52.731,45.468,4,4,0,0,0,56.2,49.939a3.815,3.815,0,0,0,.509.033,4,4,0,0,0,3.964-3.5,22.539,22.539,0,0,0,.177-2.815A22.282,22.282,0,0,0,38.588,21.4a4,4,0,0,0,0,8Z" fill="#5f266d"/><path d="M38.588,65.918a22.08,22.08,0,0,0,12.974-4.181,4,4,0,1,0-4.672-6.494,14.131,14.131,0,0,1-8.3,2.675,4,4,0,1,0,0,8Z" fill="#5f266d"/><path d="M128,80.917A37.257,37.257,0,1,0,90.743,43.66,37.3,37.3,0,0,0,128,80.917ZM128,14.4A29.257,29.257,0,1,1,98.743,43.66,29.29,29.29,0,0,1,128,14.4Z" fill="#5f266d"/><path d="M126.67,31.917a5.173,5.173,0,1,0-5.173-5.173A5.173,5.173,0,0,0,126.67,31.917Z" fill="#5f266d"/><path d="M114.837,43.66a5.173,5.173,0,1,0-5.173-5.173A5.173,5.173,0,0,0,114.837,43.66Z" fill="#5f266d"/><circle cx="136.17" cy="56.744" r="5.173" fill="#5f266d"/><path d="M82,155.1H43.588a9.01,9.01,0,0,0-9,9v13a9.01,9.01,0,0,0,9,9H82a9.01,9.01,0,0,0,9-9v-13A9.01,9.01,0,0,0,82,155.1Zm-39.412,22v-13a1,1,0,0,1,1-1H58.794v15H43.588A1,1,0,0,1,42.588,177.1ZM83,177.1a1,1,0,0,1-1,1H66.794v-15H82a1,1,0,0,1,1,1Z" fill="#5f266d"/><path d="M115.667,155.1h-7.706a9.01,9.01,0,0,0-9,9v13a9.01,9.01,0,0,0,9,9h7.706a9.01,9.01,0,0,0,9-9v-13A9.01,9.01,0,0,0,115.667,155.1Zm1,22a1,1,0,0,1-1,1h-7.706a1,1,0,0,1-1-1v-13a1,1,0,0,1,1-1h7.706a1,1,0,0,1,1,1Z" fill="#5f266d"/><path d="M217.412,6.4A37.257,37.257,0,1,0,254.669,43.66,37.3,37.3,0,0,0,217.412,6.4Zm0,66.514A29.257,29.257,0,1,1,246.669,43.66,29.29,29.29,0,0,1,217.412,72.917Z" fill="#5f266d"/><path d="M231.217,37.334l.095.063a4,4,0,1,0,4.422-6.666l-.058-.039c-1.824-1.239-3.873-3.374-3.278-6.508a4,4,0,0,0-7.859-1.493C223.474,28.3,225.957,33.762,231.217,37.334Z" fill="#5f266d"/><path d="M212.393,48.24a3.836,3.836,0,0,0,.476.029,4,4,0,0,0,3.968-3.529c.558-4.7,3.572-5.705,3.905-5.8l.254-.065A4,4,0,1,0,219,31.126l-.173.046c-3.224.758-8.945,4.269-9.938,12.625A4,4,0,0,0,212.393,48.24Z" fill="#5f266d"/><path d="M202.512,33.707c.165.009.347.015.544.015,2.759,0,8.459-1.092,12.5-9.238a4,4,0,1,0-7.166-3.556c-1.539,3.1-3.58,4.906-5.447,4.791a4,4,0,0,0-.434,7.988Z" fill="#5f266d"/><path d="M242.813,50.673a4,4,0,0,0-4.462-3.478c-3.5.438-5.95-1.171-6.571-2.449a4,4,0,1,0-7.195,3.5c1.73,3.562,6.3,7.029,12.571,7.029a17.626,17.626,0,0,0,2.179-.136A4,4,0,0,0,242.813,50.673Z" fill="#5f266d"/><path d="M197.534,39.429a4,4,0,0,0-2.763,7.508c4.443,1.634,4.72,4.8,4.736,5.151A3.967,3.967,0,0,0,203.5,56.05h.007a4.034,4.034,0,0,0,4-4.025C207.518,48.715,205.43,42.334,197.534,39.429Z" fill="#5f266d"/><path d="M215.346,51.638A4,4,0,1,0,212.214,59c4.355,1.854,4.474,5.028,4.477,5.292a1.179,1.179,0,0,0-.006.252l0,.2a4,4,0,0,0,4,3.961h.039a4,4,0,0,0,3.962-4.039v-.1C224.8,61.22,222.975,54.884,215.346,51.638Z" fill="#5f266d"/></svg>