<svg xmlns="http://www.w3.org/2000/svg" viewBox="0 0 256 256"><title>Foodies Expanded</title><path d="M89.393,7.413h77.213a20,20,0,0,1,20,20V46.739a5,5,0,0,1-5,5H74.393a5,5,0,0,1-5-5V27.413a20,20,0,0,1,20-20Z" fill="#f9d335"/><rect x="57.368" y="75.077" width="141.263" height="173.511" rx="25" ry="25" fill="#ffe2e2"/><rect x="82.625" y="51.739" width="90.75" height="23.338" fill="#a4a4a5"/><rect x="75.831" y="75.077" width="34.779" height="173.511" rx="15.017" ry="15.017" fill="#44c7b6"/><rect x="110.61" y="75.077" width="34.779" height="173.511" rx="15.017" ry="15.017" fill="#44c7b6"/><rect x="145.389" y="75.077" width="34.779" height="173.511" rx="15.017" ry="15.017" fill="#44c7b6"/><path d="M100.72,247.69a15.036,15.036,0,0,1-5.13.9H90.85a15.02,15.02,0,0,1-15.02-15.02V90.09A15.012,15.012,0,0,1,90.85,75.08h4.74a15.036,15.036,0,0,1,5.13.9,15.008,15.008,0,0,0-9.89,14.11V233.57A15.021,15.021,0,0,0,100.72,247.69Z" fill="#4bdbc3"/><path d="M135.5,247.69a15.036,15.036,0,0,1-5.13.9h-4.74a15.02,15.02,0,0,1-15.02-15.02V90.09a15.012,15.012,0,0,1,15.02-15.01h4.74a15.036,15.036,0,0,1,5.13.9,15.008,15.008,0,0,0-9.89,14.11V233.57A15.021,15.021,0,0,0,135.5,247.69Z" fill="#4bdbc3"/><path d="M170.28,247.69a15.036,15.036,0,0,1-5.13.9h-4.74a15.02,15.02,0,0,1-15.02-15.02V90.09a15.012,15.012,0,0,1,15.02-15.01h4.74a15.036,15.036,0,0,1,5.13.9,15.008,15.008,0,0,0-9.89,14.11V233.57A15.021,15.021,0,0,0,170.28,247.69Z" fill="#4bdbc3"/><path d="M84.39,27.41V46.74a5,5,0,0,0,5,5h-15a5,5,0,0,1-5-5V27.41a20.007,20.007,0,0,1,20-20h15A20.007,20.007,0,0,0,84.39,27.41Z" fill="#f9e27d"/><path d="M186.61,27.41V46.74a5,5,0,0,1-5,5h-15a5,5,0,0,0,5-5V27.41a20.007,20.007,0,0,0-20-20h15A20.007,20.007,0,0,1,186.61,27.41Z" fill="#f2c300"/><path d="M177.375,71.327V55.739h4.231a9.01,9.01,0,0,0,9-9V27.413a24.027,24.027,0,0,0-24-24H89.393a24.027,24.027,0,0,0-24,24V46.739a9.01,9.01,0,0,0,9,9h4.232V71.327a29.037,29.037,0,0,0-25.257,28.75v123.51a29.034,29.034,0,0,0,29,29h91.264a29.034,29.034,0,0,0,29-29V100.077A29.038,29.038,0,0,0,177.375,71.327ZM141.389,233.57A11.025,11.025,0,0,1,132,244.453v-17.79a4,4,0,0,0-8,0v17.79a11.025,11.025,0,0,1-9.39-10.883V90.094A11.025,11.025,0,0,1,124,79.211V94.2a4,4,0,0,0,8,0V79.211a11.025,11.025,0,0,1,9.389,10.883ZM79.83,90.094a11.025,11.025,0,0,1,9.39-10.883v16.24a4,4,0,0,0,8,0V79.211a11.025,11.025,0,0,1,9.39,10.883V233.57a11.025,11.025,0,0,1-9.39,10.883v-16.54a4,4,0,0,0-8,0v16.54a11.025,11.025,0,0,1-9.39-10.883ZM176.169,233.57a11.025,11.025,0,0,1-9.39,10.883V211.438a4,4,0,0,0-8,0v33.015a11.026,11.026,0,0,1-9.39-10.883V90.094a11.026,11.026,0,0,1,9.39-10.883V91.227a4,4,0,0,0,8,0V79.211a11.025,11.025,0,0,1,9.39,10.883ZM73.393,46.739V27.413a16.019,16.019,0,0,1,16-16h77.213a16.019,16.019,0,0,1,16,16V46.739a1,1,0,0,1-1,1H74.393A1,1,0,0,1,73.393,46.739Zm95.982,9V71.077H86.625V55.739ZM61.368,223.587V100.077a21.026,21.026,0,0,1,12.98-19.4,18.88,18.88,0,0,0-2.518,9.417V233.57a18.881,18.881,0,0,0,2.518,9.418A21.029,21.029,0,0,1,61.368,223.587Zm133.264,0a21.028,21.028,0,0,1-12.981,19.4,18.881,18.881,0,0,0,2.518-9.418V90.094a18.881,18.881,0,0,0-2.518-9.418,21.028,21.028,0,0,1,12.981,19.4Z" fill="#5f266d"/><path d="M168.333,39.08h2.334a4,4,0,0,0,0-8h-2.334a4,4,0,0,0,0,8Z" fill="#5f266d"/><path d="M138.333,39.08h15a4,4,0,0,0,0-8h-15a4,4,0,0,0,0,8Z" fill="#5f266d"/><path d="M93.22,116.663a4,4,0,0,0,4-4v-2.212a4,4,0,0,0-8,0v2.212A4,4,0,0,0,93.22,116.663Z" fill="#5f266d"/><path d="M93.22,182.913a4,4,0,0,0-4,4v26a4,4,0,0,0,8,0v-26A4,4,0,0,0,93.22,182.913Z" fill="#5f266d"/><path d="M93.22,145.875a4,4,0,0,0,4-4v-2.712a4,4,0,0,0-8,0v2.712A4,4,0,0,0,93.22,145.875Z" fill="#5f266d"/><path d="M93.22,169.875a4,4,0,0,0,4-4v-9a4,4,0,0,0-8,0v9A4,4,0,0,0,93.22,169.875Z" fill="#5f266d"/><path d="M128,205.451a4,4,0,0,0-4,4v2.212a4,4,0,0,0,8,0v-2.212A4,4,0,0,0,128,205.451Z" fill="#5f266d"/><path d="M128,105.2a4,4,0,0,0-4,4v26a4,4,0,1,0,8,0v-26A4,4,0,0,0,128,105.2Z" fill="#5f266d"/><path d="M128,152.239a4,4,0,0,0-4,4v9a4,4,0,1,0,8,0v-9A4,4,0,0,0,128,152.239Z" fill="#5f266d"/><path d="M128,176.239a4,4,0,0,0-4,4v2.712a4,4,0,1,0,8,0v-2.712A4,4,0,0,0,128,176.239Z" fill="#5f266d"/><path d="M162.779,102.227a4,4,0,0,0-4,4v7.211a4,4,0,0,0,8,0v-7.211A4,4,0,0,0,162.779,102.227Z" fill="#5f266d"/><path d="M162.779,183.688a4,4,0,0,0-4,4v8.75a4,4,0,0,0,8,0v-8.75A4,4,0,0,0,162.779,183.688Z" fill="#5f266d"/><path d="M162.779,135.938a4,4,0,0,0-4,4v4.711a4,4,0,0,0,8,0v-4.711A4,4,0,0,0,162.779,135.938Z" fill="#5f266d"/><path d="M162.779,155.649a4,4,0,0,0-4,4v7a4,4,0,0,0,8,0v-7A4,4,0,0,0,162.779,155.649Z" fill="#5f266d"/></svg>