<svg xmlns="http://www.w3.org/2000/svg" viewBox="0 0 256 256"><title>Foodies Expanded</title><path d="M131.143,128.763c0-.061-6.286,0-6.286,0-13.569-.237-46.442-3.362-71.943-26.366a5.441,5.441,0,0,0-9.041,4.744L59.7,240.48a5.445,5.445,0,0,0,5.4,4.742H190.9a5.447,5.447,0,0,0,5.4-4.742l15.827-133.339a5.441,5.441,0,0,0-9.041-4.744C177.584,125.4,144.711,128.526,131.143,128.763Z" fill="#ff4a73"/><path d="M79.25,45.809v73.319a98.325,98.325,0,0,1-19.5-11.139V45.809Z" fill="#f9e27d"/><path d="M98.75,28.309V125.5a114.546,114.546,0,0,1-19.5-6.371V28.309Z" fill="#f2c300"/><path d="M118.25,10.778V128.449a127.246,127.246,0,0,1-19.5-2.95V10.778Z" fill="#f9e27d"/><path d="M137.75,28.309v100.14c-2.52.19-4.75.28-6.61.309,0-.035-6.28,0-6.28,0-1.86-.029-4.09-.119-6.61-.309V28.309Z" fill="#f2c300"/><path d="M157.25,10.778V125.5a127.246,127.246,0,0,1-19.5,2.95V10.778Z" fill="#f9e27d"/><path d="M176.75,28.309v90.819a114.546,114.546,0,0,1-19.5,6.371V28.309Z" fill="#f2c300"/><path d="M196.25,45.809v62.18a98.325,98.325,0,0,1-19.5,11.139V45.809Z" fill="#f9e27d"/><path d="M80.1,245.22h-15a5.44,5.44,0,0,1-5.4-4.74L43.87,107.14a5.44,5.44,0,0,1,9.04-4.74c1.95,1.76,3.95,3.41,5.98,4.94L74.7,240.48A5.44,5.44,0,0,0,80.1,245.22Z" fill="#f973a3"/><path d="M212.13,107.14,196.3,240.48a5.44,5.44,0,0,1-5.4,4.74h-15a5.44,5.44,0,0,0,5.4-4.74l15.81-133.14c2.03-1.53,4.03-3.18,5.98-4.94A5.44,5.44,0,0,1,212.13,107.14Z" fill="#ea2a6a"/><path d="M200.406,99.427l-.156.136V45.809a4,4,0,0,0-4-4h-15.5v-13.5a4,4,0,0,0-4-4h-15.5V10.778a4,4,0,0,0-4-4h-19.5a4,4,0,0,0-4,4V24.309h-11.5V10.778a4,4,0,0,0-4-4H98.75a4,4,0,0,0-4,4V24.309H79.25a4,4,0,0,0-4,4v13.5H59.75a4,4,0,0,0-4,4V99.563c-.052-.046-.1-.089-.157-.136A9.44,9.44,0,0,0,39.9,107.612L55.733,241a9.472,9.472,0,0,0,9.367,8.225H190.9a9.482,9.482,0,0,0,9.373-8.271l15.822-133.293A9.444,9.444,0,0,0,200.406,99.427ZM192.25,49.809V105.92a92.438,92.438,0,0,1-11.5,6.9V49.809Zm-19.5-17.5v84.136a107.43,107.43,0,0,1-11.5,3.889V32.309Zm-31-17.531h11.5V122.269c-3.748.769-7.528,1.367-11.5,1.8V14.778Zm-8,17.531V124.68q-.906.039-1.79.061c-.023,0-7.616.026-9.71-.061V32.309Zm-31-17.531h11.5V124.07c-3.784-.413-7.575-1-11.5-1.8V14.778ZM83.25,32.309h11.5v88.025a107.49,107.49,0,0,1-11.5-3.889V32.309Zm-19.5,17.5h11.5v63.015a91.5,91.5,0,0,1-11.5-6.9Zm144.405,56.86-15.82,133.292a1.453,1.453,0,0,1-1.436,1.261H65.1a1.44,1.44,0,0,1-1.428-1.214L47.839,106.623a1.435,1.435,0,0,1,2.4-1.257A100.591,100.591,0,0,0,77.662,122.8h0c39.873,17.242,94.82,12.59,128.1-17.434A1.438,1.438,0,0,1,208.155,106.669Z" fill="#5f266d"/><path d="M177.98,210.767a4,4,0,0,0-4.493,3.436l-.7,5.268a4,4,0,1,0,7.93,1.056l.7-5.267A4,4,0,0,0,177.98,210.767Z" fill="#5f266d"/><path d="M183.528,169.135a3.99,3.99,0,0,0-4.493,3.436l-3.566,26.764a4,4,0,0,0,3.436,4.493,3.867,3.867,0,0,0,.533.035,4,4,0,0,0,3.96-3.471l3.567-26.764A4,4,0,0,0,183.528,169.135Z" fill="#5f266d"/></svg>