<svg xmlns="http://www.w3.org/2000/svg" viewBox="0 0 256 256"><title>Foodies Expanded</title><path d="M130.536,147.791,171.3,120.538a22.377,22.377,0,0,1,5.118-7.851c.072-.072.168-.144.24-.216a29.613,29.613,0,0,1-3.127-2.683,28.973,28.973,0,0,1-8.417-21.707,28.971,28.971,0,0,1-21.672-8.508,29.578,29.578,0,0,1-2.67-3.138c-.073.072-.145.168-.217.24a22.221,22.221,0,0,1-7.668,5L105.5,122.733a4.147,4.147,0,0,0,.515,5.23L125.3,147.274A4.143,4.143,0,0,0,130.536,147.791Z" fill="#44c7b6"/><path d="M237.822,129.035a22.29,22.29,0,0,0,0-31.525c-.3-.3-.6-.578-.9-.853a28.921,28.921,0,0,0-2.376-47.913,21.651,21.651,0,0,0-30.117-30.117,28.923,28.923,0,0,0-45.208-5.5,29.353,29.353,0,0,0-2.705,3.126c-.275-.307-.558-.609-.853-.9A22.291,22.291,0,0,0,119.038,38.97a22.487,22.487,0,1,0,21.519,37.705c.072-.072.144-.168.217-.24a29.578,29.578,0,0,0,2.67,3.138,28.971,28.971,0,0,0,21.672,8.508,28.973,28.973,0,0,0,8.417,21.707,29.523,29.523,0,0,0,3.128,2.683c-.073.072-.169.144-.241.216A22.492,22.492,0,1,0,214.1,134.094,22.29,22.29,0,0,0,237.822,129.035Z" fill="#44c7b6"/><path d="M205.008,18.245A28.663,28.663,0,0,1,207.3,20.3a29.011,29.011,0,0,1,4.307,5.5,21.669,21.669,0,0,1,23.6-.655,21.648,21.648,0,0,0-30.189-6.9Zm-45.793-5.12a29.536,29.536,0,0,0-2.7,3.125c-.278-.307-.56-.608-.852-.9a22.291,22.291,0,0,0-36.625,23.619,22.506,22.506,0,0,0-6.254,40.86,22.487,22.487,0,0,1,13.432-33.682,22.291,22.291,0,0,1,36.625-23.619c.291.292.574.593.851.9a29.537,29.537,0,0,1,2.7-3.124,28.938,28.938,0,0,1,36.988-3.283,28.92,28.92,0,0,0-44.166-3.895Z" fill="#4bdbc3"/><path d="M203.381,17.02c.364.526.713,1.067,1.043,1.608.192-.134.388-.263.584-.383C204.477,17.81,203.931,17.408,203.381,17.02Z" fill="#4bdbc3"/><path d="M237.824,129.038a22.294,22.294,0,0,0-.005-31.529c-.292-.292-.593-.574-.9-.851a29.537,29.537,0,0,0,3.124-2.7,28.92,28.92,0,0,0-3.9-44.166,28.938,28.938,0,0,1-3.282,36.988,29.531,29.531,0,0,1-3.125,2.7c.306.278.608.56.9.852a22.289,22.289,0,0,1-23.715,36.586,22.485,22.485,0,0,1-33.72,13.614,22.487,22.487,0,0,0,40.9-6.436A22.29,22.29,0,0,0,237.824,129.038Zm-5.79-107.9a21.708,21.708,0,0,0-4.015-3.163,21.667,21.667,0,0,1-.655,23.6,28.937,28.937,0,0,1,7.56,6.594A21.643,21.643,0,0,0,232.034,21.135Z" fill="#3bb2a0"/><path d="M234.924,48.161c-.119.2-.249.392-.383.584.541.33,1.082.679,1.608,1.043C235.762,49.238,235.36,48.692,234.924,48.161Z" fill="#3bb2a0"/><path d="M113.2,135.139a4.138,4.138,0,0,1-.516-5.225l26.725-40.072a2.907,2.907,0,0,1,1.823-1.233l4.471-.938a2.948,2.948,0,0,1,2.461.618c4.51,3.647,12.359,5.462,17.438,6.45a29.279,29.279,0,0,1-.484-6.656,28.582,28.582,0,0,1-24.341-11.652c-.072.072-.144.172-.216.244a22.233,22.233,0,0,1-7.67,5L105.5,122.736a4.138,4.138,0,0,0,.517,5.225L125.3,147.278c.062.063.124.125.191.182Z" fill="#4bdbc3"/><path d="M171.3,120.54l-40.764,27.25a4.149,4.149,0,0,1-5.239-.512l-6.986-7a4.156,4.156,0,0,0,5.048.33l40.764-27.251a22.332,22.332,0,0,1,5.115-7.852c.024-.024.239-.172.531-.369a28.814,28.814,0,0,0,3.766,4.647,29.166,29.166,0,0,0,3.124,2.684c-.071.072-.172.144-.244.215A22.34,22.34,0,0,0,171.3,120.54Z" fill="#3bb2a0"/><path d="M150.587,223.026,123.334,182.26a22.34,22.34,0,0,1-7.851-5.118c-.072-.072-.144-.168-.216-.24a29.613,29.613,0,0,1-2.683,3.127,28.97,28.97,0,0,1-21.707,8.417,28.974,28.974,0,0,1-8.508,21.672,29.472,29.472,0,0,1-3.138,2.671c.072.072.168.144.24.216a22.234,22.234,0,0,1,5,7.669l41.057,27.385a4.146,4.146,0,0,0,5.23-.515l19.311-19.28A4.146,4.146,0,0,0,150.587,223.026Z" fill="#44c7b6"/><path d="M131.831,115.74a22.29,22.29,0,0,0-31.525,0c-.3.3-.578.6-.853.905a29.265,29.265,0,0,0-2.7-3.127,28.923,28.923,0,0,0-45.208,5.5,21.651,21.651,0,0,0-30.117,30.117,28.909,28.909,0,0,0-2.376,47.913c-.307.275-.609.558-.9.853a22.291,22.291,0,0,0,23.623,36.621,22.487,22.487,0,1,0,37.705-21.519c-.072-.072-.168-.144-.24-.216a29.578,29.578,0,0,0,3.138-2.67,28.973,28.973,0,0,0,8.507-21.673,28.97,28.97,0,0,0,21.708-8.417,29.613,29.613,0,0,0,2.683-3.127c.072.072.144.168.216.24a22.492,22.492,0,1,0,21.407-37.681A22.29,22.29,0,0,0,131.831,115.74Z" fill="#44c7b6"/><path d="M21.041,148.554a28.643,28.643,0,0,1,2.058-2.287,28.98,28.98,0,0,1,5.5-4.307,21.669,21.669,0,0,1-.655-23.6,21.648,21.648,0,0,0-6.905,30.189Zm-5.12,45.793a29.447,29.447,0,0,0,3.125,2.7c-.307.277-.608.559-.9.851a22.291,22.291,0,0,0,23.619,36.625,22.5,22.5,0,0,0,40.859,6.254,22.487,22.487,0,0,1-33.681-13.432,22.29,22.29,0,0,1-23.619-36.624c.291-.292.593-.574.9-.852a29.531,29.531,0,0,1-3.125-2.7,28.939,28.939,0,0,1-3.282-36.988,28.92,28.92,0,0,0-3.895,44.166Z" fill="#4bdbc3"/><path d="M19.816,150.181c.526-.364,1.067-.713,1.608-1.043-.134-.191-.263-.388-.383-.584C20.605,149.085,20.2,149.631,19.816,150.181Z" fill="#4bdbc3"/><path d="M131.834,115.738a22.294,22.294,0,0,0-31.529,0c-.292.292-.574.593-.852.9a29.536,29.536,0,0,0-2.7-3.125,28.92,28.92,0,0,0-44.166,3.895A28.938,28.938,0,0,1,89.572,120.7a29.422,29.422,0,0,1,2.7,3.124c.277-.306.56-.607.852-.9a22.289,22.289,0,0,1,36.586,23.714,22.486,22.486,0,0,1,13.613,33.721,22.488,22.488,0,0,0-6.435-40.9A22.29,22.29,0,0,0,131.834,115.738Zm-107.9,5.79a21.708,21.708,0,0,0-3.163,4.015,21.669,21.669,0,0,1,23.6.655,29.011,29.011,0,0,1,4.307-5.5,28.663,28.663,0,0,1,2.287-2.058A21.643,21.643,0,0,0,23.931,121.528Z" fill="#3bb2a0"/><path d="M50.957,118.638c.2.12.392.249.584.383.33-.541.679-1.082,1.043-1.608C52.034,117.8,51.488,118.2,50.957,118.638Z" fill="#3bb2a0"/><path d="M137.935,240.365a4.141,4.141,0,0,1-5.226.517L92.638,214.157a2.909,2.909,0,0,1-1.233-1.824l-.938-4.471a2.945,2.945,0,0,1,.618-2.46c3.647-4.511,5.462-12.359,6.45-17.438a29.335,29.335,0,0,1-6.656.483,28.973,28.973,0,0,1-8.513,21.672,29.361,29.361,0,0,1-3.139,2.67c.072.071.172.143.244.215a22.215,22.215,0,0,1,5,7.67l41.061,27.385a4.137,4.137,0,0,0,5.225-.517l19.317-19.279c.063-.062.125-.124.182-.191Z" fill="#4bdbc3"/><path d="M123.336,182.26l27.25,40.764a4.149,4.149,0,0,1-.512,5.239l-7,6.987a4.159,4.159,0,0,0,.33-5.049l-27.251-40.763a22.334,22.334,0,0,1-7.852-5.116c-.024-.024-.173-.239-.369-.531a28.761,28.761,0,0,0,4.647-3.766,29.166,29.166,0,0,0,2.684-3.124c.072.072.144.172.215.244A22.34,22.34,0,0,0,123.336,182.26Z" fill="#3bb2a0"/><path d="M252.513,73.5a32.77,32.77,0,0,0-12.66-25.95c10.479-21.768-12.479-44.729-34.24-34.23a32.906,32.906,0,0,0-49.22-3.03c-.06.07-.13.13-.19.19a26.309,26.309,0,0,0-34.9,2.04,26.365,26.365,0,0,0-7.15,23.91,26.419,26.419,0,0,0-8.16,5.53c-16.668,16.6-4.872,45.03,18.38,45.27l-12.19,18.28a26.1,26.1,0,0,0-12.42,5.36,32.92,32.92,0,0,0-49.41,2.84c-21.825-10.507-44.7,12.517-34.24,34.23-17.656,13.826-15.068,38.933-2.83,49.41a26.292,26.292,0,0,0,2.03,34.9,26.345,26.345,0,0,0,23.91,7.16c11.434,26.447,50.51,17.861,50.8-10.23l33.29,22.2a8.141,8.141,0,0,0,10.27-1.01l19.31-19.28a8.162,8.162,0,0,0,1.02-10.29l-22.09-33.05a26.486,26.486,0,0,0,16.39-46.97l17.6-11.77a26.482,26.482,0,0,0,50.85,9.99c24.022,5.028,41.263-22.861,26.02-42.04C247.612,92.743,252.513,83.569,252.513,73.5Zm-105.27,151.93c-.126.125-19.352,19.41-19.49,19.3l-40.06-26.72a26.566,26.566,0,0,0-2.78-4.79,33.123,33.123,0,0,0,9.86-20.86c8.536-.705,16.54-4.934,20.91-9.78a26.471,26.471,0,0,0,5,2.91C120.785,185.646,147.373,225.3,147.243,225.433Zm2.67-64.12a18.49,18.49,0,0,1-31.6,13,3.994,3.994,0,0,0-6.23.17,24.606,24.606,0,0,1-21.04,9.97,3.99,3.99,0,0,0-4.16,4.14,24.746,24.746,0,0,1-10.06,21c-1.674,1.255-2.463,3.95-.12,6.3a18.157,18.157,0,0,1,4.05,6.25c0,.01.01.01.01.02,7.23,18.452-16.183,33.988-30.33,19.76a18.363,18.363,0,0,1-4.79-8.4,4,4,0,0,0-5.28-2.74,18.356,18.356,0,0,1-19.39-4.18,18.288,18.288,0,0,1,0-25.87c1-1,2.155-1.8,2.07-3.86-.108-2.549-1.872-2.913-4.29-5.36a24.937,24.937,0,0,1,4.74-38.95,4.009,4.009,0,0,0,1.22-5.7,17.65,17.65,0,0,1,24.55-24.55,4.012,4.012,0,0,0,3.12.62c2.765-.6,2.274-2.575,6.29-6.59a24.969,24.969,0,0,1,35.25,0c2.517,2.548,2.85,4.195,5.36,4.3,2.363.1,3.1-1.482,4.74-2.9a18.289,18.289,0,0,1,29.13,20.29,4,4,0,0,0,2.77,5.31A18.466,18.466,0,0,1,149.913,161.313Zm18.16-43.42-.01.01-25.99,17.37a24.913,24.913,0,0,0,.28-3.75,26.25,26.25,0,0,0-20.76-25.71l13.95-20.91c.02-.01.03-.02.05-.02a26,26,0,0,0,4.74-2.76,33.18,33.18,0,0,0,20.87,9.85,33.161,33.161,0,0,0,9.77,20.91A26.04,26.04,0,0,0,168.073,117.893Zm66.18-18.26c15.145,13.932-.142,37.835-18.73,30.72a4.007,4.007,0,0,0-5.3,2.77,18.491,18.491,0,1,1-35.19-11.15c2.505-6.535,5.861-6.276,5.62-9.77-.176-2.52-1.875-2.825-4.29-5.24a24.8,24.8,0,0,1-7.25-18.72,4,4,0,0,0-4.14-4.16,24.734,24.734,0,0,1-21-10.05,3.992,3.992,0,0,0-6.24-.19h-.01a18.076,18.076,0,0,1-6.3,4.11c-.01,0-.01.01-.02.01a18.49,18.49,0,1,1-11.37-35.12,4.007,4.007,0,0,0,2.75-5.28,18.292,18.292,0,0,1,30.75-18.65,4,4,0,0,0,6.18-.26,25.547,25.547,0,0,1,2.33-2.7A24.92,24.92,0,0,1,201,20.693a3.991,3.991,0,0,0,5.7,1.22,17.654,17.654,0,0,1,24.55,24.56,3.994,3.994,0,0,0,1.22,5.69,24.946,24.946,0,0,1,4.74,38.96,25.272,25.272,0,0,1-2.69,2.33A4,4,0,0,0,234.253,99.633Z" fill="#5f266d"/><path d="M229.123,82.083c-4.269-3.208-9.752,3.934-5.59,7.23C227.843,92.749,233.5,85.365,229.123,82.083Z" fill="#5f266d"/><path d="M235.883,71.323c-.53-10.72-10.22-15.92-10.63-16.14a4,4,0,0,0-3.74,7.07c.06.04,6.08,3.36,6.38,9.46a4.006,4.006,0,0,0,3.99,3.81c.07,0,.14-.01.2-.01A4,4,0,0,0,235.883,71.323Z" fill="#5f266d"/><path d="M84.873,124.443c-3.193,4.281,3.9,9.8,7.23,5.59C95.527,125.74,88.13,120.107,84.873,124.443Z" fill="#5f266d"/><path d="M57.983,128.313c-2.437,4.658,4.557,8.351,7.07,3.74.03-.06,3.36-6.08,9.46-6.38a4,4,0,0,0,3.8-4.2C77.931,113.853,62.98,118.556,57.983,128.313Z" fill="#5f266d"/></svg>