<svg xmlns="http://www.w3.org/2000/svg" viewBox="0 0 256 256"><title>Foodies Expanded</title><path d="M126.282,54.317s20.323-39.534,68.844-31.73C195.126,22.587,179.25,71.118,126.282,54.317Z" fill="#44c7b6"/><path d="M119.325,78.279S75.461,71.071,68,22.5C68,22.5,119.059,22.711,119.325,78.279Z" fill="#44c7b6"/><path d="M117.433,107.722s20.323-39.535,68.844-31.731C186.277,75.991,170.4,124.523,117.433,107.722Z" fill="#44c7b6"/><path d="M117.3,151.322s-44.415-1.828-57.722-49.137C59.577,102.185,110.287,96.2,117.3,151.322Z" fill="#44c7b6"/><path d="M127.58,178.112s20.323-39.535,68.843-31.731C196.423,146.381,180.547,194.913,127.58,178.112Z" fill="#44c7b6"/><path d="M133.43,209.6s-43.106,10.856-69.3-30.728C64.133,178.875,111.057,158.738,133.43,209.6Z" fill="#44c7b6"/><path d="M141.28,54.319a76.3,76.3,0,0,0,13.41,3.03c-7.99,1.13-17.4.46-28.41-3.03,0,0,18.99-36.94,64.07-32.36C156.02,25.649,141.28,54.319,141.28,54.319Z" fill="#4bdbc3"/><path d="M119.33,78.279S75.46,71.069,68,22.5a57.55,57.55,0,0,1,15.48,2.78c5.23,27.8,22.66,41.34,35.66,47.72C119.26,74.7,119.32,76.459,119.33,78.279Z" fill="#4bdbc3"/><path d="M132.43,107.719a76.3,76.3,0,0,0,13.41,3.03c-7.99,1.13-17.4.46-28.41-3.03,0,0,19-36.94,64.09-32.35C147.17,79.049,132.43,107.719,132.43,107.719Z" fill="#4bdbc3"/><path d="M117.3,151.319s-44.42-1.83-57.72-49.13a57.374,57.374,0,0,1,15.24.79c8.29,28.48,27.97,40.21,41.99,45.01C116.99,149.069,117.16,150.179,117.3,151.319Z" fill="#4bdbc3"/><path d="M142.58,178.109a76.3,76.3,0,0,0,13.41,3.03c-7.99,1.13-17.4.46-28.41-3.03,0,0,18.99-36.94,64.08-32.35C157.31,149.439,142.58,178.109,142.58,178.109Z" fill="#4bdbc3"/><path d="M128.11,210.479c-12.32,1.37-43.38,1.1-63.98-31.6a59.51,59.51,0,0,1,28.68-3.43,56.5,56.5,0,0,0-13.68,3.43C93.66,201.949,113.41,208.879,128.11,210.479Z" fill="#4bdbc3"/><path d="M197.059,142.432c-26.512-4.265-44.951,5.131-55.75,13.763a72.973,72.973,0,0,0-14.87,16.11,244.263,244.263,0,0,1-5.666-59.471,70.437,70.437,0,0,0,17.7,2.409,51.042,51.042,0,0,0,36-14.182,63.441,63.441,0,0,0,15.609-23.826,4,4,0,0,0-3.167-5.193c-26.5-4.261-44.948,5.131-55.749,13.763a73.269,73.269,0,0,0-9.352,8.952A298.054,298.054,0,0,1,127.32,58.8a71.957,71.957,0,0,0,20,3.038,51.04,51.04,0,0,0,36-14.182,63.429,63.429,0,0,0,15.61-23.825,4,4,0,0,0-3.167-5.193c-26.5-4.263-44.948,5.131-55.749,13.763a72.992,72.992,0,0,0-8,7.456A246.008,246.008,0,0,1,143.016,8.049a4,4,0,0,0-7.277-3.324c-.483,1.058-9.291,20.582-15.9,50.693A51,51,0,0,0,95.481,26.04,63.431,63.431,0,0,0,68.014,18.5H68A4,4,0,0,0,64.044,23.1c4.749,30.914,25.482,51.524,51.208,58.348a282.092,282.092,0,0,0-2.5,42.778,50.749,50.749,0,0,0-25.461-21.865,63.449,63.449,0,0,0-28.18-4.152,4,4,0,0,0-3.381,5.055C63,129.116,79.271,141.9,91.642,148.073a71.714,71.714,0,0,0,23.54,7.083,232.61,232.61,0,0,0,6.17,29.741,50.745,50.745,0,0,0-30.6-13.716,63.481,63.481,0,0,0-28.2,4.019,4,4,0,0,0-1.808,5.807c17.064,27.093,45.036,37.3,70.955,33.009a210.14,210.14,0,0,0,21.579,37.923,4,4,0,1,0,6.506-4.655,204,204,0,0,1-30.729-64.558,71.612,71.612,0,0,0,19.558,2.907,51.04,51.04,0,0,0,36-14.182,63.428,63.428,0,0,0,15.61-23.826A4,4,0,0,0,197.059,142.432ZM180.577,79.3c-4.743,9.892-18.982,31.879-50.32,27.33l23.16-9.829a4,4,0,1,0-3.125-7.364l-20.814,8.833C138.526,88.71,155.1,76.914,180.577,79.3Zm8.85-53.4c-4.743,9.891-18.984,31.877-50.32,27.329l23.16-9.828a4,4,0,1,0-3.125-7.364L138.328,44.86C147.378,35.306,163.948,23.511,189.427,25.891ZM72.9,26.942A56.227,56.227,0,0,1,91.642,33.06c12.563,6.87,20.174,18.069,22.722,33.373L97.883,47.385a4,4,0,1,0-6.049,5.234l14.974,17.306C94.925,64.373,78.51,52.3,72.9,26.942ZM64.97,105.969c10.968.147,36.9,3.827,45.944,34.176L92.264,123.26a4,4,0,1,0-5.369,5.93l16.76,15.175C91.183,140.168,73.516,130.085,64.97,105.969Zm5.408,75c10.56-2.971,36.472-6.806,53.756,19.727l-22.676-10.9a4,4,0,0,0-3.465,7.211l20.377,9.791C105.219,206.32,85.417,201.668,70.378,180.972Zm70.029-3.958,23.158-9.828a4,4,0,1,0-3.125-7.364l-21.067,8.94c8.935-9.61,25.475-21.535,51.353-19.08C185.983,159.571,171.752,181.564,140.407,177.014Z" fill="#5f266d"/></svg>