<svg xmlns="http://www.w3.org/2000/svg" viewBox="0 0 256 256"><title>Foodies Expanded</title><path d="M98.322,95.122a125.817,125.817,0,0,0-1.66,19.47c-20.12-4.71-31.02-18.68-36.71-29.99a20.979,20.979,0,0,0,11.78-3.17l.59-.36a20.82,20.82,0,0,0,7.26-7.59A40.583,40.583,0,0,0,98.322,95.122Z" fill="#ff4a73"/><path d="M79.562,52.772c-12.87-23.19-9.81-39.75-9.81-39.75-16.19,14.16-13.69,26.46-13.19,28.34L44.092,5.692c-27.73,51.34-6.96,70.33,7.98,77.1a20.32,20.32,0,0,0,7.88,1.81,20.979,20.979,0,0,0,11.78-3.17l.59-.36a20.82,20.82,0,0,0,7.26-7.59A21.281,21.281,0,0,0,79.562,52.772Z" fill="#ff4a73"/><path d="M157.742,95.132v-.01c-.24-1.51-.52-3.01-.82-4.51-5.04-24.85-16.08-42.09-28.89-42.09s-23.85,17.24-28.89,42.09c-.3,1.5-.58,3-.82,4.51a125.817,125.817,0,0,0-1.66,19.47,134.94,134.94,0,0,0,1.1,18.4l5.38,42.24c.33-.03.67-.04,1.01-.04h47.76c.34,0,.68.01,1.01.04l5.38-42.24a134.94,134.94,0,0,0,1.1-18.4A125.689,125.689,0,0,0,157.742,95.132Z" fill="#ff4a73"/><path d="M196.112,84.6c-5.69,11.31-16.59,25.28-36.71,29.99a125.689,125.689,0,0,0-1.66-19.46v-.01a40.583,40.583,0,0,0,18.74-21.64,20.82,20.82,0,0,0,7.26,7.59l.59.36A20.979,20.979,0,0,0,196.112,84.6Z" fill="#ff4a73"/><path d="M211.972,5.692,199.5,41.362c.5-1.88,3-14.18-13.19-28.34,0,0,3.06,16.56-9.81,39.75a21.281,21.281,0,0,0-.02,20.71,20.82,20.82,0,0,0,7.26,7.59l.59.36a20.979,20.979,0,0,0,11.78,3.17,20.32,20.32,0,0,0,7.88-1.81C218.932,76.022,239.7,57.032,211.972,5.692Z" fill="#ff4a73"/><path d="M152.922,175.232c-.33-.03-.67-.04-1.01-.04h-47.76c-.34,0-.68.01-1.01.04a13.334,13.334,0,0,0,1.01,26.63h47.76a13.334,13.334,0,0,0,1.01-26.63Z" fill="#ff4a73"/><path d="M151.912,201.862h-47.76a13.33,13.33,0,1,0,0,26.66h47.76a13.33,13.33,0,1,0,0-26.66Z" fill="#ff4a73"/><path d="M156.522,243.032a54.5,54.5,0,0,0-12.93-14.51h-31.12a54.5,54.5,0,0,0-12.93,14.51,5,5,0,0,0,4.32,7.54H152.2A5,5,0,0,0,156.522,243.032Z" fill="#ea2a6a"/><path d="M68.1,83.222a20.7,20.7,0,0,1-8.15,1.38,20.32,20.32,0,0,1-7.88-1.81c-14.94-6.77-35.71-25.76-7.98-77.1l6.48,18.54c-13.87,37.56,3.52,52.68,16.5,58.56C67.412,82.942,67.752,83.092,68.1,83.222Z" fill="#f973a3"/><path d="M152.932,175.192l-.01.04c-.33-.03-.67-.04-1.01-.04Z" fill="#ff4a73"/><path d="M202.962,83.222a20.3,20.3,0,0,1-6.85,1.38,20.979,20.979,0,0,1-11.78-3.17l-.59-.36a20.82,20.82,0,0,1-7.26-7.59,21.281,21.281,0,0,1,.02-20.71c12.87-23.19,9.81-39.75,9.81-39.75,8.86,7.75,12.13,14.95,13.18,20.18a84.42,84.42,0,0,1-7.99,19.57,21.281,21.281,0,0,0-.02,20.71,20.82,20.82,0,0,0,7.26,7.59l.59.36A20.73,20.73,0,0,0,202.962,83.222Z" fill="#f973a3"/><path d="M114.542,243.032a5,5,0,0,0,4.32,7.54h-15a5,5,0,0,1-4.32-7.54,54.5,54.5,0,0,1,12.93-14.51h15A54.5,54.5,0,0,0,114.542,243.032Z" fill="#ea2a6a"/><path d="M119.152,175.192c-.34,0-.68.01-1.01.04l-.01-.04Z" fill="#ff4a73"/><path d="M152.932,175.192l-.01.04c-.33-.03-.67-.04-1.01-.04Z" fill="#f973a3"/><path d="M114.542,243.032a5,5,0,0,0,4.32,7.54h-15a5,5,0,0,1-4.32-7.54,54.5,54.5,0,0,1,12.93-14.51h15A54.5,54.5,0,0,0,114.542,243.032Z" fill="#ff4a73"/><path d="M103.132,175.192h1.02c-.34,0-.68.01-1.01.04Z" fill="#ea2a6a"/><path d="M159.4,114.592a134.94,134.94,0,0,1-1.1,18.4l-5.38,42.24c-.33-.03-.67-.04-1.01-.04h-13.98l5.37-42.2a134.94,134.94,0,0,0,1.1-18.4,125.689,125.689,0,0,0-1.66-19.46v-.01c-.24-1.51-.52-3.01-.82-4.51-4.02-19.84-11.87-34.82-21.39-40.07a15.492,15.492,0,0,1,7.5-2.02c12.81,0,23.85,17.24,28.89,42.09.3,1.5.58,3,.82,4.51v.01A125.689,125.689,0,0,1,159.4,114.592Z" fill="#ea2a6a"/><path d="M165.252,188.522a13.35,13.35,0,0,1-13.34,13.34h-15a13.334,13.334,0,0,0,1.01-26.63c-.33-.03-.67-.04-1.01-.04h15c.34,0,.68.01,1.01.04A13.327,13.327,0,0,1,165.252,188.522Z" fill="#ea2a6a"/><path d="M165.252,215.192a13.333,13.333,0,0,1-13.34,13.33h-15a13.33,13.33,0,1,0,0-26.66h15A13.335,13.335,0,0,1,165.252,215.192Z" fill="#ea2a6a"/><path d="M137.932,175.192l-.01.04c-.33-.03-.67-.04-1.01-.04Z" fill="#ea2a6a"/><path d="M104.152,175.192c-.34,0-.68.01-1.01.04l-.01-.04Z" fill="#ea2a6a"/><path d="M128.032,48.522a15.492,15.492,0,0,1,7.5,2.02c-9.52,5.25-17.37,20.23-21.39,40.07-.3,1.5-.58,3-.82,4.51a125.817,125.817,0,0,0-1.66,19.47,134.94,134.94,0,0,0,1.1,18.4l5.37,42.2h-13.98c-.34,0-.68.01-1.01.04l-5.38-42.24a134.94,134.94,0,0,1-1.1-18.4,125.817,125.817,0,0,1,1.66-19.47c.24-1.51.52-3.01.82-4.51C104.182,65.762,115.222,48.522,128.032,48.522Z" fill="#f973a3"/><path d="M119.152,201.862h-15a13.334,13.334,0,0,1-1.01-26.63c.33-.03.67-.04,1.01-.04h15c-.34,0-.68.01-1.01.04a13.334,13.334,0,0,0,1.01,26.63Z" fill="#f973a3"/><path d="M119.152,228.522h-15a13.33,13.33,0,1,1,0-26.66h15a13.33,13.33,0,1,0,0,26.66Z" fill="#f973a3"/><path d="M198.627,88.419c11.28-1.408,52.011-19.557,16.864-84.628a4,4,0,0,0-7.3.581l-7.255,20.752a47.539,47.539,0,0,0-12-15.113,4.008,4.008,0,0,0-6.57,3.717c.027.155,2.542,15.637-9.372,37.1a25.143,25.143,0,0,0-.9,22.828,36.317,36.317,0,0,1-11.533,14.857,99.229,99.229,0,0,0-8.172-24.178c2.451-1.152,6.305-3.8,9.378-9.745,5.55-10.742,6.218-27.534,1.986-49.907A4,4,0,1,0,155.9,6.173c8.762,46.319-7.362,51.134-7.526,51.177l.114-.024.107.536c-12.032-17.663-28.893-17.949-41.119,0l.107-.538.114.024c-.164-.043-16.287-4.858-7.526-51.177a4,4,0,1,0-7.861-1.487c-4.231,22.373-3.564,39.165,1.986,49.907,3.073,5.949,6.928,8.594,9.379,9.745A99.27,99.27,0,0,0,95.5,88.516,36.317,36.317,0,0,1,83.965,73.659a25.143,25.143,0,0,0-.905-22.828h0c-11.913-21.466-9.4-36.948-9.374-37.083a4,4,0,0,0-6.567-3.737,47.539,47.539,0,0,0-12,15.113L47.867,4.372a4,4,0,0,0-7.295-.581C14.961,51.207,28,76.275,50.417,86.433a24.145,24.145,0,0,0,7.02,1.987c5.916,10.892,16.616,23.852,35.249,29.256.029,2.07.088,4.15.212,6.244H77.646A19.364,19.364,0,0,1,58.3,104.577a4,4,0,0,0-8,0A27.374,27.374,0,0,0,77.646,131.92H93.619c.349,3-.668-5.041,2.756,21.842H77.646A19.364,19.364,0,0,1,58.3,134.419a4,4,0,0,0-8,0,27.374,27.374,0,0,0,27.342,27.343h19.2a3.916,3.916,0,0,0,.544-.055l1.321,10.372a17.312,17.312,0,0,0-5.626,29.776c-11.891,9.9-5.812,29.106,9.382,30.581a55.5,55.5,0,0,0-6.358,8.548,9,9,0,0,0,7.756,13.588H152.2a9,9,0,0,0,7.756-13.588l0,0a55.541,55.541,0,0,0-6.352-8.539c15.292-1.468,21.2-20.751,9.376-30.575a17.219,17.219,0,0,0,6.272-13.343,17.4,17.4,0,0,0-11.9-16.433l1.322-10.382a3.916,3.916,0,0,0,.544.055h19.2a27.375,27.375,0,0,0,27.343-27.343,4,4,0,1,0-8,0,19.365,19.365,0,0,1-19.343,19.343H159.688l2.581-20.264c.067-.526.114-1.052.175-1.578h15.973a27.375,27.375,0,0,0,27.343-27.343,4,4,0,0,0-8,0,19.365,19.365,0,0,1-19.343,19.343H163.165c.124-2.095.183-4.174.212-6.244C182.011,112.272,192.711,99.311,198.627,88.419Zm-162.4-27.6c-3.862-11.46-1.443-26.546,7.186-44.929l9.368,26.8a4,4,0,0,0,7.642-2.349c-.247-.926-1.764-7.892,5.261-17.212.716,7.573,3.178,18.624,10.375,31.592a17.135,17.135,0,0,1-5.826,22.945C56.014,86.343,40.38,73.122,36.232,60.815Zm56.574,48.521c-12.963-4.4-21.236-13.186-26.391-21.4a27.616,27.616,0,0,0,12.3-6.818A43.953,43.953,0,0,0,93.958,97.186C93.394,101.145,92.98,105.712,92.806,109.336Zm35.226-56.814c17.074,0,31.231,41.345,26.3,79.965l-4.93,38.705H106.659l-4.93-38.706C96.58,92.147,111.743,52.522,128.032,52.522ZM152.2,246.572c-47.519,0-50.525.692-49.227-1.487a51.437,51.437,0,0,1,10.89-12.563H142.2a51.009,51.009,0,0,1,10.883,12.56A1,1,0,0,1,152.2,246.572Zm-.29-22.05H104.152a9.33,9.33,0,1,1,0-18.66h47.759a9.33,9.33,0,1,1,0,18.66Zm6.6-29.393a9.245,9.245,0,0,1-6.6,2.733H104.152a9.335,9.335,0,1,1,0-18.67c.5,0,47.976-.016,48.475.029A9.343,9.343,0,0,1,158.508,195.129ZM180,54.713c7.2-12.968,9.659-24.019,10.375-31.592,7.025,9.32,5.508,16.286,5.262,17.212a4,4,0,0,0,7.641,2.349l9.368-26.8C224.528,41.2,227.682,67.665,202.337,79.15,187.883,85.713,171.633,69.8,180,54.713ZM162.1,97.187A43.958,43.958,0,0,0,177.348,81.12a27.78,27.78,0,0,0,12.3,6.818c-5.154,8.212-13.427,17-26.392,21.4C163.075,105.553,162.65,101.018,162.1,97.187Z" fill="#5f266d"/><path d="M140.107,106.877q.107,1.257.181,2.544a4,4,0,0,0,3.99,3.771c.077,0,.154,0,.232-.006a4,4,0,0,0,3.765-4.223q-.081-1.4-.2-2.763a4,4,0,0,0-7.971.677Z" fill="#5f266d"/><path d="M137.861,92.625a4,4,0,0,0,7.8-1.793,98.553,98.553,0,0,0-7.06-20.785,4,4,0,1,0-7.133,3.623A91.612,91.612,0,0,1,137.861,92.625Z" fill="#5f266d"/></svg>