<svg xmlns="http://www.w3.org/2000/svg" viewBox="0 0 256 256"><title>Foodies Expanded</title><path d="M194.62,120.665H61.38a54.665,54.665,0,1,1,0-109.33H194.62a54.665,54.665,0,1,0,0,109.33Z" fill="#f9d335"/><path d="M194.62,11.335A54.665,54.665,0,1,0,249.29,66,54.666,54.666,0,0,0,194.62,11.335Z" fill="#44c7b6"/><path d="M194.619,106.806A40.808,40.808,0,1,1,235.427,66,40.854,40.854,0,0,1,194.619,106.806Z" fill="#ffe2e2"/><path d="M76.38,120.665h-15a54.665,54.665,0,1,1,0-109.33h15a54.665,54.665,0,1,0,0,109.33Z" fill="#f9e27d"/><path d="M194.62,120.665h-15a54.665,54.665,0,1,1,0-109.33h15a54.665,54.665,0,1,0,0,109.33Z" fill="#f2c300"/><path d="M202.12,106.105a40.319,40.319,0,0,1-7.5.7,40.805,40.805,0,1,1,0-81.61,40.319,40.319,0,0,1,7.5.7,40.8,40.8,0,0,0,0,80.21Z" fill="#ffefee"/><path d="M235.43,66a40.86,40.86,0,0,1-40.81,40.81,40.319,40.319,0,0,1-7.5-.7,40.8,40.8,0,0,0,0-80.21,40.319,40.319,0,0,1,7.5-.7A40.851,40.851,0,0,1,235.43,66Z" fill="#ffcfcf"/><circle cx="187.49" cy="47.966" r="10.219" fill="#ff4a73"/><rect x="171.138" y="68.798" width="15.146" height="15.146" rx="2.416" ry="2.416" transform="translate(-1.659 148.737) rotate(-45)" fill="#f9d335"/><rect x="205.925" y="51.446" width="15.146" height="15.146" rx="2.416" ry="2.416" transform="translate(20.799 168.252) rotate(-45)" fill="#965959"/><path d="M198.562,78.087h12.181a3.285,3.285,0,0,1,3.285,3.285V83.52a9.375,9.375,0,0,1-9.375,9.375h0a9.375,9.375,0,0,1-9.375-9.375V81.372a3.285,3.285,0,0,1,3.285-3.285Z" transform="translate(120.392 -119.671) rotate(45)" fill="#b76c6c"/><path d="M194.62,244.665H61.38a54.665,54.665,0,1,1,0-109.33H194.62a54.665,54.665,0,1,0,0,109.33Z" fill="#f9d335"/><path d="M194.62,135.335A54.665,54.665,0,1,0,249.29,190,54.666,54.666,0,0,0,194.62,135.335Z" fill="#44c7b6"/><path d="M194.619,230.806A40.808,40.808,0,1,1,235.427,190,40.854,40.854,0,0,1,194.619,230.806Z" fill="#ffe2e2"/><path d="M76.38,244.665h-15a54.665,54.665,0,1,1,0-109.33h15a54.665,54.665,0,1,0,0,109.33Z" fill="#f9e27d"/><path d="M194.62,244.665h-15a54.665,54.665,0,1,1,0-109.33h15a54.665,54.665,0,1,0,0,109.33Z" fill="#f2c300"/><path d="M202.12,230.105a40.319,40.319,0,0,1-7.5.7,40.805,40.805,0,1,1,0-81.61,40.319,40.319,0,0,1,7.5.7,40.8,40.8,0,0,0,0,80.21Z" fill="#ffefee"/><path d="M235.43,190a40.86,40.86,0,0,1-40.81,40.81,40.319,40.319,0,0,1-7.5-.7,40.8,40.8,0,0,0,0-80.21,40.319,40.319,0,0,1,7.5-.7A40.851,40.851,0,0,1,235.43,190Z" fill="#ffcfcf"/><circle cx="187.49" cy="171.966" r="10.219" fill="#ff4a73"/><rect x="171.138" y="192.798" width="15.146" height="15.146" rx="2.416" ry="2.416" transform="translate(-89.34 185.055) rotate(-45)" fill="#f9d335"/><rect x="205.925" y="175.446" width="15.146" height="15.146" rx="2.416" ry="2.416" transform="translate(-66.882 204.571) rotate(-45)" fill="#965959"/><path d="M198.562,202.087h12.181a3.285,3.285,0,0,1,3.285,3.285v2.149a9.375,9.375,0,0,1-9.375,9.375h0a9.375,9.375,0,0,1-9.375-9.375v-2.149a3.285,3.285,0,0,1,3.285-3.285Z" transform="translate(208.074 -83.352) rotate(45)" fill="#b76c6c"/><path d="M61.38,124.665H194.62a58.665,58.665,0,1,0,0-117.33H61.38A58.3,58.3,0,0,0,35,13.626c-.016.006-.033.007-.049.013a4.028,4.028,0,0,0-.8.423,58.65,58.65,0,0,0,27.235,110.6ZM245.29,66a50.67,50.67,0,1,1-50.67-50.66A50.727,50.727,0,0,1,245.29,66ZM61.38,15.335H165.066c-38.426,22.49-39.163,78.392,0,101.33H114.262C77.805,103.132,48.116,35.51,41.492,19.406A50.39,50.39,0,0,1,61.38,15.335ZM34.368,23.166c6.555,15.99,30.677,70.555,63.2,93.5H61.38a50.644,50.644,0,0,1-27.012-93.5Z" fill="#5f266d"/><path d="M194.619,110.806A44.808,44.808,0,1,0,149.812,66,44.859,44.859,0,0,0,194.619,110.806Zm0-81.615A36.808,36.808,0,1,1,157.812,66,36.849,36.849,0,0,1,194.619,29.191Z" fill="#5f266d"/><path d="M187.49,62.185a14.219,14.219,0,1,0-14.219-14.219A14.235,14.235,0,0,0,187.49,62.185Zm0-20.438a6.219,6.219,0,1,1-6.219,6.219A6.226,6.226,0,0,1,187.49,41.747Z" fill="#5f266d"/><path d="M166.882,80.908l7.293,7.293a6.424,6.424,0,0,0,9.073,0l7.293-7.293a6.424,6.424,0,0,0,0-9.075l-7.293-7.292a6.424,6.424,0,0,0-9.073,0l-7.293,7.292A6.424,6.424,0,0,0,166.882,80.908Zm11.83-9.591,5.053,5.054-5.053,5.053-5.054-5.053Z" fill="#5f266d"/><path d="M201.669,63.556l7.292,7.294a6.426,6.426,0,0,0,9.074,0l7.292-7.292a6.419,6.419,0,0,0,0-9.075l-7.292-7.293a6.425,6.425,0,0,0-9.074,0l-7.292,7.291A6.419,6.419,0,0,0,201.669,63.556Zm11.829-9.59,5.053,5.053L213.5,64.073l-5.053-5.053Z" fill="#5f266d"/><path d="M208.41,73.122a7.232,7.232,0,0,0-5.151-2.135c-3.431,0-5.043,2.024-6.67,3.653a13.369,13.369,0,0,0,9.457,22.826c5.994,0,9.061-3.515,10.977-5.431a7.294,7.294,0,0,0,0-10.3ZM209.847,87.9a5.376,5.376,0,0,1-9.177-3.8c0-2.526,1.512-3.737,2.589-4.815l7.6,7.6Z" fill="#5f266d"/><path d="M108.833,32.732h2.81a4,4,0,0,0,0-8h-2.81a4,4,0,0,0,0,8Z" fill="#5f266d"/><path d="M97.833,28.732a4,4,0,0,0-4-4h-25a4,4,0,0,0,0,8h25A4,4,0,0,0,97.833,28.732Z" fill="#5f266d"/><path d="M194.62,131.335H61.38a58.665,58.665,0,1,0,0,117.33H194.62a58.665,58.665,0,1,0,0-117.33ZM61.38,240.665a50.644,50.644,0,0,1-27.012-93.5c6.555,15.99,30.677,70.555,63.2,93.5Zm52.882,0c-36.457-13.533-66.146-81.155-72.77-97.259,12.619-5.406,10.4-4.071,123.574-4.071-38.585,22.583-39,78.488,0,101.33Zm80.358,0A50.665,50.665,0,1,1,245.29,190,50.727,50.727,0,0,1,194.62,240.665Z" fill="#5f266d"/><path d="M194.619,145.191A44.808,44.808,0,1,0,239.427,190,44.858,44.858,0,0,0,194.619,145.191Zm0,81.615A36.808,36.808,0,1,1,231.427,190,36.849,36.849,0,0,1,194.619,226.806Z" fill="#5f266d"/><path d="M187.49,186.185a14.219,14.219,0,1,0-14.219-14.219A14.235,14.235,0,0,0,187.49,186.185Zm0-20.438a6.219,6.219,0,1,1-6.219,6.219A6.226,6.226,0,0,1,187.49,165.747Z" fill="#5f266d"/><path d="M183.248,188.541a6.424,6.424,0,0,0-9.073,0l-7.293,7.292a6.424,6.424,0,0,0,0,9.075l7.293,7.293a6.423,6.423,0,0,0,9.073,0l7.293-7.293a6.424,6.424,0,0,0,0-9.075Zm-4.536,16.883-5.054-5.053,5.054-5.054,5.053,5.054Z" fill="#5f266d"/><path d="M208.961,171.19l-7.292,7.291a6.419,6.419,0,0,0,0,9.075l7.292,7.294a6.425,6.425,0,0,0,9.074,0l7.292-7.292a6.419,6.419,0,0,0,0-9.075l-7.292-7.293A6.425,6.425,0,0,0,208.961,171.19Zm4.537,16.883-5.053-5.053,5.053-5.054,5.053,5.053Z" fill="#5f266d"/><path d="M208.41,197.122a7.28,7.28,0,0,0-10.3,0l-1.517,1.519A13.375,13.375,0,0,0,215.5,217.555l1.52-1.52a7.294,7.294,0,0,0,0-10.3Zm1.437,14.776a5.375,5.375,0,1,1-7.6-7.6l1.013-1.013,7.6,7.6Z" fill="#5f266d"/></svg>