<svg xmlns="http://www.w3.org/2000/svg" viewBox="0 0 256 256"><title>Foodies Expanded</title><path d="M168.246,94.4a39.974,39.974,0,0,1-8.07,24.16H95.816a40.212,40.212,0,0,1,.13-48.5,40.248,40.248,0,0,0,38.38,15.41v11.09a8.5,8.5,0,1,0,17,0V78.508a40.178,40.178,0,0,0,8.71-8.46A40.025,40.025,0,0,1,168.246,94.4Z" fill="#5fcdff"/><path d="M170,118.558H86a10,10,0,0,0-10,10v1.5a10,10,0,0,0,10,10h1.3l34.57,105.84a6.753,6.753,0,0,0,12.85-.03l34.03-105.81H170a10,10,0,0,0,10-10v-1.5A10,10,0,0,0,170,118.558Z" fill="#b76c6c"/><path d="M170,118.558H155a10,10,0,0,1,10,10v1.5a10,10,0,0,1-10,10h-1.25l-32.97,102.51,1.09,3.33a6.753,6.753,0,0,0,12.85-.03l34.03-105.81H170a10,10,0,0,0,10-10v-1.5A10,10,0,0,0,170,118.558Z" fill="#965959"/><path d="M102.3,140.058H101a10,10,0,0,1-10-10v-1.5a10,10,0,0,1,10-10H86a10,10,0,0,0-10,10v1.5a10,10,0,0,0,10,10h1.3l34.57,105.84a6.753,6.753,0,0,0,12.85-.03l1.06-3.3Z" fill="#c98585"/><path d="M110.816,118.558h-15a40.212,40.212,0,0,1,.13-48.5,40.229,40.229,0,0,0,9.77,9.18,40.191,40.191,0,0,0,5.1,39.32Z" fill="#73d7f9"/><path d="M168.246,94.4a39.974,39.974,0,0,1-8.07,24.16h-15a40.251,40.251,0,0,0,6.15-36.46v-3.59a40.178,40.178,0,0,0,8.71-8.46A40.025,40.025,0,0,1,168.246,94.4Z" fill="#30b6ff"/><path d="M168.246,45.728a40.378,40.378,0,0,1-16.92,32.78v18.05a8.377,8.377,0,0,1-.99,4.03,8.544,8.544,0,0,1-13.04,2.42,8.475,8.475,0,0,1-2.97-6.45V85.468A40.248,40.248,0,0,1,120.5,6.178a38.555,38.555,0,0,1,4.46-.58c.28-.03.56-.04.83-.06.78-.04,1.51-.06,2.21-.06a40.221,40.221,0,0,1,40.25,40.25Z" fill="#ff4a73"/><path d="M168.246,45.728a40.378,40.378,0,0,1-16.92,32.78v18.05a8.508,8.508,0,0,1-14.03,6.45,8.379,8.379,0,0,1-1.97-2.45,8.44,8.44,0,0,0,1-4v-1.48a41.228,41.228,0,0,1,8.64-24.93.865.865,0,0,1,.07-.1A40.218,40.218,0,0,0,120.5,6.178a40.25,40.25,0,0,1,47.75,39.55Z" fill="#ea2a6a"/><path d="M150.336,100.588a8.544,8.544,0,0,1-13.04,2.42,8.475,8.475,0,0,1-2.97-6.45V85.468A40.248,40.248,0,0,1,120.5,6.178a38.555,38.555,0,0,1,4.46-.58c.28-.03.56-.04.83-.06.78-.04,1.51-.06,2.21-.06a40.319,40.319,0,0,1,7.5.7,40.248,40.248,0,0,0,7.5,79.79h.06a6.176,6.176,0,0,1,6.27,6.14c0,4.58-.23,6.16,1,8.45C150.326,100.568,150.336,100.578,150.336,100.588Z" fill="#f973a3"/><path d="M170,114.558h-2.6a44.237,44.237,0,0,0-2.459-44.506C182.173,44.1,167.5,8.13,136.241,2.248a44.259,44.259,0,0,0-52.5,43.48,43.759,43.759,0,0,0,7.306,24.33,44.243,44.243,0,0,0-2.453,44.5H86c-17.7,0-19.058,27.356-1.636,29.4l33.7,103.175c3.2,9.881,17.274,9.894,20.463-.036L171.7,143.944C189.056,141.827,187.689,114.558,170,114.558ZM134.756,10.109c26.547,4.995,38.291,36.333,22.09,57.527A36.114,36.114,0,0,1,149,75.252c-2.234,1.595-1.676,2.118-1.676,21.306a4.513,4.513,0,0,1-3.733,4.423,4.009,4.009,0,0,1-.778.076,4.532,4.532,0,0,1-4.489-4.5c0-10.171,1.069-15.09-4-15.09-1,0-21.45,4.278-35.2-13.833a35.868,35.868,0,0,1-7.383-21.907A36.26,36.26,0,0,1,134.756,10.109ZM96.368,76.672a44.049,44.049,0,0,0,33.958,13.235c0,6.321-1.1,12.481,5.51,17.009a12.505,12.505,0,0,0,19.49-10.358V80.507a50.674,50.674,0,0,0,4.289-3.849,36.22,36.22,0,0,1-1.5,37.9H97.874a36.261,36.261,0,0,1-1.506-37.886Zm34.539,167.972a2.753,2.753,0,0,1-5.238.012l-32.858-100.6h70.447ZM170,136.058H86c-8.077,0-8.016-13.5,0-13.5h84C178.073,122.558,178.013,136.058,170,136.058Z" fill="#5f266d"/><path d="M136.4,187.848a4,4,0,0,0,3.824-2.831l6.436-21.038a4,4,0,0,0-7.651-2.34l-6.435,21.038A4,4,0,0,0,136.4,187.848Z" fill="#5f266d"/><path d="M129.576,206.135a4,4,0,0,0,5-2.656l1.259-4.118a4,4,0,0,0-7.65-2.34l-1.26,4.118A4,4,0,0,0,129.576,206.135Z" fill="#5f266d"/></svg>