<svg xmlns="http://www.w3.org/2000/svg" viewBox="0 0 256 256"><title>Foodies Expanded</title><path d="M128.013,22.329S85.267-13.5,45.557,27.518A4.766,4.766,0,0,0,50.7,35.273C73.452,26.553,112.884,13.662,128.013,22.329Z" fill="#ff4a73"/><path d="M127.987,22.329s42.746-35.831,82.456,5.189a4.766,4.766,0,0,1-5.139,7.755C182.547,26.553,143.115,13.662,127.987,22.329Z" fill="#ff4a73"/><path d="M240.25,119.56H15.75a5,5,0,0,0-5,5v20.77a5,5,0,0,0,5,5H26.409l25.542,94.142a5,5,0,0,0,4.825,3.691h142.7a5,5,0,0,0,4.829-3.7l25.289-94.13H240.25a5,5,0,0,0,5-5V124.56A5,5,0,0,0,240.25,119.56Z" fill="#b76c6c"/><path d="M83.2,63.29l-2.04-4.72a5,5,0,0,0-6.57-2.61L14.48,81.91a5.01,5.01,0,0,0-2.61,6.57l13.42,31.08h75.02l6.05-2.61Z" fill="#5fcdff"/><path d="M199.33,80.83H171a9.335,9.335,0,0,0,0,18.67h28.33a9.335,9.335,0,1,0,0-18.67Z" fill="#f2c300"/><path d="M199.33,99.5H171a9.321,9.321,0,0,0-9.33,9.33v10.73h47V108.83A9.329,9.329,0,0,0,199.33,99.5Z" fill="#f9d335"/><path d="M185.17,68.16V80.83H171a9.335,9.335,0,0,0,0,18.67,9.321,9.321,0,0,0-9.33,9.33v10.73H100.31l6.05-2.61L83.2,63.29a4.662,4.662,0,0,1,1.13-.13h95.84A5,5,0,0,1,185.17,68.16Z" fill="#44c7b6"/><path d="M71.78,248.16h-15a5,5,0,0,1-4.83-3.69L26.41,150.33h15l25.54,94.14A5,5,0,0,0,71.78,248.16Z" fill="#c98585"/><path d="M30.75,150.33h-15a5,5,0,0,1-5-5V124.56a5,5,0,0,1,5-5h15a5,5,0,0,0-5,5v20.77A5,5,0,0,0,30.75,150.33Z" fill="#c98585"/><path d="M33.51,96.09l10.13,23.47H25.29L11.87,88.48a5.01,5.01,0,0,1,2.61-6.57L74.59,55.96a5,5,0,0,1,6.57,2.61l2.04,4.72,2.15,4.98L36.12,89.52A5.01,5.01,0,0,0,33.51,96.09Z" fill="#73d7f9"/><path d="M229.59,150.33,204.3,244.46a5.008,5.008,0,0,1-4.83,3.7h-15a5.008,5.008,0,0,0,4.83-3.7l25.29-94.13Z" fill="#965959"/><path d="M245.25,124.56v20.77a5,5,0,0,1-5,5h-15a5,5,0,0,0,5-5V124.56a5,5,0,0,0-5-5h15A5,5,0,0,1,245.25,124.56Z" fill="#965959"/><path d="M121.36,116.95l-6.05,2.61h-15l6.05-2.61L83.2,63.29a4.662,4.662,0,0,1,1.13-.13h15a4.662,4.662,0,0,0-1.13.13Z" fill="#4bdbc3"/><path d="M186,99.5H171a9.335,9.335,0,1,1,0-18.67h15a9.335,9.335,0,0,0,0,18.67Z" fill="#f9d335"/><path d="M186,99.5a9.321,9.321,0,0,0-9.33,9.33v10.73h-15V108.83A9.321,9.321,0,0,1,171,99.5Z" fill="#f9e27d"/><path d="M185.17,68.16V80.83H171a9.335,9.335,0,0,0,0,18.67,9.321,9.321,0,0,0-9.33,9.33v10.73h-15V108.83A9.321,9.321,0,0,1,156,99.5a9.335,9.335,0,1,1,0-18.67h14.17V68.16a5,5,0,0,0-5-5h15A5,5,0,0,1,185.17,68.16Z" fill="#3bb2a0"/><path d="M240.25,115.56h-8.791A101.35,101.35,0,0,0,177.3,29.915c8.109,2.391,17,5.425,26.575,9.093,8.757,3.353,15.958-7.541,9.443-14.272C191.484,2.182,168.669,1.912,153.372,5.656A76.61,76.61,0,0,0,128,17.309c-26.653-18.921-59.545-19.2-85.317,7.427-6.5,6.716.681,17.627,9.444,14.272,9.572-3.668,18.466-6.7,26.576-9.094A101.954,101.954,0,0,0,39.3,66.84l-26.411,11.4A9.022,9.022,0,0,0,8.2,90.065l11.008,25.5H15.75a9.01,9.01,0,0,0-9,9v20.77a9.01,9.01,0,0,0,9,9h7.6l24.742,91.189a9.016,9.016,0,0,0,8.685,6.644h142.7a9.015,9.015,0,0,0,8.692-6.665l24.493-91.168h7.592a9.01,9.01,0,0,0,9-9V124.56A9.01,9.01,0,0,0,240.25,115.56ZM89.228,67.16H180.17a1,1,0,0,1,1,1v8.67H171a13.321,13.321,0,0,0-13.33,13.33,13.492,13.492,0,0,0,3.819,9.338,13.475,13.475,0,0,0-3.819,9.332v6.727H110.11c-.024-.064-.05-.128-.077-.192Zm76.442,48.4V108.83A5.336,5.336,0,0,1,171,103.5h28.33a5.341,5.341,0,0,1,5.34,5.33v6.727Zm37.416-21.609A5.234,5.234,0,0,1,199.33,95.5H171a5.335,5.335,0,1,1,0-10.67h28.33a5.341,5.341,0,0,1,5.34,5.33A5.264,5.264,0,0,1,203.086,93.948ZM101.1,114.862l-1.612.7H32.539a92.583,92.583,0,0,1,12.306-42.4L76.167,59.636a1,1,0,0,1,1.321.521ZM207.568,30.3a.76.76,0,0,1-.832,1.237c-18.77-7.191-41.421-14.459-59.1-15.809C162.67,9.927,185.522,7.527,207.568,30.3Zm-158.3,1.237a.761.761,0,0,1-.833-1.237c13.6-14.049,27.506-18.518,39.7-18.518a56.417,56.417,0,0,1,20.237,3.946C90.683,17.078,68.032,24.346,49.264,31.537Zm73.488-5.157c-2.068,6.223-6.241,15.251-12.783,19.406a15.3,15.3,0,0,1-12.326,1.851,4,4,0,1,0-1.854,7.782c15.166,3.613,25.9-6.191,32.211-20.448,6.317,14.268,17.03,24.061,32.21,20.448a4,4,0,1,0-1.854-7.782c-13.007,3.095-20.907-8.562-25.089-21.256a93.346,93.346,0,0,1,90.193,89.176H212.67V108.83a13.276,13.276,0,0,0-3.83-9.331,13.172,13.172,0,0,0,3.83-9.339,13.35,13.35,0,0,0-13.34-13.33H189.17V68.16a9.01,9.01,0,0,0-9-9h-94.4l-.939-2.173a9.02,9.02,0,0,0-11.829-4.7L53.394,60.753A93.1,93.1,0,0,1,122.752,26.38ZM16.065,85.582l17.26-7.451a100.426,100.426,0,0,0-8.3,30.715L15.544,86.9A1.007,1.007,0,0,1,16.065,85.582Zm184.373,157.84a1,1,0,0,1-.965.741H56.776a1,1,0,0,1-.964-.738L31.638,154.33H224.374ZM241.25,145.33a1,1,0,0,1-1,1H15.75a1,1,0,0,1-1-1V124.56a1,1,0,0,1,1-1h224.5a1,1,0,0,1,1,1Z" fill="#5f266d"/><path d="M188.889,223.172a4,4,0,0,0,4.954-2.732l1.444-5a4,4,0,1,0-7.685-2.222l-1.445,5A4,4,0,0,0,188.889,223.172Z" fill="#5f266d"/><path d="M194.5,203.767a4,4,0,0,0,4.954-2.731l6.389-22.1a4,4,0,0,0-7.686-2.221l-6.388,22.094A4,4,0,0,0,194.5,203.767Z" fill="#5f266d"/></svg>