<svg xmlns="http://www.w3.org/2000/svg" viewBox="0 0 256 256"><title>Foodies Expanded</title><path d="M87.55,43.918c0,11.7-7.78,21.83-16.47,28.38a49.256,49.256,0,0,1-7.58,4.73c-.62,0-6.83-4.28-7.41-4.71a.55.55,0,0,0-.09-.07c-11.81-8.9-30.43-29.88,0-60.28,2.23-2.23,4.72-4.5,7.5-6.83,2.78,2.33,5.27,4.6,7.5,6.83C83.25,24.2,87.55,34.908,87.55,43.918Z" fill="#ffbb98"/><path d="M63.1,105.8a53.292,53.292,0,0,1-.89,10.05,53.465,53.465,0,0,1-9.72,3.28c-.1.02-.19.05-.29.07h-.01c-.33.08-.67.15-1.01.22-1.11.25-2.29.47-3.5.64h-.02c-16.26,2.4-40.51-1.96-41.97-48.63,1.02-.22,2.02-.42,3-.59.76-.15,1.51-.28,2.25-.4q4.215-.7,7.99-1.02c.58-.05,1.15-.09,1.71-.13C57.73,66.868,63.1,91.4,63.1,105.8Z" fill="#ffbb98"/><path d="M120.5,71.428c-1.48,47.55-26.64,51.18-42.88,48.49-1.54-.25-3.11-.59-4.61-.98a53.308,53.308,0,0,1-9.03-3.09,53.292,53.292,0,0,1-.89-10.05c0-14.56,5.49-39.48,43.7-36.42,1.133.1,2.421.2,4.29.45,1.446.175,3.641.507,4.33.63.54.09,1.08.19,1.63.29.57.1,1.15.21,1.73.33S119.918,71.308,120.5,71.428Z" fill="#ffbb98"/><path d="M63.1,159.468a53.424,53.424,0,0,1-.89,10.05,54.8,54.8,0,0,1-11.26,3.63h-.02c-.99.21-2.01.4-3.08.56-16.25,2.45-40.7-1.76-42.16-48.61.53-.11,1.05-.22,1.55-.32.39-.07.78-.15,1.16-.22.35-.07.69-.13,1.02-.19.54-.09,1.06-.18,1.58-.26,1.47-.24,2.84-.44,4.07-.61.6-.08,1.16-.14,1.67-.2,1.61-.19,2.81-.29,3.41-.31.05,0,.09-.01.13-.01h.08a.037.037,0,0,1,.03-.01C57.71,120.418,63.1,145.028,63.1,159.468Z" fill="#ffbb98"/><path d="M120.3,125.1c-1.45,46.64-25.68,51.03-41.94,48.64-1.41-.21-2.76-.46-4.03-.75a54.253,54.253,0,0,1-10.55-3.47,53.424,53.424,0,0,1-.89-10.05c0-14.59,5.51-39.57,43.92-36.4,1.05.08,2.12.19,3.22.32q.69.075,1.38.18c.3.03.6.07.91.12.63.08,1.25.18,1.89.28.5.08,1,.16,1.51.25q.735.12,1.5.27C118.228,124.678,119.248,124.878,120.3,125.1Z" fill="#ffbb98"/><path d="M62.9,213.138a53.292,53.292,0,0,1-.89,10.05,55.089,55.089,0,0,1-12.3,3.84H49.7c-.69.13-1.4.25-2.12.36a.34.34,0,0,1-.1.01l-.01.01h-.01c-16.26,2.39-40.52-1.98-41.97-48.64,1.8-.38,3.5-.71,5.16-.98.5-.09.99-.16,1.48-.24,2.3-.35,4.51-.61,6.78-.81C57.39,173.538,62.9,198.538,62.9,213.138Z" fill="#ffbb98"/><path d="M120.3,178.768c-1.47,47.05-26.11,51.1-42.37,48.58-.61-.09-1.21-.2-1.8-.31a55.356,55.356,0,0,1-12.35-3.85,53.292,53.292,0,0,1-.89-10.05c0-14.6,5.51-39.6,43.98-36.4,1.02.09,2.07.19,3.14.32.39.04.78.09,1.18.15.38.04.75.09,1.13.15.62.08,1.24.17,1.87.28h.02l.36.06c.35.05.71.11,1.07.18C117.148,178.128,118.7,178.428,120.3,178.768Z" fill="#ffbb98"/><path d="M87.55,43.918c0,11.7-7.78,21.83-16.47,28.38a49.256,49.256,0,0,1-7.58,4.73c-.62,0-6.83-4.28-7.41-4.71a.55.55,0,0,0-.09-.07c7.06-5.31,16.55-14.95,16.55-28.33,0-9.01-4.3-19.72-16.55-31.95,2.23-2.23,4.72-4.5,7.5-6.83,2.78,2.33,5.27,4.6,7.5,6.83C83.25,24.2,87.55,34.908,87.55,43.918Z" fill="#ffaa80"/><path d="M71.08,72.3a49.256,49.256,0,0,1-7.58,4.73c-.62,0-6.83-4.28-7.41-4.71a.55.55,0,0,0-.09-.07c-11.81-8.9-30.43-29.88,0-60.28,2.23-2.23,4.72-4.5,7.5-6.83,2.78,2.33,5.27,4.6,7.5,6.83-30.44,30.4-11.81,51.39,0,60.28C71.03,72.268,71.05,72.278,71.08,72.3Z" fill="#ffcaa6"/><path d="M63.1,105.8a53.292,53.292,0,0,1-.89,10.05,53.465,53.465,0,0,1-9.72,3.28c-.1.02-.19.05-.29.07h-.01c-.33.08-.67.15-1.01.22-1.11.25-2.29.47-3.5.64h-.02a.031.031,0,0,1,.02-.01,62.142,62.142,0,0,0,1.42-13.39c0-15.02-5.5-37.17-38.16-36.22q4.215-.7,7.99-1.02c.58-.05,1.15-.09,1.71-.13C57.73,66.868,63.1,91.4,63.1,105.8Z" fill="#ffaa80"/><path d="M63.1,159.468a53.424,53.424,0,0,1-.89,10.05,54.8,54.8,0,0,1-11.26,3.63h-.02c-.99.21-2.01.4-3.08.56a1.225,1.225,0,0,0-.19.02.031.031,0,0,1,.02-.01,62.142,62.142,0,0,0,1.42-13.39c0-15.01-5.5-37.14-38.1-36.22a83.918,83.918,0,0,1,9.36-1.13.037.037,0,0,1,.03-.01C57.71,120.418,63.1,145.028,63.1,159.468Z" fill="#ffaa80"/><path d="M62.9,213.138a53.292,53.292,0,0,1-.89,10.05,55.089,55.089,0,0,1-12.3,3.84H49.7c-.69.13-1.4.25-2.12.36-.04.01-.07.01-.11.02l.01-.01a62.142,62.142,0,0,0,1.42-13.39c0-15.03-5.51-37.2-38.23-36.22,0,0,3.411-.619,8.24-1.05C57.39,173.538,62.9,198.538,62.9,213.138Z" fill="#ffaa80"/><path d="M52.19,119.2c-.33.08-.67.15-1.01.22-1.12.25-2.3.47-3.52.64-16.26,2.4-40.51-1.96-41.97-48.63,1.02-.22,2.02-.42,3-.59.76-.15,1.51-.28,2.25-.4q4.215-.7,7.99-1.02c.58-.05,1.15-.09,1.71-.13-.39.08-.8.16-1.2.24C20.8,107.788,37.25,117.978,52.19,119.2Z" fill="#ffcaa6"/><path d="M50.93,173.148c-.99.21-2.01.4-3.08.56-16.25,2.45-40.7-1.76-42.16-48.61.53-.11,1.05-.22,1.55-.32.39-.07.78-.15,1.16-.22.35-.07.69-.13,1.02-.19,2.19-.4,4.08-.68,5.65-.87.6-.08,1.16-.14,1.67-.2,1.68-.18,2.84-.26,3.41-.31.05,0,.09-.01.13-.01s.08-.01.11-.01a.037.037,0,0,0-.03.01c-.34.06-.7.13-1.05.21C20.64,160.568,36.25,171.378,50.93,173.148Z" fill="#ffcaa6"/><path d="M49.7,227.028c-.69.13-1.4.25-2.12.36a.34.34,0,0,1-.1.01l-.01.01h-.01c-16.26,2.39-40.52-1.98-41.97-48.64,1.8-.38,3.5-.71,5.16-.98.5-.09.99-.16,1.48-.24,2.3-.35,4.51-.61,6.78-.81C20.19,213.548,35.2,224.838,49.7,227.028Z" fill="#ffcaa6"/><path d="M120.5,71.428c-1.48,47.55-26.64,51.18-42.88,48.49-1.54-.25-3.11-.59-4.61-.98,15.2-.87,32.32-10.62,33.78-49.56,1.133.1,2.421.2,4.29.45,1.925.233,4.043.575,5.96.92.57.1,1.15.21,1.73.33S119.918,71.308,120.5,71.428Z" fill="#ffaa80"/><path d="M120.3,125.1c-1.45,46.64-25.68,51.03-41.94,48.64-1.41-.21-2.76-.46-4.03-.75,14.93-1.46,31.08-11.97,32.48-49.92,1.05.08,2.12.19,3.22.32q.69.075,1.38.18c.3.03.6.07.91.12.63.08,1.25.18,1.89.28.5.08,1,.16,1.51.25q.735.12,1.5.27C118.228,124.678,119.248,124.878,120.3,125.1Z" fill="#ffaa80"/><path d="M120.3,178.768c-1.47,47.05-26.11,51.1-42.37,48.58-.61-.09-1.21-.2-1.8-.31,14.48-2.21,29.45-13.53,30.74-50.3,1.02.09,2.07.19,3.14.32.39.04.78.09,1.18.15.38.04.75.09,1.13.15.74.1,1.49.21,2.25.34.35.05.71.11,1.07.18C117.148,178.128,118.7,178.428,120.3,178.768Z" fill="#ffaa80"/><path d="M115.408,70.458c-33.52-.79-38.98,22.14-38.98,37.16a63.153,63.153,0,0,0,1.19,12.3c-1.54-.25-3.11-.59-4.61-.98a53.308,53.308,0,0,1-9.03-3.09,53.292,53.292,0,0,1-.89-10.05c0-14.56,5.49-39.48,43.7-36.42C109.688,69.608,112.538,69.978,115.408,70.458Z" fill="#ffcaa6"/><path d="M76.528,160.918a60.622,60.622,0,0,0,1.26,12.54s.2.1.57.28c-1.41-.21-2.76-.46-4.03-.75a54.253,54.253,0,0,1-10.55-3.47,53.424,53.424,0,0,1-.89-10.05c0-14.59,5.51-39.57,43.92-36.4,1.05.08,2.12.19,3.22.32q.69.075,1.38.18c.3.03.6.07.91.12.63.08,1.25.18,1.89.28C81.838,123.688,76.528,146.158,76.528,160.918Z" fill="#ffcaa6"/><path d="M76.528,214.588a60.622,60.622,0,0,0,1.26,12.54s.05.08.14.22c-.61-.09-1.21-.2-1.8-.31a55.356,55.356,0,0,1-12.35-3.85,53.292,53.292,0,0,1-.89-10.05c0-14.6,5.51-39.6,43.98-36.4,1.02.09,2.07.19,3.14.32.39.04.78.09,1.18.15.38.04.75.09,1.13.15.62.08,1.24.17,1.87.28C81.838,177.368,76.528,199.828,76.528,214.588Z" fill="#ffcaa6"/><path d="M225.55,240.648a57.663,57.663,0,0,1-82.92-75.86l11.72,10.72a42.32,42.32,0,0,0,59.48,54.42Z" fill="#ff4a73"/><path d="M250.46,193.188a57.309,57.309,0,0,1-10.42,33.05l-11.43-10.45a42.321,42.321,0,0,0-61.48-56.24l-11.44-10.47a57.651,57.651,0,0,1,94.77,44.11Z" fill="#ff4a73"/><path d="M228.61,215.79l-61.48-56.24-11.44-10.47a57.961,57.961,0,0,0-13.06,15.71l11.72,10.719,59.48,54.42,11.72,10.72a57.685,57.685,0,0,0,14.49-14.41Z" fill="#ff4a73"/><path d="M124.5,71.552c.112-3.605-3.354-4.09-4.92-4.392-12.287-2.535-26.8-3.349-38.392,1.316C98.724,48.992,92.525,27.8,73.829,9.139c-2.312-2.311-4.922-4.689-7.758-7.067a4,4,0,0,0-5.14,0c-2.838,2.379-5.448,4.757-7.758,7.066C34.234,28.058,28.134,49.849,46.435,69.091,34,63.479,18.133,64.655,4.848,67.517a4,4,0,0,0-3.156,4.035c.549,17.553,4.539,37.655,19.237,47.383-1.306.077-5.748.2-16.05,2.245a4,4,0,0,0-3.187,4.042C2.24,142.81,6.241,162.868,20.919,172.6a107.154,107.154,0,0,0-16.256,2.258,4,4,0,0,0-3.171,4.038c.668,21.5,6.179,36.724,16.379,45.261,6.13,5.13,13.943,7.762,22.883,7.762A57.162,57.162,0,0,0,59.1,228.641v22.2a4,4,0,1,0,8,0V228.779c13.785,4.663,29.377,4.874,40.714-4.54,10.263-8.52,15.808-23.777,16.482-45.346a4,4,0,0,0-3.167-4.038,109.115,109.115,0,0,0-16.07-2.246c14.666-9.707,18.687-29.74,19.237-47.387a4,4,0,0,0-3.179-4.04,103.578,103.578,0,0,0-15.883-2.226C119.919,109.25,123.946,89.214,124.5,71.552ZM9.838,74.69c13.449-2.547,30.365-3.017,40.307,6.3,7.425,6.956,9.468,17.952,8.854,28.12L35.653,90.132a4,4,0,1,0-5.045,6.208L53.3,114.785C24.266,122.789,11.576,104.509,9.838,74.69Zm0,53.667c13.47-2.464,30.225-3.127,40.281,6.265,10.1,9.438,8.62,23.652,8.855,28.135L35.653,143.8a4,4,0,1,0-5.045,6.208l22.7,18.445C24.464,176.4,11.589,158.452,9.838,128.357Zm48.97,87.936L35.653,197.474a4,4,0,1,0-5.045,6.208l22.646,18.405c-10.388,2.9-21.978,2.855-30.249-4.069-7.873-6.589-12.364-18.689-13.368-36C40.379,176.405,60.573,185.77,58.808,216.293Zm.292-29.676a31.658,31.658,0,0,0-10.445-8.988A61.09,61.09,0,0,0,59.1,175.037Zm0-53.947a32.028,32.028,0,0,0-10.275-8.746A60.421,60.421,0,0,0,59.1,121.367Zm4-103.036a4,4,0,0,0-4,4V69.547C39.811,56.159,36.842,36.761,58.83,14.8c1.433-1.435,3-2.9,4.671-4.381,1.672,1.48,3.237,2.947,4.673,4.383,10.2,10.186,15.376,19.983,15.376,29.12,0,10.73-7.711,20.252-16.45,26.317v-36.6A4,4,0,0,0,63.1,29.634Zm53.049,152.391c-1.011,17.364-5.527,29.485-13.445,36.059-8.751,7.265-20.915,6.9-31.727,3.541l22.077-17.943a4,4,0,1,0-5.045-6.208L67.1,214.468v-6.014c.627-6.809,2.828-14.693,8.9-20.278C86.091,178.887,102.734,179.623,116.149,182.025ZM67.1,186.063V175.109A60.519,60.519,0,0,0,77.186,177.6,31.946,31.946,0,0,0,67.1,186.063Zm49.049-57.708c-1,17.309-5.5,29.409-13.366,36-8.781,7.349-20.956,6.968-31.805,3.6l22.076-17.942a4,4,0,1,0-5.045-6.208L67.1,160.8v-6.011c.626-6.805,2.826-14.685,8.892-20.27C85.954,125.341,102.9,125.846,116.149,128.355ZM67.1,132.4V121.359a64.74,64.74,0,0,0,9.864,2.505c.091.015.18.025.27.039A31.994,31.994,0,0,0,67.1,132.4Zm35.71-21.577c-8.823,7.251-20.811,6.79-31.763,3.405L93.054,96.34a4,4,0,1,0-5.045-6.208l-20.9,16.989c-.222-9.594,1.959-19.7,9.067-26.259,10.048-9.276,26.751-8.619,40.177-6.174C115.337,92.121,110.789,104.267,102.81,110.821Z" fill="#5f266d"/><path d="M192.81,131.538a61.7,61.7,0,0,0-39.7,14.48l-.016.017A61.726,61.726,0,0,0,139.16,162.8l-.007.01a61.578,61.578,0,0,0-7.993,30.376c0,59.688,77.607,84.877,112.161,35.34l.012-.021C271.767,187.954,242.7,131.538,192.81,131.538ZM143.816,171.3l5.746,5.256c-15.214,39.243,26.111,76.706,63.652,58.233l5.752,5.262C174.445,264.971,122.7,218.559,143.816,171.3Zm12.195,11.156,50.748,46.427C177.2,240.454,147.073,212.9,156.011,182.452Zm69.817,53.03c-17.532-16.037-74.683-68.327-78.075-71.429a53.673,53.673,0,0,1,7.912-9.574l8.765,8.019h0l61.479,56.243h0l8.758,8.006A53.451,53.451,0,0,1,225.828,235.482Zm-52.25-75.459c32.081-18.781,69.871,15.411,53.967,49.371Zm65.658,60.06-5.545-5.07c16.5-30.8-5.994-68.175-40.881-68.175a45.753,45.753,0,0,0-25.363,7.577l-5.549-5.079a53.709,53.709,0,0,1,30.912-9.8C234.153,139.538,259.9,184.577,239.236,220.083Z" fill="#5f266d"/></svg>