<svg xmlns="http://www.w3.org/2000/svg" viewBox="0 0 256 256"><title>Foodies Expanded</title><path d="M247.11,20.877l-62.49,61.63H71.37L8.89,20.877a4.945,4.945,0,0,1,2.36-.59h233.5A4.945,4.945,0,0,1,247.11,20.877Z" fill="#f9d335"/><path d="M249.75,25.287v57.22H184.62l62.49-61.63A5.009,5.009,0,0,1,249.75,25.287Z" fill="#5fcdff"/><path d="M249.75,82.507v162.45a5,5,0,0,1-5,5H11.25a5,5,0,0,1-5-5V82.507Z" fill="#3193f3"/><rect x="94.854" y="61.247" width="66.671" height="57.459" transform="translate(-25.203 58.37) rotate(-23.422)" fill="#ffbb98"/><path d="M90.368,39.177h0a12,12,0,0,1,12,12V73.51a0,0,0,0,1,0,0h-24a0,0,0,0,1,0,0V51.177a12,12,0,0,1,12-12Z" transform="translate(-14.95 40.564) rotate(-23.422)" fill="#c98585"/><path d="M144.977,20.292a10.857,10.857,0,0,0-1.364-7.971,12.219,12.219,0,0,0-11.142-6.255,11.9,11.9,0,0,0-8.244,4.138,11.9,11.9,0,0,0-8.518-3.529,12.217,12.217,0,0,0-10.661,7.04,10.856,10.856,0,0,0-.785,8.054,9.234,9.234,0,1,0,9.628,12.542L120.2,62.127l12.433-5.386,3.684-23.16a9.223,9.223,0,0,0,8.446,5.168,9.335,9.335,0,0,0,9.084-9.09A9.229,9.229,0,0,0,144.977,20.292Z" fill="#44c7b6"/><path d="M158.851,129.457h60.482a5,5,0,0,1,5,5v115.5a0,0,0,0,1,0,0H153.851a0,0,0,0,1,0,0v-115.5A5,5,0,0,1,158.851,129.457Z" fill="#ffe2e2"/><rect x="25" y="145.124" width="111.5" height="61.5" rx="5" ry="5" fill="#ffe2e2"/><path d="M71.37,82.507H6.25V25.287a5.009,5.009,0,0,1,2.64-4.41Z" fill="#5fcdff"/><path d="M173.85,129.457a5,5,0,0,0-5,5v115.5h-15v-115.5a5,5,0,0,1,5-5Z" fill="#ffefee"/><path d="M45,206.627H30a5,5,0,0,1-5-5v-51.5a5,5,0,0,1,5-5H45a5,5,0,0,0-5,5v51.5A5,5,0,0,0,45,206.627Z" fill="#ffefee"/><path d="M224.33,134.457v115.5h-15v-115.5a5,5,0,0,0-5-5h15A5,5,0,0,1,224.33,134.457Z" fill="#ffcfcf"/><path d="M136.5,150.127v51.5a5,5,0,0,1-5,5h-15a5,5,0,0,0,5-5v-51.5a5,5,0,0,0-5-5h15A5,5,0,0,1,136.5,150.127Z" fill="#ffcfcf"/><rect x="97.033" y="71.764" width="13.764" height="57.455" transform="translate(-31.379 49.576) rotate(-23.417)" fill="#ffcaa6"/><rect x="145.583" y="50.734" width="13.764" height="57.455" transform="translate(-19.022 67.138) rotate(-23.417)" fill="#ffaa80"/><path d="M26.25,249.957h-15a5,5,0,0,1-5-5V82.507h15v162.45A5,5,0,0,0,26.25,249.957Z" fill="#35b1fc"/><path d="M249.75,82.507v162.45a5,5,0,0,1-5,5h-15a5,5,0,0,0,5-5V82.507Z" fill="#307fed"/><path d="M21.25,33.067v49.44h-15V25.287a5.009,5.009,0,0,1,2.64-4.41Z" fill="#73d7f9"/><path d="M249.75,25.287v57.22h-15V33.067l12.36-12.19A5.009,5.009,0,0,1,249.75,25.287Z" fill="#30b6ff"/><path d="M249.023,17.365l0,0h0l0,0L249,17.351a8.975,8.975,0,0,0-4.246-1.064H149.1a14.833,14.833,0,0,0-2.047-6.012,16.177,16.177,0,0,0-14.845-8.2,15.777,15.777,0,0,0-8.167,2.915,15.75,15.75,0,0,0-22.566,6.932,15.322,15.322,0,0,0-1.425,4.365H11.25a9.008,9.008,0,0,0-9,9v219.67a9.011,9.011,0,0,0,9,9h233.5a9.011,9.011,0,0,0,9-9V25.287A9.012,9.012,0,0,0,249.023,17.365ZM213.634,59.51,245.75,27.836V78.507H194.373Zm-12.492,1.084L182.979,78.507h-19.07l-12.88-29.733a4,4,0,0,0-5.26-2.081l-8.038,3.482,1.373-8.633a13.247,13.247,0,0,0,17.683-17.255h81.169ZM98.083,54.027l4.86,11.218L93.61,69.289l-3.631,1.572Zm12.2,8.038L103,45.243q-.315-.727-.694-1.411a13.167,13.167,0,0,0,1.61.276,13.325,13.325,0,0,0,7.742-1.579l3.914,17.247ZM84.7,63.384l-3.726-8.6A8,8,0,0,1,93.36,45.394Zm6.741,15.562,53.837-23.322,19.66,45.383L111.1,124.33Zm17.182-63.437a8.214,8.214,0,0,1,7.108-4.834,7.909,7.909,0,0,1,5.662,2.351,4,4,0,0,0,5.865-.213,7.881,7.881,0,0,1,5.48-2.755,8.2,8.2,0,0,1,7.438,4.31,6.9,6.9,0,0,1,.873,5.169,4.045,4.045,0,0,0,3.776,4.752,5.2,5.2,0,0,1,5.026,5.313,5.238,5.238,0,0,1-9.937,2.222,4,4,0,0,0-7.544,1.129l-3.34,20.991-5.993,2.6-5.245-23.115a4,4,0,0,0-7.627-.57,5.236,5.236,0,1,1-5.461-7.112,4,4,0,0,0,3.421-5.014A6.9,6.9,0,0,1,108.623,15.509ZM93.859,24.287a13.244,13.244,0,0,0-.636,12.105,15.981,15.981,0,0,0-19.59,21.57l8.878,20.494.022.051H73.011l-36.77-36.27-18.2-17.95ZM10.25,27.837,24.513,41.906l37.106,36.6H10.25Zm147.6,218.12v-111.5a1,1,0,0,1,1-1h60.482a1,1,0,0,1,1,1v111.5Zm87.9-1a1,1,0,0,1-1,1H228.333v-111.5a9.01,9.01,0,0,0-9-9H158.851a9.011,9.011,0,0,0-9,9v111.5H11.25a1,1,0,0,1-1-1V86.507H86l19.352,44.673a4,4,0,0,0,5.26,2.08l61.177-26.5a4,4,0,0,0,2.081-5.26l-6.494-14.991H245.75Z" fill="#5f266d"/><path d="M131.5,141.124H30a9.01,9.01,0,0,0-9,9v51.5a9.011,9.011,0,0,0,9,9H131.5a9.011,9.011,0,0,0,9-9v-51.5A9.01,9.01,0,0,0,131.5,141.124Zm1,60.5a1,1,0,0,1-1,1H30a1,1,0,0,1-1-1v-51.5a1,1,0,0,1,1-1H131.5a1,1,0,0,1,1,1Z" fill="#5f266d"/><circle cx="173.438" cy="189.707" r="6.187" fill="#5f266d"/><path d="M61.944,160.749a4,4,0,0,0-5.652-.236l-13.5,12.416a4,4,0,1,0,5.416,5.889l13.5-12.417A4,4,0,0,0,61.944,160.749Z" fill="#5f266d"/><path d="M63.042,174.367l-13.5,12.416a4,4,0,0,0,5.416,5.889l13.5-12.417a4,4,0,1,0-5.416-5.888Z" fill="#5f266d"/><path d="M106.848,164.906l-13.5,12.416a4,4,0,1,0,5.416,5.889l13.5-12.417a4,4,0,0,0-5.416-5.888Z" fill="#5f266d"/><path d="M126.494,76.172a4,4,0,0,0-5.247-2.113L104.685,81.11a4,4,0,1,0,3.134,7.36l16.561-7.051A4,4,0,0,0,126.494,76.172Z" fill="#5f266d"/><path d="M136.617,75.865c1.05,0,1.368-.237,4.95-1.762a4,4,0,0,0-3.134-7.361l-3.385,1.442a4,4,0,0,0,1.569,7.681Z" fill="#5f266d"/></svg>