<svg xmlns="http://www.w3.org/2000/svg" viewBox="0 0 256 256"><title>Foodies Expanded</title><path d="M51.87,9.25H193.5a0,0,0,0,1,0,0v227.5a10,10,0,0,1-10,10H51.87a10,10,0,0,1-10-10V19.25a10,10,0,0,1,10-10Z" fill="#ffe2e2"/><path d="M66.87,246.75h-15a10,10,0,0,1-10-10V19.25a10,10,0,0,1,10-10h15a10,10,0,0,0-10,10v217.5A10,10,0,0,0,66.87,246.75Z" fill="#ffefee"/><path d="M193.5,9.25v227.5a10,10,0,0,1-10,10h-15a10,10,0,0,0,10-10V9.25Z" fill="#ffcfcf"/><path d="M193.5,9.25h15.63a5,5,0,0,1,5,5v43a0,0,0,0,1,0,0H193.5a0,0,0,0,1,0,0v-48A0,0,0,0,1,193.5,9.25Z" fill="#f9d335"/><rect x="193.5" y="57.25" width="20.63" height="48" fill="#5fcdff"/><path d="M193.5,105.25h20.63a0,0,0,0,1,0,0v43a5,5,0,0,1-5,5H193.5a0,0,0,0,1,0,0v-48A0,0,0,0,1,193.5,105.25Z" fill="#ff4a73"/><polygon points="88.746 188.621 77.19 186.951 72.015 176.485 66.856 186.959 55.302 188.646 63.669 196.79 61.704 208.299 72.035 202.858 82.374 208.284 80.391 196.777 88.746 188.621" fill="#f9d335"/><polygon points="134.407 188.621 122.851 186.951 117.676 176.485 112.516 186.959 100.963 188.646 109.33 196.79 107.365 208.299 117.696 202.858 128.034 208.284 126.052 196.777 134.407 188.621" fill="#f9d335"/><polygon points="180.068 188.621 168.512 186.951 163.337 176.485 158.177 186.959 146.624 188.646 154.991 196.79 153.026 208.299 163.356 202.858 173.695 208.284 171.713 196.777 180.068 188.621" fill="#f9d335"/><rect x="56.937" y="129.75" width="121.496" height="21.5" rx="5" ry="5" fill="#796e84"/><path d="M117.685,82h0a47.331,47.331,0,0,1,47.331,47.331v.419a0,0,0,0,1,0,0H70.354a0,0,0,0,1,0,0v-.419A47.331,47.331,0,0,1,117.685,82Z" fill="#87828e"/><path d="M165.02,129.33v.42h-15v-.42A47.316,47.316,0,0,0,110.19,82.6a46.257,46.257,0,0,1,7.49-.6h.01A47.33,47.33,0,0,1,165.02,129.33Z" fill="#796e84"/><path d="M76.94,151.25h-15a5,5,0,0,1-5-5v-11.5a5,5,0,0,1,5-5h15a5,5,0,0,0-5,5v11.5A5,5,0,0,0,76.94,151.25Z" fill="#87828e"/><path d="M125.19,82.6a47.324,47.324,0,0,0-39.84,46.73v.42h-15v-.42A47.33,47.33,0,0,1,117.68,82h.01A46.381,46.381,0,0,1,125.19,82.6Z" fill="#a4a4a5"/><path d="M178.43,134.75v11.5a5,5,0,0,1-5,5h-15a5,5,0,0,0,5-5v-11.5a5,5,0,0,0-5-5h15A5,5,0,0,1,178.43,134.75Z" fill="#796e84"/><path d="M209.13,5.25H51.87a14.015,14.015,0,0,0-14,14v217.5a14.015,14.015,0,0,0,14,14H183.5a14.015,14.015,0,0,0,14-14v-79.5h11.63a9.011,9.011,0,0,0,9-9v-134A9.011,9.011,0,0,0,209.13,5.25Zm-11.63,56h12.63v40H197.5Zm12.63-47v39H197.5v-40h11.63A1,1,0,0,1,210.13,14.25ZM189.5,236.75a6.006,6.006,0,0,1-6,6H51.87a6.007,6.007,0,0,1-6-6V19.25a6.007,6.007,0,0,1,6-6H189.5Zm20.63-88.5a1,1,0,0,1-1,1H197.5v-40h12.63Z" fill="#5f266d"/><path d="M89.318,184.662l-9.474-1.37L75.6,174.711a4,4,0,0,0-7.174.006L64.2,183.3c-9.431,1.378-11.713,1.067-12.7,4.109a4,4,0,0,0,1.015,4.1l6.86,6.677-1.612,9.437a4,4,0,0,0,1.594,3.911c2.579,1.872,4.222.3,12.684-4.16l8.476,4.449a4,4,0,0,0,5.8-4.222L84.69,198.17c6.863-6.7,8.844-7.767,7.859-10.788A4,4,0,0,0,89.318,184.662ZM77.6,193.915a4,4,0,0,0-1.147,3.542l.606,3.519-3.162-1.66a4,4,0,0,0-3.723,0l-3.16,1.664.6-3.52a4,4,0,0,0-1.153-3.539L63.9,191.433l3.534-.516a4,4,0,0,0,3.01-2.191l1.578-3.2,1.583,3.2a4,4,0,0,0,3.013,2.186l3.535.51Z" fill="#5f266d"/><path d="M134.979,184.662l-9.475-1.37-4.243-8.581a4,4,0,0,0-3.585-2.227h0a4,4,0,0,0-3.586,2.233l-4.23,8.587-9.472,1.384a4,4,0,0,0-2.212,6.824l6.86,6.677-1.611,9.437a4,4,0,0,0,5.807,4.212l8.47-4.461,8.476,4.449a4,4,0,0,0,5.8-4.222l-1.625-9.434,6.85-6.687A4,4,0,0,0,134.979,184.662Zm-11.721,9.253a4,4,0,0,0-1.148,3.542l.606,3.519-3.161-1.66a4,4,0,0,0-3.723,0l-3.16,1.664.6-3.52a4,4,0,0,0-1.153-3.539l-2.559-2.491,3.534-.516a4,4,0,0,0,3.01-2.191l1.578-3.2,1.583,3.2a4,4,0,0,0,3.013,2.186l3.534.51Z" fill="#5f266d"/><path d="M180.64,184.662l-9.475-1.37-4.243-8.581a4,4,0,0,0-7.174.006l-4.23,8.587-9.473,1.384a4,4,0,0,0-2.212,6.824l6.861,6.677-1.611,9.437a4,4,0,0,0,5.806,4.212l8.471-4.461,8.476,4.449a4,4,0,0,0,5.8-4.222l-1.626-9.434,6.85-6.687A4,4,0,0,0,180.64,184.662Zm-11.722,9.253a4,4,0,0,0-1.147,3.542l.606,3.519-3.162-1.66a4,4,0,0,0-3.722,0l-3.16,1.664.6-3.52a4,4,0,0,0-1.153-3.539l-2.56-2.491,3.534-.516a4,4,0,0,0,3.011-2.191l1.577-3.2,1.583,3.2a4,4,0,0,0,3.013,2.186l3.535.51Z" fill="#5f266d"/><path d="M181.5,21.75h-3.75a4,4,0,0,0,0,8h3.75a4,4,0,0,0,0-8Z" fill="#5f266d"/><path d="M151.75,29.75h11a4,4,0,0,0,0-8h-11a4,4,0,0,0,0,8Z" fill="#5f266d"/><path d="M61.937,155.25h111.5a9.01,9.01,0,0,0,9-9v-11.5a9.01,9.01,0,0,0-9-9h-4.556a51.392,51.392,0,0,0-47.192-47.579V65.5h9.949a4,4,0,0,0,0-8h-27.9a4,4,0,1,0,0,8h9.949V78.171A51.391,51.391,0,0,0,66.493,125.75H61.937a9.011,9.011,0,0,0-9,9v11.5A9.011,9.011,0,0,0,61.937,155.25ZM117.685,86a43.391,43.391,0,0,1,43.184,39.75H74.5A43.392,43.392,0,0,1,117.685,86ZM60.937,134.75a1,1,0,0,1,1-1h111.5a1,1,0,0,1,1,1v11.5a1,1,0,0,1-1,1H61.937a1,1,0,0,1-1-1Z" fill="#5f266d"/></svg>