<svg xmlns="http://www.w3.org/2000/svg" viewBox="0 0 256 256"><title>Foodies Expanded</title><path d="M6.481,213.454l61.756-61.422,36.152,36.152L42.633,249.606a1.942,1.942,0,0,1-3.263-1.825l4.081-17.069,4.945-20.68a1.943,1.943,0,0,0-2.341-2.341L8.306,216.717A1.942,1.942,0,0,1,6.481,213.454Z" fill="#44c7b6"/><path d="M249.521,213.454l-61.755-61.422-36.152,36.152,61.755,61.422a1.942,1.942,0,0,0,3.263-1.825l-4.081-17.069-4.944-20.68a1.942,1.942,0,0,1,2.341-2.341l37.748,9.026A1.942,1.942,0,0,0,249.521,213.454Z" fill="#44c7b6"/><circle cx="128.001" cy="110.566" r="104.764" fill="#4bdbc3"/><circle cx="128.001" cy="110.566" r="82.822" fill="#44c7b6"/><rect x="67.253" y="124.559" width="121.496" height="21.5" rx="5" ry="5" fill="#87828e"/><path d="M128,76.809h0a47.331,47.331,0,0,1,47.331,47.331v.419a0,0,0,0,1,0,0H80.67a0,0,0,0,1,0,0v-.419A47.331,47.331,0,0,1,128,76.809Z" fill="#87828e"/><path d="M87.251,146.063h-15a5,5,0,0,1-5-5v-11.5a5,5,0,0,1,5-5h15a5,5,0,0,0-5,5v11.5A5,5,0,0,0,87.251,146.063Z" fill="#a4a4a5"/><path d="M135.5,77.412a47.317,47.317,0,0,0-39.83,46.73v.421h-15v-.421A47.329,47.329,0,0,1,128,76.813,46.381,46.381,0,0,1,135.5,77.412Z" fill="#a4a4a5"/><path d="M188.751,129.563v11.5a5,5,0,0,1-5,5h-15a5,5,0,0,0,5-5v-11.5a5,5,0,0,0-5-5h15A5,5,0,0,1,188.751,129.563Z" fill="#796e84"/><path d="M175.331,124.142v.421h-15v-.421a47.316,47.316,0,0,0-39.83-46.73,46.381,46.381,0,0,1,7.5-.6,47.321,47.321,0,0,1,47.33,47.329Z" fill="#796e84"/><path d="M135.5,193.053q-3.705.344-7.5.339a82.825,82.825,0,0,1,0-165.649q3.795,0,7.5.339a82.826,82.826,0,0,0,0,164.971Z" fill="#4bdbc3"/><path d="M210.821,110.563A82.828,82.828,0,0,1,128,193.392q-3.8,0-7.5-.339a82.826,82.826,0,0,0,0-164.971q3.7-.345,7.5-.339A82.82,82.82,0,0,1,210.821,110.563Z" fill="#3bb2a0"/><path d="M252.341,210.616,215.969,174.45a108.764,108.764,0,1,0-175.936,0L3.653,210.623A5.943,5.943,0,0,0,9.24,220.6l34.482-8.241-8.238,34.479a5.941,5.941,0,0,0,9.967,5.6l41.422-41.192a108.627,108.627,0,0,0,82.256,0l41.4,41.173a5.944,5.944,0,0,0,9.99-5.567l-8.242-34.491,34.475,8.239A5.942,5.942,0,0,0,252.341,210.616ZM44.948,241.657l7.33-30.685a5.939,5.939,0,0,0-7.157-7.17L14.5,211.121l30.512-30.339A109.444,109.444,0,0,0,79.1,207.7ZM27.237,110.566A100.765,100.765,0,1,1,128,211.33,100.878,100.878,0,0,1,27.237,110.566ZM210.89,203.805a5.939,5.939,0,0,0-7.169,7.157l7.333,30.7L176.9,207.7a109.444,109.444,0,0,0,34.087-26.915L241.5,211.121Z" fill="#5f266d"/><path d="M128,23.743a86.823,86.823,0,1,0,86.822,86.823A86.921,86.921,0,0,0,128,23.743Zm0,165.645a78.823,78.823,0,1,1,78.822-78.822A78.911,78.911,0,0,1,128,189.388Z" fill="#5f266d"/><path d="M98.507,161.472a59.6,59.6,0,0,1-5.054-3.292,4,4,0,1,0-4.7,6.47,67.235,67.235,0,0,0,5.739,3.739,4,4,0,1,0,4.018-6.917Z" fill="#5f266d"/><path d="M128,169.388a58.891,58.891,0,0,1-16.628-2.382,4,4,0,1,0-2.258,7.675A66.923,66.923,0,0,0,128,177.388a4,4,0,0,0,0-8Z" fill="#5f266d"/><path d="M183.749,120.558h-4.556A51.391,51.391,0,0,0,132,72.979V60.308h9.949a4,4,0,0,0,0-8h-27.9a4,4,0,0,0,0,8H124V72.979a51.392,51.392,0,0,0-47.192,47.579H72.253a9.01,9.01,0,0,0-9,9v11.5a9.01,9.01,0,0,0,9,9h111.5a9.01,9.01,0,0,0,9-9v-11.5A9.01,9.01,0,0,0,183.749,120.558ZM128,80.808a43.392,43.392,0,0,1,43.185,39.75H84.817A43.391,43.391,0,0,1,128,80.808Zm56.748,60.25a1,1,0,0,1-1,1H72.253a1,1,0,0,1-1-1v-11.5a1,1,0,0,1,1-1h111.5a1,1,0,0,1,1,1Z" fill="#5f266d"/></svg>