<svg xmlns="http://www.w3.org/2000/svg" viewBox="0 0 256 256"><title>Foodies Expanded</title><circle cx="76.769" cy="76.216" r="9.772" fill="#ff4a73"/><rect x="44.339" y="85.988" width="62.661" height="19.216" fill="#b76c6c"/><rect x="44.34" y="85.991" width="15" height="19.21" fill="#c98585"/><rect x="21.67" y="148.971" width="212.66" height="72.82" fill="#44c7b6"/><path d="M249.5,137.511v.79a10.674,10.674,0,0,1-10.67,10.67H17.17A10.674,10.674,0,0,1,6.5,138.3v-.79a10.665,10.665,0,0,1,10.67-10.66H238.83A10.665,10.665,0,0,1,249.5,137.511Z" fill="#44c7b6"/><path d="M110.266,126.848H41.073l-5.525-17.285a3.34,3.34,0,0,1,3.182-4.358h73.879a3.341,3.341,0,0,1,3.183,4.358Z" fill="#ffe2e2"/><rect x="21.67" y="148.971" width="15" height="72.82" fill="#4bdbc3"/><path d="M32.17,148.971h-15A10.674,10.674,0,0,1,6.5,138.3v-.79a10.665,10.665,0,0,1,10.67-10.66h15a10.665,10.665,0,0,0-10.67,10.66v.79A10.674,10.674,0,0,0,32.17,148.971Z" fill="#4bdbc3"/><path d="M51.094,126.851H41.072l-5.526-17.286a3.345,3.345,0,0,1,3.181-4.363H48.749a3.345,3.345,0,0,0-3.18,4.363Z" fill="#ffefee"/><rect x="219.33" y="148.971" width="15" height="72.82" fill="#3bb2a0"/><path d="M249.5,137.511v.79a10.674,10.674,0,0,1-10.67,10.67h-15A10.674,10.674,0,0,0,234.5,138.3v-.79a10.665,10.665,0,0,0-10.67-10.66h15A10.665,10.665,0,0,1,249.5,137.511Z" fill="#3bb2a0"/><path d="M115.793,109.565l-5.526,17.286H100.245l5.525-17.286a3.345,3.345,0,0,0-3.18-4.363h10.022A3.345,3.345,0,0,1,115.793,109.565Z" fill="#ffcfcf"/><rect x="153.18" y="190.221" width="14.25" height="31.57" fill="#ffbb98"/><rect x="182.074" y="190.221" width="14.25" height="31.57" fill="#ffbb98"/><path d="M205.332,124.354v61.028a4.837,4.837,0,0,1-4.837,4.836H149.006a4.837,4.837,0,0,1-4.837-4.836V124.354a30.582,30.582,0,0,1,61.163,0Z" fill="#f9d335"/><path d="M205.333,124.355v61.026a4.841,4.841,0,0,1-4.84,4.84H184.711a4.841,4.841,0,0,0,4.84-4.84V124.355a30.605,30.605,0,0,0-22.7-29.545,30.6,30.6,0,0,1,38.478,29.545Z" fill="#f2c300"/><path d="M159.953,124.355v61.026a4.841,4.841,0,0,0,4.84,4.84H149.011a4.842,4.842,0,0,1-4.841-4.84V124.355A30.593,30.593,0,0,1,182.638,94.81,30.6,30.6,0,0,0,159.953,124.355Z" fill="#f9e27d"/><path d="M174.768,117.5h0a27.7,27.7,0,0,1-27.7-27.7V61.909a27.7,27.7,0,0,1,27.7-27.7h0a27.7,27.7,0,0,1,27.7,27.7V89.8A27.7,27.7,0,0,1,174.768,117.5Z" fill="#87828e"/><path d="M202.471,61.907V89.8a27.706,27.706,0,0,1-35.595,26.557A27.71,27.71,0,0,0,186.689,89.8V61.907a27.692,27.692,0,0,0-19.813-26.546,27.7,27.7,0,0,1,35.6,26.546Z" fill="#796e84"/><path d="M182.659,116.358A27.706,27.706,0,0,1,147.064,89.8V61.907a27.706,27.706,0,0,1,35.6-26.546,27.688,27.688,0,0,0-19.812,26.546V89.8A27.71,27.71,0,0,0,182.659,116.358Z" fill="#a4a4a5"/><rect x="92" y="85.991" width="15" height="19.21" fill="#965959"/><path d="M238.83,122.851H209.3a34.61,34.61,0,0,0-6.37-18.527A31.492,31.492,0,0,0,206.468,89.8V61.909a31.7,31.7,0,0,0-63.4,0V89.8a31.5,31.5,0,0,0,3.525,14.5,34.58,34.58,0,0,0-6.388,18.552H115.743l3.86-12.071a7.348,7.348,0,0,0-6.994-9.575H111V85.988a4,4,0,0,0-4-4H89.256A13.763,13.763,0,0,0,78.1,62.512c-2.611-2.994,1.26-8.6,3.652-11.021a4,4,0,0,0-5.665-5.649c-4.614,4.62-8.574,12.05-6.129,18.421a13.723,13.723,0,0,0-5.674,17.725H44.339a4,4,0,0,0-4,4v15.217h-1.61a7.346,7.346,0,0,0-6.991,9.576l3.858,12.07H17.17c-7.5,0-14.67,5.72-14.67,15.45a14.687,14.687,0,0,0,14.67,14.67h.5v68.82a4,4,0,0,0,4,4H234.33a4,4,0,0,0,4-4v-68.82h.5c7.456,0,14.67-5.681,14.67-15.46A14.681,14.681,0,0,0,238.83,122.851ZM151.067,61.909a23.7,23.7,0,0,1,47.4,0c0,29.927,1.261,34.328-4.983,42.4a23.685,23.685,0,0,1-38.352-1.252l-.022-.033A23.565,23.565,0,0,1,151.067,89.8Zm-2.9,62.445a26.576,26.576,0,0,1,3.376-12.958,31.71,31.71,0,0,0,46.417.015,26.6,26.6,0,0,1,3.369,12.943v61.027a.841.841,0,0,1-.84.84H149.011a.841.841,0,0,1-.84-.84Zm-71.4-53.91A5.772,5.772,0,1,1,71,76.217,5.78,5.78,0,0,1,76.769,70.444ZM48.339,89.988H103v11.217H48.339Zm63.368,19.217-4.362,13.643H43.994l-4.361-13.643ZM17.17,144.971c-8.905,0-8.907-14.12,0-14.12h123v14.12Zm132.01,72.82H25.67v-64.82h114.5v32.41a8.851,8.851,0,0,0,8.84,8.84h.169Zm14.25,0h-6.25v-23.57h6.25Zm14.644,0H171.43v-23.57h6.644Zm14.25,0h-6.25v-23.57h6.25Zm38.006,0H200.324v-23.57h.169a8.851,8.851,0,0,0,8.84-8.84v-32.41h21Zm8.5-72.82h-29.5v-14.12h29.5C247.733,130.851,247.737,144.971,238.83,144.971Z" fill="#5f266d"/></svg>