<svg xmlns="http://www.w3.org/2000/svg" viewBox="0 0 256 256"><title>Foodies Expanded</title><path d="M61.4,76.447H80.27a35.4,35.4,0,0,1,35.4,35.4v0a0,0,0,0,1,0,0H26a0,0,0,0,1,0,0v0A35.4,35.4,0,0,1,61.4,76.447Z" fill="#f9d335"/><path d="M76.4,76.45A35.388,35.388,0,0,0,41,111.84H26A35.388,35.388,0,0,1,61.4,76.45Z" fill="#f9e27d"/><path d="M115.67,111.84h-15a35.393,35.393,0,0,0-35.4-35.39h15A35.393,35.393,0,0,1,115.67,111.84Z" fill="#f2c300"/><circle cx="72.2" cy="61.825" r="14.625" fill="#ff4a73"/><rect x="21.67" y="166.36" width="212.66" height="72.82" fill="#b76c6c"/><path d="M249.5,154.9v.79a10.674,10.674,0,0,1-10.67,10.67H17.17A10.674,10.674,0,0,1,6.5,155.69v-.79a10.665,10.665,0,0,1,10.67-10.66H238.83A10.665,10.665,0,0,1,249.5,154.9Z" fill="#b76c6c"/><rect x="172.5" y="16.82" width="66.33" height="127.42" fill="#ffe2e2"/><polygon points="172.5 16.82 172.5 144.24 143.83 144.24 172.5 16.82" fill="#ffcfcf"/><path d="M123.978,144.235H20.423l-8.271-25.869a5,5,0,0,1,4.763-6.523H127.486a5,5,0,0,1,4.762,6.523Z" fill="#ffe2e2"/><rect x="21.67" y="166.36" width="15" height="72.82" fill="#c98585"/><path d="M32.17,166.36h-15A10.674,10.674,0,0,1,6.5,155.69v-.79a10.665,10.665,0,0,1,10.67-10.66h15A10.665,10.665,0,0,0,21.5,154.9v.79A10.674,10.674,0,0,0,32.17,166.36Z" fill="#c98585"/><rect x="172.5" y="16.82" width="15" height="127.42" fill="#ffefee"/><path d="M35.42,144.24h-15l-8.27-25.87a5.007,5.007,0,0,1,4.76-6.53h15a5.007,5.007,0,0,0-4.76,6.53Z" fill="#ffefee"/><rect x="219.33" y="166.36" width="15" height="72.82" fill="#965959"/><path d="M249.5,154.9v.79a10.674,10.674,0,0,1-10.67,10.67h-15a10.674,10.674,0,0,0,10.67-10.67v-.79a10.665,10.665,0,0,0-10.67-10.66h15A10.665,10.665,0,0,1,249.5,154.9Z" fill="#965959"/><rect x="223.83" y="16.82" width="15" height="127.42" fill="#ffcfcf"/><path d="M132.25,118.37l-8.27,25.87h-15l8.27-25.87a5.007,5.007,0,0,0-4.76-6.53h15A5.007,5.007,0,0,1,132.25,118.37Z" fill="#ffcfcf"/><path d="M242.83,140.808V16.82a4,4,0,0,0-4-4H172.5a4.062,4.062,0,0,0-3.918,3.2L140.631,140.24H129.455l6.6-20.656a9,9,0,0,0-8.573-11.74h-8.021a39.474,39.474,0,0,0-32.43-34.8A18.57,18.57,0,0,0,73.307,43.256a7.406,7.406,0,0,1-2.448-5c-.359-5.7,5.209-12.638,7.385-14.83a4,4,0,0,0-5.661-5.653c-6.854,6.854-12.755,18.045-7.99,27.072A18.563,18.563,0,0,0,57.1,72.685a39.468,39.468,0,0,0-34.9,35.159H16.915a8.994,8.994,0,0,0-8.573,11.74L15,140.418C-2.936,143.092-1.011,170.36,17.17,170.36h.5v68.82a4,4,0,0,0,4,4H234.33a4,4,0,0,0,4-4V170.36h.5C255.926,170.36,259.138,145.439,242.83,140.808ZM176.5,20.82h58.33V140.24H176.5Zm-8,32v87.42H148.83ZM72.2,51.2A10.624,10.624,0,1,1,61.576,61.825,10.638,10.638,0,0,1,72.2,51.2ZM61.4,80.447H80.27a31.443,31.443,0,0,1,31.143,27.4H30.254A31.444,31.444,0,0,1,61.4,80.447Zm-44.482,35.4H127.486a1,1,0,0,1,.952,1.3l-7.38,23.087H23.343l-7.381-23.087A1,1,0,0,1,16.915,115.844ZM230.33,235.18H25.67V170.36H230.33Zm8.5-72.82H17.17c-8.734,0-9-14.12,0-14.12H238.83C247.734,148.24,247.738,162.36,238.83,162.36Z" fill="#5f266d"/><path d="M219.164,45.209h-27a4,4,0,0,0,0,8h27a4,4,0,0,0,0-8Z" fill="#5f266d"/><path d="M219.164,66.088h-27a4,4,0,0,0,0,8h27a4,4,0,0,0,0-8Z" fill="#5f266d"/><path d="M219.164,107.844h-27a4,4,0,0,0,0,8h27a4,4,0,0,0,0-8Z" fill="#5f266d"/><path d="M83.25,132.039h13a4,4,0,1,0,0-8h-13a4,4,0,0,0,0,8Z" fill="#5f266d"/><path d="M111.25,132.039H114a4,4,0,1,0,0-8h-2.75a4,4,0,0,0,0,8Z" fill="#5f266d"/></svg>