<svg xmlns="http://www.w3.org/2000/svg" viewBox="0 0 256 256"><title>Foodies Expanded</title><path d="M90.589,88.565a8.674,8.674,0,0,1-.76,3.56l-30.22,67.45H40.5L73.909,85a8.72,8.72,0,0,1,16.68,3.57Z" fill="#b76c6c"/><path d="M65.739,223.83H59.708a42.46,42.46,0,0,1-41.239-32.351l-6.3-25.714a5,5,0,0,1,4.856-6.19h91.282a5,5,0,0,1,4.861,6.169L107.022,191.3A42.46,42.46,0,0,1,65.739,223.83Z" fill="#44c7b6"/><path d="M70.209,223.575a38.882,38.882,0,0,1-4.47.25h-6.03a42.454,42.454,0,0,1-41.24-32.35l-6.3-25.71a5,5,0,0,1,4.85-6.19h15a5,5,0,0,0-4.85,6.19l6.3,25.71A42.424,42.424,0,0,0,70.209,223.575Z" fill="#4bdbc3"/><path d="M113.169,165.745l-6.15,25.55a42.454,42.454,0,0,1-41.28,32.53h-6.03a39.406,39.406,0,0,1-4.5-.25,42.428,42.428,0,0,0,36.81-32.28l6.15-25.55a5,5,0,0,0-4.86-6.17h15A5,5,0,0,1,113.169,165.745Z" fill="#3bb2a0"/><path d="M228.981,32.17h-85.33a15,15,0,0,0-15,15v8a15.005,15.005,0,0,0,15,15h4.33V89.5h76.67V70.17h4.33a15,15,0,0,0,15-15v-8A14.993,14.993,0,0,0,228.981,32.17Z" fill="#87828e"/><path d="M228.981,89.5h-85.33a15.005,15.005,0,0,0-15,15V208.83a15,15,0,0,0,15,15h85.33a14.993,14.993,0,0,0,15-15V104.5A15,15,0,0,0,228.981,89.5Z" fill="#44c7b6"/><circle cx="186.318" cy="156.667" r="35.833" fill="#ffe2e2"/><path d="M158.651,70.17h-15a15.005,15.005,0,0,1-15-15v-8a15,15,0,0,1,15-15h15a15,15,0,0,0-15,15v8A15.005,15.005,0,0,0,158.651,70.17Z" fill="#a4a4a5"/><rect x="147.981" y="70.17" width="15" height="19.33" fill="#a4a4a5"/><path d="M158.651,223.83h-15a15,15,0,0,1-15-15V104.5a15.005,15.005,0,0,1,15-15h15a15.005,15.005,0,0,0-15,15V208.83A15,15,0,0,0,158.651,223.83Z" fill="#4bdbc3"/><path d="M243.981,47.17v8a15,15,0,0,1-15,15h-15a15,15,0,0,0,15-15v-8a14.993,14.993,0,0,0-15-15h15A14.993,14.993,0,0,1,243.981,47.17Z" fill="#796e84"/><rect x="209.651" y="70.17" width="15" height="19.33" fill="#796e84"/><path d="M243.981,104.5V208.83a14.993,14.993,0,0,1-15,15h-15a14.993,14.993,0,0,0,15-15V104.5a15,15,0,0,0-15-15h15A15,15,0,0,1,243.981,104.5Z" fill="#3bb2a0"/><path d="M193.821,191.71a35.835,35.835,0,1,1,0-70.09,35.838,35.838,0,0,0,0,70.09Z" fill="#ffefee"/><path d="M222.151,156.67a35.846,35.846,0,0,1-43.33,35.04,35.841,35.841,0,0,0,0-70.09,35.846,35.846,0,0,1,43.33,35.05Z" fill="#ffcfcf"/><path d="M197.506,139.821a4,4,0,0,0,0,5.657,15.813,15.813,0,0,1,3.551,16.971,4,4,0,1,0,7.443,2.935,23.817,23.817,0,0,0-5.338-25.564A4,4,0,0,0,197.506,139.821Z" fill="#5f266d"/><path d="M193.059,170.992a15.644,15.644,0,0,1-6.742,1.508,4,4,0,0,0,0,8,23.58,23.58,0,0,0,10.162-2.277,4,4,0,1,0-3.42-7.231Z" fill="#5f266d"/><path d="M228.981,74.17a19.022,19.022,0,0,0,19-19v-8a19.021,19.021,0,0,0-19-19h-85.33a19.022,19.022,0,0,0-19,19v8a19.022,19.022,0,0,0,19,19h.33V85.5h-.33a19.022,19.022,0,0,0-19,19V208.83a19.022,19.022,0,0,0,19,19h85.33a19.021,19.021,0,0,0,19-19V104.5a19.021,19.021,0,0,0-19-19h-.33V74.17Zm-96.33-19v-8a11.012,11.012,0,0,1,11-11h85.33a11.012,11.012,0,0,1,11,11v8a11.012,11.012,0,0,1-11,11h-85.33A11.013,11.013,0,0,1,132.651,55.17Zm107.33,49.33V208.83a11.012,11.012,0,0,1-11,11h-85.33a11.012,11.012,0,0,1-11-11V104.5a11.013,11.013,0,0,1,11-11h85.33A11.012,11.012,0,0,1,239.981,104.5Zm-19.33-19h-68.67V74.17h68.67Z" fill="#5f266d"/><path d="M186.317,116.833a39.834,39.834,0,1,0,39.834,39.834A39.879,39.879,0,0,0,186.317,116.833Zm0,71.667a31.834,31.834,0,1,1,31.834-31.833A31.869,31.869,0,0,1,186.317,188.5Z" fill="#5f266d"/><path d="M108.305,155.575H65.785c30.042-67.054,28.8-63.206,28.8-67.01a12.72,12.72,0,0,0-24.33-5.2l-32.35,72.215H17.023a9,9,0,0,0-8.741,11.142l6.3,25.714a46.355,46.355,0,0,0,45.123,35.4h6.031a46.322,46.322,0,0,0,45.172-35.6l6.144-25.553A9,9,0,0,0,108.305,155.575ZM77.56,86.63a4.722,4.722,0,1,1,8.619,3.86l-29.16,65.085H46.674Zm31.717,78.179-6.144,25.553A38.345,38.345,0,0,1,65.739,219.83H59.708a38.375,38.375,0,0,1-37.354-29.3l-6.3-25.713a1,1,0,0,1,.971-1.238h91.282A1,1,0,0,1,109.277,164.809Z" fill="#5f266d"/></svg>