<svg xmlns="http://www.w3.org/2000/svg" viewBox="0 0 256 256"><title>Foodies Expanded</title><rect x="23" y="7.083" width="210" height="146.667" rx="20" ry="20" fill="#796e84"/><rect x="69.667" y="-9.584" width="116.667" height="180" rx="5" ry="5" transform="translate(208.416 -47.584) rotate(90)" fill="#87828e"/><path d="M125.271,179.375h5.458a15.1,15.1,0,0,1,15.1,15.1v49.438a5,5,0,0,1-5,5H115.167a5,5,0,0,1-5-5V194.479A15.1,15.1,0,0,1,125.271,179.375Z" fill="#87828e"/><path d="M58,138.75H43a5,5,0,0,1-5-5V27.08a5.008,5.008,0,0,1,5-5H58a5.008,5.008,0,0,0-5,5V133.75A5,5,0,0,0,58,138.75Z" fill="#a4a4a5"/><path d="M130.17,248.92h-15a5,5,0,0,1-5-5V194.48a15.1,15.1,0,0,1,15.1-15.1h5.46a14.769,14.769,0,0,1,4.77.78,15.091,15.091,0,0,0-10.33,14.32v49.44A5,5,0,0,0,130.17,248.92Z" fill="#a4a4a5"/><path d="M218,27.08V133.75a5,5,0,0,1-5,5H198a5,5,0,0,0,5-5V27.08a5.008,5.008,0,0,0-5-5h15A5.008,5.008,0,0,1,218,27.08Z" fill="#796e84"/><path d="M213,3.083H43a24.027,24.027,0,0,0-24,24V133.75a24.027,24.027,0,0,0,24,24h81v17.689a19.114,19.114,0,0,0-17.833,19.04v49.438a9.01,9.01,0,0,0,9,9h25.666a9.01,9.01,0,0,0,9-9V194.479A19.114,19.114,0,0,0,132,175.439V157.75h81a24.027,24.027,0,0,0,24-24V27.083A24.027,24.027,0,0,0,213,3.083Zm-71.167,191.4v49.438a1,1,0,0,1-1,1H115.167a1,1,0,0,1-1-1V194.479a11.116,11.116,0,0,1,11.1-11.1h5.458A11.116,11.116,0,0,1,141.833,194.479ZM229,133.75a16.019,16.019,0,0,1-16,16H43a16.019,16.019,0,0,1-16-16V27.083a16.019,16.019,0,0,1,16-16H213a16.019,16.019,0,0,1,16,16Z" fill="#5f266d"/><path d="M213,18.083H43a9.01,9.01,0,0,0-9,9V133.75a9.011,9.011,0,0,0,9,9H213a9.011,9.011,0,0,0,9-9V27.083A9.01,9.01,0,0,0,213,18.083Zm-119.571,8h17.714V134.75H93.429Zm-8,108.667H67.714V26.083H85.429ZM119.143,26.083h17.714V134.75H119.143Zm25.714,0h17.714V134.75H144.857Zm25.714,0h17.715V134.75H170.571ZM42,133.75V27.083a1,1,0,0,1,1-1H59.714V134.75H43A1,1,0,0,1,42,133.75Zm172,0a1,1,0,0,1-1,1H196.286V26.083H213a1,1,0,0,1,1,1Z" fill="#5f266d"/><path d="M131.75,211.917a4,4,0,0,0-4,4v20a4,4,0,1,0,8,0v-20A4,4,0,0,0,131.75,211.917Z" fill="#5f266d"/><path d="M127.75,196.417v4.5a4,4,0,1,0,8,0v-4.5a4,4,0,0,0-8,0Z" fill="#5f266d"/></svg>