<svg xmlns="http://www.w3.org/2000/svg" viewBox="0 0 256 256"><title>Foodies Expanded</title><circle cx="128" cy="128" r="113.633" fill="#f9d335"/><circle cx="128" cy="128" r="89.834" fill="#ffe2e2"/><path d="M135.5,217.52q-3.7.315-7.5.31a89.83,89.83,0,0,1,0-179.66q3.8,0,7.5.31a89.834,89.834,0,0,0,0,179.04Z" fill="#ffefee"/><path d="M217.83,128A89.832,89.832,0,0,1,128,217.83q-3.8,0-7.5-.31a89.834,89.834,0,0,0,0-179.04q3.7-.315,7.5-.31A89.832,89.832,0,0,1,217.83,128Z" fill="#ffcfcf"/><path d="M82.436,152.684C32.451,137.9,59.313,71.149,122.069,64.422c23.687-2.539,55.924,5.955,65.548,20.45,3.778,5.689,5.388,13.4,1.659,19.939-2.7,4.727-7.107,7.833-12.065,9.917-16.4,6.894-36.633-3.154-56.506,24.168C114.464,147.477,101.548,158.339,82.436,152.684Z" fill="#b76c6c"/><circle cx="191.391" cy="139.495" r="8.251" fill="#f9d335"/><circle cx="160.466" cy="147.746" r="8.251" fill="#f9d335"/><circle cx="96.932" cy="179.584" r="8.251" fill="#f9d335"/><path d="M97.44,152.68c.91.27,1.8.5,2.68.7a33.592,33.592,0,0,1-17.68-.7C32.45,137.9,59.31,71.15,122.07,64.42a89.981,89.981,0,0,1,16.45-.14c-.49.04-.97.09-1.45.14C74.31,71.15,47.45,137.9,97.44,152.68Z" fill="#c98585"/><path d="M189.28,104.81c-2.7,4.73-7.11,7.83-12.07,9.92-16.39,6.89-36.63-3.16-56.51,24.17-5.94,8.17-17.94,18.42-35.58,14.48,9.61-2.32,16.51-8.89,20.58-14.48,19.88-27.33,40.12-17.28,56.51-24.17,4.96-2.09,9.37-5.19,12.07-9.92,3.73-6.54,2.11-14.25-1.66-19.94-7.52-11.32-28.83-18.99-49.1-20.59,23.53-2.05,54.66,6.39,64.1,20.59C191.39,90.56,193.01,98.27,189.28,104.81Z" fill="#965959"/><path d="M128,10.367A117.633,117.633,0,1,0,245.633,128,117.766,117.766,0,0,0,128,10.367Zm0,227.266A109.633,109.633,0,1,1,237.633,128,109.757,109.757,0,0,1,128,237.633Z" fill="#5f266d"/><path d="M128,34.167A93.833,93.833,0,1,0,221.833,128,93.939,93.939,0,0,0,128,34.167Zm0,179.666A85.833,85.833,0,1,1,213.833,128,85.93,85.93,0,0,1,128,213.833Z" fill="#5f266d"/><path d="M148.457,188.371a64.014,64.014,0,0,1-10.663,2.589c-4.84.742-4.313,7.954.6,7.954a64.4,64.4,0,0,0,12.61-2.96,4,4,0,1,0-2.549-7.583Z" fill="#5f266d"/><path d="M184.981,165.4a4,4,0,0,0-5.611.713,66.937,66.937,0,0,1-18.142,16.319c-4.491,2.729-.385,9.595,4.155,6.836a74.885,74.885,0,0,0,20.311-18.256A4,4,0,0,0,184.981,165.4Z" fill="#5f266d"/><path d="M190.95,82.66C178.517,63.937,128.62,49.734,89.7,69.945a4.049,4.049,0,0,0-1.12.582C46.408,93.233,37.54,143.574,81.3,156.52c17.272,5.11,32.537-1.386,42.637-15.27,18.706-25.717,37.311-15.472,54.823-22.834C195.6,111.337,199.723,95.872,190.95,82.66ZM84.6,82.29,69.369,141.446C51.845,126.29,61.675,98.436,84.6,82.29Zm-8.193,63.774c.183-.5,17.814-69.062,17.946-69.573a81.327,81.327,0,0,1,20.161-6.85L93.774,150.2A36.842,36.842,0,0,1,76.405,146.064Zm50.569-20.056a62.9,62.9,0,0,0-9.5,10.535,34.393,34.393,0,0,1-14.978,11.877l20.614-80.077a88.254,88.254,0,0,1,18.639.287Zm9.986-6.7,12.726-49.436a92.679,92.679,0,0,1,17.387,5.148l-10.091,39.2C150.778,114.831,143.961,115.862,136.96,119.307Zm37.451-40.7c19.829,11.475,17.157,31.768-8.961,34.811Z" fill="#5f266d"/><path d="M191.391,127.244A12.251,12.251,0,1,0,203.642,139.5,12.265,12.265,0,0,0,191.391,127.244Zm0,16.5a4.251,4.251,0,1,1,4.251-4.251A4.256,4.256,0,0,1,191.391,143.746Z" fill="#5f266d"/><path d="M148.215,147.746A12.251,12.251,0,1,0,160.466,135.5,12.265,12.265,0,0,0,148.215,147.746Zm16.5,0a4.251,4.251,0,1,1-4.251-4.251A4.255,4.255,0,0,1,164.717,147.746Z" fill="#5f266d"/><path d="M96.932,167.333a12.251,12.251,0,1,0,12.251,12.251A12.265,12.265,0,0,0,96.932,167.333Zm0,16.5a4.251,4.251,0,1,1,4.251-4.251A4.255,4.255,0,0,1,96.932,183.835Z" fill="#5f266d"/></svg>