<svg xmlns="http://www.w3.org/2000/svg" viewBox="0 0 256 256"><title>Foodies Expanded</title><path d="M91.243,85.457l6.706,30.157a5,5,0,0,1-2.874,5.665L85.663,125.4a5,5,0,0,1-6.1-1.707L61.709,98.263A13.076,13.076,0,0,0,60.6,92.985c-.024-.055-.061-.115-.085-.17a17.382,17.382,0,0,0,2.293-.8A17.07,17.07,0,0,0,72.1,81.932a17.067,17.067,0,0,0,13.715.007,17.458,17.458,0,0,0,2.141-1.145c.024.055.043.123.067.178A13.156,13.156,0,0,0,91.243,85.457Z" fill="#3bb2a0"/><path d="M208.53,60.5a13.254,13.254,0,0,1-24.69-9.65c.03-.06.06-.12.08-.17a16.921,16.921,0,0,1-12.01-10.409,16.783,16.783,0,0,1-15.89-.5c-.02.06-.04.13-.06.18a13.215,13.215,0,0,1-2.95,4.519,12.89,12.89,0,0,1-1.9,1.58,13.241,13.241,0,1,1-8.55-24.11,12.955,12.955,0,0,1,4.45.391c.17.049.33.089.48.139a17.835,17.835,0,0,1,.99-3.829,17.138,17.138,0,0,1,22.19-9.711c.21.091.43.17.63.271a6.71,6.71,0,0,1,.62.289,16.994,16.994,0,0,1,8.44,9.14,17.113,17.113,0,0,1,23.43,21.62,17.609,17.609,0,0,1-1.87,3.49A13.243,13.243,0,0,1,208.53,60.5Z" fill="#44c7b6"/><path d="M182.949,56.3,166.367,82.363a5,5,0,0,1-6.038,1.973l-9.571-3.74a5,5,0,0,1-3.105-5.519l5.358-30.609a13.1,13.1,0,0,0,2.947-4.517c.021-.056.037-.125.059-.181a17.442,17.442,0,0,0,2.185,1.058,17.067,17.067,0,0,0,13.7-.561,17.066,17.066,0,0,0,9.693,9.7,17.424,17.424,0,0,0,2.323.7c-.022.056-.056.117-.078.173A13.178,13.178,0,0,0,182.949,56.3Z" fill="#3bb2a0"/><path d="M175.45,131.287a27.828,27.828,0,0,1-1.31,8.46H121.01a27.876,27.876,0,1,1,54.44-8.46Z" fill="#ff4a73"/><path d="M234.5,139.747H21.5a5,5,0,0,0-5,5v13.11a66.357,66.357,0,0,0,65.25,66.36v19.03a5,5,0,0,0,5,5h82.5a5,5,0,0,0,5-5v-19.03a66.357,66.357,0,0,0,65.25-66.36v-13.11A5,5,0,0,0,234.5,139.747Z" fill="#ffe2e2"/><circle cx="85.664" cy="21.732" r="11.353" fill="#44c7b6"/><circle cx="209.438" cy="104.372" r="11.353" fill="#44c7b6"/><path d="M101.75,248.247h-15a5,5,0,0,1-5-5v-19.03c.37.01.74.01,1.11.01H96.75v19.02A5,5,0,0,0,101.75,248.247Z" fill="#ffefee"/><path d="M97.86,224.227h-15c-.37,0-.74,0-1.11-.01a66.357,66.357,0,0,1-65.25-66.36v-13.11a5,5,0,0,1,5-5h15a5,5,0,0,0-5,5v13.11a66.357,66.357,0,0,0,65.25,66.36C97.12,224.227,97.49,224.227,97.86,224.227Z" fill="#ffefee"/><path d="M97.86,224.227H96.75v-.01C97.12,224.227,97.49,224.227,97.86,224.227Z" fill="#ffcfcf"/><path d="M174.25,224.217v19.03a5,5,0,0,1-5,5h-15a5,5,0,0,0,5-5v-19.02h13.89C173.51,224.227,173.88,224.227,174.25,224.217Z" fill="#ffcfcf"/><path d="M239.5,144.747v13.11a66.357,66.357,0,0,1-65.25,66.36c-.37.01-.74.01-1.11.01h-15c.37,0,.74,0,1.11-.01a66.357,66.357,0,0,0,65.25-66.36v-13.11a5,5,0,0,0-5-5h15A5,5,0,0,1,239.5,144.747Z" fill="#ffcfcf"/><path d="M159.25,224.217v.01h-1.11C158.51,224.227,158.88,224.227,159.25,224.217Z" fill="#ffcfcf"/><path d="M175.45,131.287a27.828,27.828,0,0,1-1.31,8.46h-15a27.884,27.884,0,0,0-19.06-35.3,27.861,27.861,0,0,1,35.37,26.839Z" fill="#ea2a6a"/><path d="M171.92,9.487a17.047,17.047,0,0,0-8.44,9.151,17.835,17.835,0,0,0-.99,3.829,13.245,13.245,0,0,0-11.38,23.58,13.241,13.241,0,1,1-8.55-24.11,18.35,18.35,0,0,1,4.45.391c.17.049.33.089.48.139a17.835,17.835,0,0,1,.99-3.829,17.138,17.138,0,0,1,22.19-9.711c.21.091.43.17.63.271A6.71,6.71,0,0,1,171.92,9.487Z" fill="#4bdbc3"/><path d="M208.53,60.5a13.254,13.254,0,0,1-17.17,7.511,13.436,13.436,0,0,1-2.68-1.411,13.236,13.236,0,0,0-1.76-22.86,17.609,17.609,0,0,0,1.87-3.49,17.133,17.133,0,0,0-8.43-21.62,17.113,17.113,0,0,1,23.43,21.62,17.609,17.609,0,0,1-1.87,3.49A13.243,13.243,0,0,1,208.53,60.5Z" fill="#3bb2a0"/><path d="M134.7,131.287a27.828,27.828,0,0,0,1.31,8.46h-15a27.873,27.873,0,0,1,34.07-35.3A27.864,27.864,0,0,0,134.7,131.287Z" fill="#f973a3"/><path d="M105.48,87.8a13.258,13.258,0,0,1-12.82-1.219,13.038,13.038,0,0,1-4.7-5.781,17.981,17.981,0,0,1-2.14,1.14,17.05,17.05,0,0,1-13.72-.01,17.039,17.039,0,0,1-9.29,10.091,18.792,18.792,0,0,1-2.3.8c.03.049.06.109.09.169a13.247,13.247,0,0,1-4.64,16.23,2.2,2.2,0,0,1-.32.21,6.46,6.46,0,0,1-.63.391.89.89,0,0,0-.17.1c-.35.18-.7.361-1.06.52a13.246,13.246,0,0,1-11.53-23.83A17.353,17.353,0,0,1,40.24,83.2,17.11,17.11,0,0,1,62.78,60.657a17.1,17.1,0,0,1,23.67-9.8v.01a17,17,0,0,1,9.33,12.3,13.245,13.245,0,0,1,9.7,24.63Z" fill="#44c7b6"/><path d="M105.48,87.8a13.258,13.258,0,0,1-12.82-1.219,13.243,13.243,0,0,0-7.8-24.162A5.863,5.863,0,0,1,79.453,59a16.939,16.939,0,0,0-8-8.132,16.252,16.252,0,0,1,2.35-.95,17.314,17.314,0,0,1,12.65.94.01.01,0,0,0-.01.01,16.992,16.992,0,0,1,9.34,12.3,13.245,13.245,0,0,1,9.7,24.63Z" fill="#3bb2a0"/><path d="M86.45,50.857v.01a17.157,17.157,0,0,0-8,8.141,1.928,1.928,0,0,1-2.35,1.02A17.105,17.105,0,0,0,55.24,83.2a17.353,17.353,0,0,0,2.01,3.409,13.236,13.236,0,0,0-5.92,17.01,13.058,13.058,0,0,0,4.63,5.6,2.2,2.2,0,0,1-.32.21,6.46,6.46,0,0,1-.63.391.89.89,0,0,0-.17.1c-.35.18-.7.361-1.06.52a13.246,13.246,0,0,1-11.53-23.83A17.353,17.353,0,0,1,40.24,83.2,17.11,17.11,0,0,1,62.78,60.657a17.1,17.1,0,0,1,23.67-9.8Z" fill="#4bdbc3"/><path d="M147.649,51.9l-3.935,22.487a9.025,9.025,0,0,0,5.588,9.936l9.571,3.74a9.016,9.016,0,0,0,10.869-3.552l12.181-19.148a17.248,17.248,0,0,0,30.331-3.4l0-.005a17.341,17.341,0,0,0-5.04-19.529c7.024-16.136-7.805-33.407-24.9-28.778-9.554-15.292-32.191-12.068-37.825,4.262a17.246,17.246,0,1,0,3.16,33.992Zm31.291,3.247L162.992,80.217a1,1,0,0,1-1.207.394l-9.571-3.74a1,1,0,0,1-.62-1.1l5.154-29.453c.233-.272,1.01-1.3,1.062-1.377a21.194,21.194,0,0,0,12.151.311c.232.37.482.728.736,1.083a21.166,21.166,0,0,0,6.577,5.968c.593.344,1.2.671,1.824.956C179.016,53.845,178.954,54.65,178.94,55.146ZM135.008,31.758a9.265,9.265,0,0,1,7.906-5.836,8.914,8.914,0,0,1,3.049.266c3.161.894,5.171-1.014,5.484-3.135a13.655,13.655,0,0,1,.759-2.959c4.324-11.063,20.1-11.067,24.43-.007a4,4,0,0,0,5.468,2.14,13,13,0,0,1,10.507-.435,13.142,13.142,0,0,1,7.457,16.99c-1.085,2.753-2.674,3.528-2.011,5.994a4,4,0,0,0,2.135,2.569A9.243,9.243,0,1,1,186.945,56.1c-.127-2.553.764-3.79.924-4.79a4,4,0,0,0-3.018-4.525,12.939,12.939,0,0,1-9.216-7.975,4,4,0,0,0-2.266-2.266c-3.261-1.278-7.555,4.167-15.382-.258-1.773-1-4.554-.691-5.831,2.387a9.2,9.2,0,0,1-1.976,2.968C143.122,48.705,131.354,41.088,135.008,31.758Z" fill="#5f266d"/><path d="M85.665,37.085A15.353,15.353,0,1,0,70.312,21.732,15.37,15.37,0,0,0,85.665,37.085Zm0-22.706a7.353,7.353,0,1,1-7.353,7.353A7.361,7.361,0,0,1,85.665,14.379Z" fill="#5f266d"/><path d="M194.085,104.372a15.353,15.353,0,1,0,15.352-15.353A15.371,15.371,0,0,0,194.085,104.372Zm22.7,0a7.353,7.353,0,1,1-7.353-7.353A7.361,7.361,0,0,1,216.79,104.372Z" fill="#5f266d"/><path d="M32.664,105.218a17.252,17.252,0,0,0,30.509,2.09l13.118,18.686a9.025,9.025,0,0,0,10.977,3.072l9.411-4.123a9.016,9.016,0,0,0,5.175-10.2L96.929,92.6A17.247,17.247,0,1,0,98.58,58.487c-6.373-16.232-29.029-18.231-37.943-2.728C43.364,51.808,29.205,69.68,36.9,85.51A17.31,17.31,0,0,0,32.664,105.218Zm60.806,12.4-9.412,4.123a1,1,0,0,1-1.22-.341L65.657,96.925c0-.03-.009-.06-.011-.09-.046-.548-.114-1.093-.212-1.632a21.147,21.147,0,0,0,8.811-8.374,21.2,21.2,0,0,0,12.125-.8,18.476,18.476,0,0,0,1.224,1.448l6.451,29.005A1,1,0,0,1,93.47,117.615ZM44.125,90.141a4,4,0,0,0,1.329-5.929A13.1,13.1,0,0,1,61.181,64.324a4,4,0,0,0,5.379-2.357c4.408-12.722,22.794-11.3,25.29,1.941a4,4,0,0,0,5.269,3.029,9.25,9.25,0,0,1,11.515,5c3.7,8.485-6.033,16.6-13.725,11.331-3.956-2.689-2.683-5.806-6.307-6.4-1.75-.285-2.551.447-3.584,1.008a12.936,12.936,0,0,1-11.319.385,4,4,0,0,0-5.379,2.358c-2.473,7.137-8.724,8.143-9.724,8.69-4.1,2.239-.886,5.426-.886,8.977.046,9.989-13.739,12.838-17.718,3.721A9.266,9.266,0,0,1,44.125,90.141Z" fill="#5f266d"/><path d="M219.622,155.751a4.008,4.008,0,0,0-4.157,3.836,41.91,41.91,0,0,1-9.608,25.15,4,4,0,0,0,6.178,5.084,49.866,49.866,0,0,0,11.424-29.913A4,4,0,0,0,219.622,155.751Z" fill="#5f266d"/><path d="M195.608,193.76a42.673,42.673,0,0,1-4.42,2.423,4,4,0,1,0,3.424,7.231,50.678,50.678,0,0,0,5.252-2.881,4,4,0,1,0-4.256-6.773Z" fill="#5f266d"/><path d="M234.5,135.747H179.125a31.875,31.875,0,1,0-63.1,0H21.5a9.011,9.011,0,0,0-9,9v13.11a70.35,70.35,0,0,0,65.25,70.18v15.21a9.01,9.01,0,0,0,9,9h82.5a9.01,9.01,0,0,0,9-9V228.035a70.348,70.348,0,0,0,65.25-70.178v-13.11A9.01,9.01,0,0,0,234.5,135.747Zm-86.92-28.33a23.886,23.886,0,0,1,23.453,28.33H124.117a23.886,23.886,0,0,1,23.463-28.33Zm22.67,135.83a1,1,0,0,1-1,1H86.75a1,1,0,0,1-1-1v-15.02h84.5Zm65.25-85.39a62.644,62.644,0,0,1-61.36,62.362c-.642.018-91.915.01-92.325,0A62.634,62.634,0,0,1,20.5,157.857v-13.11a1,1,0,0,1,1-1h213a1,1,0,0,1,1,1Z" fill="#5f266d"/></svg>