<svg xmlns="http://www.w3.org/2000/svg" viewBox="0 0 256 256"><title>Foodies Expanded</title><path d="M128,97.007c-26.267,0-50.126-6.175-68.995-17.859C40.424,67.642,27.264,51.026,21.953,32.36A20.2,20.2,0,1,1,60.8,21.306c5,17.576,27.721,35.31,67.2,35.31,35.692,0,61.985-13.531,66.984-34.473a20.2,20.2,0,0,1,39.287,9.38C224.778,71.3,183.065,97.007,128,97.007Z" fill="#ff4a73"/><path d="M135.564,96.841q-3.735.166-7.56.171c-26.27,0-50.13-6.18-69-17.861-18.58-11.509-31.74-28.129-37.05-46.79a20.194,20.194,0,0,1,13.9-24.95,19.949,19.949,0,0,1,13.02.68,20.185,20.185,0,0,0-11.92,24.27c5.31,18.661,18.47,35.281,37.05,46.79C91.074,89.722,112.234,95.782,135.564,96.841Z" fill="#f973a3"/><path d="M234.274,31.522c-9.5,39.78-51.21,65.49-106.27,65.49-2.5,0-4.99-.06-7.44-.171,51.29-2.239,89.65-27.379,98.71-65.319a20.188,20.188,0,0,0-12.15-23.44,20.2,20.2,0,0,1,27.15,23.44Z" fill="#ea2a6a"/><path d="M220.254,3.3a24.186,24.186,0,0,0-29.16,17.91c-9.976,41.834-114.078,42.476-126.45-1A24.193,24.193,0,0,0,18.1,33.452c5.59,19.63,19.36,37.07,38.8,49.1a123.447,123.447,0,0,0,43.85,16.15v25.24c0,7.58,7.16,13.75,15.96,13.75H124v111.68a4,4,0,0,0,8,0V137.692h7.29c8.8,0,15.96-6.17,15.96-13.75V98.812c43.22-7.19,74.63-31.651,82.91-66.36A24.219,24.219,0,0,0,220.254,3.3ZM124,129.692h-7.29c-4.31,0-7.96-2.63-7.96-5.75V99.872q7.47.9,15.25,1.08Zm23.25-5.75c0,3.12-3.65,5.75-7.96,5.75H132v-28.74q7.815-.167,15.25-1.021Zm83.13-93.351C215,95.024,114.7,108.935,61.114,75.752c-17.73-10.98-30.28-26.78-35.31-44.49a16.076,16.076,0,0,1,1.42-12.31C34.208,6.441,53.011,8.5,56.954,22.4c14.558,51.182,129.983,50.722,141.92.671a16.2,16.2,0,0,1,31.51,7.519Z" fill="#5f266d"/><path d="M217.524,27.762a4.009,4.009,0,0,0-4.63,3.26,41.061,41.061,0,0,1-11.29,20.23c-3.824,3.657,1.733,9.43,5.54,5.77a48.938,48.938,0,0,0,13.63-24.63A4,4,0,0,0,217.524,27.762Z" fill="#5f266d"/><path d="M190.354,58.582c-.73.3-1.48.579-2.23.839-4.945,1.68-2.5,9.228,2.59,7.571q1.365-.467,2.7-1.02a4,4,0,1,0-3.06-7.39Z" fill="#5f266d"/></svg>