<svg xmlns="http://www.w3.org/2000/svg" viewBox="0 0 256 256"><title>Foodies Expanded</title><rect x="28.257" y="126.39" width="193.668" height="28.015" rx="11.328" ry="11.328" fill="#b76c6c"/><path d="M46.54,154.4v8.88a66.59,66.59,0,0,0,66.63,66.62h23.85a66.59,66.59,0,0,0,66.62-66.62V154.4Z" fill="#b76c6c"/><path d="M156.19,227.09v17.78a5,5,0,0,1-5,5H98.99a5,5,0,0,1-5-5V227.09a66.351,66.351,0,0,0,19.18,2.81h23.85A66.283,66.283,0,0,0,156.19,227.09Z" fill="#b76c6c"/><polygon points="244.542 41.63 11.458 41.63 11.458 29.13 244.542 22.553 244.542 41.63" fill="#ffbb98"/><polygon points="244.542 41.63 11.458 41.63 11.458 54.13 244.542 60.707 244.542 41.63" fill="#ffbb98"/><path d="M56.991,6.13h0a7.4,7.4,0,0,1,7.4,7.4V126.39a0,0,0,0,1,0,0h-14.8a0,0,0,0,1,0,0V13.531a7.4,7.4,0,0,1,7.4-7.4Z" fill="#f9e27d"/><path d="M71.793,6.13h0a7.4,7.4,0,0,1,7.4,7.4V126.39a0,0,0,0,1,0,0h-14.8a0,0,0,0,1,0,0V13.531a7.4,7.4,0,0,1,7.4-7.4Z" fill="#f9d335"/><path d="M86.594,6.13h0a7.4,7.4,0,0,1,7.4,7.4V126.39a0,0,0,0,1,0,0h-14.8a0,0,0,0,1,0,0V13.531a7.4,7.4,0,0,1,7.4-7.4Z" fill="#f9e27d"/><path d="M101.4,6.13h0a7.4,7.4,0,0,1,7.4,7.4V126.39a0,0,0,0,1,0,0h-14.8a0,0,0,0,1,0,0V13.531a7.4,7.4,0,0,1,7.4-7.4Z" fill="#f9d335"/><path d="M116.2,6.13h0a7.4,7.4,0,0,1,7.4,7.4V126.39a0,0,0,0,1,0,0H108.8a0,0,0,0,1,0,0V13.531a7.4,7.4,0,0,1,7.4-7.4Z" fill="#f9e27d"/><path d="M50.65,154.41H39.59a11.333,11.333,0,0,1-11.33-11.33v-5.36a11.327,11.327,0,0,1,11.33-11.33h15a11.327,11.327,0,0,0-11.33,11.33v5.36C43.26,147.45,46.56,152.07,50.65,154.41Z" fill="#c98585"/><path d="M108.99,227.09a66.351,66.351,0,0,0,19.18,2.81h-15a66.59,66.59,0,0,1-66.63-66.62V154.4h15v8.88A66.641,66.641,0,0,0,108.99,227.09Z" fill="#c98585"/><path d="M221.92,137.72v5.36a11.331,11.331,0,0,1-11.32,11.33H188.64v-.01h7.54a11.346,11.346,0,0,0,10.74-11.32v-5.36a11.325,11.325,0,0,0-11.32-11.33h15A11.325,11.325,0,0,1,221.92,137.72Z" fill="#965959"/><path d="M203.64,154.4v8.88a66.59,66.59,0,0,1-66.62,66.62h-15a66.59,66.59,0,0,0,66.62-66.62V154.4Z" fill="#965959"/><path d="M196.18,154.4c-.19.01-.38.01-.58.01h-6.96v-.01Z" fill="#965959"/><path d="M113.99,249.87h-15a5,5,0,0,1-5-5V227.09a66.2,66.2,0,0,0,15,2.68v15.1A5,5,0,0,0,113.99,249.87Z" fill="#c98585"/><path d="M156.19,227.09v17.78a5,5,0,0,1-5,5h-15a5,5,0,0,0,5-5v-15.1A65.848,65.848,0,0,0,156.19,227.09Z" fill="#965959"/><path d="M244.428,18.552,127.6,21.846V13.53a11.386,11.386,0,0,0-18.8-8.655,11.348,11.348,0,0,0-14.8,0,11.35,11.35,0,0,0-14.8,0,11.348,11.348,0,0,0-14.8,0,11.386,11.386,0,0,0-18.8,8.655V24.162l-34.244.97a4,4,0,0,0-3.887,4v25a4,4,0,0,0,3.887,4l34.244.97v63.293H39.585a15.345,15.345,0,0,0-15.328,15.328v5.358a15.345,15.345,0,0,0,15.328,15.328H42.54v4.874a69.99,69.99,0,0,0,14.24,42.526,71.256,71.256,0,0,0,33.21,24.189V244.87a9.01,9.01,0,0,0,9,9h52.2a9.01,9.01,0,0,0,9-9V230a71.216,71.216,0,0,0,33.21-24.182,70,70,0,0,0,14.24-42.534v-4.874H210.6a15.345,15.345,0,0,0,15.328-15.328v-5.358A15.345,15.345,0,0,0,210.6,122.391h-83V61.414l116.831,3.294.112,0a4,4,0,0,0,4-4V22.55A4,4,0,0,0,244.428,18.552ZM112.8,13.53a3.4,3.4,0,0,1,6.8,0V122.391h-6.8Zm-14.8,0a3.4,3.4,0,0,1,6.8,0V122.391H98Zm-14.8,0a3.4,3.4,0,0,1,6.8,0V122.391h-6.8Zm-14.8,0a3.4,3.4,0,0,1,6.8,0V122.391h-6.8Zm-14.8,0a3.4,3.4,0,0,1,6.8,0V122.391h-6.8ZM15.46,33.019l30.131-.854V37.63H15.46Zm0,17.222V45.63H45.591V51.1ZM152.19,244.87a1,1,0,0,1-1,1H98.99a1,1,0,0,1-1-1V232.261c.1.022.2.036.3.058,9.44,2.026,14.168,1.58,38.727,1.58a72.018,72.018,0,0,0,15.17-1.638Zm47.45-81.591c0,33.5-27.233,62.62-62.62,62.62-24.811,0-30.9.669-41.875-2.639h-.006a63.005,63.005,0,0,1-44.6-59.98v-4.874h149.1ZM210.6,130.391a7.336,7.336,0,0,1,7.328,7.328v5.358a7.336,7.336,0,0,1-7.328,7.328h-6.9c-.02,0-.038-.006-.058-.006H46.54c-.02,0-.038.006-.058.006h-6.9a7.336,7.336,0,0,1-7.328-7.328v-5.358a7.336,7.336,0,0,1,7.328-7.328ZM240.54,56.6,127.6,53.411V45.63H240.54Zm0-18.966H127.6V29.849L240.54,26.664Z" fill="#5f266d"/><path d="M181.026,175.666h4.3a4,4,0,0,0,0-8h-4.3a4,4,0,0,0,0,8Z" fill="#5f266d"/><path d="M147.026,175.666h19a4,4,0,0,0,0-8h-19a4,4,0,0,0,0,8Z" fill="#5f266d"/></svg>