<svg xmlns="http://www.w3.org/2000/svg" viewBox="0 0 256 256"><title>Foodies Expanded</title><circle cx="124.944" cy="127.361" r="113.633" fill="#f9d335"/><circle cx="124.944" cy="127.361" r="89.834" fill="#ffe2e2"/><path d="M132.444,216.881q-3.705.315-7.5.31a89.83,89.83,0,0,1,0-179.66q3.8,0,7.5.31a89.834,89.834,0,0,0,0,179.04Z" fill="#ffefee"/><path d="M214.774,127.361a89.832,89.832,0,0,1-89.83,89.83q-3.8,0-7.5-.31a89.834,89.834,0,0,0,0-179.04q3.7-.315,7.5-.31A89.832,89.832,0,0,1,214.774,127.361Z" fill="#ffcfcf"/><path d="M166.1,110.351c0,5.616-5.307,10.325-6.952,15.392-1.706,5.252-.239,12.169-3.42,16.54-3.213,4.415-10.267,5.143-14.682,8.356-4.371,3.181-7.225,9.683-12.477,11.388-5.067,1.645-11.174-1.883-16.79-1.883s-11.723,3.528-16.79,1.883c-5.252-1.706-8.106-8.207-12.478-11.388-4.415-3.214-11.468-3.941-14.681-8.356-3.181-4.371-1.715-11.289-3.42-16.54-1.645-5.067-6.952-9.776-6.952-15.392s5.307-10.325,6.952-15.392c1.706-5.252.239-12.169,3.42-16.54C71.045,74,78.1,73.276,82.514,70.063c4.371-3.181,7.225-9.682,12.477-11.388,5.067-1.645,11.174,1.884,16.79,1.884s11.723-3.529,16.79-1.883c5.252,1.7,8.106,8.206,12.478,11.388,4.415,3.213,11.468,3.94,14.681,8.355,3.181,4.372,1.715,11.289,3.42,16.54C160.795,100.027,166.1,104.735,166.1,110.351Z" fill="#44c7b6"/><circle cx="111.781" cy="110.351" r="38.418" fill="#b76c6c"/><path d="M117.441,148.351a38.889,38.889,0,0,1-5.66.415,38.415,38.415,0,1,1,5.66-76.414,38.42,38.42,0,0,0,0,76Z" fill="#c98585"/><path d="M150.2,110.351a38.416,38.416,0,0,1-38.415,38.415,38.9,38.9,0,0,1-5.66-.415,38.42,38.42,0,0,0,0-76,38.442,38.442,0,0,1,44.075,38Z" fill="#965959"/><path d="M75.736,94.963c-1.645,5.064-6.958,9.773-6.958,15.388s5.313,10.325,6.958,15.389c1.7,5.252.234,12.173,3.419,16.543,3.208,4.415,10.264,5.139,14.679,8.354,3.909,2.846,6.6,8.347,10.883,10.694-3.4.838-6.74,1.661-9.728.7-5.253-1.706-8.106-8.2-12.476-11.389-4.415-3.215-11.471-3.939-14.679-8.354-3.184-4.37-1.72-11.291-3.418-16.543-1.646-5.064-6.959-9.774-6.959-15.389s5.313-10.324,6.959-15.388c1.7-5.253.234-12.174,3.418-16.544C71.042,74,78.1,73.28,82.513,70.065c4.37-3.185,7.223-9.683,12.476-11.389,2.988-.966,6.332-.143,9.728.7-4.279,2.347-6.974,7.849-10.883,10.694C89.419,73.28,82.363,74,79.155,78.419,75.97,82.789,77.442,89.71,75.736,94.963Z" fill="#4bdbc3"/><path d="M166.105,110.351c0,5.615-5.313,10.325-6.959,15.389-1.7,5.252-.234,12.173-3.418,16.543-3.208,4.415-10.264,5.139-14.679,8.354-4.37,3.185-7.223,9.683-12.476,11.389-2.988.966-6.332.143-9.728-.7,4.279-2.347,6.974-7.848,10.883-10.694,4.415-3.215,11.471-3.939,14.679-8.354,3.185-4.37,1.713-11.291,3.419-16.543,1.645-5.064,6.958-9.774,6.958-15.389s-5.313-10.324-6.958-15.388c-1.7-5.253-.234-12.174-3.419-16.544C141.2,74,134.143,73.28,129.728,70.065c-3.909-2.845-6.6-8.347-10.883-10.694,3.4-.838,6.74-1.661,9.728-.7,5.253,1.706,8.106,8.2,12.476,11.389,4.415,3.215,11.471,3.939,14.679,8.354,3.184,4.37,1.72,11.291,3.418,16.544C160.792,100.027,166.105,104.736,166.105,110.351Z" fill="#3bb2a0"/><rect x="177.646" y="79.707" width="14.667" height="44.875" transform="translate(-11.891 25.379) rotate(-7.605)" fill="#f9d335"/><rect x="166.587" y="140.024" width="14.667" height="44.875" transform="translate(113.327 -67.692) rotate(32.201)" fill="#f9d335"/><rect x="111.512" y="166.998" width="14.667" height="44.875" transform="translate(308.28 70.59) rotate(90)" fill="#f9d335"/><path d="M200.71,22.507l18.468,20.245a10.728,10.728,0,0,1-.762,15.215h0a10.729,10.729,0,0,1-15.15-.821L200.71,54.3V78.56A15.112,15.112,0,0,1,185.6,93.672H169.045A15.112,15.112,0,0,1,153.933,78.56V7.644h46.776V22.507Z" fill="#ffbb98"/><path d="M212.7,221.477l-20.245,18.468a10.728,10.728,0,0,1-15.215-.762h0a10.729,10.729,0,0,1,.821-15.15l2.849-2.556H156.649a15.112,15.112,0,0,1-15.112-15.112V189.812A15.112,15.112,0,0,1,156.649,174.7h89.628v46.776H212.7Z" fill="#ffbb98"/><path d="M31,201.316,12.529,181.071a10.728,10.728,0,0,1,.762-15.215h0a10.729,10.729,0,0,1,15.15.821L31,169.526V145.263a15.112,15.112,0,0,1,15.112-15.112H62.662a15.112,15.112,0,0,1,15.112,15.112V248.356H31v-47.04Z" fill="#ffbb98"/><path d="M111.783,89.265a21.128,21.128,0,0,1,15.657,6.963,4,4,0,0,0,5.939-5.362,29.147,29.147,0,0,0-21.6-9.6,4,4,0,0,0,0,8Z" fill="#5f266d"/><path d="M132.675,107.479a21.637,21.637,0,0,1,.194,2.875c0,5.32,8,5.324,8,0a29.815,29.815,0,0,0-.266-3.947,4,4,0,0,0-7.928,1.076Z" fill="#5f266d"/><path d="M246.275,170.7H234.323A117.786,117.786,0,0,0,221.652,60.389a14.685,14.685,0,0,0,.478-20.332l-17.416-19.1V7.648a4,4,0,0,0-4-4h-46.78a4,4,0,0,0-4,4V12.4a117.979,117.979,0,0,0-24.993-2.682c-78.348,0-135.589,75.9-112.56,151.82a14.7,14.7,0,0,0-2.8,22.225L27,202.861v45.491a4,4,0,0,0,4,4h46.78a4,4,0,0,0,4-4V236.8a117.956,117.956,0,0,0,89.186-1.174,14.721,14.721,0,0,0,24.194,7.267l19.1-17.416h32.025a4,4,0,0,0,4-4V174.7A4,4,0,0,0,246.275,170.7Zm-11.7-43.348A108.65,108.65,0,0,1,225.66,170.7H208.169a93.887,93.887,0,0,0-3.455-92.756V63.175a14.583,14.583,0,0,0,9.907,1.132A108.665,108.665,0,0,1,234.571,127.352Zm-39.1,22.161A4,4,0,0,0,194.212,144l-12.41-7.809a4,4,0,0,0-5.515,1.254L155.3,170.769a19.068,19.068,0,0,0-13.743,7.36c-.092-.006-.181-.027-.275-.027H96.409a4,4,0,0,0-4,4v14.667a4,4,0,0,0,4,4H137.54v5.591a19.047,19.047,0,0,0,.89,5.761A85.943,85.943,0,0,1,81.775,201.54V155.329c3.323,3.411,6.363,8.678,11.978,10.5,6.44,2.1,13.1-1.683,18.028-1.683s11.582,3.779,18.029,1.694c4.239-1.381,7.05-4.751,9.53-7.725,3.6-4.313,4.149-4.724,9.429-6.849,3.568-1.438,7.611-3.067,10.2-6.626,4.026-5.534,2.491-13.053,3.989-17.657,1.431-4.393,7.146-9.571,7.146-16.627,0-5.25-3.122-9.378-5.439-13.207,2.732.644,4.186.527,8.288.527l3.766,28.209a4,4,0,0,0,3.96,3.471c.442,0,14.636-1.916,15.074-1.975a4,4,0,0,0,3.436-4.494l-3.734-27.978a19.224,19.224,0,0,0,6.223-6.046,85.92,85.92,0,0,1-2.651,81.841h-16.9ZM172.674,170.7H164.8l16.127-25.612,5.64,3.549Zm-35.39,15.4v6.667H100.409V186.1Zm43.737-88.43a55.71,55.71,0,0,0,6.712-.128l2.994,22.433-6.61.88ZM157.934,11.648h38.78V22.512a4,4,0,0,0,1.045,2.7L216.221,45.45a6.726,6.726,0,1,1-9.98,9.02l-2.55-2.84a4,4,0,0,0-6.977,2.672v24.26a11.127,11.127,0,0,1-11.12,11.11h-3.653V72.738a4,4,0,0,0-8,0V89.672h-4.9a11.123,11.123,0,0,1-11.111-11.11Zm-32.993,6.074A109.883,109.883,0,0,1,149.934,20.6V36.908a93.823,93.823,0,0,0-118.623,96.28A19.006,19.006,0,0,0,27,145.262v15.386a14.534,14.534,0,0,0-6.988-1.517C-1.316,88.6,51.757,17.722,124.941,17.722ZM57.886,121.907a32.5,32.5,0,0,1,2.391,4.244H46.115a19,19,0,0,0-7,1.346c0-.049,0-.1,0-.145A85.866,85.866,0,0,1,149.934,45.228V69.919c-6.3-2.592-6.575-2.51-10.595-7.327-2.48-2.974-5.291-6.343-9.537-7.726-6.438-2.084-13.074,1.7-18.021,1.7s-11.579-3.78-18.028-1.694c-4.235,1.38-7.042,4.745-9.518,7.714-3.6,4.319-4.152,4.724-9.427,6.852C64.575,73.56,62.226,76.855,61.455,87.746c-.41,5.782-.649,6.411-3.564,11.038C51.965,108.188,51.943,112.476,57.886,121.907ZM73.775,244.352H34.995v-43.04a4,4,0,0,0-1.044-2.7L15.488,178.373a6.726,6.726,0,1,1,9.981-9.019c2.278,2.537,3.856,5.094,6.957,3.9a4,4,0,0,0,2.569-3.736V145.262a11.128,11.128,0,0,1,11.12-11.111h3.653v16.934a4,4,0,0,0,8,0V134.151h4.9a11.123,11.123,0,0,1,11.11,11.111Zm3.59-134a34.418,34.418,0,1,1,34.418,34.418A34.457,34.457,0,0,1,77.365,110.352Zm3.44,28.933c26.272,28.11,73.395,9.324,73.395-28.933a42.465,42.465,0,0,0-42.417-42.418C79.892,67.934,59.4,102,74.264,130.109a19.074,19.074,0,0,0-5.391-2.9c-1.372-7.715-7.411-12.242-7.411-16.855,0-4.024,4.966-8.64,6.752-14.152a32.545,32.545,0,0,0,1.221-7.889c.552-7.777,1.04-8.5,8.366-11.458,6.547-2.642,8.119-3.8,12.578-9.147,5.1-6.11,5.931-6.3,13.4-4.44,6.956,1.727,9.028,1.735,16.013,0,7.455-1.854,8.3-1.672,13.4,4.451,7.5,8.993,10.627,7.636,16.747,11.013a19.015,19.015,0,0,0,4.384,12.007,25.179,25.179,0,0,0,1.022,5.466c1.8,5.509,6.752,10.126,6.752,14.15,0,2.229-1.552,4.693-3.2,7.3-3.615,5.74-4.271,7.575-4.777,14.74-.214,3.016-.416,5.865-1.633,7.538-2.26,3.111-9.043,4-13.8,7.475a31.859,31.859,0,0,0-5.5,5.58c-1.963,2.353-3.816,4.575-5.857,5.24-3.525,1.135-9.552-2.085-15.559-2.085s-12.033,3.222-15.558,2.074c-4.491-1.454-6.663-8.8-14.448-12.638v-.316A19,19,0,0,0,80.805,139.285Zm90.762,87.3a109.8,109.8,0,0,1-89.792,1.566V210.672a94.056,94.056,0,0,0,61.011,8.809,19.035,19.035,0,0,0,13.864,6h15.387C171.859,225.838,171.715,226.21,171.567,226.581Zm70.708-9.1H212.7a4.005,4.005,0,0,0-2.7,1.045l-20.243,18.462A6.733,6.733,0,0,1,178.5,232.03c0-3.609,2.322-5.095,5.082-7.573a4,4,0,0,0-2.673-6.977H156.65a11.127,11.127,0,0,1-11.11-11.12v-3.652h16.933a4,4,0,0,0,0-8H145.54v-4.9c0-5.8,4.331-11.111,12.055-11.111h84.68Z" fill="#5f266d"/></svg>