<svg xmlns="http://www.w3.org/2000/svg" viewBox="0 0 256 256"><title>Foodies Expanded</title><path d="M145.452,171.435a4.776,4.776,0,0,1-3.96,2.17h-12.52a75.439,75.439,0,0,0-38.48-10.49h-.02a75.439,75.439,0,0,0-38.48,10.49H39.472a4.776,4.776,0,0,1-3.96-2.17c-14.53-21.77-1.91-60.48-1.91-60.48l8.5-29.68c.56,0,1.17.01,1.83.01v21.19a46.724,46.724,0,0,0,31.55,44.06,46.25,46.25,0,0,0,30,0,46.724,46.724,0,0,0,31.55-44.06v-21.2h1.83l8.5,29.68S159.982,149.665,145.452,171.435Z" fill="#f9d335"/><path d="M100.812,6.145H80.152a48,48,0,0,0-48.01,48v22.13a5.015,5.015,0,0,0,4.97,5c2.38.02,4.66-.03,6.82-.14l1.01-.06c27.49-1.7,37.27-13.8,41.98-26.51a78.907,78.907,0,0,0,2.61-8.81,80.283,80.283,0,0,0,2.56,8.81c4.61,12.63,14.36,24.46,43.6,26.37.44.03.89.06,1.34.08,2.15.12,4.39.18,6.75.19a5.017,5.017,0,0,0,5.04-5V54.145A48,48,0,0,0,100.812,6.145Z" fill="#f9d335"/><path d="M137.032,81.275v21.2a46.724,46.724,0,0,1-31.55,44.06,46.25,46.25,0,0,1-30,0,46.724,46.724,0,0,1-31.55-44.06V81.285a2.729,2.729,0,0,0,1.01-.21c27.49-1.7,37.27-13.8,41.98-26.51a78.907,78.907,0,0,0,2.61-8.81,80.283,80.283,0,0,0,2.56,8.81c4.61,12.63,14.36,24.46,43.6,26.37A3.162,3.162,0,0,0,137.032,81.275Z" fill="#ffbb98"/><path d="M105.482,146.535v18.07a75.6,75.6,0,0,0-14.99-1.49h-.02a75.6,75.6,0,0,0-14.99,1.49v-18.07a46.25,46.25,0,0,0,30,0Z" fill="#ffbb98"/><path d="M210.482,249.855H24.722a10,10,0,0,1-10-10v-.97a75.6,75.6,0,0,1,28.65-59.34q1.77-1.41,3.61-2.7a75.365,75.365,0,0,1,28.5-12.25,76.206,76.206,0,0,1,14.99-1.48h.02a76.206,76.206,0,0,1,14.99,1.48,75.365,75.365,0,0,1,28.5,12.25c1.23.86,2.44,1.76,3.61,2.7a75.716,75.716,0,0,1,25.56,37.93h32.83v17.88A14.5,14.5,0,0,0,210.482,249.855Z" fill="#f9d335"/><polygon points="142.742 249.855 38.222 249.855 51.482 206.521 129.482 206.521 142.742 249.855" fill="#ff4a73"/><path d="M224.982,217.475v17.88a14.5,14.5,0,0,1-29,0v-17.88Z" fill="#44c7b6"/><path d="M215.832,159.735a18.275,18.275,0,0,0,9.15,30.8v26.94h-29v-72.72a5,5,0,0,1,5-5h19a5,5,0,0,1,5,5v10.02A18.311,18.311,0,0,0,215.832,159.735Z" fill="#87828e"/><path d="M97.982,163.485a74.021,74.021,0,0,0-7.5,1.11,75.365,75.365,0,0,0-28.5,12.25q-1.845,1.29-3.61,2.7a75.6,75.6,0,0,0-28.65,59.34v.97a10,10,0,0,0,10,10h-15a10,10,0,0,1-10-10v-.97a75.6,75.6,0,0,1,28.65-59.34q1.77-1.41,3.61-2.7a75.365,75.365,0,0,1,28.5-12.25,76.206,76.206,0,0,1,14.99-1.48h.02A74.1,74.1,0,0,1,97.982,163.485Z" fill="#f9e27d"/><path d="M144.052,185.305a75.643,75.643,0,0,1,19.1,32.17h-15a75.716,75.716,0,0,0-25.56-37.93c-1.17-.94-2.38-1.84-3.61-2.7a75.365,75.365,0,0,0-28.5-12.25,74.021,74.021,0,0,0-7.5-1.11,74.1,74.1,0,0,1,7.49-.37h.02a76.206,76.206,0,0,1,14.99,1.48,75.365,75.365,0,0,1,28.5,12.25c1.23.86,2.44,1.76,3.61,2.7A75.044,75.044,0,0,1,144.052,185.305Z" fill="#f2c300"/><path d="M210.482,249.855h-15a14.5,14.5,0,0,1-14.5-14.5v-17.88h15v17.88A14.5,14.5,0,0,0,210.482,249.855Z" fill="#f2c300"/><polygon points="66.482 206.525 53.222 249.855 38.222 249.855 51.482 206.525 66.482 206.525" fill="#f973a3"/><path d="M217.982,247.765a14.5,14.5,0,0,1-22-12.41v-17.88h15v17.88A14.482,14.482,0,0,0,217.982,247.765Z" fill="#4bdbc3"/><path d="M215.982,139.755a5,5,0,0,0-5,5v23.68a18.143,18.143,0,0,0,0,8.46v40.58h-15v-72.72a5,5,0,0,1,5-5Z" fill="#a4a4a5"/><path d="M47.142,54.145v22.13a5.024,5.024,0,0,0,2.59,4.38c-1.53.18-3.13.32-4.79.42l-1.01.06c-2.16.11-4.44.16-6.82.14a5.015,5.015,0,0,1-4.97-5V54.145a48,48,0,0,1,48.01-48h15A48,48,0,0,0,47.142,54.145Z" fill="#f9e27d"/><path d="M97.982,148.425a46.583,46.583,0,0,1-54.05-45.95V81.285a2.729,2.729,0,0,0,1.01-.21c27.49-1.7,37.27-13.8,41.98-26.51a78.907,78.907,0,0,0,2.61-8.81,80.283,80.283,0,0,0,2.56,8.81,39.357,39.357,0,0,0,4.93,9.57c-6.06,8.71-16.7,15.68-37.08,16.94a2.729,2.729,0,0,1-1.01.21v21.19a46.724,46.724,0,0,0,31.55,44.06A45.746,45.746,0,0,0,97.982,148.425Z" fill="#ffcaa6"/><path d="M148.822,54.145v22.06a5.017,5.017,0,0,1-5.04,5c-2.36-.01-4.6-.07-6.75-.19-.45-.02-.9-.05-1.34-.08-1.53-.1-3-.23-4.42-.38a5,5,0,0,0,2.55-4.35V54.145a48,48,0,0,0-48.01-48h15A48,48,0,0,1,148.822,54.145Z" fill="#f2c300"/><path d="M137.032,81.275v21.2a46.724,46.724,0,0,1-31.55,44.06,46.3,46.3,0,0,1-22.5,1.89,45.746,45.746,0,0,0,7.5-1.89,46.724,46.724,0,0,0,31.55-44.06v-21.2a3.162,3.162,0,0,1-1.34-.34c-21.6-1.41-32.56-8.24-38.67-16.8a42.067,42.067,0,0,0,4.9-9.57,78.907,78.907,0,0,0,2.61-8.81,80.283,80.283,0,0,0,2.56,8.81c4.61,12.63,14.36,24.46,43.6,26.37A3.162,3.162,0,0,0,137.032,81.275Z" fill="#ffaa80"/><polygon points="142.742 249.855 127.742 249.855 114.482 206.525 129.482 206.525 142.742 249.855" fill="#ea2a6a"/><path d="M231.482,154.385h-2.73a18.062,18.062,0,0,0-3.77.39,18.274,18.274,0,0,0,0,35.76,18.062,18.062,0,0,0,3.77.39h2.73a5,5,0,0,0,5-5v-26.54A5,5,0,0,0,231.482,154.385Z" fill="#ffbb98"/><circle cx="68.439" cy="92.47" r="5.997" transform="translate(-19.415 18.198) rotate(-13.283)" fill="#5f266d"/><circle cx="112.524" cy="92.47" r="5.997" transform="translate(-32.429 106.65) rotate(-45)" fill="#5f266d"/><path d="M102.654,109.261a4,4,0,0,0-8,0,4.173,4.173,0,0,1-8.345,0,4,4,0,0,0-8,0,12.173,12.173,0,0,0,24.345,0Z" fill="#5f266d"/><path d="M111.958,29.511a26.472,26.472,0,0,1,13.787,16.4,4,4,0,1,0,7.684-2.225,34.49,34.49,0,0,0-17.961-21.361,4,4,0,0,0-3.51,7.189Z" fill="#5f266d"/><path d="M126.786,58.111V61.5a4,4,0,1,0,8,0V58.111a4,4,0,1,0-8,0Z" fill="#5f266d"/><path d="M231.35,88.209c9.641-20.847,8.627-16.737,11.341-23.637a35.07,35.07,0,0,0-3.215-32.638c-13.093-19.224-45.6-19.059-58.579,0a35.072,35.072,0,0,0-3.215,32.639c2.731,6.945,1.654,2.692,11.341,23.637,3.143,6.8,16.6,28.373,17.38,29.838.013.03.032.055.046.084v17.624h-5.468a9.011,9.011,0,0,0-9,9v68.72h-25.9A79.8,79.8,0,0,0,141.536,177.6a8.777,8.777,0,0,0,7.24-3.942l0,0c15.251-22.851,3.211-61.379,2.409-63.868l-7.045-24.6a8.992,8.992,0,0,0,8.678-8.983V54.145a52.063,52.063,0,0,0-52.009-52H80.151a52.063,52.063,0,0,0-52.009,52v22.13A9.021,9.021,0,0,0,36.8,85.259l-7.025,24.529c-.8,2.489-12.842,41.017,2.412,63.871a8.772,8.772,0,0,0,7.242,3.943c-17.789,14.812-28.707,36.491-28.707,62.253a14.015,14.015,0,0,0,14,14H210.481a18.52,18.52,0,0,0,18.5-18.5v-40.43h2.5a9.01,9.01,0,0,0,9-9v-26.54a9.01,9.01,0,0,0-9-9h-2.5v-5.63a9.01,9.01,0,0,0-9-9h-5.532V118.036C215.7,115.682,228.212,95,231.35,88.209Zm-8.267-60.043a23.864,23.864,0,0,1,9.781,8.272,27.082,27.082,0,0,1,2.383,25.205,38.014,38.014,0,0,1-2.374,5.164c-1.255,2.358-3.354,6.3-8.784,18.044-.266.575-.617,1.278-1.03,2.073l6.405-28.436A33.68,33.68,0,0,0,223.083,28.166Zm-8.634,2.655c7.278,6.193,9.569,16.98,7.262,25.694-.013.048-.024.1-.036.145l-7.226,32.084Zm-18.165,54.03c-5.43-11.741-7.53-15.686-8.784-18.044a38.014,38.014,0,0,1-2.374-5.164,27.084,27.084,0,0,1,2.383-25.206,23.855,23.855,0,0,1,9.789-8.274,33.67,33.67,0,0,0-6.389,30.325l6.4,28.4C196.893,86.106,196.546,85.417,196.284,84.851ZM198.7,56.66c-.011-.049-.023-.1-.036-.145-2.359-8.911.107-19.975,7.787-26.092V91.076ZM142.127,169.21a.791.791,0,0,1-.635.395H130.049a80.287,80.287,0,0,0-20.568-8.2V149.3a50.539,50.539,0,0,0,31.543-45.942C143.908,113.424,155.581,149.046,142.127,169.21ZM79.481,151.82a50.876,50.876,0,0,0,22,0v8.05a81.161,81.161,0,0,0-22,0ZM47.932,102.475V84.861c18.875-1.683,33.968-8.723,41.565-26,7.683,17.762,24.255,24.194,43.535,25.88v17.731a42.55,42.55,0,1,1-85.1,0Zm77.549,73.747v26.3h-70v-26.3A71.838,71.838,0,0,1,125.481,176.222ZM36.142,76.275V54.145a44.054,44.054,0,0,1,44.009-44h20.661a44.054,44.054,0,0,1,44.009,44v22.06a1.016,1.016,0,0,1-1.018,1h0c-21.494-.093-40.613-3.911-47.95-24.013a76.493,76.493,0,0,1-2.428-8.372,4,4,0,0,0-7.777-.007,59.372,59.372,0,0,1-4.606,13.251c-8.16,15.811-25.924,19.379-43.9,19.211A1.018,1.018,0,0,1,36.142,76.275Zm2.7,92.939c-13.27-19.881-1.554-56.652-1.434-57.019.014-.046.029-.092.042-.139l2.492-8.7A50.625,50.625,0,0,0,71.481,149.3v12.109a80.421,80.421,0,0,0-20.567,8.2H39.472A.787.787,0,0,1,38.839,169.214ZM24.722,245.855a6.006,6.006,0,0,1-6-6c0-24.348,10.783-44.941,28.759-58.43v24.5L35.263,245.855Zm18.907,0,10.619-34.7a4.05,4.05,0,0,0,.539-.63h71.389a4,4,0,0,0,.539.63l10.619,34.7Zm102.072,0-12.22-39.932v-24.5A71.857,71.857,0,0,1,159.313,218.6a4,4,0,0,0,3.838,2.872h28.83v13.88a18.7,18.7,0,0,0,3.276,10.5Zm75.28-10.5a10.5,10.5,0,1,1-21,0v-13.88h21Zm10.5-76.97a1,1,0,0,1,1,1v26.54c0,1.277-1.345,1-3.73,1a14.28,14.28,0,0,1-10.282-24.15c.064-.067.12-.14.185-.206C223.336,157.906,228.423,158.385,231.481,158.385Zm-11.5-14.63a1,1,0,0,1,1,1v7.024c-19.141,7.126-19.44,34.485,0,41.749v19.947h-21v-68.72a1,1,0,0,1,1-1Z" fill="#5f266d"/></svg>