<svg xmlns="http://www.w3.org/2000/svg" viewBox="0 0 256 256"><title>Foodies Expanded</title><path d="M212.63,249.38H26.87a10,10,0,0,1-10-10v-.97a75.6,75.6,0,0,1,28.65-59.34q1.77-1.41,3.61-2.7a75.365,75.365,0,0,1,28.5-12.25,76.206,76.206,0,0,1,14.99-1.48h.02a76.206,76.206,0,0,1,14.99,1.48,75.365,75.365,0,0,1,28.5,12.25c1.23.86,2.44,1.76,3.61,2.7A75.716,75.716,0,0,1,165.3,217h32.83v17.88A14.5,14.5,0,0,0,212.63,249.38Z" fill="#f9d335"/><path d="M156.97,35.46V63.75c0,9.96-6.06,18.04-16.03,18.04h-3.55V73.94a9.624,9.624,0,0,0-9.62-9.62H98a9.626,9.626,0,0,1-7.62-3.74l-2.55-3.32a9.636,9.636,0,0,0-7.62-3.75H57.49a9.624,9.624,0,0,0-9.62,9.62V81.79h-.31c-10.97,0-19.27-5.85-19.27-16.82V40.11A13.06,13.06,0,0,1,48,28.87V25.85A19.231,19.231,0,0,1,67.23,6.62h60.89A28.846,28.846,0,0,1,156.97,35.46Z" fill="#f9d335"/><path d="M127.77,64.32H98a9.626,9.626,0,0,1-7.62-3.74l-2.55-3.32a9.636,9.636,0,0,0-7.62-3.75H57.49a9.624,9.624,0,0,0-9.62,9.62V99.58a44.924,44.924,0,0,0,29.76,42.16,44.569,44.569,0,0,0,30,0,44.924,44.924,0,0,0,29.76-42.16V73.94A9.624,9.624,0,0,0,127.77,64.32Z" fill="#ffbb98"/><path d="M92.63,144.34a44.442,44.442,0,0,1-15-2.6v22.38a76.206,76.206,0,0,1,14.99-1.48h.02a76.206,76.206,0,0,1,14.99,1.48V141.74A44.442,44.442,0,0,1,92.63,144.34Z" fill="#ffbb98"/><polygon points="144.89 249.38 40.37 249.38 53.63 206.046 131.63 206.046 144.89 249.38" fill="#44c7b6"/><path d="M225.394,98.079H199.866a5,5,0,0,1-4.5-2.823l-8.736-18.065a4.991,4.991,0,0,1-.5-2.177V33.279a5,5,0,0,1,5-5h43a5,5,0,0,1,5,5V75.014a4.991,4.991,0,0,1-.5,2.177L229.9,95.256A5,5,0,0,1,225.394,98.079Z" fill="#87828e"/><path d="M227.13,217v17.88a14.5,14.5,0,0,1-29,0V217Z" fill="#44c7b6"/><path d="M217.98,159.26a18.275,18.275,0,0,0,9.15,30.8V217h-29V144.28a5,5,0,0,1,5-5h19a5,5,0,0,1,5,5V154.3A18.311,18.311,0,0,0,217.98,159.26Z" fill="#87828e"/><path d="M233.63,153.91H230.9a18.062,18.062,0,0,0-3.77.39,18.274,18.274,0,0,0,0,35.76,18.062,18.062,0,0,0,3.77.39h2.73a5,5,0,0,0,5-5V158.91A5,5,0,0,0,233.63,153.91Z" fill="#ffbb98"/><path d="M100.13,143.71a45.183,45.183,0,0,1-7.5.63,44.442,44.442,0,0,1-15-2.6A44.924,44.924,0,0,1,47.87,99.58V63.13a9.624,9.624,0,0,1,9.62-9.62h15a9.624,9.624,0,0,0-9.62,9.62V99.58a44.865,44.865,0,0,0,37.26,44.13Z" fill="#ffcaa6"/><path d="M137.39,73.94V99.58a44.924,44.924,0,0,1-29.76,42.16,44.442,44.442,0,0,1-15,2.6,45.183,45.183,0,0,1-7.5-.63,44.865,44.865,0,0,0,37.26-44.13V73.94a9.624,9.624,0,0,0-9.62-9.62h15A9.624,9.624,0,0,1,137.39,73.94Z" fill="#ffaa80"/><path d="M100.13,163.01a74.021,74.021,0,0,0-7.5,1.11,75.365,75.365,0,0,0-28.5,12.25q-1.845,1.29-3.61,2.7a75.6,75.6,0,0,0-28.65,59.34v.97a10,10,0,0,0,10,10h-15a10,10,0,0,1-10-10v-.97a75.6,75.6,0,0,1,28.65-59.34q1.77-1.41,3.61-2.7a75.365,75.365,0,0,1,28.5-12.25,76.206,76.206,0,0,1,14.99-1.48h.02A74.1,74.1,0,0,1,100.13,163.01Z" fill="#f9e27d"/><path d="M146.2,184.83A75.643,75.643,0,0,1,165.3,217h-15a75.716,75.716,0,0,0-25.56-37.93c-1.17-.94-2.38-1.84-3.61-2.7a75.365,75.365,0,0,0-28.5-12.25,74.021,74.021,0,0,0-7.5-1.11,74.1,74.1,0,0,1,7.49-.37h.02a76.206,76.206,0,0,1,14.99,1.48,75.365,75.365,0,0,1,28.5,12.25c1.23.86,2.44,1.76,3.61,2.7A75.044,75.044,0,0,1,146.2,184.83Z" fill="#f2c300"/><path d="M212.63,249.38h-15a14.5,14.5,0,0,1-14.5-14.5V217h15v17.88A14.5,14.5,0,0,0,212.63,249.38Z" fill="#f2c300"/><polygon points="68.63 206.05 55.37 249.38 40.37 249.38 53.63 206.05 68.63 206.05" fill="#4bdbc3"/><polygon points="144.89 249.38 129.89 249.38 116.63 206.05 131.63 206.05 144.89 249.38" fill="#3bb2a0"/><path d="M82.23,6.62A19.231,19.231,0,0,0,63,25.85v3.02A13.06,13.06,0,0,0,43.29,40.11V64.97a15.67,15.67,0,0,0,4.58,11.67v5.15h-.31c-10.97,0-19.27-5.85-19.27-16.82V40.11A13.06,13.06,0,0,1,48,28.87V25.85A19.231,19.231,0,0,1,67.23,6.62Z" fill="#f9e27d"/><path d="M156.97,35.46V63.75c0,9.96-6.06,18.04-16.03,18.04h-3.55V76.84a19.381,19.381,0,0,0,4.58-13.09V35.46A28.846,28.846,0,0,0,113.12,6.62h15A28.846,28.846,0,0,1,156.97,35.46Z" fill="#f2c300"/><path d="M214.87,98.08h-15a5.024,5.024,0,0,1-4.51-2.82l-8.73-18.07a4.975,4.975,0,0,1-.5-2.18V33.28a5,5,0,0,1,5-5h15a5,5,0,0,0-5,5V75.01a4.975,4.975,0,0,0,.5,2.18l8.73,18.07A5.024,5.024,0,0,0,214.87,98.08Z" fill="#87828e"/><path d="M220.13,247.29a14.5,14.5,0,0,1-22-12.41V217h15v17.88A14.482,14.482,0,0,0,220.13,247.29Z" fill="#4bdbc3"/><path d="M218.13,139.28a5,5,0,0,0-5,5v23.68a18.143,18.143,0,0,0,0,8.46V217h-15V144.28a5,5,0,0,1,5-5Z" fill="#a4a4a5"/><path d="M214.87,98.08h-15a5.024,5.024,0,0,1-4.51-2.82l-8.73-18.07a4.975,4.975,0,0,1-.5-2.18V33.28a5,5,0,0,1,5-5h15a5,5,0,0,0-5,5V75.01a4.975,4.975,0,0,0,.5,2.18l8.73,18.07A5.024,5.024,0,0,0,214.87,98.08Z" fill="#a4a4a5"/><path d="M225.394,102.08A9.053,9.053,0,0,0,233.5,97l8.735-18.066a9.04,9.04,0,0,0,.9-3.918V33.279a9.011,9.011,0,0,0-9-9h-43a9.01,9.01,0,0,0-9,9V75.014a9.045,9.045,0,0,0,.9,3.918L191.764,97a9.052,9.052,0,0,0,8.1,5.082h8.764v33.2h-5.5a9.01,9.01,0,0,0-9,9V213h-25.9a79.813,79.813,0,0,0-56.6-52.069V144.458A48.934,48.934,0,0,0,141.39,99.58V85.767c11.37-.239,19.58-9.414,19.58-22.017V35.46A32.883,32.883,0,0,0,128.12,2.62H67.23A23.264,23.264,0,0,0,44.144,23.255,17.1,17.1,0,0,0,24.29,40.11V64.97c0,11.313,7.732,19.23,19.58,20.59V99.58a48.933,48.933,0,0,0,29.76,44.878v16.473c-33.674,8.221-60.76,38.348-60.76,78.449a14.015,14.015,0,0,0,14,14H212.63a18.521,18.521,0,0,0,18.5-18.5V194.45h2.5a9.01,9.01,0,0,0,9-9V158.91a9.011,9.011,0,0,0-9-9h-2.5v-5.63a9.011,9.011,0,0,0-9-9h-5.5v-33.2ZM43.87,63.13V77.494c-4.814-.774-11.58-3.473-11.58-12.524V40.11a9.06,9.06,0,0,1,13.672-7.8A4,4,0,0,0,52,28.87V25.85A15.247,15.247,0,0,1,67.23,10.62h60.89a24.873,24.873,0,0,1,24.85,24.84V63.75c0,6.861-3.586,13.783-11.58,14.033V73.94a13.636,13.636,0,0,0-13.62-13.62H98c-3.4,0-4.659-2.451-7-5.5A13.713,13.713,0,0,0,80.21,49.51H57.49A13.636,13.636,0,0,0,43.87,63.13Zm8,36.45V63.13a5.626,5.626,0,0,1,5.62-5.62H80.21A5.659,5.659,0,0,1,84.658,59.7c2.619,3.412,4.293,6.221,8.759,7.822a13.588,13.588,0,0,0,4.583.8h29.77a5.626,5.626,0,0,1,5.62,5.62V99.58a40.76,40.76,0,0,1-81.52,0Zm51.76,47.5v12.31a81.893,81.893,0,0,0-22,0v-12.31A49.166,49.166,0,0,0,103.63,147.081Zm-46,28.658a71.8,71.8,0,0,1,70,0v26.306h-70ZM26.87,245.38a6.007,6.007,0,0,1-6-6c0-24.579,10.983-45.091,28.76-58.43v24.5L37.411,245.38Zm18.907,0,10.619-34.7a3.945,3.945,0,0,0,.539-.629h71.389a4,4,0,0,0,.54.629l10.619,34.7Zm102.072,0L135.63,205.448v-24.5a71.861,71.861,0,0,1,25.832,37.182A4,4,0,0,0,165.3,221h28.83v13.88a18.7,18.7,0,0,0,3.276,10.5Zm75.281-10.5a10.5,10.5,0,0,1-21,0V221h21Zm7.77-76.97c2.41,0,3.73-.262,3.73,1v26.54a1,1,0,0,1-1,1H230.9C211.741,186.45,212.466,157.91,230.9,157.91Zm-8.77-14.63a1,1,0,0,1,1,1V151.3c-19.052,7.093-19.424,34.491,0,41.749V213h-21V144.28a1,1,0,0,1,1-1Zm-22.264-49.2a1.006,1.006,0,0,1-.9-.565l-8.737-18.067a1,1,0,0,1-.1-.434V33.279a1,1,0,0,1,1-1h43a1,1,0,0,1,1,1V75.014a1.012,1.012,0,0,1-.1.436L226.3,93.515a1.008,1.008,0,0,1-.9.565Z" fill="#5f266d"/><circle cx="70.588" cy="87.39" r="5.997" transform="translate(-18.19 18.555) rotate(-13.282)" fill="#5f266d"/><circle cx="114.672" cy="87.39" r="5.997" transform="translate(-17.011 28.684) rotate(-13.283)" fill="#5f266d"/><path d="M92.63,116.353A12.185,12.185,0,0,0,104.8,104.181a4,4,0,0,0-8,0,4.172,4.172,0,0,1-8.344,0,4,4,0,0,0-8,0A12.185,12.185,0,0,0,92.63,116.353Z" fill="#5f266d"/><path d="M139.528,47.215a4,4,0,0,0-4,4v.331a4,4,0,0,0,8,0v-.331A4,4,0,0,0,139.528,47.215Z" fill="#5f266d"/><path d="M126.38,27.8H131.2a4.329,4.329,0,0,1,4.324,4.324v4.1a4,4,0,0,0,8,0v-4.1A12.338,12.338,0,0,0,131.2,19.8H126.38a4,4,0,0,0,0,8Z" fill="#5f266d"/><path d="M203.13,40.679a4,4,0,0,0-4,4v31a4,4,0,0,0,8,0v-31A4,4,0,0,0,203.13,40.679Z" fill="#5f266d"/><path d="M226.13,44.679a4,4,0,1,0-8,0v31a4,4,0,0,0,8,0Z" fill="#5f266d"/></svg>