<svg xmlns="http://www.w3.org/2000/svg" viewBox="0 0 256 256"><title>Foodies Expanded</title><path d="M89.394,7.413h77.213a20,20,0,0,1,20,20V46.739a5,5,0,0,1-5,5H74.394a5,5,0,0,1-5-5V27.413A20,20,0,0,1,89.394,7.413Z" fill="#f9d335"/><path d="M84.39,27.41V46.74a5,5,0,0,0,5,5h-15a5,5,0,0,1-5-5V27.41a20.007,20.007,0,0,1,20-20h15A20.007,20.007,0,0,0,84.39,27.41Z" fill="#f9e27d"/><path d="M186.61,27.41V46.74a5,5,0,0,1-5,5h-15a5,5,0,0,0,5-5V27.41a20.007,20.007,0,0,0-20-20h15A20.007,20.007,0,0,1,186.61,27.41Z" fill="#f2c300"/><path d="M82.369,75.077h91.263a25,25,0,0,1,25,25v102.4a46.109,46.109,0,0,1-46.109,46.109H103.478a46.109,46.109,0,0,1-46.109-46.109v-102.4A25,25,0,0,1,82.369,75.077Z" transform="translate(256 323.664) rotate(180)" fill="#f9d335"/><path d="M173.38,51.74V80.06a45.808,45.808,0,0,0-20.86-4.98H103.48a45.888,45.888,0,0,0-20.85,4.97V51.74Z" fill="#ffe2e2"/><path d="M97.37,248.59h-15a25,25,0,0,1-25-25V121.19a46.1,46.1,0,0,1,46.11-46.11h15a46.1,46.1,0,0,0-46.11,46.11v102.4A25,25,0,0,0,97.37,248.59Z" fill="#f9e27d"/><path d="M97.63,51.74V75.45a45.652,45.652,0,0,0-15,4.6V51.74Z" fill="#ffefee"/><path d="M198.63,121.19v102.4a25,25,0,0,1-25,25h-15a25,25,0,0,0,25-25V121.19a46.1,46.1,0,0,0-46.11-46.11h15A46.1,46.1,0,0,1,198.63,121.19Z" fill="#f2c300"/><path d="M173.38,51.74V80.06a45.43,45.43,0,0,0-15-4.61V51.74Z" fill="#ffcfcf"/><polygon points="147.934 156.061 147.934 133.044 128 121.535 108.066 133.044 108.066 156.061 128 167.57 147.934 156.061" fill="#f2c300"/><polygon points="128 190.62 128 167.603 108.066 156.094 88.132 167.603 88.132 190.62 108.066 202.129 128 190.62" fill="#f2c300"/><polygon points="167.868 190.62 167.868 167.603 147.934 156.094 128 167.603 128 190.62 147.934 202.129 167.868 190.62" fill="#f2c300"/><path d="M170.667,31.08h-2.334a4,4,0,0,0,0,8h2.334a4,4,0,0,0,0-8Z" fill="#5f266d"/><path d="M153.333,31.08h-15a4,4,0,0,0,0,8h15a4,4,0,0,0,0-8Z" fill="#5f266d"/><path d="M177.38,77.705V55.739h4.226a9.01,9.01,0,0,0,9-9V27.413a24.027,24.027,0,0,0-24-24H89.394a24.027,24.027,0,0,0-24,24V46.739a9.01,9.01,0,0,0,9,9H78.63V77.7a50.129,50.129,0,0,0-25.261,43.487v102.4a29.033,29.033,0,0,0,29,29h91.262a29.033,29.033,0,0,0,29-29v-102.4A50.129,50.129,0,0,0,177.38,77.705ZM74.394,47.739a1,1,0,0,1-1-1V27.413a16.018,16.018,0,0,1,16-16h77.212a16.018,16.018,0,0,1,16,16V46.739a1,1,0,0,1-1,1Zm94.986,8V73.98a50.634,50.634,0,0,0-16.858-2.9c-50.791,0-54.784-1.08-65.892,2.9V55.74Zm25.251,167.847a21.024,21.024,0,0,1-21,21H82.369a21.024,21.024,0,0,1-21-21v-102.4a42.158,42.158,0,0,1,23.765-37.9c.109-.054.219-.1.329-.156,11.3-5.373,16.5-4.054,67.057-4.054a42.162,42.162,0,0,1,42.111,42.107Z" fill="#5f266d"/><path d="M169.868,164.139l-17.934-10.354V133.044a4,4,0,0,0-2-3.464L130,118.071a4,4,0,0,0-4,0L106.066,129.58a4,4,0,0,0-2,3.464v20.741L86.132,164.139a4,4,0,0,0-2,3.464V190.62a4,4,0,0,0,2,3.464l19.934,11.509a4,4,0,0,0,4,0L128,195.239l17.934,10.354a4,4,0,0,0,4,0l19.934-11.509a4,4,0,0,0,2-3.464V167.6A4,4,0,0,0,169.868,164.139ZM124,188.311l-15.934,9.2-15.934-9.2v-18.4l15.934-9.2,15.934,9.2Zm-11.934-34.559v-18.4l15.934-9.2,15.934,9.2v18.4L128,162.951Zm51.8,34.559-15.934,9.2L132,188.311v-18.4l15.934-9.2,15.934,9.2Z" fill="#5f266d"/></svg>