<svg xmlns="http://www.w3.org/2000/svg" viewBox="0 0 256 256"><title>Foodies Expanded</title><path d="M149.3,92.4h-7.013V62.073H113.716V92.4H106.7A15.581,15.581,0,0,0,91.117,107.98V235.117A15.586,15.586,0,0,0,106.7,250.7h42.6a15.586,15.586,0,0,0,15.586-15.585V107.98A15.581,15.581,0,0,0,149.3,92.4Z" fill="#ff4a73"/><path d="M143.843,38.352H112.157a7.79,7.79,0,0,0-7.792,7.793V58.177a3.9,3.9,0,0,0,3.9,3.9h39.478a3.9,3.9,0,0,0,3.9-3.9V46.145A7.79,7.79,0,0,0,143.843,38.352Z" fill="#796e84"/><path d="M126.88,7.045l-6.667,7.734A5,5,0,0,0,119,18.043V38.352h16.667V10.31A5,5,0,0,0,126.88,7.045Z" fill="#a4a4a5"/><path d="M128.719,62.071v30.32H121.7a15.582,15.582,0,0,0-15.58,15.59v127.14A15.579,15.579,0,0,0,121.7,250.7h-15a15.579,15.579,0,0,1-15.58-15.58V107.981a15.582,15.582,0,0,1,15.58-15.59h7.02V62.071Z" fill="#f973a3"/><path d="M123.259,62.071h-15a3.888,3.888,0,0,1-3.89-3.89V46.141a7.787,7.787,0,0,1,7.79-7.79h15a7.787,7.787,0,0,0-7.79,7.79v12.04A3.888,3.888,0,0,0,123.259,62.071Z" fill="#87828e"/><path d="M164.879,107.981v127.14A15.579,15.579,0,0,1,149.3,250.7h-15a15.579,15.579,0,0,0,15.58-15.58V107.981a15.582,15.582,0,0,0-15.58-15.59h-7.01V62.071h15v30.32h7.01A15.582,15.582,0,0,1,164.879,107.981Z" fill="#ea2a6a"/><path d="M151.9,138.012a89.348,89.348,0,0,1-2.477,10.694l-7.641-9.733a2.924,2.924,0,0,0-3.212-.971l-11.446,4.238c.635-2.922,1.091-5.542,1.378-7.753a11.833,11.833,0,1,1,23.4,3.525Z" fill="#44c7b6"/><path d="M149.42,148.711c-7.05,23.84-22.61,39.32-37.88,49.2a118.488,118.488,0,0,1-20.42,10.5v-2.08a68.165,68.165,0,0,0,16.05-16.63c.18-.27.37-.53.55-.8,10.4-15.15,16.62-33.81,19.4-46.66h.01l7.67-2.84v-.01h.01l3.76-1.39a2.921,2.921,0,0,1,3.21.97Z" fill="#ff4a73"/><path d="M149.3,88.4h-3.013V66.073h1.455a7.9,7.9,0,0,0,7.9-7.9V46.145a11.806,11.806,0,0,0-11.792-11.793h-4.176V10.31A9,9,0,0,0,123.85,4.433l-6.667,7.734A9,9,0,0,0,115,18.043V34.352h-2.843a11.806,11.806,0,0,0-11.792,11.793V58.177a7.9,7.9,0,0,0,7.9,7.9h1.455V88.4H106.7A19.608,19.608,0,0,0,87.117,107.98V235.117A19.608,19.608,0,0,0,106.7,254.7H149.3a19.608,19.608,0,0,0,19.586-19.585V107.98A19.608,19.608,0,0,0,149.3,88.4ZM123,18.043a1,1,0,0,1,.243-.653l6.666-7.733a1,1,0,0,1,1.758.653V34.352H123Zm-14.635,40.03V46.145a3.8,3.8,0,0,1,3.792-3.793h31.686a3.8,3.8,0,0,1,3.792,3.793V58.073Zm29.919,8V88.4H117.716V66.073Zm22.6,169.044A11.6,11.6,0,0,1,149.3,246.7H106.7a11.6,11.6,0,0,1-11.586-11.585V211.089c31.574-13.375,54.831-37.557,60.729-72.409v0a15.754,15.754,0,0,0-7.391-16.116l3.97-11.417a4,4,0,1,0-7.557-2.627l-4.083,11.743a15.78,15.78,0,0,0-16.247,13.711c-1.835,14.12-11.01,45.964-29.421,63.814V107.98A11.6,11.6,0,0,1,106.7,96.4H149.3a11.6,11.6,0,0,1,11.586,11.585Zm-21.761-93.054,5.858,7.469c-5.923,18.37-18.047,34.092-37.154,46,10.9-14,18.648-32.94,22.717-50.289C135,143.593,137.722,142.582,139.122,142.063Zm-6.794-6.015q.076-.531.143-1.046a7.828,7.828,0,0,1,13.917-3.782c2.373,3.009,1.665,5.823,1.122,8.569l-2.59-3.3C141.124,131.693,135.807,134.76,132.328,136.048Z" fill="#5f266d"/><path d="M149.42,225.473a4,4,0,0,0-4,4v4.616a4,4,0,0,0,8,0v-4.616A4,4,0,0,0,149.42,225.473Z" fill="#5f266d"/><path d="M149.42,185.473a4,4,0,0,0-4,4v25a4,4,0,0,0,8,0v-25A4,4,0,0,0,149.42,185.473Z" fill="#5f266d"/></svg>