<svg xmlns="http://www.w3.org/2000/svg" viewBox="0 0 256 256"><title>Foodies Expanded</title><polygon points="163.307 44.388 162.067 67.259 50.948 67.259 49.69 44.388 163.307 44.388" fill="#ffe2e2"/><polygon points="162.067 67.259 152.122 250.561 61.02 250.561 50.948 67.259 162.067 67.259" fill="#f9d335"/><path d="M86.868,157.091h0a12.094,12.094,0,0,1,12.094,12.094V250.56a0,0,0,0,1,0,0H74.774a0,0,0,0,1,0,0V169.185A12.094,12.094,0,0,1,86.868,157.091Z" fill="#f2c300"/><path d="M126.13,157.091h0a12.094,12.094,0,0,1,12.094,12.094V250.56a0,0,0,0,1,0,0H114.036a0,0,0,0,1,0,0V169.185A12.094,12.094,0,0,1,126.13,157.091Z" fill="#f2c300"/><polygon points="63.697 67.259 50.948 67.259 49.69 44.388 62.439 44.388 63.697 67.259" fill="#ffefee"/><polygon points="73.769 250.561 61.02 250.561 50.948 67.259 63.697 67.259 73.769 250.561" fill="#f9e27d"/><polygon points="163.307 44.388 162.067 67.259 149.318 67.259 150.559 44.388 163.307 44.388" fill="#ffcfcf"/><polygon points="162.067 67.259 152.122 250.561 139.374 250.561 149.318 67.259 162.067 67.259" fill="#f2c300"/><circle cx="163.305" cy="48.555" r="43.001" fill="#f9d335"/><path d="M206.307,48.552A43.031,43.031,0,0,1,156.86,91.075a43,43,0,0,0,0-85.037,43.031,43.031,0,0,1,49.447,42.514Z" fill="#f2c300"/><path d="M169.746,91.075a43,43,0,1,1,0-85.037,43,43,0,0,0,0,85.037Z" fill="#f9e27d"/><path d="M69.526,112.62c.067,0,.137,0,.2-.005a4,4,0,0,0,3.793-4.2l-1.213-23.97a4,4,0,1,0-7.99.4l1.213,23.97A4,4,0,0,0,69.526,112.62Z" fill="#5f266d"/><path d="M70.085,119.605a4,4,0,0,0-3.793,4.2l.366,7.239a4,4,0,0,0,3.992,3.8c.067,0,.137,0,.2,0a4,4,0,0,0,3.793-4.2l-.366-7.238A3.982,3.982,0,0,0,70.085,119.605Z" fill="#5f266d"/><path d="M210.306,48.539C210.291,4.505,155.5-13.39,129.922,15.508A46.937,46.937,0,0,0,117.03,40.387H49.7a4.006,4.006,0,0,0-4,4.22l11.33,206.17a4,4,0,0,0,3.99,3.78h91.11a4,4,0,0,0,3.99-3.78l8.423-155.252a47.046,47.046,0,0,0,45.764-46.961v-.025ZM133.06,23.965l20.582,20.587H124.508A38.82,38.82,0,0,1,133.06,23.965Zm20.6,28.587-20.595,20.6a38.825,38.825,0,0,1-8.554-20.6ZM53.919,48.387h62.389a46.645,46.645,0,0,0,2.366,14.87H54.739Zm41.04,198.17H78.779v-77.37a8.09,8.09,0,1,1,16.18,0Zm39.26,0h-16.18v-77.37a8.09,8.09,0,1,1,16.18,0Zm14.12,0h-6.12v-77.37a16.09,16.09,0,1,0-32.18,0v77.37h-7.08v-77.37a16.09,16.09,0,1,0-32.18,0v77.37h-5.97l-9.63-175.3h67a47.052,47.052,0,0,0,34.377,23.808ZM159.3,87.352a38.822,38.822,0,0,1-20.585-8.55L159.3,58.217Zm0-48.452L138.717,18.309A38.831,38.831,0,0,1,159.3,9.758Zm42.8,5.652H172.968l20.584-20.584A38.819,38.819,0,0,1,202.1,44.552ZM167.3,9.758A38.819,38.819,0,0,1,187.9,18.312L167.3,38.9Zm0,77.6V58.218L187.894,78.8A38.829,38.829,0,0,1,167.3,87.353Zm26.248-14.209c-3.929-3.928-18.272-18.264-20.6-20.592H202.1A38.829,38.829,0,0,1,193.551,73.144Z" fill="#5f266d"/></svg>