<svg xmlns="http://www.w3.org/2000/svg" viewBox="0 0 256 256"><title>Foodies Expanded</title><path d="M168.06,128.25V238.17a10,10,0,0,1-10,10H97.94a10,10,0,0,1-10-10V128.28a5.143,5.143,0,0,1,.08-.88l15.13-87.45,1.75-10.12h47.13l1.58,9.66,14.38,87.93A4.651,4.651,0,0,1,168.06,128.25Z" fill="#ffe2e2"/><path d="M119.9,29.83l-1.75,10.12-.21,1.22L103.02,127.4a5.143,5.143,0,0,0-.08.88V238.17a10,10,0,0,0,10,10h-15a10,10,0,0,1-10-10V128.28a5.143,5.143,0,0,1,.08-.88l15.13-87.45,1.75-10.12Z" fill="#ffefee"/><path d="M168.06,128.25V238.17a10,10,0,0,1-10,10h-15a10,10,0,0,0,10-10V128.25a4.651,4.651,0,0,0-.07-.83L138.88,41.17l-.27-1.68-1.58-9.66h15l1.58,9.66,14.38,87.93A4.651,4.651,0,0,1,168.06,128.25Z" fill="#ffcfcf"/><rect x="97.932" y="7.833" width="60.136" height="33.333" rx="10" ry="10" fill="#87828e"/><path d="M122.93,41.17h-15a10,10,0,0,1-10-10V17.83a10,10,0,0,1,10-10h15a10,10,0,0,0-10,10V31.17A10,10,0,0,0,122.93,41.17Z" fill="#a4a4a5"/><path d="M158.07,17.83V31.17a10,10,0,0,1-10,10h-15a10,10,0,0,0,10-10V17.83a10,10,0,0,0-10-10h15A10,10,0,0,1,158.07,17.83Z" fill="#796e84"/><rect x="87.94" y="148.67" width="80.12" height="55" fill="#5fcdff"/><rect x="87.94" y="148.67" width="15" height="55" fill="#73d7f9"/><rect x="153.06" y="148.67" width="15" height="55" fill="#30b6ff"/><path d="M171.938,126.774l-14.015-85.7a13.935,13.935,0,0,0,4.147-9.907V17.83a14.015,14.015,0,0,0-14-14H107.93a14.016,14.016,0,0,0-14,14V31.17a13.984,13.984,0,0,0,4.848,10.59l-14.7,84.955c-.218,1.255-.139-6.228-.139,111.455a14.015,14.015,0,0,0,14,14h60.12a14.015,14.015,0,0,0,14-14C172.06,120.613,172.134,127.871,171.938,126.774ZM101.93,17.83a6.007,6.007,0,0,1,6-6h40.14a6.006,6.006,0,0,1,6,6V31.17a6.013,6.013,0,0,1-6,6c-44.1,0-41.189.231-43.022-.743a5.986,5.986,0,0,1-3.118-5.257Zm62.13,220.34a6.006,6.006,0,0,1-6,6H97.94a6.007,6.007,0,0,1-6-6v-30.5h72.12Zm0-38.5H91.94v-47h72.12Zm0-55H91.94V128.28a1.178,1.178,0,0,1,.022-.2l14.361-83a13.849,13.849,0,0,0,1.607.093c42.335,0,40.808.094,42.524-.2l13.6,83.147a.744.744,0,0,1,.008.13Z" fill="#5f266d"/><path d="M151.853,100.134a4,4,0,1,0-7.889,1.322l.341,2.038a4,4,0,0,0,3.94,3.34,4.094,4.094,0,0,0,.667-.056,4,4,0,0,0,3.283-4.606Z" fill="#5f266d"/><path d="M146.091,89.946a4,4,0,0,0,3.284-4.606l-4.628-27.615a4,4,0,1,0-7.889,1.322l4.627,27.615a4,4,0,0,0,3.94,3.34A4.082,4.082,0,0,0,146.091,89.946Z" fill="#5f266d"/></svg>