<svg xmlns="http://www.w3.org/2000/svg" viewBox="0 0 256 256"><title>Foodies Expanded</title><circle cx="128" cy="128" r="113.633" fill="#f9d335"/><circle cx="128" cy="128" r="89.834" fill="#ffe2e2"/><path d="M135.5,217.52q-3.7.315-7.5.31a89.83,89.83,0,0,1,0-179.66q3.8,0,7.5.31a89.834,89.834,0,0,0,0,179.04Z" fill="#ffefee"/><path d="M217.83,128A89.832,89.832,0,0,1,128,217.83q-3.8,0-7.5-.31a89.834,89.834,0,0,0,0-179.04q3.7-.315,7.5-.31A89.832,89.832,0,0,1,217.83,128Z" fill="#ffcfcf"/><path d="M164.852,106A17.589,17.589,0,0,0,161,94.992a17.665,17.665,0,0,0-13.818-28.677,17.82,17.82,0,0,0-2.324.157,17.674,17.674,0,0,0-33.716,0A17.645,17.645,0,0,0,91.148,83.985,17.589,17.589,0,0,0,95,94.992a17.66,17.66,0,0,0,1.979,24.123,17.626,17.626,0,0,0-5.831,13.116c0,8.761,6.379,17.389,14.744,18.784v28.77a22.108,22.108,0,0,0,44.216,0v-28.77c8.365-1.395,14.744-10.023,14.744-18.784a17.626,17.626,0,0,0-5.831-13.116A17.624,17.624,0,0,0,164.852,106Z" fill="#ff4a73"/><path d="M135.5,200.58a22.112,22.112,0,0,1-29.61-20.8V151.01c-8.36-1.39-14.74-10.02-14.74-18.78a17.65,17.65,0,0,1,5.83-13.12A17.661,17.661,0,0,1,95,94.99a17.676,17.676,0,0,1,16.14-28.52,17.7,17.7,0,0,1,24.36-10.7,17.76,17.76,0,0,0-9.36,10.7A17.665,17.665,0,0,0,110,94.99a17.661,17.661,0,0,0,1.98,24.12,17.65,17.65,0,0,0-5.83,13.12c0,8.76,6.38,17.39,14.74,18.78v28.77A22.108,22.108,0,0,0,135.5,200.58Z" fill="#f973a3"/><path d="M159.02,119.11a17.65,17.65,0,0,1,5.83,13.12c0,8.76-6.38,17.39-14.74,18.78v28.77a22.112,22.112,0,0,1-29.61,20.8,22.108,22.108,0,0,0,14.61-20.8V151.01c8.36-1.39,14.74-10.02,14.74-18.78a17.65,17.65,0,0,0-5.83-13.12A17.661,17.661,0,0,0,146,94.99a17.676,17.676,0,0,0-16.14-28.52,17.76,17.76,0,0,0-9.36-10.7,17.7,17.7,0,0,1,24.36,10.7A17.665,17.665,0,0,1,161,94.99a17.661,17.661,0,0,1-1.98,24.12Z" fill="#ea2a6a"/><path d="M183.26,169.759a4,4,0,0,0-5.627.583c-1.47,1.809-3.043,3.572-4.673,5.236a4,4,0,0,0,5.716,5.6c1.8-1.841,3.541-3.789,5.167-5.791A4,4,0,0,0,183.26,169.759Z" fill="#5f266d"/><path d="M198.457,118.966a4,4,0,0,0-4,4,75.245,75.245,0,0,1-8.933,35.541c-2.532,4.706,4.566,8.4,7.045,3.791a83.272,83.272,0,0,0,9.888-39.332A4,4,0,0,0,198.457,118.966Z" fill="#5f266d"/><path d="M147.506,62.317a21.686,21.686,0,0,0-39.012,0A21.663,21.663,0,0,0,90.157,94.992a21.645,21.645,0,0,0,1.415,24.122c-9.463,12.46-2.676,30.254,10.32,34.967v25.7a26.108,26.108,0,0,0,52.216,0v-25.7c8.491-3.079,14.744-12.044,14.744-21.851a21.715,21.715,0,0,0-4.424-13.116,21.645,21.645,0,0,0,1.415-24.122,21.663,21.663,0,0,0-18.337-32.675Zm10.367,35.17A13.52,13.52,0,0,1,160.852,106a13.7,13.7,0,0,1-4.512,10.147,4,4,0,0,0,0,5.936,13.7,13.7,0,0,1,4.513,10.148c0,7.013-5.222,13.809-11.4,14.839a4,4,0,0,0-3.342,3.946v28.77a18.108,18.108,0,0,1-36.216,0v-28.77a4,4,0,0,0-3.342-3.946c-9.605-1.6-16.243-16.536-6.889-24.987a4,4,0,0,0,0-5.936,13.663,13.663,0,0,1-1.533-18.659,4,4,0,0,0,0-4.989,13.525,13.525,0,0,1-2.979-8.513,13.678,13.678,0,0,1,15.474-13.547,4,4,0,0,0,4.336-2.767,13.674,13.674,0,0,1,26.084,0,3.993,3.993,0,0,0,4.336,2.767,13.677,13.677,0,0,1,15.474,13.547,13.525,13.525,0,0,1-2.979,8.513A4,4,0,0,0,157.873,97.487Z" fill="#5f266d"/><path d="M146.894,88.038a4,4,0,0,0-8,0,5.979,5.979,0,0,1-5.972,5.972H132V85.47a4,4,0,0,0-8,0v8.54h-.922a5.979,5.979,0,0,1-5.972-5.972,4,4,0,0,0-8,0c0,7.136,5.393,13.972,14.894,13.972v14.42h-.922a5.979,5.979,0,0,1-5.972-5.972,4,4,0,0,0-8,0c0,7.136,5.393,13.972,14.894,13.972v14.42h-.922a5.979,5.979,0,0,1-5.972-5.972,4,4,0,0,0-8,0c0,7.136,5.393,13.972,14.894,13.972v13.611a4,4,0,0,0,8,0V146.85c9.441,0,14.894-6.789,14.894-13.972a4,4,0,0,0-8,0,5.979,5.979,0,0,1-5.972,5.972H132V124.43c9.441,0,14.894-6.789,14.894-13.972a4,4,0,0,0-8,0,5.979,5.979,0,0,1-5.972,5.972H132V102.01C141.441,102.01,146.894,95.221,146.894,88.038Z" fill="#5f266d"/><path d="M128,10.367A117.633,117.633,0,1,0,245.633,128,117.766,117.766,0,0,0,128,10.367Zm0,227.266A109.633,109.633,0,1,1,237.633,128,109.757,109.757,0,0,1,128,237.633Z" fill="#5f266d"/><path d="M128,34.166A93.834,93.834,0,1,0,221.833,128,93.94,93.94,0,0,0,128,34.166Zm0,179.668A85.834,85.834,0,1,1,213.833,128,85.93,85.93,0,0,1,128,213.834Z" fill="#5f266d"/></svg>