<svg xmlns="http://www.w3.org/2000/svg" viewBox="0 0 256 256"><title>Foodies Expanded</title><path d="M50.115,209.761v17.88a14.5,14.5,0,0,1-29,0v-17.88Z" fill="#44c7b6"/><path d="M50.115,137.041v72.72h-29v-72.72a5,5,0,0,1,5-5h19A5,5,0,0,1,50.115,137.041Z" fill="#87828e"/><path d="M48.379,90.841H22.851a5,5,0,0,1-4.5-2.823L9.613,69.952a5,5,0,0,1-.5-2.176V26.041a5,5,0,0,1,5-5h43a5,5,0,0,1,5,5V67.776a5,5,0,0,1-.5,2.176L52.88,88.018A5,5,0,0,1,48.379,90.841Z" fill="#87828e"/><path d="M226.427,209.761v17.88a14.5,14.5,0,0,1-29,0v-17.88Z" fill="#44c7b6"/><path d="M226.427,137.041v72.72h-29v-72.72a5,5,0,0,1,5-5h19A5,5,0,0,1,226.427,137.041Z" fill="#87828e"/><circle cx="211.927" cy="55.128" r="34.958" fill="#87828e"/><path d="M135.056,209.761v17.88a14.5,14.5,0,0,1-29,0v-17.88Z" fill="#44c7b6"/><path d="M135.056,137.041v72.72h-29v-72.72a5,5,0,0,1,5-5h19A5,5,0,0,1,135.056,137.041Z" fill="#87828e"/><path d="M37.85,90.838h-15a4.981,4.981,0,0,1-4.5-2.82L9.61,69.948a5.074,5.074,0,0,1-.5-2.17V26.038a5,5,0,0,1,5-5h15a5,5,0,0,0-5,5v41.74a5.074,5.074,0,0,0,.5,2.17l8.74,18.07A4.981,4.981,0,0,0,37.85,90.838Z" fill="#a4a4a5"/><path d="M219.43,89.278a34.96,34.96,0,1,1,0-68.3,34.965,34.965,0,0,0,0,68.3Z" fill="#a4a4a5"/><path d="M62.11,26.038v41.74a5.064,5.064,0,0,1-.49,2.17l-8.74,18.07a4.981,4.981,0,0,1-4.5,2.82h-15a4.981,4.981,0,0,0,4.5-2.82l8.74-18.07a5.064,5.064,0,0,0,.49-2.17V26.038a5,5,0,0,0-5-5h15A5,5,0,0,1,62.11,26.038Z" fill="#796e84"/><path d="M246.89,55.128a34.976,34.976,0,0,1-42.46,34.15,34.965,34.965,0,0,0,0-68.3,34.976,34.976,0,0,1,42.46,34.15Z" fill="#796e84"/><path d="M41.11,132.038a5,5,0,0,0-5,5v72.72h-15v-72.72a5,5,0,0,1,5-5Z" fill="#a4a4a5"/><path d="M217.43,132.038a5,5,0,0,0-5,5v72.72h-15v-72.72a5,5,0,0,1,5-5Z" fill="#a4a4a5"/><path d="M126.06,132.038a5,5,0,0,0-5,5v72.72h-15v-72.72a5,5,0,0,1,5-5Z" fill="#a4a4a5"/><path d="M43.11,240.048a14.5,14.5,0,0,1-22-12.41v-17.88h15v17.88A14.482,14.482,0,0,0,43.11,240.048Z" fill="#4bdbc3"/><path d="M219.43,240.048a14.5,14.5,0,0,1-22-12.41v-17.88h15v17.88A14.482,14.482,0,0,0,219.43,240.048Z" fill="#4bdbc3"/><path d="M128.06,240.048a14.5,14.5,0,0,1-22-12.41v-17.88h15v17.88A14.482,14.482,0,0,0,128.06,240.048Z" fill="#4bdbc3"/><path d="M57.115,17.041h-43a9.01,9.01,0,0,0-9,9V67.775a9.057,9.057,0,0,0,.9,3.918l8.736,18.066a9.051,9.051,0,0,0,8.1,5.082h8.764v33.2h-5.5a9.01,9.01,0,0,0-9,9v90.6a18.5,18.5,0,0,0,37,0v-90.6a9.01,9.01,0,0,0-9-9h-5.5v-33.2h8.763a9.051,9.051,0,0,0,8.1-5.082l8.735-18.064a9.05,9.05,0,0,0,.9-3.92V26.041A9.01,9.01,0,0,0,57.115,17.041Zm-11,210.6a10.5,10.5,0,0,1-21,0v-13.88h21Zm-1-91.6a1,1,0,0,1,1,1v68.721h-21V137.041a1,1,0,0,1,1-1Zm13-68.266a1,1,0,0,1-.1.436L49.279,86.276a1.006,1.006,0,0,1-.9.565H22.851a1.006,1.006,0,0,1-.9-.565L13.214,68.211a1.008,1.008,0,0,1-.1-.436V26.041a1,1,0,0,1,1-1h43a1,1,0,0,1,1,1Z" fill="#5f266d"/><path d="M26.115,33.441a4,4,0,0,0-4,4v31a4,4,0,0,0,8,0v-31A4,4,0,0,0,26.115,33.441Z" fill="#5f266d"/><path d="M45.115,33.441a4,4,0,0,0-4,4v31a4,4,0,0,0,8,0v-31A4,4,0,0,0,45.115,33.441Z" fill="#5f266d"/><path d="M250.885,55.128a38.958,38.958,0,1,0-42.958,38.754v34.159h-5.5a9.01,9.01,0,0,0-9,9v90.6a18.5,18.5,0,0,0,37,0v-90.6a9.01,9.01,0,0,0-9-9h-5.5V93.882A39.012,39.012,0,0,0,250.885,55.128ZM222.427,227.642a10.5,10.5,0,0,1-21,0v-13.88h21Zm-1-91.6a1,1,0,0,1,1,1v68.721h-21V137.041a1,1,0,0,1,1-1Zm-9.5-49.954a30.959,30.959,0,1,1,30.958-30.959A30.993,30.993,0,0,1,211.927,86.087Z" fill="#5f266d"/><path d="M214.119,69.927a15.157,15.157,0,0,1-2.192.16,4,4,0,0,0,0,8,23.212,23.212,0,0,0,3.353-.244,4,4,0,0,0-1.161-7.916Z" fill="#5f266d"/><path d="M230.885,51.128a4,4,0,0,0-4,4,14.814,14.814,0,0,1-2.9,8.839,4,4,0,0,0,6.445,4.74,22.768,22.768,0,0,0,4.454-13.579A4,4,0,0,0,230.885,51.128Z" fill="#5f266d"/><path d="M90.971,24.22a35.068,35.068,0,0,0-3.215,32.637c2.726,6.936,1.656,2.7,11.341,23.638,3.158,6.828,16.919,28.883,17.426,29.922v17.624h-5.467a9.01,9.01,0,0,0-9,9v90.6a18.5,18.5,0,0,0,37,0v-90.6a9.01,9.01,0,0,0-9-9h-5.533V110.323c.327-.617,1.879-3.257,3.394-5.832,19.511-33.178,11.469-21.682,22.092-41.639a45.271,45.271,0,0,0,2.756-5.994A35.07,35.07,0,0,0,149.55,24.22C136.507,5.073,104.014,5.07,90.971,24.22Zm6.6,34.874c-6.325-11.888-5.384-22.455.009-30.37a23.856,23.856,0,0,1,9.79-8.276c-6.643,7.831-9.326,19.14-6.39,30.326l6.4,28.4C105.756,76.1,102.174,67.736,97.574,59.094ZM108.736,48.8c-2.359-8.911.107-19.975,7.787-26.092V83.362C116.5,83.241,108.768,48.922,108.736,48.8Zm22.32,178.84a10.5,10.5,0,0,1-21,0v-13.88h21Zm-1-91.6a1,1,0,0,1,1,1v68.721h-21V137.041a1,1,0,0,1,1-1Zm1.694-87.095L124.523,81.03V23.107C130.7,28.364,134.305,37.836,131.75,48.946Zm13.571,4.984a38.014,38.014,0,0,1-2.374,5.164c-4.622,8.685-8.059,16.736-9.814,20.117l6.405-28.436c2.936-11.185.255-22.492-6.382-30.323a23.859,23.859,0,0,1,9.782,8.272A27.086,27.086,0,0,1,145.321,53.93Z" fill="#5f266d"/></svg>