<svg xmlns="http://www.w3.org/2000/svg" viewBox="0 0 256 256"><title>Foodies Expanded</title><rect x="41.416" y="10.393" width="173.168" height="235.215" rx="20" ry="20" fill="#5fcdff"/><rect x="90.446" y="1.362" width="75.107" height="133.168" rx="10" ry="10" transform="translate(195.946 -60.054) rotate(90)" fill="#ffe2e2"/><path d="M76.42,245.61h-15a20,20,0,0,1-20-20V30.39a20,20,0,0,1,20-20h15a20,20,0,0,0-20,20V225.61A20,20,0,0,0,76.42,245.61Z" fill="#73d7f9"/><path d="M86.42,105.5h-15a10,10,0,0,1-10-10V40.39a10,10,0,0,1,10-10h15a10,10,0,0,0-10,10V95.5A10,10,0,0,0,86.42,105.5Z" fill="#ffefee"/><path d="M214.58,30.39V225.61a20,20,0,0,1-20,20h-15a20,20,0,0,0,20-20V30.39a20,20,0,0,0-20-20h15A20,20,0,0,1,214.58,30.39Z" fill="#30b6ff"/><path d="M194.58,40.39V95.5a10,10,0,0,1-10,10h-15a10,10,0,0,0,10-10V40.39a10,10,0,0,0-10-10h15A10,10,0,0,1,194.58,40.39Z" fill="#ffcfcf"/><rect x="98.951" y="128" width="58.099" height="35.252" rx="17.626" ry="17.626" fill="#ff4a73"/><rect x="98.951" y="181.622" width="58.099" height="35.252" rx="17.626" ry="17.626" fill="#ff4a73"/><path d="M131.58,163.25h-15a17.625,17.625,0,1,1,0-35.25h15a17.625,17.625,0,1,0,0,35.25Z" fill="#f973a3"/><path d="M131.58,216.87h-15a17.625,17.625,0,1,1,0-35.25h15a17.625,17.625,0,1,0,0,35.25Z" fill="#f973a3"/><path d="M194.584,6.393H61.416a24.027,24.027,0,0,0-24,24V225.607a24.027,24.027,0,0,0,24,24H194.584a24.027,24.027,0,0,0,24-24V30.393A24.027,24.027,0,0,0,194.584,6.393Zm16,219.214a16.018,16.018,0,0,1-16,16H61.416a16.018,16.018,0,0,1-16-16V30.393a16.018,16.018,0,0,1,16-16H194.584a16.018,16.018,0,0,1,16,16Z" fill="#5f266d"/><path d="M184.584,26.393H71.416a14.015,14.015,0,0,0-14,14V95.5a14.015,14.015,0,0,0,14,14H184.584a14.015,14.015,0,0,0,14-14V40.393A14.015,14.015,0,0,0,184.584,26.393Zm6,69.107a6.006,6.006,0,0,1-6,6H71.416a6.006,6.006,0,0,1-6-6V40.393a6.006,6.006,0,0,1,6-6H184.584a6.006,6.006,0,0,1,6,6Z" fill="#5f266d"/><path d="M126.971,70.408a3.271,3.271,0,1,0,3.215,3.271A3.236,3.236,0,0,0,126.971,70.408Z" fill="#5f266d"/><path d="M126.971,58.182a3.271,3.271,0,1,0,3.215,3.271A3.236,3.236,0,0,0,126.971,58.182Z" fill="#5f266d"/><path d="M82.037,51.712c-11.12,0-11.12,11.618-11.12,15.435,0,3.855,0,15.587,11.12,15.587C93.12,82.734,93.12,71,93.12,67.147,93.12,63.33,93.12,51.712,82.037,51.712Zm4.648,15.435c0,7.042-1.173,9.418-4.648,9.418-3.5,0-4.684-2.376-4.684-9.418,0-6.841,1.225-9.266,4.684-9.266C85.469,57.881,86.685,60.306,86.685,67.147Z" fill="#5f266d"/><path d="M108.153,51.712c-11.12,0-11.12,11.618-11.12,15.435,0,3.855,0,15.587,11.12,15.587,11.083,0,11.083-11.732,11.083-15.587C119.236,63.33,119.236,51.712,108.153,51.712ZM112.8,67.147c0,7.042-1.173,9.418-4.648,9.418-3.5,0-4.684-2.376-4.684-9.418,0-6.841,1.225-9.266,4.684-9.266C111.585,57.881,112.8,60.306,112.8,67.147Z" fill="#5f266d"/><path d="M145.7,51.712c-11.12,0-11.12,11.618-11.12,15.435,0,3.855,0,15.587,11.12,15.587,11.083,0,11.083-11.732,11.083-15.587C156.787,63.33,156.787,51.712,145.7,51.712Zm4.648,15.435c0,7.042-1.173,9.418-4.648,9.418-3.5,0-4.684-2.376-4.684-9.418,0-6.841,1.225-9.266,4.684-9.266C149.136,57.881,150.352,60.306,150.352,67.147Z" fill="#5f266d"/><path d="M171.82,51.712c-11.12,0-11.12,11.618-11.12,15.435,0,3.855,0,15.587,11.12,15.587C182.9,82.734,182.9,71,182.9,67.147,182.9,63.33,182.9,51.712,171.82,51.712Zm4.648,15.435c0,7.042-1.173,9.418-4.648,9.418-3.5,0-4.684-2.376-4.684-9.418,0-6.841,1.225-9.266,4.684-9.266C175.252,57.881,176.468,60.306,176.468,67.147Z" fill="#5f266d"/><path d="M139.424,124H116.576a21.626,21.626,0,1,0,0,43.252h22.848a21.626,21.626,0,0,0,0-43.252Zm0,35.252H116.576a13.626,13.626,0,1,1,0-27.252h22.848a13.626,13.626,0,0,1,0,27.252Z" fill="#5f266d"/><path d="M139.424,177.623H116.576a21.626,21.626,0,1,0,0,43.251h22.848a21.626,21.626,0,1,0,0-43.251Zm0,35.251H116.576a13.626,13.626,0,1,1,0-27.251h22.848a13.626,13.626,0,1,1,0,27.251Z" fill="#5f266d"/><path d="M194.584,209a4,4,0,0,0-4,4v3.874a4,4,0,0,0,8,0V213A4,4,0,0,0,194.584,209Z" fill="#5f266d"/><path d="M194.584,166a4,4,0,0,0-4,4v28a4,4,0,0,0,8,0V170A4,4,0,0,0,194.584,166Z" fill="#5f266d"/></svg>