<svg xmlns="http://www.w3.org/2000/svg" viewBox="0 0 256 256"><title>Foodies Expanded</title><path d="M77.71,8.068H178.29a5,5,0,0,1,5,5V36.506a0,0,0,0,1,0,0H72.71a0,0,0,0,1,0,0V13.068A5,5,0,0,1,77.71,8.068Z" fill="#ffe2e2"/><rect x="41.934" y="36.506" width="172.131" height="211.426" rx="30.463" ry="30.463" fill="#b76c6c"/><path d="M92.71,8.07a5,5,0,0,0-5,5V36.51h-15V13.07a5,5,0,0,1,5-5Z" fill="#ffefee"/><path d="M87.4,247.93h-15a30.465,30.465,0,0,1-30.47-30.46V66.97A30.459,30.459,0,0,1,72.4,36.51h15A30.459,30.459,0,0,0,56.93,66.97v150.5A30.465,30.465,0,0,0,87.4,247.93Z" fill="#c98585"/><path d="M56.93,165.22v20.34c-4.38-.43-9.32-.67-15-.67V164.55C47.61,164.55,52.55,164.79,56.93,165.22Z" fill="#ffefee"/><path d="M183.29,13.07V36.51h-15V13.07a5,5,0,0,0-5-5h15A5,5,0,0,1,183.29,13.07Z" fill="#ffcfcf"/><path d="M214.07,66.97v150.5a30.465,30.465,0,0,1-30.47,30.46h-15a30.465,30.465,0,0,0,30.47-30.46V66.97A30.459,30.459,0,0,0,168.6,36.51h15A30.459,30.459,0,0,1,214.07,66.97Z" fill="#965959"/><path d="M128,178.549c-43.033,0-43.033-14-86.066-14v20.343c43.033,0,43.033,14,86.066,14s43.033-14,86.066-14V164.549C171.033,164.549,171.033,178.549,128,178.549Z" fill="#ffe2e2"/><path d="M56.93,165.22v20.34c-4.38-.43-9.32-.67-15-.67V164.55C47.61,164.55,52.55,164.79,56.93,165.22Z" fill="#ffefee"/><path d="M214.07,164.55v20.34c-5.68,0-10.62.24-15,.67V165.22C203.45,164.79,208.39,164.55,214.07,164.55Z" fill="#ffcfcf"/><path d="M214.07,164.55v20.34c-5.68,0-10.62.24-15,.67V165.22C203.45,164.79,208.39,164.55,214.07,164.55Z" fill="#ffcfcf"/><path d="M187.29,32.706V13.068a9.01,9.01,0,0,0-9-9H77.71a9.01,9.01,0,0,0-9,9V32.706A34.509,34.509,0,0,0,37.935,66.969v150.5A34.5,34.5,0,0,0,72.4,251.932H183.6a34.5,34.5,0,0,0,34.462-34.463V66.969A34.509,34.509,0,0,0,187.29,32.706ZM76.71,13.068a1,1,0,0,1,1-1H178.29a1,1,0,0,1,1,1V32.506H76.71Zm133.355,204.4A26.492,26.492,0,0,1,183.6,243.932H72.4a26.492,26.492,0,0,1-26.462-26.463V188.936c38.159.827,39.675,13.957,82.065,13.957s43.911-13.13,82.065-13.957Zm0-36.535c-39.987.843-41.112,13.959-82.065,13.959s-42.082-13.116-82.065-13.959V168.592c38.159.827,39.675,13.957,82.065,13.957s43.911-13.13,82.065-13.957Zm0-20.344c-39.987.844-41.112,13.959-82.065,13.959S85.918,161.433,45.935,160.59V66.969A26.492,26.492,0,0,1,72.4,40.506H183.6a26.492,26.492,0,0,1,26.462,26.463Z" fill="#5f266d"/><path d="M186.667,64.373a4,4,0,0,0-4,4v24a4,4,0,1,0,8,0v-24A4,4,0,0,0,186.667,64.373Z" fill="#5f266d"/><path d="M186.667,103.373a4,4,0,0,0-4,4v2.96a4,4,0,0,0,8,0v-2.96A4,4,0,0,0,186.667,103.373Z" fill="#5f266d"/></svg>