<svg xmlns="http://www.w3.org/2000/svg" viewBox="0 0 256 256"><title>Foodies Expanded</title><circle cx="128" cy="128" r="113.633" fill="#f9d335"/><circle cx="128" cy="128" r="89.834" fill="#ffe2e2"/><path d="M135.5,217.52q-3.7.315-7.5.31a89.83,89.83,0,0,1,0-179.66q3.8,0,7.5.31a89.834,89.834,0,0,0,0,179.04Z" fill="#ffefee"/><path d="M217.83,128A89.832,89.832,0,0,1,128,217.83q-3.8,0-7.5-.31a89.834,89.834,0,0,0,0-179.04q3.7-.315,7.5-.31A89.832,89.832,0,0,1,217.83,128Z" fill="#ffcfcf"/><path d="M168.55,105.627a2.649,2.649,0,0,0-.83,1.91v19.4c-.81-.08-1.64-.12-2.47-.12a26.26,26.26,0,0,0-24.85,34.72,31.662,31.662,0,0,0-27.54,28.78H93.28a5,5,0,0,1-5-5v-77.78a2.649,2.649,0,0,0-.83-1.91A24.619,24.619,0,1,1,128,80.387a24.62,24.62,0,1,1,40.55,25.24Z" fill="#b76c6c"/><path d="M168.55,105.63a2.649,2.649,0,0,0-.83,1.91v19.4c-.81-.08-1.64-.12-2.47-.12a26.26,26.26,0,0,0-24.85,34.72,31.662,31.662,0,0,0-27.54,28.78h-15a31.662,31.662,0,0,1,27.54-28.78,26.26,26.26,0,0,1,24.85-34.72c.83,0,1.66.04,2.47.12v-19.4a2.649,2.649,0,0,1,.83-1.91,24.613,24.613,0,0,0-9.61-41.14,24.614,24.614,0,0,1,24.61,41.14Z" fill="#965959"/><path d="M108.28,190.32h-15a5,5,0,0,1-5-5V107.54a2.649,2.649,0,0,0-.83-1.91,24.613,24.613,0,0,1,24.61-41.14,24.613,24.613,0,0,0-9.61,41.14,2.649,2.649,0,0,1,.83,1.91v77.78A5,5,0,0,0,108.28,190.32Z" fill="#c98585"/><path d="M128,10.367A117.633,117.633,0,1,0,245.633,128,117.766,117.766,0,0,0,128,10.367Zm0,227.266A109.633,109.633,0,1,1,237.633,128,109.757,109.757,0,0,1,128,237.633Z" fill="#5f266d"/><path d="M128,34.166A93.834,93.834,0,1,0,221.834,128,93.941,93.941,0,0,0,128,34.166Zm0,179.668A85.834,85.834,0,1,1,213.834,128,85.931,85.931,0,0,1,128,213.834Z" fill="#5f266d"/><path d="M148.456,188.372a63.89,63.89,0,0,1-10.661,2.588,4,4,0,0,0,.6,7.955,4.083,4.083,0,0,0,.61-.047,71.9,71.9,0,0,0,12-2.914,4,4,0,0,0-2.551-7.582Z" fill="#5f266d"/><path d="M184.981,165.4a4,4,0,0,0-5.611.713,66.917,66.917,0,0,1-18.142,16.318c-4.488,2.725-.389,9.6,4.154,6.836a74.852,74.852,0,0,0,20.312-18.255A4,4,0,0,0,184.981,165.4Z" fill="#5f266d"/><path d="M144.185,160.242a22.277,22.277,0,0,1,23.141-29.324,4,4,0,0,0,4.394-3.98v-18.82a28.624,28.624,0,0,0,8.294-21.731C178.578,59.214,143.39,49.441,128,71.47c-15.436-22.1-50.581-12.191-52.014,14.914a28.631,28.631,0,0,0,8.294,21.734v77.2a9.01,9.01,0,0,0,9,9h19.58a4,4,0,0,0,3.987-3.673A27.725,27.725,0,0,1,140.9,165.506,4,4,0,0,0,144.185,160.242Zm-34.816,26.075H93.28a1,1,0,0,1-1-1v-77.78a6.685,6.685,0,0,0-2.049-4.785,20.618,20.618,0,1,1,33.961-21.14,4,4,0,0,0,7.616,0,20.619,20.619,0,1,1,33.963,21.138,6.693,6.693,0,0,0-2.051,4.787v15.318a30.288,30.288,0,0,0-28.247,35.563A35.836,35.836,0,0,0,109.369,186.317Z" fill="#5f266d"/></svg>