<svg xmlns="http://www.w3.org/2000/svg" viewBox="0 0 256 256"><title>Foodies Expanded</title><rect x="67.581" y="6.959" width="120.837" height="80.498" rx="4.886" ry="4.886" fill="#87828e"/><path d="M87.47,87.46h-15a4.891,4.891,0,0,1-4.89-4.89V11.84a4.889,4.889,0,0,1,4.89-4.88h15a4.889,4.889,0,0,0-4.89,4.88V82.57A4.891,4.891,0,0,0,87.47,87.46Z" fill="#a4a4a5"/><path d="M188.42,11.84V82.57a4.891,4.891,0,0,1-4.89,4.89h-15a4.891,4.891,0,0,0,4.89-4.89V11.84a4.889,4.889,0,0,0-4.89-4.88h15A4.889,4.889,0,0,1,188.42,11.84Z" fill="#796e84"/><circle cx="58.754" cy="195.883" r="53.158" fill="#ffe2e2"/><circle cx="197.246" cy="195.883" r="53.158" fill="#ffe2e2"/><path d="M66.25,248.51a53.155,53.155,0,1,1,0-105.25,53.158,53.158,0,0,0,0,105.25Z" fill="#ffefee"/><path d="M204.75,248.51a53.155,53.155,0,1,1,0-105.25,53.156,53.156,0,0,0,0,105.25Z" fill="#ffefee"/><path d="M111.91,195.88a53.171,53.171,0,0,1-60.66,52.63,53.156,53.156,0,0,0,0-105.25,53.171,53.171,0,0,1,60.66,52.62Z" fill="#ffcfcf"/><path d="M250.4,195.88a53.162,53.162,0,0,1-60.65,52.63,53.158,53.158,0,0,0,0-105.25,53.162,53.162,0,0,1,60.65,52.62Z" fill="#ffcfcf"/><rect x="111.911" y="87.457" width="32.178" height="20.797" fill="#87828e"/><rect x="102.715" y="2.377" width="50.571" height="89.663" transform="translate(175.208 -80.792) rotate(90)" fill="#ffe2e2"/><rect x="18.889" y="202.317" width="79.734" height="14.11" rx="3.281" ry="3.281" fill="#87828e"/><path d="M58.756,170.981h0a31.062,31.062,0,0,1,31.062,31.062v.275a0,0,0,0,1,0,0H27.694a0,0,0,0,1,0,0v-.275A31.062,31.062,0,0,1,58.756,170.981Z" fill="#a4a4a5"/><rect x="157.381" y="202.317" width="79.734" height="14.11" rx="3.281" ry="3.281" fill="#87828e"/><path d="M197.248,170.981h0a31.062,31.062,0,0,1,31.062,31.062v.275a0,0,0,0,1,0,0H166.187a0,0,0,0,1,0,0v-.275A31.062,31.062,0,0,1,197.248,170.981Z" fill="#a4a4a5"/><rect x="111.91" y="87.46" width="15" height="20.79" fill="#a4a4a5"/><rect x="83.17" y="21.92" width="15" height="50.57" fill="#ffefee"/><rect x="157.83" y="21.92" width="15" height="50.57" fill="#ffcfcf"/><path d="M83.169,76.493h89.662a4,4,0,0,0,4-4V21.923a4,4,0,0,0-4-4H83.169a4,4,0,0,0-4,4v50.57A4,4,0,0,0,83.169,76.493Zm4-50.57h81.662v42.57H87.169Z" fill="#5f266d"/><path d="M72.467,91.457h35.444v12.8H98.94a4,4,0,0,0,0,8h58.12a4,4,0,0,0,0-8h-8.971v-12.8h35.444a8.9,8.9,0,0,0,8.885-8.886V11.845a8.9,8.9,0,0,0-8.885-8.886H72.467a8.9,8.9,0,0,0-8.885,8.886V82.571A8.9,8.9,0,0,0,72.467,91.457Zm67.622,12.8H115.911v-12.8h24.178ZM71.582,11.845a.886.886,0,0,1,.885-.886H183.533a.886.886,0,0,1,.885.886V82.571a.886.886,0,0,1-.885.886H72.467a.886.886,0,0,1-.885-.886Z" fill="#5f266d"/><path d="M61.725,138.8l13.086-29.79a4,4,0,1,0-7.324-3.217l-14.6,33.229a57.172,57.172,0,1,0,8.835-.222ZM58.753,245.041a49.158,49.158,0,1,1,49.158-49.157A49.213,49.213,0,0,1,58.753,245.041Z" fill="#5f266d"/><path d="M62.753,167.215v-5.688h5.155a4,4,0,1,0,0-8H49.6a4,4,0,1,0,0,8h5.154v5.689a35.121,35.121,0,0,0-30.859,31.1H22.17a7.29,7.29,0,0,0-7.281,7.282v7.547a7.29,7.29,0,0,0,7.281,7.281H95.341a7.29,7.29,0,0,0,7.282-7.281V205.6a7.291,7.291,0,0,0-7.282-7.282H93.618A35.123,35.123,0,0,0,62.753,167.215Zm31.87,39.1v6.11H22.889v-6.11H94.623Zm-62.674-8a27.064,27.064,0,0,1,53.613,0Z" fill="#5f266d"/><path d="M203.11,139.025l-14.6-33.229a4,4,0,1,0-7.324,3.217l13.086,29.79a57.143,57.143,0,1,0,8.835.222Zm-5.863,106.016A49.158,49.158,0,1,1,246.4,195.884,49.213,49.213,0,0,1,197.247,245.041Z" fill="#5f266d"/><path d="M233.834,198.317H232.11a35.121,35.121,0,0,0-30.863-31.1v-5.688H206.4a4,4,0,0,0,0-8H188.092a4,4,0,0,0,0,8h5.155v5.689a35.121,35.121,0,0,0-30.86,31.1h-1.724a7.29,7.29,0,0,0-7.282,7.282v7.547a7.29,7.29,0,0,0,7.282,7.281h73.171a7.29,7.29,0,0,0,7.282-7.281V205.6A7.291,7.291,0,0,0,233.834,198.317ZM197.249,174.98a27.1,27.1,0,0,1,26.806,23.337H170.442A27.1,27.1,0,0,1,197.249,174.98Zm35.867,37.447H161.381v-6.11h71.735Z" fill="#5f266d"/><path d="M158.833,30.75a4,4,0,0,0-4,4v8a4,4,0,0,0,8,0v-8A4,4,0,0,0,158.833,30.75Z" fill="#5f266d"/><path d="M158.833,53.75a4,4,0,0,0-4,4v1.916a4,4,0,0,0,8,0V57.75A4,4,0,0,0,158.833,53.75Z" fill="#5f266d"/></svg>