<svg xmlns="http://www.w3.org/2000/svg" viewBox="0 0 256 256"><title>Foodies Expanded</title><circle cx="128" cy="128" r="113.633" fill="#f9d335"/><circle cx="128" cy="128" r="89.834" fill="#ffe2e2"/><path d="M135.5,217.52q-3.7.315-7.5.31a89.83,89.83,0,0,1,0-179.66q3.8,0,7.5.31a89.834,89.834,0,0,0,0,179.04Z" fill="#ffefee"/><path d="M217.83,128A89.832,89.832,0,0,1,128,217.83q-3.8,0-7.5-.31a89.834,89.834,0,0,0,0-179.04q3.7-.315,7.5-.31A89.832,89.832,0,0,1,217.83,128Z" fill="#ffcfcf"/><path d="M199.976,128c0,7.441-7.032,13.68-9.212,20.4-2.259,6.958-.316,16.124-4.531,21.916-4.258,5.85-13.6,6.814-19.453,11.071-5.793,4.215-9.574,12.83-16.533,15.089-6.714,2.18-14.806-2.5-22.247-2.5s-15.533,4.675-22.248,2.5c-6.958-2.259-10.74-10.874-16.532-15.089-5.85-4.258-15.2-5.222-19.453-11.072-4.216-5.792-2.272-14.957-4.531-21.916-2.181-6.714-9.212-12.953-9.212-20.394s7.032-13.68,9.212-20.395c2.259-6.958.316-16.124,4.531-21.916,4.258-5.85,13.6-6.814,19.453-11.071,5.793-4.215,9.574-12.83,16.533-15.089,6.714-2.18,14.806,2.495,22.247,2.495s15.533-4.675,22.248-2.495c6.958,2.259,10.74,10.874,16.532,15.089,5.85,4.258,15.2,5.222,19.453,11.072,4.216,5.792,2.272,14.957,4.531,21.916C192.945,114.32,199.976,120.559,199.976,128Z" fill="#44c7b6"/><circle cx="128" cy="128" r="50.904" fill="#b76c6c"/><path d="M135.5,178.35a51.419,51.419,0,0,1-7.5.55,50.9,50.9,0,0,1,0-101.8,51.419,51.419,0,0,1,7.5.55,50.906,50.906,0,0,0,0,100.7Z" fill="#c98585"/><path d="M178.9,128A50.9,50.9,0,0,1,128,178.9a51.419,51.419,0,0,1-7.5-.55,50.906,50.906,0,0,0,0-100.7,51.419,51.419,0,0,1,7.5-.55A50.9,50.9,0,0,1,178.9,128Z" fill="#965959"/><path d="M80.24,107.61c-2.18,6.71-9.22,12.95-9.22,20.39s7.04,13.68,9.22,20.39c2.25,6.96.31,16.13,4.53,21.92,4.25,5.85,13.6,6.81,19.45,11.07,5.18,3.77,8.75,11.06,14.42,14.17-4.5,1.11-8.93,2.2-12.89.92-6.96-2.26-10.74-10.87-16.53-15.09-5.85-4.26-15.2-5.22-19.45-11.07-4.22-5.79-2.28-14.96-4.53-21.92-2.18-6.71-9.22-12.95-9.22-20.39s7.04-13.68,9.22-20.39c2.26-6.96.31-16.13,4.53-21.92,4.25-5.85,13.6-6.81,19.45-11.07,5.79-4.22,9.57-12.83,16.53-15.09,3.96-1.28,8.39-.19,12.89.92-5.67,3.11-9.24,10.4-14.42,14.17-5.85,4.26-15.2,5.22-19.45,11.07C80.55,91.48,82.5,100.65,80.24,107.61Z" fill="#4bdbc3"/><path d="M199.98,128c0,7.44-7.04,13.68-9.22,20.39-2.26,6.96-.31,16.13-4.53,21.92-4.25,5.85-13.6,6.81-19.45,11.07-5.79,4.22-9.57,12.83-16.53,15.09-3.96,1.28-8.39.19-12.89-.92,5.67-3.11,9.24-10.4,14.42-14.17,5.85-4.26,15.2-5.22,19.45-11.07,4.22-5.79,2.27-14.96,4.53-21.92,2.18-6.71,9.22-12.95,9.22-20.39s-7.04-13.68-9.22-20.39c-2.25-6.96-.31-16.13-4.53-21.92-4.25-5.85-13.6-6.81-19.45-11.07-5.18-3.77-8.75-11.06-14.42-14.17,4.5-1.11,8.93-2.2,12.89-.92,6.96,2.26,10.74,10.87,16.53,15.09,5.85,4.26,15.2,5.22,19.45,11.07,4.22,5.79,2.28,14.96,4.53,21.92C192.94,114.32,199.98,120.56,199.98,128Z" fill="#3bb2a0"/><path d="M128,10.367A117.633,117.633,0,1,0,245.633,128,117.766,117.766,0,0,0,128,10.367Zm0,227.266A109.633,109.633,0,1,1,237.633,128,109.757,109.757,0,0,1,128,237.633Z" fill="#5f266d"/><path d="M128,34.166A93.834,93.834,0,1,0,221.833,128,93.94,93.94,0,0,0,128,34.166Zm0,179.668A85.834,85.834,0,1,1,213.833,128,85.93,85.93,0,0,1,128,213.834Z" fill="#5f266d"/><path d="M128,73.1A54.9,54.9,0,1,0,182.9,128,54.966,54.966,0,0,0,128,73.1ZM128,174.9A46.9,46.9,0,1,1,174.9,128,46.957,46.957,0,0,1,128,174.9Z" fill="#5f266d"/><path d="M198.31,113.373c-3.989-6.331-4.362-7.34-4.921-15.226-.975-13.775-3.628-17.812-16.877-23.152-7.226-2.912-8.09-3.559-13-9.441-3.173-3.807-6.77-8.12-12.034-9.829-8.137-2.645-16.643,2.3-23.483,2.3s-15.351-4.943-23.482-2.3c-8.321,2.7-12.435,11.861-17.651,15.659-5.281,3.843-15.237,4.947-20.334,11.952s-3.029,16.652-5.1,23.034c-1.956,6.024-9.407,12.759-9.407,21.63s7.451,15.6,9.407,21.63c2.072,6.379.005,16.032,5.1,23.034s15.054,8.109,20.333,11.952c5.219,3.8,9.329,12.958,17.651,15.659,5.054,1.642,10.172.371,15.122-.857,7.733-1.92,8.993-1.919,16.722,0,13.029,3.233,17.762,2.294,27.156-8.972,4.9-5.879,5.77-6.529,12.993-9.44,13.275-5.35,15.9-9.4,16.879-23.153.555-7.851.916-8.87,4.92-15.223C205.873,130.622,205.926,125.462,198.31,113.373Zm-11.351,33.786c-2.4,7.388-.683,16.3-3.96,20.8-1.863,2.56-5.562,4.051-9.479,5.629-8.485,3.418-10.394,4.836-16.148,11.737-7.09,8.5-8.679,8.911-19.083,6.33-9.013-2.237-11.556-2.239-20.578,0-10.347,2.57-11.961,2.213-19.083-6.329a41.125,41.125,0,0,0-7.054-7.177c-6.239-4.539-15.251-5.624-18.573-10.19-3.278-4.5-1.562-13.408-3.961-20.8a40.332,40.332,0,0,0-4.581-8.8c-5.91-9.38-5.917-11.333,0-20.727,4.694-7.45,5.475-9.674,6.132-18.922.3-4.192.577-8.152,2.409-10.67,3.327-4.572,12.334-5.65,18.574-10.19,6.191-4.508,9.962-12.75,15.414-14.519,2.877-.937,6.687.011,10.722,1.013,9.013,2.237,11.556,2.239,20.578,0,10.386-2.577,11.979-2.191,19.083,6.329,5.753,6.9,7.67,8.322,16.15,11.74,10.2,4.108,11.121,5.481,11.887,16.3a42.3,42.3,0,0,0,1.551,10.129c2.342,7.212,9.016,13.289,9.016,19.159S189.3,139.954,186.959,147.159Z" fill="#5f266d"/><path d="M159.183,107.637A37.151,37.151,0,0,0,128,90.76a4,4,0,0,0,0,8,29.182,29.182,0,0,1,24.489,13.256,4,4,0,1,0,6.694-4.379Z" fill="#5f266d"/><path d="M157.005,124.28A29.729,29.729,0,0,1,157.24,128a4,4,0,0,0,8,0,37.928,37.928,0,0,0-.3-4.725C164.275,118.018,156.341,119.038,157.005,124.28Z" fill="#5f266d"/></svg>