<svg xmlns="http://www.w3.org/2000/svg" viewBox="0 0 256 256"><title>Foodies Expanded</title><path d="M10,96.563v113.9c14.752,0,14.752-10,29.505-10s14.752,10,29.505,10,14.75-10,29.5-10,14.749,10,29.5,10,14.75-10,29.5-10,14.75,10,29.5,10,14.748-10,29.5-10,14.748,10,29.5,10V96.563c0-2.762-2.648-5-5.914-5H15.914C12.648,91.563,10,93.8,10,96.563Z" fill="#ffe2e2"/><path d="M126.063,17.654H27.4a5,5,0,0,0-5,5V40.571a22.251,22.251,0,0,0,22.25,22.251h64.166a22.251,22.251,0,0,0,22.251-22.251V22.654A5,5,0,0,0,126.063,17.654Z" fill="#87828e"/><path d="M152.4,75.875h87.333a0,0,0,0,1,0,0v0a15.688,15.688,0,0,1-15.688,15.688H168.084A15.688,15.688,0,0,1,152.4,75.875v0a0,0,0,0,1,0,0Z" fill="#ffe2e2"/><path d="M152.4,60.187h87.333a0,0,0,0,1,0,0v0a15.688,15.688,0,0,1-15.688,15.688H168.084A15.688,15.688,0,0,1,152.4,60.187v0A0,0,0,0,1,152.4,60.187Z" fill="#ffcfcf"/><path d="M152.4,44.5h87.333a0,0,0,0,1,0,0v0a15.688,15.688,0,0,1-15.688,15.688H168.084A15.688,15.688,0,0,1,152.4,44.5v0A0,0,0,0,1,152.4,44.5Z" fill="#ffe2e2"/><path d="M37.4,40.571V22.651a5,5,0,0,1,5-5h-15a5,5,0,0,0-5,5v17.92a22.248,22.248,0,0,0,22.25,22.25h15A22.248,22.248,0,0,1,37.4,40.571Z" fill="#a4a4a5"/><path d="M131.06,22.651v17.92a22.248,22.248,0,0,1-22.25,22.25h-15a22.248,22.248,0,0,0,22.25-22.25V22.651a5,5,0,0,0-5-5h15A5,5,0,0,1,131.06,22.651Z" fill="#796e84"/><path d="M30.91,91.561c-3.26,0-5.91,2.24-5.91,5V205.3c-3.77,2.55-7.46,5.16-15,5.16V96.561c0-2.76,2.65-5,5.91-5Z" fill="#ffefee"/><path d="M246,96.561v113.9c-7.54,0-11.23-2.61-15-5.16V96.561c0-2.76-2.65-5-5.91-5h15C243.35,91.561,246,93.8,246,96.561Z" fill="#ffcfcf"/><path d="M240.086,87.563h-.238a19.559,19.559,0,0,0,3.881-11.688,4,4,0,0,0-3.89-3.989,19.55,19.55,0,0,0,3.89-11.7,4,4,0,0,0-3.89-3.989,19.55,19.55,0,0,0,3.89-11.7,4,4,0,0,0-4-4H152.4a4,4,0,0,0-4,4,19.55,19.55,0,0,0,3.89,11.7,4,4,0,0,0-3.89,3.989,19.55,19.55,0,0,0,3.89,11.7,4,4,0,0,0-3.89,3.989,19.559,19.559,0,0,0,3.881,11.688H138.256a17.631,17.631,0,0,0,2.932-9.744,4,4,0,0,0-8,0,9.756,9.756,0,0,1-9.744,9.744h-3.429a9.755,9.755,0,0,1-9.744-9.744V66.779a26.282,26.282,0,0,0,24.792-26.208V22.654a9.01,9.01,0,0,0-9-9H27.4a9.01,9.01,0,0,0-9,9V40.571A26.282,26.282,0,0,0,43.188,66.779v11.04a9.756,9.756,0,0,1-9.744,9.744H30.015a9.755,9.755,0,0,1-9.744-9.744,4,4,0,0,0-8,0,17.631,17.631,0,0,0,2.95,9.775C10.078,87.92,6,91.812,6,96.563v113.9a4,4,0,0,0,4,4c8.6,0,13.063-3.022,17-5.688,2.548-1.727,4.718-3.189,8-3.881v29.46H20.333a4,4,0,0,0,0,8H57.667a4,4,0,0,0,0-8H43V204.707c9.35,1.417,11.459,9.751,26.01,9.751,16.134,0,16.511-10,29.5-10,13.015,0,13.347,10,29.5,10s16.5-10,29.5-10c12.984,0,13.367,10,29.5,10,8.6,0,13.059-3.022,16.993-5.689,2.795-1.9,5.135-3.473,9-4.061v29.641H198.333a4,4,0,0,0,0,8h37.334a4,4,0,0,0,0-8H221V204.887c8.36,1.757,11.008,9.571,25,9.571a4,4,0,0,0,4-4V96.563C250,91.6,245.553,87.563,240.086,87.563ZM235.024,48.5a11.706,11.706,0,0,1-10.983,7.688H168.084A11.706,11.706,0,0,1,157.1,48.5Zm-66.94,15.688h66.94a11.706,11.706,0,0,1-10.983,7.688H168.084A11.706,11.706,0,0,1,157.1,64.187Zm0,15.688h66.94a11.708,11.708,0,0,1-10.983,7.688H168.084A11.708,11.708,0,0,1,157.1,79.875ZM26.4,22.654a1,1,0,0,1,1-1h98.667a1,1,0,0,1,1,1v7.692H26.4Zm0,17.917V38.346H127.063v2.225a18.272,18.272,0,0,1-18.25,18.251H44.646A18.272,18.272,0,0,1,26.4,40.571ZM105.2,87.563H48.256a17.631,17.631,0,0,0,2.932-9.744v-11h51.083v11A17.63,17.63,0,0,0,105.2,87.563ZM242,206.132c-8.611-1.548-11.592-9.674-25-9.674-16.964,0-16.863,10-29.991,10-13.014,0-13.346-10-29.5-10s-16.5,10-29.5,10-13.346-10-29.5-10-16.49,10-29.5,10c-12.987,0-14.13-10.554-30.152-9.985-8.176.15-12.518,3.077-16.35,5.674-2.678,1.815-4.93,3.342-8.508,3.985V96.563c0-.344.745-1,1.914-1H240.086c1.169,0,1.914.656,1.914,1Z" fill="#5f266d"/><path d="M221.6,117.334h-3.1a4,4,0,0,1,0-8h3.1a4,4,0,0,1,0,8Zm-18.1,0h-14a4,4,0,0,1,0-8h14a4,4,0,0,1,0,8Z" fill="#5f266d"/></svg>