<svg xmlns="http://www.w3.org/2000/svg" viewBox="0 0 256 256"><title>Foodies Expanded</title><rect x="7.096" y="44.289" width="241.809" height="167.423" rx="25" ry="25" fill="#b76c6c"/><path d="M78.1,180.427c-60.143-17.793-27.822-98.1,47.687-106.2,28.5-3.055,67.287,7.166,78.868,24.606,4.544,6.845,6.482,16.12,2,23.99-3.243,5.688-8.551,9.425-14.516,11.933-19.728,8.295-44.077-3.8-67.989,29.079C116.64,174.161,101.1,187.23,78.1,180.427Z" fill="#ff4a73"/><circle cx="86.035" cy="139.477" r="10.417" fill="#ffe2e2"/><path d="M32.1,211.71h0a25,25,0,0,1-25-25V69.29a25,25,0,0,1,25-25h0a10,10,0,0,0-10,10V201.71A10,10,0,0,0,32.1,211.71Z" fill="#c98585"/><path d="M248.9,69.29V186.71a25,25,0,0,1-25,25h0a10,10,0,0,0,10-10V54.29a10,10,0,0,0-10-10h0A25,25,0,0,1,248.9,69.29Z" fill="#965959"/><path d="M93.1,180.43a48.158,48.158,0,0,0,4.79,1.16,40.824,40.824,0,0,1-19.79-1.16c-60.14-17.8-27.82-98.11,47.69-106.2a106.775,106.775,0,0,1,18.22-.28c-1.09.07-2.16.17-3.22.28C65.28,82.32,32.96,162.63,93.1,180.43Z" fill="#f973a3"/><path d="M206.65,122.83c-3.24,5.68-8.55,9.42-14.51,11.93-19.73,8.29-44.08-3.8-67.99,29.08-6.98,9.59-20.88,21.55-41.26,17.75,12.34-2.45,21.15-10.73,26.26-17.75,23.91-32.88,48.26-20.79,67.99-29.08,5.96-2.51,11.27-6.25,14.51-11.93,4.49-7.88,2.55-17.15-1.99-23.99-9.24-13.92-35.81-23.25-60.65-24.89,28.13-2.01,64.5,8.09,75.65,24.89C209.2,105.68,211.14,114.95,206.65,122.83Z" fill="#ea2a6a"/><path d="M223.9,40.289H32.1a29.032,29.032,0,0,0-29,29V186.711a29.032,29.032,0,0,0,29,29H223.9a29.032,29.032,0,0,0,29-29V69.289A29.032,29.032,0,0,0,223.9,40.289Zm21,146.422a21.023,21.023,0,0,1-21,21H32.1a21.023,21.023,0,0,1-21-21V69.289a21.023,21.023,0,0,1,21-21H223.9a21.023,21.023,0,0,1,21,21Z" fill="#5f266d"/><path d="M193.688,138.445c7.562-3.18,13.094-7.768,16.441-13.639,4.723-8.285,3.9-19.084-2.138-28.183-12.869-19.381-53.879-29.458-82.627-26.371-48.125,5.159-79.673,39.009-82.37,68.754-1.947,21.469,10.755,38.387,33.976,45.256,20.662,6.114,38.636-1.88,50.414-18.072,15.284-21.013,30.481-22.343,45.177-23.628C179.6,141.946,186.877,141.309,193.688,138.445Zm-72.774,23.039c-4.937,6.789-18.882,21.849-41.675,15.107-19.57-5.79-29.877-19.225-28.278-36.862,2.692-29.692,37.85-62.064,85.721-62.064,26.823,0,55.792,10.051,64.644,23.383,3.418,5.147,5.7,13.05,1.853,19.8-2.489,4.365-6.608,7.71-12.592,10.226-5.656,2.379-12,2.934-18.724,3.522C156.151,135.967,138.342,137.524,120.914,161.484Z" fill="#5f266d"/><path d="M91.466,126.122c-11.962-4.862-23.652,7.25-18.714,18.958a14.327,14.327,0,0,0,7.853,7.752c11.911,4.842,23.674-7.2,18.714-18.959A14.322,14.322,0,0,0,91.466,126.122Zm-7.847,19.3a6.417,6.417,0,1,1,8.329-8.438A6.413,6.413,0,0,1,83.619,145.421Z" fill="#5f266d"/><circle cx="33.333" cy="73.667" r="6.333" transform="translate(-11.37 6.291) rotate(-9.217)" fill="#5f266d"/><path d="M27,101.583a6.334,6.334,0,1,0-6.333-6.334A6.333,6.333,0,0,0,27,101.583Z" fill="#5f266d"/><circle cx="181" cy="170.916" r="6.333" fill="#5f266d"/><circle cx="214.92" cy="65.848" r="6.333" fill="#5f266d"/><circle cx="228.651" cy="88.916" r="6.333" fill="#5f266d"/><path d="M28.381,174.916a6.334,6.334,0,1,0,6.333,6.333A6.333,6.333,0,0,0,28.381,174.916Z" fill="#5f266d"/><path d="M197.333,181.249a6.334,6.334,0,1,0,6.334,6.334A6.334,6.334,0,0,0,197.333,181.249Z" fill="#5f266d"/><path d="M216.621,145.906a4.012,4.012,0,0,0-4.277,3.7,16.087,16.087,0,0,1-9.964,14.27,4,4,0,0,0,2.547,7.584,24,24,0,0,0,15.4-21.28A4,4,0,0,0,216.621,145.906Z" fill="#5f266d"/><path d="M46.8,95.438a4,4,0,0,0,1.262-.2,24,24,0,0,0,15.4-21.279,4,4,0,0,0-7.979-.575,16.087,16.087,0,0,1-9.963,14.27A4,4,0,0,0,46.8,95.438Z" fill="#5f266d"/><path d="M152.8,180.935a4,4,0,1,0,2.263,7.672,16.09,16.09,0,0,1,16.86,4.321,4,4,0,0,0,6.207-5.047A24,24,0,0,0,152.8,180.935Z" fill="#5f266d"/></svg>