<svg xmlns="http://www.w3.org/2000/svg" viewBox="0 0 256 256"><title>Foodies Expanded</title><path d="M90.679,37.821v9.39a7.688,7.688,0,0,0,7.84,7.69,7.608,7.608,0,0,1,7.55,7.7v89.6a20.974,20.974,0,0,1-1.33,7.36l-10.85,29.13a10.758,10.758,0,0,1-8.8,4.56H55.209a10.772,10.772,0,0,1-8.8-4.56l-10.85-29.13a21.193,21.193,0,0,1-1.32-7.36V62.6a7.688,7.688,0,0,1,7.84-7.69,7.608,7.608,0,0,0,7.55-7.7v-9.39a7.7,7.7,0,0,0-7.84-7.7,7.587,7.587,0,0,1-7.55-7.69v-7.68a10,10,0,0,1,10-10h51.83a10,10,0,0,1,10,10v7.68a7.593,7.593,0,0,1-7.55,7.69A7.7,7.7,0,0,0,90.679,37.821Z" fill="#ffe2e2"/><path d="M78.649,193.251V218a25.639,25.639,0,0,0-17,0v-24.75Z" fill="#87828e"/><path d="M88.279,224.061a25.64,25.64,0,0,0-43.77,18.13v5.88a3,3,0,0,0,3.86,2.87l21.78-6.53,21.78,6.53a2.993,2.993,0,0,0,3.86-2.87v-5.88A25.56,25.56,0,0,0,88.279,224.061Z" fill="#87828e"/><rect x="121.574" y="113.249" width="100.188" height="20.5" rx="5" ry="5" fill="#ffe2e2"/><path d="M129.57,133.749h84.2a0,0,0,0,1,0,0v97.5a20,20,0,0,1-20,20h-44.2a20,20,0,0,1-20-20v-97.5A0,0,0,0,1,129.57,133.749Z" fill="#ffe2e2"/><path d="M70.209,193.251h-15a10.772,10.772,0,0,1-8.8-4.56l-10.85-29.13a21.193,21.193,0,0,1-1.32-7.36V62.6a7.688,7.688,0,0,1,7.84-7.69,7.608,7.608,0,0,0,7.55-7.7v-9.39a7.7,7.7,0,0,0-7.84-7.7,7.587,7.587,0,0,1-7.55-7.69v-7.68a10,10,0,0,1,10-10h15a10,10,0,0,0-10,10v7.68a7.587,7.587,0,0,0,7.55,7.69,7.7,7.7,0,0,1,7.84,7.7v9.39a7.608,7.608,0,0,1-7.55,7.7,7.688,7.688,0,0,0-7.84,7.69v89.6a21.193,21.193,0,0,0,1.32,7.36l10.85,29.13A10.772,10.772,0,0,0,70.209,193.251Z" fill="#ffefee"/><path d="M90.679,37.821v9.39a7.688,7.688,0,0,0,7.84,7.69,7.608,7.608,0,0,1,7.55,7.7v89.6a20.974,20.974,0,0,1-1.33,7.36l-10.85,29.13a10.758,10.758,0,0,1-8.8,4.56h-15a10.758,10.758,0,0,0,8.8-4.56l10.85-29.13a20.974,20.974,0,0,0,1.33-7.36V62.6a7.608,7.608,0,0,0-7.55-7.7,7.688,7.688,0,0,1-7.84-7.69v-9.39a7.7,7.7,0,0,1,7.84-7.7,7.593,7.593,0,0,0,7.55-7.69v-7.68a10,10,0,0,0-10-10h15a10,10,0,0,1,10,10v7.68a7.593,7.593,0,0,1-7.55,7.69A7.7,7.7,0,0,0,90.679,37.821Z" fill="#ffcfcf"/><rect x="63.334" y="30.723" width="13.635" height="58.189" rx="6.818" ry="6.818" fill="#5fcdff"/><path d="M141.569,133.751h-15a5,5,0,0,1-5-5v-10.5a5,5,0,0,1,5-5h15a5,5,0,0,0-5,5v10.5A5,5,0,0,0,141.569,133.751Z" fill="#ffefee"/><path d="M164.569,251.251h-15a20.007,20.007,0,0,1-20-20v-97.5h15v97.5A20.007,20.007,0,0,0,164.569,251.251Z" fill="#ffefee"/><path d="M221.759,118.251v10.5a5,5,0,0,1-5,5h-15a5,5,0,0,0,5-5v-10.5a5,5,0,0,0-5-5h15A5,5,0,0,1,221.759,118.251Z" fill="#ffcfcf"/><path d="M213.769,133.751v97.5a20.007,20.007,0,0,1-20,20h-15a20.007,20.007,0,0,0,20-20v-97.5Z" fill="#ffcfcf"/><path d="M96.069.751H44.239a14.015,14.015,0,0,0-14,14v7.68a11.589,11.589,0,0,0,11.625,11.69,3.7,3.7,0,0,1,3.765,3.7v9.39a3.617,3.617,0,0,1-3.475,3.7A11.682,11.682,0,0,0,30.239,62.6v89.6a25.12,25.12,0,0,0,1.572,8.756l10.849,29.13a4.02,4.02,0,0,0,.482.912,14.793,14.793,0,0,0,12.067,6.252h2.44v18.082a29.661,29.661,0,0,0-17.14,26.858v5.88a6.994,6.994,0,0,0,9.009,6.7l20.631-6.186,20.63,6.185a6.989,6.989,0,0,0,9.01-6.7v-5.88a29.449,29.449,0,0,0-8.681-20.959,29.819,29.819,0,0,0-8.459-5.907V197.251h2.44a14.762,14.762,0,0,0,12.072-6.26,3.965,3.965,0,0,0,.476-.9l10.848-29.123a24.909,24.909,0,0,0,1.584-8.763V62.6A11.61,11.61,0,0,0,98.445,50.9a3.687,3.687,0,0,1-3.766-3.691v-9.39a3.692,3.692,0,0,1,3.764-3.7,11.592,11.592,0,0,0,11.626-11.69v-7.68A14.015,14.015,0,0,0,96.069.751ZM85.45,226.89a21.494,21.494,0,0,1,6.339,15.3v4.533L71.3,240.58a4,4,0,0,0-2.3,0l-20.491,6.144v-4.533a21.639,21.639,0,0,1,36.941-15.3Zm-19.8-14V197.251h9v15.641A30.123,30.123,0,0,0,65.649,212.892Zm36.42-190.461a3.6,3.6,0,0,1-3.475,3.691,11.694,11.694,0,0,0-11.915,11.7v9.39A11.682,11.682,0,0,0,98.586,58.9a3.615,3.615,0,0,1,3.483,3.7v89.6a16.928,16.928,0,0,1-1.079,5.964l-10.648,28.59a6.762,6.762,0,0,1-5.253,2.5H55.209a6.786,6.786,0,0,1-5.255-2.5L39.31,158.172a17.136,17.136,0,0,1-1.071-5.971V62.6a3.683,3.683,0,0,1,3.773-3.69,11.61,11.61,0,0,0,11.617-11.7v-9.39a11.692,11.692,0,0,0-11.916-11.7,3.593,3.593,0,0,1-3.474-3.691v-7.68a6.006,6.006,0,0,1,6-6h51.83a6.006,6.006,0,0,1,6,6Z" fill="#5f266d"/><path d="M70.151,26.723A10.829,10.829,0,0,0,59.334,37.541V82.1a10.818,10.818,0,0,0,21.635,0V37.541A10.83,10.83,0,0,0,70.151,26.723ZM72.969,82.1a2.818,2.818,0,0,1-5.635,0V63.818h5.635Zm0-26.277H67.334V37.541a2.818,2.818,0,1,1,5.635,0Z" fill="#5f266d"/><path d="M216.761,109.249H126.574a9.011,9.011,0,0,0-9,9v10.5a9.01,9.01,0,0,0,8,8.94v93.56a24.027,24.027,0,0,0,24,24h44.195a24.027,24.027,0,0,0,24-24v-93.56a9.01,9.01,0,0,0,8-8.94v-10.5A9.01,9.01,0,0,0,216.761,109.249Zm-7,122a16.019,16.019,0,0,1-16,16H149.57a16.018,16.018,0,0,1-16-16v-93.5h76.195Zm8-102.5a1,1,0,0,1-1,1H126.574a1,1,0,0,1-1-1v-10.5a1,1,0,0,1,1-1h90.187a1,1,0,0,1,1,1Z" fill="#5f266d"/><path d="M194,184.911a4,4,0,0,0,4-4v-30a4,4,0,0,0-8,0v30A4,4,0,0,0,194,184.911Z" fill="#5f266d"/><path d="M194,203.249a4,4,0,0,0,4-4v-3.338a4,4,0,0,0-8,0v3.338A4,4,0,0,0,194,203.249Z" fill="#5f266d"/></svg>