<svg xmlns="http://www.w3.org/2000/svg" viewBox="0 0 256 256"><title>Foodies Expanded</title><rect x="34.789" y="81.51" width="18.74" height="74.38" fill="#87828e"/><rect x="202.469" y="81.51" width="18.74" height="74.38" fill="#87828e"/><path d="M247.669,66.71l-24.82-54.15a10.3,10.3,0,0,0-9.56-6.92H43.189a10.3,10.3,0,0,0-9.53,6.85L8.359,66.64c-2.68,7.13,2.28,14.87,9.53,14.87h69.45c-.1-1.13-.15-2.28-.15-3.44a40.81,40.81,0,0,1,81.62,0c0,1.16-.05,2.31-.15,3.44h69.45C245.329,81.51,250.289,73.83,247.669,66.71Z" fill="#3193f3"/><path d="M238.449,175.89v69.47a5,5,0,0,1-5,5H22.549a5,5,0,0,1-5-5V175.89a19.994,19.994,0,0,1,20-20h180.9A19.994,19.994,0,0,1,238.449,175.89Z" fill="#ffe2e2"/><path d="M32.549,175.89v69.47a5,5,0,0,0,5,5h-15a5,5,0,0,1-5-5V175.89a19.994,19.994,0,0,1,20-20h15A19.994,19.994,0,0,0,32.549,175.89Z" fill="#ffefee"/><path d="M238.449,175.89v69.47a5,5,0,0,1-5,5h-15a5,5,0,0,0,5-5V175.89a19.994,19.994,0,0,0-20-20h15A19.994,19.994,0,0,1,238.449,175.89Z" fill="#ffcfcf"/><path d="M128,37.27a40.806,40.806,0,0,0-40.81,40.8c0,1.16.05,2.31.15,3.44a40.8,40.8,0,0,0,81.32,0c.1-1.13.15-2.28.15-3.44A40.806,40.806,0,0,0,128,37.27Z" fill="#f9d335"/><path d="M33.659,12.49,8.359,66.64c-2.68,7.13,2.28,14.87,9.53,14.87h15c-7.25,0-12.21-7.74-9.53-14.87l25.3-54.15a10.3,10.3,0,0,1,9.53-6.85h-15A10.3,10.3,0,0,0,33.659,12.49Z" fill="#35b1fc"/><path d="M102.339,81.51c-.1-1.13-.15-2.28-.15-3.44A40.811,40.811,0,0,1,135.5,37.96a40.835,40.835,0,0,0-48.31,40.11c0,1.16.05,2.31.15,3.44a40.832,40.832,0,0,0,48.16,36.68A40.815,40.815,0,0,1,102.339,81.51Z" fill="#f9e27d"/><path d="M246.573,118.774a25.364,25.364,0,1,1-49.5-7.773,25.363,25.363,0,0,0,48.282,0A25.167,25.167,0,0,1,246.573,118.774Z" fill="#f2c300"/><path d="M245.35,111a25.363,25.363,0,0,1-48.282,0,25.207,25.207,0,0,1,4.236-7.938,25.359,25.359,0,0,0,39.81,0A25.207,25.207,0,0,1,245.35,111Z" fill="#f9d335"/><path d="M241.114,103.063a25.359,25.359,0,0,1-39.81,0,25.339,25.339,0,0,1,39.81,0Z" fill="#f9e27d"/><path d="M60.153,118.774A25.364,25.364,0,1,1,10.647,111a25.363,25.363,0,0,0,48.283,0A25.167,25.167,0,0,1,60.153,118.774Z" fill="#f2c300"/><path d="M58.93,111a25.363,25.363,0,0,1-48.283,0,25.23,25.23,0,0,1,4.237-7.938,25.359,25.359,0,0,0,39.81,0A25.207,25.207,0,0,1,58.93,111Z" fill="#f9d335"/><path d="M54.694,103.063a25.359,25.359,0,0,1-39.81,0,25.339,25.339,0,0,1,39.81,0Z" fill="#f9e27d"/><path d="M246.573,179.642a25.364,25.364,0,1,1-49.5-7.772,25.363,25.363,0,0,0,48.282,0A25.16,25.16,0,0,1,246.573,179.642Z" fill="#f2c300"/><path d="M245.35,171.87a25.363,25.363,0,0,1-48.282,0,25.212,25.212,0,0,1,4.236-7.939,25.359,25.359,0,0,0,39.81,0A25.212,25.212,0,0,1,245.35,171.87Z" fill="#f9d335"/><path d="M241.114,163.931a25.359,25.359,0,0,1-39.81,0,25.339,25.339,0,0,1,39.81,0Z" fill="#f9e27d"/><path d="M60.153,179.642a25.364,25.364,0,1,1-49.506-7.772,25.364,25.364,0,0,0,48.283,0A25.16,25.16,0,0,1,60.153,179.642Z" fill="#f2c300"/><path d="M58.93,171.87a25.364,25.364,0,0,1-48.283,0,25.235,25.235,0,0,1,4.237-7.939,25.359,25.359,0,0,0,39.81,0A25.212,25.212,0,0,1,58.93,171.87Z" fill="#f9d335"/><path d="M54.694,163.931a25.359,25.359,0,0,1-39.81,0,25.339,25.339,0,0,1,39.81,0Z" fill="#f9e27d"/><path d="M238.109,81.51h-15c7.22,0,12.18-7.68,9.56-14.8l-24.82-54.15a10.3,10.3,0,0,0-9.56-6.92h15a10.3,10.3,0,0,1,9.56,6.92l24.82,54.15C250.289,73.83,245.329,81.51,238.109,81.51Z" fill="#307fed"/><path d="M238.449,224.88v20.48a5,5,0,0,1-5,5H22.549a5,5,0,0,1-5-5V224.88Z" fill="#b76c6c"/><path d="M37.549,250.36h-15a5,5,0,0,1-5-5V224.88h15v20.48A5,5,0,0,0,37.549,250.36Z" fill="#c98585"/><path d="M238.449,224.88v20.48a5,5,0,0,1-5,5h-15a5,5,0,0,0,5-5V224.88Z" fill="#c98585"/><path d="M37.549,250.36h-15a5,5,0,0,1-5-5V224.88h15v20.48A5,5,0,0,0,37.549,250.36Z" fill="#c98585"/><path d="M238.449,224.88v20.48a5,5,0,0,1-5,5h-15a5,5,0,0,0,5-5V224.88Z" fill="#965959"/><path d="M250.573,118.774a29.376,29.376,0,0,0-25.364-29.09V85.51h12.9A13.937,13.937,0,0,0,249.641,79.4a15.339,15.339,0,0,0,1.782-14.066c-.035-.1-.075-.192-.118-.286L226.543,11.021A14.374,14.374,0,0,0,213.289,1.64H43.189a14.2,14.2,0,0,0-13.213,9.285L4.735,64.947q-.066.141-.12.285A15.33,15.33,0,0,0,6.33,79.354,13.931,13.931,0,0,0,17.889,85.51h12.9v4.17a29.178,29.178,0,0,0-19.054,10.906h0C-2.329,118.455,8.418,144.8,30.789,147.863v2.69c-23.478,3.188-33.85,31.913-17.24,49.335V245.36a9.01,9.01,0,0,0,9,9h210.9a9.01,9.01,0,0,0,9-9V199.9c16.515-17.322,6.38-46.149-17.24-49.353v-2.685A29.406,29.406,0,0,0,250.573,118.774Zm-9.473-7.786c-7.092,18.264-32.811,17.918-39.782,0,.2-.518.354-.887.633-1.467a29.4,29.4,0,0,0,38.516,0C240.746,110.1,240.9,110.469,241.1,110.988Zm-5.419-7.931a21.354,21.354,0,0,1-28.944,0A21.352,21.352,0,0,1,235.681,103.057Zm-29.212-9.688V85.51h10.74v4.175A29.1,29.1,0,0,0,206.469,93.369Zm6.82-83.729a6.279,6.279,0,0,1,5.808,4.306c.035.1.073.189.115.281l24.75,53.994a7.333,7.333,0,0,1-.883,6.6,6.038,6.038,0,0,1-4.97,2.692H226.622a3.952,3.952,0,0,0-.3-1.084L196.177,9.64Zm-25.888,0,30.637,67.87H193.655a3.975,3.975,0,0,0-.1-.545L174.168,9.64Zm11.068,127.688V151.89H57.529V137.331a29.326,29.326,0,0,0,0-37.127V85.51H83.823a44.8,44.8,0,0,0,88.353,0h26.293v14.709c-.1.124-.208.242-.307.367l-.007.012A29.312,29.312,0,0,0,198.469,137.328ZM165.843,9.64l19.545,67.87H172.805A44.681,44.681,0,0,0,157.168,44.1L150.99,9.64ZM132,9.64h10.863l5.078,28.327A44.136,44.136,0,0,0,132,33.457Zm32.81,68.43c0,1.041-.045,2.08-.136,3.109A36.79,36.79,0,0,1,149.312,108V92.146h.675c4.938,0,8.955-3.606,8.955-8.039V63.691a4,4,0,0,0-8,0V83.879a1.618,1.618,0,0,1-.955.267h-.675V63.691a4,4,0,0,0-8,0V84.146h-.674a1.618,1.618,0,0,1-.955-.267V63.691a4,4,0,0,0-8,0V84.107c0,4.433,4.017,8.039,8.955,8.039h.674v20.2a36.267,36.267,0,0,1-23.817.974V97.961c7.67-1.713,12.44-8.45,12.44-18.151,0-12.539-7.221-22.361-16.44-22.361S97.056,67.271,97.056,79.81c0,9.7,4.769,16.438,12.439,18.151v11.857A36.9,36.9,0,0,1,91.323,81.159c-.089-1.009-.134-2.048-.134-3.089a36.81,36.81,0,0,1,73.62,0ZM113.5,90.4c-6.976,0-8.439-5.76-8.439-10.593,0-8.463,4.447-14.361,8.439-14.361s8.44,5.9,8.44,14.361C121.935,84.643,120.471,90.4,113.5,90.4ZM113.136,9.64H124V33.457a44.064,44.064,0,0,0-15.941,4.51Zm-8.128,0L98.83,44.1A44.83,44.83,0,0,0,83.193,77.51H70.61L90.155,9.64Zm-23.178,0L62.442,76.965a3.975,3.975,0,0,0-.1.545H37.96L68.6,9.64Zm-32.3,75.87v7.869a29.427,29.427,0,0,0-10.74-3.7V85.51ZM29.673,76.426a3.952,3.952,0,0,0-.3,1.084H17.889a6.037,6.037,0,0,1-4.982-2.71,7.327,7.327,0,0,1-.851-6.622L37.283,14.184c.043-.093.082-.186.118-.281A6.282,6.282,0,0,1,43.189,9.64H59.821ZM49.248,103.06a21.355,21.355,0,0,1-28.936,0A21.327,21.327,0,0,1,49.248,103.06Zm-33.721,6.461a29.408,29.408,0,0,0,38.52-.008c.247.515.434.956.634,1.473-7.006,18.055-32.755,18.1-39.784,0C15.094,110.478,15.282,110.031,15.527,109.521Zm-1.433,14.568a29.466,29.466,0,0,0,41.389,0,21.4,21.4,0,0,1-20.668,16.051c-.009,0-.017,0-.026,0l-.022,0A21.407,21.407,0,0,1,14.094,124.089ZM49.529,144.16v7.73H44.435a29.217,29.217,0,0,0-5.646-1.338v-2.687A29.131,29.131,0,0,0,49.529,144.16ZM34.8,158.272a21.193,21.193,0,0,1,14.466,5.653,21.357,21.357,0,0,1-28.944,0A21.215,21.215,0,0,1,34.8,158.272ZM15.531,170.389a29.393,29.393,0,0,0,38.516,0c.267.556.435.962.633,1.467-7.017,18.07-32.749,18.118-39.782,0C15.1,171.353,15.264,170.945,15.531,170.389Zm-1.437,14.568a29.469,29.469,0,0,0,41.389,0C50.007,206.268,19.574,206.3,14.094,184.957Zm220.355,60.4a1,1,0,0,1-1,1H22.549a1,1,0,0,1-1-1V228.885h212.9Zm0-24.475H21.549V205.842a29.18,29.18,0,0,0,13.246,3.17c25.662,0,38.552-30.535,21.708-49.122h142.98c-16.715,18.412-4.189,49.12,21.736,49.12a29.254,29.254,0,0,0,13.23-3.146Zm7.454-35.967a21.357,21.357,0,0,1-41.383.049A29.4,29.4,0,0,0,241.9,184.918Zm-.8-13.049c-7.066,18.125-32.806,18.026-39.787-.015.206-.536.413-1.012.629-1.463a29.4,29.4,0,0,0,38.519-.009C240.7,170.87,240.911,171.367,241.105,171.869Zm-5.425-7.949a21.337,21.337,0,0,1-28.946.007,21.352,21.352,0,0,1,28.946-.007Zm-29.211-12.03v-7.733a29.133,29.133,0,0,0,10.74,3.706v2.678a28.735,28.735,0,0,0-5.594,1.349Zm14.765-11.747c-.008,0-.016,0-.025,0l-.022,0a21.407,21.407,0,0,1-20.672-16.052,29.474,29.474,0,0,0,41.389,0A21.4,21.4,0,0,1,221.234,140.143Z" fill="#5f266d"/><path d="M113.518,201.01h-3.8a4,4,0,0,0,0,8h3.8a4,4,0,1,0,0-8Z" fill="#5f266d"/><path d="M94.715,201.01h-18a4,4,0,0,0,0,8h18a4,4,0,1,0,0-8Z" fill="#5f266d"/></svg>