<svg xmlns="http://www.w3.org/2000/svg" viewBox="0 0 256 256"><title>Foodies Expanded</title><path d="M99.256,116.4H92.243V86.074H63.675V116.4H56.661a15.58,15.58,0,0,0-15.585,15.585V235.118A15.585,15.585,0,0,0,56.661,250.7h42.6a15.586,15.586,0,0,0,15.586-15.585V131.981A15.581,15.581,0,0,0,99.256,116.4Z" fill="#f9d335"/><path d="M93.8,62.353H62.116a7.792,7.792,0,0,0-7.793,7.793V82.178a3.9,3.9,0,0,0,3.9,3.9H97.7a3.9,3.9,0,0,0,3.9-3.9V70.146A7.791,7.791,0,0,0,93.8,62.353Z" fill="#796e84"/><path d="M91.748,183.306c4.79,9.923-1.812,21.886-12.812,22.523q-.485.029-.977.029t-.978-.029c-11-.637-17.6-12.6-12.812-22.523l9.287-19.238a5,5,0,0,1,9,0Z" fill="#f9e27d"/><path d="M199.339,116.4h-7.014V86.074H163.757V116.4h-7.013a15.581,15.581,0,0,0-15.586,15.585V235.118A15.586,15.586,0,0,0,156.744,250.7h42.6a15.585,15.585,0,0,0,15.585-15.585V131.981A15.58,15.58,0,0,0,199.339,116.4Z" fill="#ffe2e2"/><path d="M193.884,62.353H162.2a7.791,7.791,0,0,0-7.793,7.793V82.178a3.9,3.9,0,0,0,3.9,3.9H197.78a3.9,3.9,0,0,0,3.9-3.9V70.146A7.792,7.792,0,0,0,193.884,62.353Z" fill="#796e84"/><path d="M76.838,7.046,70.172,14.78a5,5,0,0,0-1.213,3.264V62.353H85.625V10.311A5,5,0,0,0,76.838,7.046Z" fill="#a4a4a5"/><path d="M176.921,7.046l-6.667,7.734a5,5,0,0,0-1.213,3.264V62.353h16.667V10.311A5,5,0,0,0,176.921,7.046Z" fill="#a4a4a5"/><path d="M78.67,86.072v30.32H71.66a15.582,15.582,0,0,0-15.58,15.59v103.14A15.579,15.579,0,0,0,71.66,250.7h-15a15.579,15.579,0,0,1-15.58-15.58V131.982a15.582,15.582,0,0,1,15.58-15.59h7.01V86.072Z" fill="#f9e27d"/><path d="M73.22,86.072h-15a3.9,3.9,0,0,1-3.9-3.89V70.142a7.8,7.8,0,0,1,7.8-7.79h15a7.8,7.8,0,0,0-7.8,7.79v12.04A3.9,3.9,0,0,0,73.22,86.072Z" fill="#87828e"/><path d="M178.76,86.072v30.32h-7.02a15.582,15.582,0,0,0-15.58,15.59v103.14a15.579,15.579,0,0,0,15.58,15.58h-15a15.579,15.579,0,0,1-15.58-15.58V131.982a15.582,15.582,0,0,1,15.58-15.59h7.02V86.072Z" fill="#ffefee"/><path d="M173.3,86.072h-15a3.888,3.888,0,0,1-3.89-3.89V70.142a7.787,7.787,0,0,1,7.79-7.79h15a7.787,7.787,0,0,0-7.79,7.79v12.04A3.888,3.888,0,0,0,173.3,86.072Z" fill="#87828e"/><path d="M114.84,131.982v103.14A15.579,15.579,0,0,1,99.26,250.7h-15a15.579,15.579,0,0,0,15.58-15.58V131.982a15.582,15.582,0,0,0-15.58-15.59H77.24V86.072h15v30.32h7.02A15.582,15.582,0,0,1,114.84,131.982Z" fill="#f2c300"/><path d="M214.92,131.982v103.14a15.579,15.579,0,0,1-15.58,15.58h-15a15.579,15.579,0,0,0,15.58-15.58V131.982a15.582,15.582,0,0,0-15.58-15.59h-7.01V86.072h15v30.32h7.01A15.582,15.582,0,0,1,214.92,131.982Z" fill="#ffcfcf"/><path d="M99.256,112.4H96.243V90.074H97.7a7.9,7.9,0,0,0,7.9-7.9V70.146A11.807,11.807,0,0,0,93.8,58.353H89.625V10.311A9,9,0,0,0,73.809,4.434l-6.668,7.734a9.009,9.009,0,0,0-2.183,5.876V58.353H62.116A11.807,11.807,0,0,0,50.323,70.146V82.178a7.906,7.906,0,0,0,7.9,7.9h1.455V112.4H56.661a19.607,19.607,0,0,0-19.585,19.585V235.118A19.607,19.607,0,0,0,56.661,254.7h42.6a19.608,19.608,0,0,0,19.586-19.585V131.981A19.608,19.608,0,0,0,99.256,112.4Zm-26.3-94.352a1,1,0,0,1,.243-.653l6.667-7.733a1,1,0,0,1,1.757.653V58.353H72.958ZM58.323,82.074V70.146a3.8,3.8,0,0,1,3.793-3.793H93.8a3.8,3.8,0,0,1,3.793,3.793V82.074Zm29.92,8V112.4H67.675V90.074Zm22.6,145.044A11.6,11.6,0,0,1,99.256,246.7H56.661a11.6,11.6,0,0,1-11.585-11.585V131.981A11.6,11.6,0,0,1,56.661,120.4h42.6a11.6,11.6,0,0,1,11.586,11.585Z" fill="#5f266d"/><path d="M86.063,162.329a9,9,0,0,0-16.209,0l-9.287,19.238a19.9,19.9,0,0,0,.79,18.773,19.238,19.238,0,0,0,33.2,0,19.9,19.9,0,0,0,.789-18.773Zm1.6,33.955a11.228,11.228,0,0,1-19.412,0,11.918,11.918,0,0,1-.482-11.239l9.287-19.238a1,1,0,0,1,1.8,0l9.287,19.238A11.918,11.918,0,0,1,87.665,196.284Z" fill="#5f266d"/><path d="M199.339,112.4h-3.014V90.074h1.455a7.906,7.906,0,0,0,7.9-7.9V70.146a11.807,11.807,0,0,0-11.793-11.793h-4.176V10.311a9,9,0,0,0-15.817-5.877l-6.666,7.733a9,9,0,0,0-2.183,5.877V58.353H162.2a11.807,11.807,0,0,0-11.793,11.793V82.178a7.9,7.9,0,0,0,7.9,7.9h1.455V112.4h-3.013a19.608,19.608,0,0,0-19.586,19.585V235.118A19.608,19.608,0,0,0,156.744,254.7h42.6a19.607,19.607,0,0,0,19.585-19.585V131.981A19.607,19.607,0,0,0,199.339,112.4Zm-26.3-94.352a1,1,0,0,1,.242-.653l6.666-7.733a1,1,0,0,1,1.758.653V58.353h-8.666Zm-14.636,64.03V70.146a3.8,3.8,0,0,1,3.793-3.793h31.685a3.8,3.8,0,0,1,3.793,3.793V82.074Zm29.919,8V112.4H167.757V90.074Zm22.6,145.044A11.6,11.6,0,0,1,199.339,246.7H156.744a11.6,11.6,0,0,1-11.586-11.585V131.981A11.6,11.6,0,0,1,156.744,120.4h42.6a11.6,11.6,0,0,1,11.585,11.585Z" fill="#5f266d"/><path d="M196.333,197.242a4,4,0,0,0-4,4v4.616a4,4,0,0,0,8,0v-4.616A4,4,0,0,0,196.333,197.242Z" fill="#5f266d"/><path d="M196.333,157.242a4,4,0,0,0-4,4v25a4,4,0,0,0,8,0v-25A4,4,0,0,0,196.333,157.242Z" fill="#5f266d"/></svg>