<svg xmlns="http://www.w3.org/2000/svg" viewBox="0 0 256 256"><title>Foodies Expanded</title><rect x="6.504" y="184.826" width="242.991" height="22.121" rx="10.667" ry="10.667" fill="#ffe2e2"/><circle cx="58.36" cy="160.634" r="22.741" fill="#b76c6c"/><path d="M35.619,115.152a22.741,22.741,0,0,0,45.482,0Z" fill="#f9d335"/><path d="M39.023,108.485a22.741,22.741,0,1,0,32.16-32.161Z" fill="#ff4a73"/><circle cx="128" cy="160.634" r="22.741" fill="#b76c6c"/><path d="M105.259,115.152a22.741,22.741,0,0,0,45.482,0Z" fill="#f9d335"/><path d="M108.663,108.485a22.741,22.741,0,1,0,32.16-32.161Z" fill="#ff4a73"/><circle cx="197.64" cy="160.634" r="22.741" fill="#b76c6c"/><path d="M174.9,115.152a22.741,22.741,0,0,0,45.482,0Z" fill="#f9d335"/><path d="M178.3,108.485a22.741,22.741,0,0,0,32.16-32.161Z" fill="#ff4a73"/><path d="M65.86,182.1a22.74,22.74,0,1,1,0-42.94,22.743,22.743,0,0,0,0,42.94Z" fill="#c98585"/><path d="M65.86,136.62a22.746,22.746,0,0,1-30.24-21.47h15A22.738,22.738,0,0,0,65.86,136.62Z" fill="#f9e27d"/><path d="M54.02,108.48a22.735,22.735,0,0,0,8.58,5.4,22.736,22.736,0,0,1-23.58-5.4L71.18,76.32a22.589,22.589,0,0,1,5.64,9.36Z" fill="#f973a3"/><path d="M135.5,182.1a22.74,22.74,0,1,1,0-42.94,22.743,22.743,0,0,0,0,42.94Z" fill="#c98585"/><path d="M135.5,136.62a22.746,22.746,0,0,1-30.24-21.47h15A22.738,22.738,0,0,0,135.5,136.62Z" fill="#f9e27d"/><path d="M123.66,108.48a22.735,22.735,0,0,0,8.58,5.4,22.736,22.736,0,0,1-23.58-5.4l32.16-32.16a22.589,22.589,0,0,1,5.64,9.36Z" fill="#f973a3"/><path d="M205.14,182.1a22.74,22.74,0,1,1,0-42.94,22.743,22.743,0,0,0,0,42.94Z" fill="#c98585"/><path d="M205.14,136.62a22.746,22.746,0,0,1-30.24-21.47h15A22.738,22.738,0,0,0,205.14,136.62Z" fill="#f9e27d"/><path d="M193.3,108.48a22.735,22.735,0,0,0,8.58,5.4,22.736,22.736,0,0,1-23.58-5.4l32.16-32.16a22.589,22.589,0,0,1,5.64,9.36Z" fill="#f973a3"/><path d="M238.829,180.826H215.142a26.7,26.7,0,0,0-3.455-42.933,26.744,26.744,0,0,0,12.694-22.741,4,4,0,0,0-4-4h-6.937a26.768,26.768,0,0,0-.153-37.656,4,4,0,0,0-5.656,0l-5.922,5.921V49.053a4,4,0,0,0-8,0c0,40.079-.074,37.408.133,38.232l-18.371,18.371a3.989,3.989,0,0,0-.132,5.5c-2.966,0-4.444,1.961-4.444,4a26.746,26.746,0,0,0,12.694,22.741,26.7,26.7,0,0,0-3.455,42.933H145.5a26.7,26.7,0,0,0-3.455-42.933,26.745,26.745,0,0,0,12.693-22.741,4,4,0,0,0-4-4H143.8a26.767,26.767,0,0,0-.153-37.656,4,4,0,0,0-5.656,0l-5.922,5.921V49.053a4,4,0,1,0-8,0c0,40.079-.074,37.408.133,38.232l-18.371,18.371a3.99,3.99,0,0,0-.132,5.5h-.444a4,4,0,0,0-4,4,26.745,26.745,0,0,0,12.693,22.741,26.7,26.7,0,0,0-3.455,42.933H75.862a26.7,26.7,0,0,0-3.455-42.933A26.746,26.746,0,0,0,85.1,115.152a4,4,0,0,0-4-4H74.165A26.715,26.715,0,0,0,74.011,73.5a4,4,0,0,0-5.657,0l-5.92,5.921V49.053a4,4,0,0,0-8,0c0,40.08-.074,37.409.132,38.231L36.194,105.656a3.989,3.989,0,0,0-.131,5.5h-.444a4,4,0,0,0-4,4,26.744,26.744,0,0,0,12.694,22.741,26.7,26.7,0,0,0-3.455,42.933H17.171c-7.5,0-14.667,5.722-14.667,15.454a14.684,14.684,0,0,0,14.667,14.667H238.829c7.5,0,14.667-5.722,14.667-15.455A14.683,14.683,0,0,0,238.829,180.826Zm-28.67-98.541a18.743,18.743,0,0,1-25.895,25.9Zm-30.83,36.867h36.622a18.743,18.743,0,0,1-36.622,0Zm-.43,41.482a18.741,18.741,0,1,1,18.741,18.741A18.763,18.763,0,0,1,178.9,160.634ZM140.52,82.285a18.744,18.744,0,0,1-25.9,25.9Zm-30.832,36.867h36.624a18.745,18.745,0,0,1-36.624,0Zm-.429,41.482A18.741,18.741,0,1,1,128,179.375,18.762,18.762,0,0,1,109.259,160.634ZM70.882,82.282a18.746,18.746,0,0,1-25.9,25.9Zm-30.833,36.87H76.671a18.743,18.743,0,0,1-36.622,0Zm-.43,41.482A18.741,18.741,0,1,1,58.36,179.375,18.762,18.762,0,0,1,39.619,160.634Zm199.21,42.313H17.171c-8.9,0-8.9-14.121,0-14.121H238.829C247.82,188.826,247.56,202.947,238.829,202.947Z" fill="#5f266d"/></svg>