<svg xmlns="http://www.w3.org/2000/svg" viewBox="0 0 256 256"><title>Foodies Expanded</title><path d="M217.834,240.809c-10.423-21.725-15.834-32.9-15.834-57V72.191c0-24.1,5.411-35.274,15.834-57h0A5,5,0,0,0,212.1,8.182h0a139.159,139.159,0,0,1-34.2,4.27H78.108A139.167,139.167,0,0,1,43.9,8.182h0a5,5,0,0,0-5.737,7.009h0C48.589,36.917,54,48.1,54,72.191V183.809c0,24.1-5.411,35.275-15.834,57h0a5,5,0,0,0,5.737,7.01h0a139.106,139.106,0,0,1,34.2-4.271h99.784a139.112,139.112,0,0,1,34.2,4.271,5,5,0,0,0,5.738-7.01Z" fill="#ffe2e2"/><path d="M64.99,42.8C67.65,51.32,69,60.14,69,72.19V183.81c0,24.1-5.41,35.27-15.83,57a4.891,4.891,0,0,0,.34,4.93q-4.845.87-9.61,2.08a5.017,5.017,0,0,1-6.24-4.84,4.953,4.953,0,0,1,.51-2.17c10.42-21.73,15.83-32.9,15.83-57V72.19c0-12.05-1.35-20.87-4.01-29.39S43.38,26.06,38.17,15.19a5,5,0,0,1,4.47-7.17,5.062,5.062,0,0,1,1.26.16q4.77,1.215,9.61,2.08a4.9,4.9,0,0,0-.34,4.93C58.38,26.06,62.34,34.28,64.99,42.8Z" fill="#ffefee"/><path d="M217.83,240.81a5,5,0,0,1-5.73,7.01q-4.77-1.215-9.61-2.08a4.9,4.9,0,0,0,.34-4.93c-10.42-21.73-15.83-32.9-15.83-57V72.19c0-24.1,5.41-35.27,15.83-57a4.891,4.891,0,0,0-.34-4.93q4.845-.87,9.61-2.08a5.017,5.017,0,0,1,6.24,4.84,4.953,4.953,0,0,1-.51,2.17C207.41,36.92,202,48.09,202,72.19V183.81C202,207.91,207.41,219.08,217.83,240.81Z" fill="#ffcfcf"/><circle cx="128" cy="128" r="55.437" fill="#f9d335"/><path d="M138.076,154.559s-6.52-26.606,24-36.3C162.078,118.262,169.439,150.33,138.076,154.559Z" fill="#44c7b6"/><path d="M124.261,154.559s8.189-33.417-30.147-45.589C94.114,108.97,84.868,149.248,124.261,154.559Z" fill="#44c7b6"/><path d="M135.5,182.93a54.61,54.61,0,0,1-7.5.51,55.44,55.44,0,0,1,0-110.88,54.61,54.61,0,0,1,7.5.51,55.44,55.44,0,0,0,0,109.86Z" fill="#f9e27d"/><path d="M183.44,128A55.438,55.438,0,0,1,128,183.44a54.61,54.61,0,0,1-7.5-.51,55.44,55.44,0,0,0,0-109.86,54.61,54.61,0,0,1,7.5-.51A55.438,55.438,0,0,1,183.44,128Z" fill="#f2c300"/><path d="M221.44,239.079l-.131-.272C211.116,217.56,206,206.9,206,183.809V72.191c0-23.127,5.13-33.8,15.44-55.27A9,9,0,0,0,211.113,4.3a135.244,135.244,0,0,1-33.221,4.148c-107.855,0-111.843,1.219-133-4.147A9,9,0,0,0,34.559,16.921l.131.272C44.884,38.44,50,49.105,50,72.191V183.809c0,23.086-5.116,33.751-15.31,55l-.131.272A9,9,0,0,0,44.887,251.7a135.242,135.242,0,0,1,33.22-4.148h99.785a135.291,135.291,0,0,1,33.221,4.147A9,9,0,0,0,221.44,239.08Zm-8.36,4.862a143.25,143.25,0,0,0-35.188-4.393H78.107a143.2,143.2,0,0,0-35.187,4.394c-.8.2-1.582-.5-1.017-1.674C52.282,220.632,58,208.715,58,183.809V72.191c0-24.906-5.718-36.823-16.1-58.458-.575-1.2.24-1.874,1.017-1.674,22.276,5.649,26.816,4.393,134.972,4.393a143.25,143.25,0,0,0,35.188-4.393c.8-.2,1.582.5,1.017,1.674C203.718,35.368,198,47.285,198,72.191V183.809c0,24.906,5.718,36.823,16.1,58.459l.13.271A1,1,0,0,1,213.08,243.941Z" fill="#5f266d"/><path d="M160.867,114.449c-33.7,10.7-26.75,40.76-26.676,41.062a4,4,0,0,0,4.419,3.013c10.2-1.376,17.818-5.6,22.637-12.564,8.385-12.111,4.883-27.926,4.729-28.593A4,4,0,0,0,160.867,114.449Zm-6.2,26.957c-2.873,4.15-7.293,6.98-13.171,8.442-.3-6.348,1.3-19.087,17.268-26.08C159.054,128.383,158.682,135.61,154.669,141.406Z" fill="#5f266d"/><path d="M95.325,105.157a4,4,0,0,0-5.109,2.918c-.189.82-4.493,20.256,5.784,35.1,5.883,8.5,15.211,13.661,27.727,15.349a4,4,0,0,0,4.419-3.013C128.237,155.141,136.745,118.309,95.325,105.157Zm25.586,44.757c-8.207-1.794-14.355-5.57-18.306-11.253-5.631-8.1-5.742-18.439-5.226-24.267C120.361,123.735,121.562,142.041,120.911,149.914Z" fill="#5f266d"/><path d="M128,68.563A59.438,59.438,0,1,0,187.437,128,59.5,59.5,0,0,0,128,68.563Zm0,110.875A51.438,51.438,0,1,1,179.437,128,51.5,51.5,0,0,1,128,179.438Z" fill="#5f266d"/><path d="M177.25,36.5H181a4,4,0,0,0,0-8h-3.75a4,4,0,0,0,0,8Z" fill="#5f266d"/><path d="M144.25,36.5h18a4,4,0,0,0,0-8h-18a4,4,0,0,0,0,8Z" fill="#5f266d"/></svg>