<svg xmlns="http://www.w3.org/2000/svg" viewBox="0 0 256 256"><title>Foodies Expanded</title><rect x="10.156" y="27.477" width="235.687" height="201.046" rx="10" ry="10" fill="#87828e"/><circle cx="40.752" cy="54.944" r="10.375" fill="#ff4a73"/><circle cx="78.044" cy="54.944" r="10.375" fill="#ff4a73"/><circle cx="215.248" cy="54.944" r="10.375" fill="#ff4a73"/><rect x="30.377" y="99.811" width="195.246" height="110.019" fill="#ffe2e2"/><rect x="30.38" y="99.81" width="15" height="110.02" fill="#ffefee"/><path d="M35.16,228.52h-15a9.991,9.991,0,0,1-10-10V37.48a9.991,9.991,0,0,1,10-10h15a9.991,9.991,0,0,0-10,10V218.52A9.991,9.991,0,0,0,35.16,228.52Z" fill="#a4a4a5"/><path d="M245.84,37.48V218.52a9.991,9.991,0,0,1-10,10h-15a9.991,9.991,0,0,0,10-10V37.48a9.991,9.991,0,0,0-10-10h15A9.991,9.991,0,0,1,245.84,37.48Z" fill="#796e84"/><rect x="210.62" y="99.81" width="15" height="110.02" fill="#ffcfcf"/><path d="M249.844,37.478a14.016,14.016,0,0,0-14-14H20.156a14.016,14.016,0,0,0-14,14V218.522a14.016,14.016,0,0,0,14,14H235.844a14.016,14.016,0,0,0,14-14Zm-229.688-6H235.844a6.007,6.007,0,0,1,6,6v40H14.156v-40A6.007,6.007,0,0,1,20.156,31.478ZM235.844,224.522H20.156a6.007,6.007,0,0,1-6-6V85.478H241.844V218.522A6.007,6.007,0,0,1,235.844,224.522Z" fill="#5f266d"/><path d="M40.752,69.318A14.375,14.375,0,1,0,26.377,54.943,14.391,14.391,0,0,0,40.752,69.318Zm0-20.75a6.375,6.375,0,1,1-6.375,6.375A6.382,6.382,0,0,1,40.752,48.568Z" fill="#5f266d"/><path d="M78.044,69.318A14.375,14.375,0,1,0,63.669,54.943,14.391,14.391,0,0,0,78.044,69.318Zm0-20.75a6.375,6.375,0,1,1-6.375,6.375A6.382,6.382,0,0,1,78.044,48.568Z" fill="#5f266d"/><path d="M215.248,69.318a14.375,14.375,0,1,0-14.375-14.375A14.391,14.391,0,0,0,215.248,69.318Zm0-20.75a6.375,6.375,0,1,1-6.375,6.375A6.382,6.382,0,0,1,215.248,48.568Z" fill="#5f266d"/><path d="M225.623,95.811H30.377a4,4,0,0,0-4,4V209.829a4,4,0,0,0,4,4H225.623a4,4,0,0,0,4-4V99.811A4,4,0,0,0,225.623,95.811Zm-4,110.018H34.377V103.811H221.623Z" fill="#5f266d"/><path d="M108,49.717h16a4,4,0,0,0,0-8H108a4,4,0,0,0,0,8Z" fill="#5f266d"/><path d="M108,68.171h16a4,4,0,0,0,0-8H108a4,4,0,1,0,0,8Z" fill="#5f266d"/><path d="M139.25,49.717h16a4,4,0,0,0,0-8h-16a4,4,0,0,0,0,8Z" fill="#5f266d"/><path d="M139.25,68.171h16a4,4,0,0,0,0-8h-16a4,4,0,1,0,0,8Z" fill="#5f266d"/><path d="M170.5,49.717h16a4,4,0,0,0,0-8h-16a4,4,0,0,0,0,8Z" fill="#5f266d"/><path d="M170.5,68.171h16a4,4,0,0,0,0-8h-16a4,4,0,1,0,0,8Z" fill="#5f266d"/><path d="M72.953,158.272l25.734-26.33a4,4,0,0,0-5.721-5.591l-25.734,26.33a4,4,0,1,0,5.721,5.591Z" fill="#5f266d"/><path d="M73.517,177.7a4,4,0,1,0,5.72,5.592l25.733-26.33a4,4,0,0,0-5.721-5.592Z" fill="#5f266d"/><path d="M163.034,170.124l3.367-3.445a4,4,0,1,0-5.72-5.592l-3.368,3.445a4,4,0,0,0,5.721,5.592Z" fill="#5f266d"/><path d="M176.886,155.952l11.882-12.158a4,4,0,0,0-5.721-5.592L171.165,150.36C167.47,154.14,173.2,159.723,176.886,155.952Z" fill="#5f266d"/></svg>