<svg xmlns="http://www.w3.org/2000/svg" viewBox="0 0 256 256"><title>Foodies Expanded</title><rect x="6.504" y="204.144" width="242.991" height="22.121" rx="10.667" ry="10.667" fill="#ffe2e2"/><path d="M53.67,175.75H202.33a10.288,10.288,0,0,1,10.288,10.288v18.105a0,0,0,0,1,0,0H43.381a0,0,0,0,1,0,0V186.039A10.288,10.288,0,0,1,53.67,175.75Z" fill="#ffbb98"/><path d="M54.629,147.357H201.371a10.288,10.288,0,0,1,10.288,10.288v13.213a4.892,4.892,0,0,1-4.892,4.892H49.233a4.892,4.892,0,0,1-4.892-4.892V157.645A10.288,10.288,0,0,1,54.629,147.357Z" fill="#ffbb98"/><path d="M54.629,118.963H201.371a10.288,10.288,0,0,1,10.288,10.288v13.213a4.892,4.892,0,0,1-4.892,4.892H49.233a4.892,4.892,0,0,1-4.892-4.892V129.251a10.288,10.288,0,0,1,10.288-10.288Z" fill="#ffbb98"/><path d="M54.629,90.569H201.371a10.288,10.288,0,0,1,10.288,10.288V114.07a4.892,4.892,0,0,1-4.892,4.892H49.233a4.892,4.892,0,0,1-4.892-4.892V100.857A10.288,10.288,0,0,1,54.629,90.569Z" fill="#ffbb98"/><path d="M161.4,63.528h0A12.646,12.646,0,0,1,148.75,50.882v-4.25h0a16.9,16.9,0,0,0-16.9-16.9H96.52a16.9,16.9,0,0,1,16.9,16.9h0a16.9,16.9,0,0,1-16.9,16.9H92.187A12.437,12.437,0,0,0,79.75,75.965v14.6h96.5V78.382A14.854,14.854,0,0,0,161.4,63.528Z" fill="#ffe2e2"/><path d="M128.42,46.635a16.9,16.9,0,0,1-16.9,16.89h-4.33a12.441,12.441,0,0,0-12.44,12.44v14.6h-15v-14.6a12.441,12.441,0,0,1,12.44-12.44h4.33a16.9,16.9,0,1,0,0-33.79h15A16.9,16.9,0,0,1,128.42,46.635Z" fill="#ffefee"/><path d="M176.25,78.385v12.18h-15V78.385a14.854,14.854,0,0,0-14.85-14.86,12.643,12.643,0,0,1-12.65-12.64v-4.25a16.9,16.9,0,0,0-16.9-16.9h15a16.9,16.9,0,0,1,16.9,16.9v4.25a12.643,12.643,0,0,0,12.65,12.64A14.854,14.854,0,0,1,176.25,78.385Z" fill="#ffcfcf"/><path d="M212.62,186.035v18.11h-15v-18.11a10.285,10.285,0,0,0-10.29-10.28h15A10.285,10.285,0,0,1,212.62,186.035Z" fill="#ffaa80"/><path d="M211.66,157.645v13.21a4.9,4.9,0,0,1-4.89,4.9h-15a4.9,4.9,0,0,0,4.89-4.9v-13.21a10.294,10.294,0,0,0-10.29-10.29h15A10.294,10.294,0,0,1,211.66,157.645Z" fill="#ffaa80"/><path d="M211.66,129.255v13.21a4.891,4.891,0,0,1-4.89,4.89h-15a4.891,4.891,0,0,0,4.89-4.89v-13.21a10.287,10.287,0,0,0-10.29-10.29h15A10.287,10.287,0,0,1,211.66,129.255Z" fill="#ffaa80"/><path d="M211.66,100.855v13.22a4.891,4.891,0,0,1-4.89,4.89h-15a4.891,4.891,0,0,0,4.89-4.89v-13.22a10.294,10.294,0,0,0-10.29-10.29h15A10.294,10.294,0,0,1,211.66,100.855Z" fill="#ffaa80"/><path d="M60.75,90.569h19a0,0,0,0,1,0,0V194.644a9.5,9.5,0,0,1-9.5,9.5h0a9.5,9.5,0,0,1-9.5-9.5V90.569a0,0,0,0,1,0,0Z" fill="#b76c6c"/><path d="M176.25,90.569h19a0,0,0,0,1,0,0V166.25a9.5,9.5,0,0,1-9.5,9.5h0a9.5,9.5,0,0,1-9.5-9.5V90.569a0,0,0,0,1,0,0Z" fill="#b76c6c"/><path d="M70.25,204.145H43.38v-18.11a10.285,10.285,0,0,1,10.29-10.28h7.08v18.89A9.5,9.5,0,0,0,70.25,204.145Z" fill="#ffcaa6"/><path d="M60.75,147.355v28.4H49.23a4.9,4.9,0,0,1-4.89-4.9v-13.21a10.294,10.294,0,0,1,10.29-10.29Z" fill="#ffcaa6"/><path d="M60.75,118.965v28.39H49.23a4.891,4.891,0,0,1-4.89-4.89v-13.21a10.287,10.287,0,0,1,10.29-10.29Z" fill="#ffcaa6"/><path d="M60.75,90.565v28.4H49.23a4.891,4.891,0,0,1-4.89-4.89v-13.22a10.294,10.294,0,0,1,10.29-10.29Z" fill="#ffcaa6"/><path d="M238.829,200.144H216.62V186.036a14.208,14.208,0,0,0-3.332-9.15,8.859,8.859,0,0,0,2.372-6.031v-13.21a14.2,14.2,0,0,0-2.916-8.616,8.859,8.859,0,0,0,2.916-6.564v-13.21a14.2,14.2,0,0,0-2.916-8.615,8.861,8.861,0,0,0,2.916-6.564V100.855a14.306,14.306,0,0,0-14.29-14.29H180.25V78.381A18.875,18.875,0,0,0,161.4,59.528a8.657,8.657,0,0,1-8.646-8.647v-4.25a20.92,20.92,0,0,0-20.9-20.9H96.521a4,4,0,0,0,0,8,12.9,12.9,0,0,1,0,25.793H92.187A16.456,16.456,0,0,0,75.75,75.965v10.6H54.63a14.306,14.306,0,0,0-14.29,14.29v13.221a8.861,8.861,0,0,0,2.916,6.564,14.2,14.2,0,0,0-2.916,8.615v13.21a8.859,8.859,0,0,0,2.916,6.564,14.2,14.2,0,0,0-2.916,8.616v13.21a8.859,8.859,0,0,0,2.372,6.031,14.208,14.208,0,0,0-3.332,9.15v14.108H17.171C9.67,200.144,2.5,205.87,2.5,215.6a14.683,14.683,0,0,0,14.667,14.666H238.829c7.5,0,14.667-5.722,14.667-15.454A14.683,14.683,0,0,0,238.829,200.144ZM199.25,94.565h2.12a6.3,6.3,0,0,1,6.29,6.29v13.221c0,1.152-.531.889-8.41.889Zm0,28.4h2.12a6.3,6.3,0,0,1,6.29,6.29v13.21a.891.891,0,0,1-.89.89h-7.52Zm0,43.285v-14.9h2.12a6.3,6.3,0,0,1,6.29,6.29v13.21a.9.9,0,0,1-.89.9h-8.706A13.4,13.4,0,0,0,199.25,166.25Zm-19-71.681h11V166.25a5.5,5.5,0,0,1-11,0Zm-96.5-18.6a8.447,8.447,0,0,1,8.437-8.437h4.334a20.886,20.886,0,0,0,16.431-33.793h18.9a12.91,12.91,0,0,1,12.9,12.9v4.25A16.666,16.666,0,0,0,161.4,67.528,10.866,10.866,0,0,1,172.25,78.381v8.184H83.75Zm0,18.6h88.5v20.4H83.75Zm0,28.4h88.5v20.39H83.75Zm0,28.39h88.5v14.9a13.4,13.4,0,0,0,1.186,5.5H83.75Zm0,43.289V179.755H202.33a6.293,6.293,0,0,1,6.29,6.281v14.108H82.567A13.406,13.406,0,0,0,83.75,194.644Zm-19-100.075h11V194.644a5.5,5.5,0,0,1-11,0Zm-16.41,6.286a6.3,6.3,0,0,1,6.29-6.29h2.12v20.4H49.23a.89.89,0,0,1-.89-.889Zm0,28.4a6.3,6.3,0,0,1,6.29-6.29h2.12v20.39H49.23a.891.891,0,0,1-.89-.89Zm0,28.39a6.3,6.3,0,0,1,6.29-6.29h2.12v20.4H49.23a.9.9,0,0,1-.89-.9Zm-.96,28.391a6.293,6.293,0,0,1,6.29-6.281h3.08v14.889a13.406,13.406,0,0,0,1.183,5.5H47.38Zm191.449,36.229H17.171c-8.9,0-8.9-14.121,0-14.121H238.829C247.729,208.144,247.732,222.265,238.829,222.265Z" fill="#5f266d"/><path d="M157,73.178h-4.333a4,4,0,0,0,0,8H157a4,4,0,0,0,0-8Z" fill="#5f266d"/><path d="M137.667,73.178h-12a4,4,0,0,0,0,8h12a4,4,0,0,0,0-8Z" fill="#5f266d"/></svg>