<svg xmlns="http://www.w3.org/2000/svg" viewBox="0 0 256 256"><title>Foodies Expanded</title><rect x="11.881" y="7.167" width="96.686" height="241.667" rx="10" ry="10" fill="#ffe2e2"/><path d="M130.456,143.11H239.119a5,5,0,0,1,5,5v65.439a10,10,0,0,1-10,10H135.456a10,10,0,0,1-10-10V148.11A5,5,0,0,1,130.456,143.11Z" fill="#b76c6c"/><path d="M144.426,90.5h80.723a5,5,0,0,1,5,5v47.61a0,0,0,0,1,0,0H139.426a0,0,0,0,1,0,0V95.5A5,5,0,0,1,144.426,90.5Z" fill="#87828e"/><path d="M36.88,248.83h-15a10,10,0,0,1-10-10V17.17a10,10,0,0,1,10-10h15a10,10,0,0,0-10,10V238.83A10,10,0,0,0,36.88,248.83Z" fill="#ffefee"/><path d="M150.46,223.55h-15a10,10,0,0,1-10-10V148.11a5,5,0,0,1,5-5h15a5,5,0,0,0-5,5v65.44A10,10,0,0,0,150.46,223.55Z" fill="#c98585"/><path d="M159.43,90.5a5,5,0,0,0-5,5v47.61h-15V95.5a5,5,0,0,1,5-5Z" fill="#a4a4a5"/><path d="M108.57,17.17V238.83a10,10,0,0,1-10,10h-15a10,10,0,0,0,10-10V17.17a10,10,0,0,0-10-10h15A10,10,0,0,1,108.57,17.17Z" fill="#ffcfcf"/><path d="M244.12,148.11v65.44a10,10,0,0,1-10,10h-15a10,10,0,0,0,10-10V148.11a5,5,0,0,0-5-5h15A5,5,0,0,1,244.12,148.11Z" fill="#965959"/><path d="M230.15,95.5v47.61h-15V95.5a5,5,0,0,0-5-5h15A5,5,0,0,1,230.15,95.5Z" fill="#796e84"/><path d="M98.567,3.167H21.882a14.015,14.015,0,0,0-14,14V238.833a14.015,14.015,0,0,0,14,14H98.567a14.015,14.015,0,0,0,14-14V17.167A14.015,14.015,0,0,0,98.567,3.167Zm6,235.666a6.006,6.006,0,0,1-6,6H21.882a6.006,6.006,0,0,1-6-6v-158h88.685Zm0-166H15.882V17.167a6.006,6.006,0,0,1,6-6H98.567a6.006,6.006,0,0,1,6,6Z" fill="#5f266d"/><path d="M37.187,26.625H30.253a4,4,0,0,0,0,8h2.934V50H30.253a4,4,0,0,0,0,8h6.934a4,4,0,0,0,4-4V30.625A4,4,0,0,0,37.187,26.625Z" fill="#5f266d"/><path d="M30.253,119.042a4,4,0,0,0,0,8h6.934a4,4,0,0,0,4-4V99.667a4,4,0,0,0-4-4H30.253a4,4,0,0,0,0,8h2.934v15.375Z" fill="#5f266d"/><path d="M239.118,139.11h-4.97V95.5a9.01,9.01,0,0,0-9-9H144.426a9.01,9.01,0,0,0-9,9v43.61h-4.97a9.01,9.01,0,0,0-9,9v65.44a14.015,14.015,0,0,0,14,14h16.693v17.283h-11.4a4,4,0,0,0,0,8h30.8a4,4,0,0,0,0-8h-11.4V227.55h49.276v17.283h-11.4a4,4,0,0,0,0,8h30.806a4,4,0,0,0,0-8h-11.4V227.55h16.693a14.015,14.015,0,0,0,14-14V148.11A9.01,9.01,0,0,0,239.118,139.11ZM210.47,94.5h14.678a1,1,0,0,1,1,1v43.61H210.47Zm-67.044,1a1,1,0,0,1,1-1H202.47v44.61H143.426Zm-13.97,52.61a1,1,0,0,1,1-1h50.331V165.5H129.456Zm110.662,65.44a6.007,6.007,0,0,1-6,6H135.456a6.007,6.007,0,0,1-6-6V173.5H240.118Zm0-48.05H188.787V147.11h50.331a1,1,0,0,1,1,1Z" fill="#5f266d"/><path d="M219.188,98.3h-1.676a4,4,0,0,0,0,8h1.676a4,4,0,0,0,0-8Z" fill="#5f266d"/><path d="M219.188,111.917h-1.676a4,4,0,0,0,0,8h1.676a4,4,0,0,0,0-8Z" fill="#5f266d"/><path d="M87.5,233.5a4,4,0,0,0,4-4V225a4,4,0,0,0-8,0v4.5A4,4,0,0,0,87.5,233.5Z" fill="#5f266d"/><path d="M87.5,214a4,4,0,0,0,4-4V192a4,4,0,0,0-8,0v18A4,4,0,0,0,87.5,214Z" fill="#5f266d"/><path d="M164.854,106a4,4,0,0,0-5.624.608l-8.577,10.659a4,4,0,0,0,6.233,5.015l8.577-10.658A4,4,0,0,0,164.854,106Z" fill="#5f266d"/><path d="M182.042,102.794a4,4,0,0,0-5.624.608l-8.577,10.659a4,4,0,0,0,6.232,5.015l8.577-10.658A4,4,0,0,0,182.042,102.794Z" fill="#5f266d"/><path d="M195.381,118.21a4,4,0,0,0-5.624.608l-5.548,6.894a4,4,0,1,0,6.232,5.016l5.548-6.894A4,4,0,0,0,195.381,118.21Z" fill="#5f266d"/></svg>