<svg xmlns="http://www.w3.org/2000/svg" viewBox="0 0 256 256"><title>Foodies Expanded</title><path d="M44.943,26.826v71h98.049v-71a20,20,0,0,0-20-20H64.943A20,20,0,0,0,44.943,26.826Z" fill="#f9d335"/><path d="M79.941,6.83a20,20,0,0,0-20,20v71h-15v-71a20,20,0,0,1,20-20Z" fill="#f9e27d"/><path d="M142.989,26.83v71h-15v-71a19.994,19.994,0,0,0-20-20h15A19.994,19.994,0,0,1,142.989,26.83Z" fill="#f2c300"/><rect x="8.039" y="97.827" width="171.848" height="37.361" rx="10" ry="10" fill="#87828e"/><rect x="210.211" y="97.827" width="40.25" height="37.361" rx="10" ry="10" fill="#b76c6c"/><rect x="24.712" y="135.188" width="19.5" height="94.986" fill="#87828e"/><rect x="143.712" y="135.188" width="19.5" height="94.986" fill="#87828e"/><rect x="5.539" y="230.174" width="176.848" height="19" rx="5" ry="5" fill="#87828e"/><rect x="179.886" y="108.834" width="30.325" height="15.347" fill="#a4a4a5"/><rect x="44.212" y="135.188" width="16.583" height="94.986" fill="#f9e27d"/><rect x="60.796" y="135.188" width="16.583" height="94.986" fill="#f2c300"/><rect x="77.379" y="135.188" width="16.583" height="94.986" fill="#f9e27d"/><rect x="93.962" y="135.188" width="16.583" height="94.986" fill="#f2c300"/><rect x="110.546" y="135.188" width="16.583" height="94.986" fill="#f9e27d"/><rect x="127.129" y="135.188" width="16.583" height="94.986" fill="#f2c300"/><path d="M33.04,135.19h-15a10,10,0,0,1-10-10V107.83a10,10,0,0,1,10-10h15a10,10,0,0,0-10,10v17.36A10,10,0,0,0,33.04,135.19Z" fill="#a4a4a5"/><path d="M25.54,249.17h-15a5,5,0,0,1-5-5v-9a5,5,0,0,1,5-5h15a5,5,0,0,0-5,5v9A5,5,0,0,0,25.54,249.17Z" fill="#a4a4a5"/><path d="M179.89,107.83v17.36a10,10,0,0,1-10,10h-15a10,10,0,0,0,10-10V107.83a10,10,0,0,0-10-10h15A10,10,0,0,1,179.89,107.83Z" fill="#796e84"/><path d="M182.39,235.17v9a5,5,0,0,1-5,5h-15a5,5,0,0,0,5-5v-9a5,5,0,0,0-5-5h15A5,5,0,0,1,182.39,235.17Z" fill="#796e84"/><path d="M235.21,135.19h-15a10,10,0,0,1-10-10V107.83a10,10,0,0,1,10-10h15a10,10,0,0,0-10,10v17.36A10,10,0,0,0,235.21,135.19Z" fill="#c98585"/><path d="M240.461,93.827h-20.25a14.018,14.018,0,0,0-13.669,11.007H183.556a14.018,14.018,0,0,0-13.67-11.007H146.992v-67a24.027,24.027,0,0,0-24-24H64.943a24.027,24.027,0,0,0-24,24v67h-22.9a14.015,14.015,0,0,0-14,14v17.361a14.015,14.015,0,0,0,14,14h2.673v86.987H10.539a9.01,9.01,0,0,0-9,9v9a9.01,9.01,0,0,0,9,9H177.386a9.01,9.01,0,0,0,9-9v-9a9.01,9.01,0,0,0-9-9H167.212V139.188h2.674a14.017,14.017,0,0,0,13.67-11.006h22.986a14.017,14.017,0,0,0,13.669,11.006h20.25a14.015,14.015,0,0,0,14-14V107.827A14.015,14.015,0,0,0,240.461,93.827Zm-191.518-67a16.019,16.019,0,0,1,16-16h58.049a16.019,16.019,0,0,1,16,16v67H48.943ZM28.712,139.188h11.5v86.987h-11.5Zm28.084,0v86.987H48.212V139.188Zm16.583,0v86.987H64.8V139.188Zm16.583,0v86.987H81.379V139.188Zm16.584,0v86.987H97.962V139.188Zm16.583,0v86.987h-8.583V139.188Zm16.583,0v86.987h-8.583V139.188Zm38.674,95.987v9a1,1,0,0,1-1,1H10.539a1,1,0,0,1-1-1v-9a1,1,0,0,1,1-1H177.386A1,1,0,0,1,178.386,235.175Zm-19.174-9h-11.5V139.188h11.5Zm16.674-100.987a6.006,6.006,0,0,1-6,6H18.039a6.006,6.006,0,0,1-6-6V107.827a6.007,6.007,0,0,1,6-6H169.886a6.007,6.007,0,0,1,6,6v17.361Zm8-12.354h22.325v7.348H183.886Zm62.575,12.354a6.006,6.006,0,0,1-6,6h-20.25a6.007,6.007,0,0,1-6-6V107.827a6.007,6.007,0,0,1,6-6h20.25a6.007,6.007,0,0,1,6,6Z" fill="#5f266d"/><path d="M122.768,26.828h-2.444a4,4,0,1,0,0,8h2.444a4,4,0,0,0,0-8Z" fill="#5f266d"/><path d="M105.324,26.828h-19a4,4,0,1,0,0,8h19a4,4,0,0,0,0-8Z" fill="#5f266d"/></svg>