<svg xmlns="http://www.w3.org/2000/svg" viewBox="0 0 256 256"><title>Foodies Expanded</title><circle cx="128" cy="128" r="120.5" fill="#87828e"/><circle cx="128" cy="128" r="95.263" fill="#f9d335"/><circle cx="100.985" cy="62.146" r="8.792" fill="#ff4a73"/><circle cx="193.854" cy="155.208" r="8.792" fill="#ff4a73"/><circle cx="149.963" cy="180.708" r="8.792" fill="#ff4a73"/><path d="M49.284,153.425l-2.052-7.947a3.268,3.268,0,0,1,3.246-4.085l14.049.349a3.269,3.269,0,0,1,1.667,6.03l-12,7.6A3.269,3.269,0,0,1,49.284,153.425Z" fill="#44c7b6"/><path d="M107.49,165.049l7.873,2.321a3.268,3.268,0,0,1,1.837,4.883l-7.516,11.875a3.269,3.269,0,0,1-6.03-1.666l-.356-14.2A3.269,3.269,0,0,1,107.49,165.049Z" fill="#44c7b6"/><path d="M135.5,222.97q-3.72.285-7.5.29a95.26,95.26,0,0,1,0-190.52q3.78,0,7.5.29a95.266,95.266,0,0,0,0,189.94Z" fill="#f9e27d"/><path d="M223.26,128A95.261,95.261,0,0,1,128,223.26q-3.78,0-7.5-.29a95.266,95.266,0,0,0,0-189.94q3.72-.285,7.5-.29A95.261,95.261,0,0,1,223.26,128Z" fill="#f2c300"/><path d="M128,3.5A124.5,124.5,0,1,0,252.5,128,124.642,124.642,0,0,0,128,3.5Zm0,241A116.5,116.5,0,1,1,244.5,128,116.632,116.632,0,0,1,128,244.5Z" fill="#5f266d"/><path d="M128,28.737A99.263,99.263,0,1,0,227.263,128,99.376,99.376,0,0,0,128,28.737ZM60.734,66.39,118.343,124H36.83A90.91,90.91,0,0,1,60.734,66.39ZM36.83,132h81.513L60.734,189.61A90.91,90.91,0,0,1,36.83,132ZM124,219.17a90.915,90.915,0,0,1-57.61-23.9L124,137.657Zm0-100.827L66.39,60.734A90.915,90.915,0,0,1,124,36.83ZM219.17,124H137.657l57.609-57.61A90.91,90.91,0,0,1,219.17,124ZM132,36.83a90.915,90.915,0,0,1,57.61,23.9L132,118.343Zm0,182.34V137.657l57.61,57.609A90.915,90.915,0,0,1,132,219.17Zm63.266-29.56L137.657,132H219.17A90.91,90.91,0,0,1,195.266,189.61Z" fill="#5f266d"/><path d="M100.985,74.938A12.792,12.792,0,1,0,88.193,62.146,12.807,12.807,0,0,0,100.985,74.938Zm0-17.584a4.792,4.792,0,1,1-4.792,4.792A4.8,4.8,0,0,1,100.985,57.354Z" fill="#5f266d"/><path d="M193.854,168a12.792,12.792,0,1,0-12.792-12.792A12.807,12.807,0,0,0,193.854,168Zm0-17.583a4.792,4.792,0,1,1-4.792,4.791A4.8,4.8,0,0,1,193.854,150.417Z" fill="#5f266d"/><path d="M149.963,193.5a12.792,12.792,0,1,0-12.792-12.792A12.806,12.806,0,0,0,149.963,193.5Zm0-17.583a4.792,4.792,0,1,1-4.792,4.791A4.8,4.8,0,0,1,149.963,175.917Z" fill="#5f266d"/><path d="M157.9,53.277a4,4,0,0,0-4.845-2.921c-2.035.511-3.765-1.868-3.843-1.978-2.957-4.349-9.557.088-6.635,4.47C147.986,60.96,159.447,59.516,157.9,53.277Z" fill="#5f266d"/><path d="M190.614,89.493c2.064-.345,3.615,2.147,3.684,2.261,2.6,4.506,9.548.647,6.951-3.962-1.571-2.786-5.856-7.225-11.975-6.186a4,4,0,1,0,1.34,7.887Z" fill="#5f266d"/><path d="M176.839,103.056c1.817,1.039,1.432,3.952,1.413,4.086a4,4,0,0,0,3.252,4.594,4.062,4.062,0,0,0,.7.062,4,4,0,0,0,3.934-3.308c.555-3.149.057-9.3-5.327-12.38a4,4,0,0,0-3.971,6.946Z" fill="#5f266d"/><path d="M163.746,149.648c2.74,6.115,13.185-.951,12.547-9.336a4,4,0,1,0-7.976.6c.159,2.089-2.47,3.4-2.59,3.462A4,4,0,0,0,163.746,149.648Z" fill="#5f266d"/><path d="M104.612,206.44c1.977-.691,3.922,1.517,4.01,1.619,3.345,4.055,9.509-.965,6.195-5.062-6.116-7.562-17.42-5.12-15.3.982A4,4,0,0,0,104.612,206.44Z" fill="#5f266d"/><path d="M91.715,144.849c-1.983-.676-2.156-3.612-2.163-3.744a4,4,0,0,0-8,.172c.16,9.611,10.526,14.892,12.656,8.649A4,4,0,0,0,91.715,144.849Z" fill="#5f266d"/><path d="M148.321,83.526c-2.034.509-3.764-1.868-3.843-1.978-2.959-4.348-9.558.086-6.635,4.47,5.41,8.117,16.857,6.623,15.323.429A4,4,0,0,0,148.321,83.526Z" fill="#5f266d"/><path d="M65.24,85.43c-2.033.511-3.764-1.869-3.843-1.979a4,4,0,0,0-6.635,4.47c1.513,2.27,5.09,5.592,9.846,5.592a10.6,10.6,0,0,0,2.556-.318A4,4,0,1,0,65.24,85.43Z" fill="#5f266d"/><path d="M161.823,65.75a5.574,5.574,0,1,0,5.574,5.573A5.573,5.573,0,0,0,161.823,65.75Z" fill="#5f266d"/><circle cx="111.124" cy="86.118" r="5.573" fill="#5f266d"/><circle cx="202.645" cy="109.812" r="5.573" fill="#5f266d"/><path d="M87.125,197.428a5.573,5.573,0,1,0-5.573-5.573A5.573,5.573,0,0,0,87.125,197.428Z" fill="#5f266d"/><circle cx="67.72" cy="166.343" r="5.573" transform="translate(-7.468 3.239) rotate(-2.597)" fill="#5f266d"/><path d="M53.906,103.642a5.574,5.574,0,1,0,5.574,5.574A5.574,5.574,0,0,0,53.906,103.642Z" fill="#5f266d"/><path d="M76.842,97.166a5.573,5.573,0,1,0,5.573,5.573A5.574,5.574,0,0,0,76.842,97.166Z" fill="#5f266d"/><path d="M71.452,143.073a7.231,7.231,0,0,0-6.826-5.33l-14.049-.349a7.266,7.266,0,0,0-7.219,9.085l2.053,7.946h0a7.271,7.271,0,0,0,10.927,4.323l12-7.6A7.227,7.227,0,0,0,71.452,143.073Zm-18.546,8.38-1.56-6.038,10.675.266Z" fill="#5f266d"/><path d="M113.064,186.268l7.517-11.876a7.266,7.266,0,0,0-4.087-10.859l-7.872-2.321h0a7.274,7.274,0,0,0-9.321,7.155l.356,14.2A7.272,7.272,0,0,0,113.064,186.268Zm.238-15.335-5.709,9.021-.271-10.784Z" fill="#5f266d"/><path d="M174.189,199.559c1.285-.826,2.5-1.686,3.611-2.557a4,4,0,0,0-4.933-6.3c-.917.718-1.927,1.433-3,2.125a4,4,0,0,0,4.326,6.729Z" fill="#5f266d"/><path d="M157.151,198.965a105,105,0,0,1-16.645,4.591,4,4,0,1,0,1.33,7.888,110.97,110.97,0,0,0,18.087-4.975,4,4,0,0,0-2.772-7.5Z" fill="#5f266d"/></svg>