<svg xmlns="http://www.w3.org/2000/svg" viewBox="0 0 256 256"><title>Foodies Expanded</title><path d="M246,59.51v71.87a10,10,0,0,1-10,10H188.75v-30.5H67.25v30.5H20a10,10,0,0,1-10-10V59.51a10,10,0,0,1,10-10H236A10,10,0,0,1,246,59.51Z" fill="#5fcdff"/><path d="M67.25,26.79V49.51h-18V31.79a5,5,0,0,1,5-5Z" fill="#87828e"/><path d="M206.75,31.79V49.51h-18V26.79h13A5,5,0,0,1,206.75,31.79Z" fill="#87828e"/><rect x="43.667" y="49.509" width="168.667" height="35.559" fill="#3193f3"/><path d="M67.25,110.88V240.21a10,10,0,0,0,10,10h101.5a10,10,0,0,0,10-10V110.88Z" fill="#ffe2e2"/><path d="M183.75,5.79H72.25a5,5,0,0,0-5,5V49.51h121.5V10.79A5,5,0,0,0,183.75,5.79Z" fill="#ffe2e2"/><path d="M35,49.51H20a10,10,0,0,0-10,10v71.87a10,10,0,0,0,10,10H35a10,10,0,0,1-10-10V59.51A10,10,0,0,1,35,49.51Z" fill="#73d7f9"/><path d="M82.25,240.21V110.88h-15V240.21a10,10,0,0,0,10,10h15A10,10,0,0,1,82.25,240.21Z" fill="#ffefee"/><path d="M82.25,10.79a5,5,0,0,1,5-5h-15a5,5,0,0,0-5,5V49.51h15Z" fill="#ffefee"/><path d="M236,49.51H221a10,10,0,0,1,10,10v71.87a10,10,0,0,1-10,10h15a10,10,0,0,0,10-10V59.51A10,10,0,0,0,236,49.51Z" fill="#30b6ff"/><path d="M183.75,5.79h-15a5,5,0,0,1,5,5V49.51h15V10.79A5,5,0,0,0,183.75,5.79Z" fill="#ffcfcf"/><path d="M173.75,141.38v98.83a10,10,0,0,1-10,10h15a10,10,0,0,0,10-10V110.88h-15Z" fill="#ffcfcf"/><rect x="82.217" y="198.162" width="91.566" height="16.204" rx="3.768" ry="3.768" fill="#796e84"/><path d="M128,162.175h0a35.671,35.671,0,0,1,35.671,35.671v.316a0,0,0,0,1,0,0H92.329a0,0,0,0,1,0,0v-.316A35.671,35.671,0,0,1,128,162.175Z" fill="#87828e"/><rect x="43.67" y="49.51" width="15" height="35.56" fill="#35b1fc"/><rect x="197.33" y="49.51" width="15" height="35.56" fill="#307fed"/><path d="M236,45.51c-25.645,0-25.221,0-25.25,0V31.79a9.011,9.011,0,0,0-9-9h-9v-12a9.011,9.011,0,0,0-9-9H72.25a9.011,9.011,0,0,0-9,9v12h-9a9.011,9.011,0,0,0-9,9V45.509H20a14.016,14.016,0,0,0-14,14v71.87a14.015,14.015,0,0,0,14,14H63.25v94.83a14.015,14.015,0,0,0,14,14h101.5a14.015,14.015,0,0,0,14-14V145.38H236a14.015,14.015,0,0,0,14-14V59.51A14.016,14.016,0,0,0,236,45.51Zm-188.333,8H208.333V81.068H47.667ZM201.75,30.79a1,1,0,0,1,1,1V45.509h-10V30.79Zm-130.5-20a1,1,0,0,1,1-1h111.5a1,1,0,0,1,1,1V45.509H71.25Zm-18,21a1,1,0,0,1,1-1h9V45.509h-10Zm131.5,208.42a6.006,6.006,0,0,1-6,6H77.25a6.006,6.006,0,0,1-6-6V114.88h113.5ZM242,131.38a6.007,6.007,0,0,1-6,6H192.75v-22.5h19.583a4,4,0,0,0,0-8H43.667a4,4,0,0,0,0,8H63.25v22.5H20a6.007,6.007,0,0,1-6-6V59.51a6.007,6.007,0,0,1,6-6H39.667V85.068a4,4,0,0,0,4,4H212.333a4,4,0,0,0,4-4V53.51H236a6.007,6.007,0,0,1,6,6Z" fill="#5f266d"/><circle cx="191" cy="67.288" r="5.167" fill="#5f266d"/><circle cx="171.25" cy="67.288" r="5.167" fill="#5f266d"/><circle cx="151.5" cy="67.288" r="5.167" fill="#5f266d"/><path d="M170.015,194.162h-2.521A39.737,39.737,0,0,0,132,158.376v-7.651h6.513a4,4,0,0,0,0-8H117.487a4,4,0,0,0,0,8H124v7.651a39.737,39.737,0,0,0-35.494,35.786H85.985a7.777,7.777,0,0,0-7.768,7.768V210.6a7.777,7.777,0,0,0,7.768,7.768h84.03a7.777,7.777,0,0,0,7.768-7.768V201.93A7.777,7.777,0,0,0,170.015,194.162ZM128,166.175a31.718,31.718,0,0,1,31.458,27.987H96.542A31.718,31.718,0,0,1,128,166.175Zm41.783,44.19H86.217v-8.2h83.566Z" fill="#5f266d"/><path d="M173.783,124h-.616a4,4,0,0,0,0,8h.616a4,4,0,1,0,0-8Z" fill="#5f266d"/><path d="M142.167,132h16a4,4,0,1,0,0-8h-16a4,4,0,0,0,0,8Z" fill="#5f266d"/></svg>