<svg xmlns="http://www.w3.org/2000/svg" viewBox="0 0 256 256"><title>Foodies Expanded</title><path d="M115.128,152.89v14.95H82.468V152.89a41.821,41.821,0,0,0,32.66,0Z" fill="#ffbb98"/><path d="M105.578,79.93H92.018c-.76,0-22.35,14.47-35.26,23.17v11.07a42.2,42.2,0,0,0,25.71,38.72,41.821,41.821,0,0,0,32.66,0,42.2,42.2,0,0,0,25.71-38.72V103.39C128.148,94.73,106.348,79.93,105.578,79.93Z" fill="#ffbb98"/><path d="M140.838,79.93v23.46c-12.69-8.66-34.49-23.46-35.26-23.46Z" fill="#b76c6c"/><path d="M140.835,16.056a22.553,22.553,0,0,0-16.062,6.694,28.026,28.026,0,0,0-51.949,0A22.623,22.623,0,1,0,56.762,61.3V79.935h84.073V61.3a22.624,22.624,0,0,0,0-45.247Z" fill="#ffe2e2"/><path d="M92.018,79.93c-.76,0-22.35,14.47-35.26,23.17V79.93Z" fill="#b76c6c"/><path d="M203.648,173.13a15.731,15.731,0,0,0,7.88,26.52v23.21h-24.98V160.22a4.308,4.308,0,0,1,4.3-4.31h16.37a4.31,4.31,0,0,1,4.31,4.31v8.64A15.6,15.6,0,0,0,203.648,173.13Z" fill="#87828e"/><path d="M210.029,120.427H188.04A4.308,4.308,0,0,1,184.163,118l-7.525-15.56a4.319,4.319,0,0,1-.429-1.875V64.611a4.306,4.306,0,0,1,4.307-4.306h37.038a4.306,4.306,0,0,1,4.306,4.306V100.56a4.3,4.3,0,0,1-.429,1.875L213.906,118A4.306,4.306,0,0,1,210.029,120.427Z" fill="#87828e"/><path d="M217.128,168.52h-2.36a15.76,15.76,0,0,0-3.24.34,15.733,15.733,0,0,0,0,30.79,15.76,15.76,0,0,0,3.24.34h2.36a4.308,4.308,0,0,0,4.3-4.31V172.83A4.308,4.308,0,0,0,217.128,168.52Z" fill="#ffbb98"/><path d="M199.038,222.86h-12.49v15.4a12.49,12.49,0,1,0,24.98,0v-15.4Z" fill="#796e84"/><path d="M199.038,250.75H43.458a8.418,8.418,0,0,1-8.41-8.42v-.81a63.621,63.621,0,0,1,24.11-49.94c.99-.79,2-1.54,3.04-2.27a64.574,64.574,0,0,1,9.62-5.57v-15.9h53.96v15.9a65.185,65.185,0,0,1,9.63,5.57c1.03.73,2.05,1.48,3.03,2.27a62.575,62.575,0,0,1,5.44,4.85,63.688,63.688,0,0,1,15.89,26.43h26.78v15.4A12.487,12.487,0,0,0,199.038,250.75Z" fill="#ffe2e2"/><path d="M49.138,38.68a22.629,22.629,0,0,1,15.12-21.34,22.62,22.62,0,1,0-7.5,43.96V79.93h15V61.3A22.623,22.623,0,0,1,49.138,38.68Z" fill="#ffefee"/><path d="M86.818,167.84v15.9a64.574,64.574,0,0,0-9.62,5.57c-1.04.73-2.05,1.48-3.04,2.27a63.621,63.621,0,0,0-24.11,49.94v.81a8.418,8.418,0,0,0,8.41,8.42h-15a8.418,8.418,0,0,1-8.41-8.42v-.81a63.621,63.621,0,0,1,24.11-49.94c.99-.79,2-1.54,3.04-2.27a64.574,64.574,0,0,1,9.62-5.57v-15.9Z" fill="#ffefee"/><path d="M140.838,16.06a22.357,22.357,0,0,0-7.49,1.28,22.622,22.622,0,0,1-7.51,43.96V79.93h15V61.3a22.62,22.62,0,1,0,0-45.24Z" fill="#ffcfcf"/><path d="M143.878,196.43a63.688,63.688,0,0,1,15.89,26.43h-15a63.688,63.688,0,0,0-15.89-26.43,62.575,62.575,0,0,0-5.44-4.85c-.98-.79-2-1.54-3.03-2.27a65.185,65.185,0,0,0-9.63-5.57v-15.9h15v15.9a65.185,65.185,0,0,1,9.63,5.57c1.03.73,2.05,1.48,3.03,2.27A62.575,62.575,0,0,1,143.878,196.43Z" fill="#ffcfcf"/><path d="M199.038,250.75h-15a12.487,12.487,0,0,1-12.49-12.49v-15.4h15v15.4A12.487,12.487,0,0,0,199.038,250.75Z" fill="#ffcfcf"/><path d="M97.468,152.89a41.13,41.13,0,0,0,8.83,2.64,41.784,41.784,0,0,1-23.83-2.64,42.2,42.2,0,0,1-25.71-38.72V103.1c12.91-8.7,34.5-23.17,35.26-23.17h13.56a2.784,2.784,0,0,1,.72.36c-3.94,2.26-22.82,14.91-34.54,22.81v11.07A42.2,42.2,0,0,0,97.468,152.89Z" fill="#ffcaa6"/><path d="M140.838,103.39v10.78a42.2,42.2,0,0,1-25.71,38.72,41.784,41.784,0,0,1-23.83,2.64,41.13,41.13,0,0,0,8.83-2.64,42.2,42.2,0,0,0,25.71-38.72V103.39c-11.53-7.87-30.58-20.81-34.54-23.1a2.784,2.784,0,0,1,.72-.36h13.56C106.348,79.93,128.148,94.73,140.838,103.39Z" fill="#ffaa80"/><path d="M205.848,155.91a4.308,4.308,0,0,0-4.3,4.31v15.51a15.732,15.732,0,0,0,0,17.05v30.08h-15V160.22a4.308,4.308,0,0,1,4.3-4.31Z" fill="#a4a4a5"/><path d="M203.038,120.43h-15a4.3,4.3,0,0,1-3.87-2.43l-7.53-15.57a4.307,4.307,0,0,1-.43-1.87V64.61a4.31,4.31,0,0,1,4.31-4.31h15a4.31,4.31,0,0,0-4.31,4.31v35.95a4.307,4.307,0,0,0,.43,1.87l7.53,15.57A4.3,4.3,0,0,0,203.038,120.43Z" fill="#a4a4a5"/><path d="M206.538,248.25a12.493,12.493,0,0,1-19.99-9.99v-15.4h15v15.4A12.481,12.481,0,0,0,206.538,248.25Z" fill="#87828e"/><path d="M210.029,124.427a8.351,8.351,0,0,0,7.477-4.69l7.528-15.564a8.364,8.364,0,0,0,.827-3.613V64.611a8.316,8.316,0,0,0-8.307-8.306H180.515a8.316,8.316,0,0,0-8.307,8.306V100.56a8.369,8.369,0,0,0,.83,3.617l7.524,15.559a8.353,8.353,0,0,0,7.479,4.691h6.994V151.91h-4.187a8.315,8.315,0,0,0-8.3,8.31v58.64H162.66a67.822,67.822,0,0,0-32.882-37.607V167.84a4,4,0,0,0-4-4h-6.65v-8.4a46.028,46.028,0,0,0,25.709-41.274c0-23.413,0-43.207,0-49.167a26.625,26.625,0,1,0-18.745-48.5,32.039,32.039,0,0,0-54.581,0A26.627,26.627,0,1,0,52.762,65s0,16.224,0,49.167a46.027,46.027,0,0,0,25.71,41.274v8.4h-6.65a4,4,0,0,0-4,4v13.413c-21.848,11.269-36.77,33.59-36.77,61.077a12.429,12.429,0,0,0,12.41,12.42h155.58a16.509,16.509,0,0,0,16.49-16.49V203.99h1.6a8.314,8.314,0,0,0,8.3-8.31V172.83a8.314,8.314,0,0,0-8.3-8.31h-1.6v-4.3a8.32,8.32,0,0,0-8.31-8.31h-4.183V124.427ZM119.275,83.935h17.562V95.821C131.606,92.258,124.513,87.437,119.275,83.935ZM60.758,95.584V83.935H78.186C72.9,87.427,66.039,92.032,60.758,95.584ZM38.139,38.68A18.622,18.622,0,0,1,69.984,25.567a4,4,0,0,0,6.546-1.313,24.027,24.027,0,0,1,44.537,0,4,4,0,0,0,6.546,1.313A18.623,18.623,0,1,1,140.834,57.3a4,4,0,0,0-4,4V75.93H60.762V61.3a4,4,0,0,0-4-4A18.645,18.645,0,0,1,38.139,38.68Zm22.619,75.49v-8.941q5.64-3.8,10.194-6.845l.112-.076C74.7,95.875,89.218,86.166,92.973,83.935h11.638c5.02,3.019,27.417,18.29,32.226,21.569v8.666a38.04,38.04,0,0,1-76.079,0Zm25.71,44.357a46.279,46.279,0,0,0,24.66,0v5.313H86.468Zm-47.42,83.8c0-25.4,14.281-45.474,34.473-54.97a4,4,0,0,0,2.3-3.62v-11.9h45.96v7.905h-18.8A24.183,24.183,0,0,0,78.819,203.9V246.75H43.458A4.42,4.42,0,0,1,39.048,242.33Zm47.771,4.42V203.9a16.175,16.175,0,0,1,16.157-16.156H124.85a59.732,59.732,0,0,1,31.092,36.282,4,4,0,0,0,3.826,2.833h22.779c0,11.91-.6,14.98,2.359,19.89Zm120.709-8.49a8.491,8.491,0,0,1-16.981,0v-11.4h16.981Zm9.9-65.43v22.85a.309.309,0,0,1-.3.31,20.491,20.491,0,0,1-4.782-.256,11.766,11.766,0,0,1-9.307-11.484,11.625,11.625,0,0,1,3.445-8.3c3.818-3.837,8.069-3.432,10.644-3.432A.309.309,0,0,1,217.428,172.83Zm-9.9-12.61v5.672c-16.413,6.446-16.79,30.09,0,36.72V218.86H190.547V160.22a.31.31,0,0,1,.3-.31h8.138c.017,0,.032,0,.049,0s.032,0,.048,0h8.135A.31.31,0,0,1,207.528,160.22Zm-19.764-43.966L180.241,100.7a.307.307,0,0,1-.033-.137V64.611a.307.307,0,0,1,.307-.306h37.039a.307.307,0,0,1,.307.306V100.56a.316.316,0,0,1-.03.133L210.3,116.255a.3.3,0,0,1-.275.172H188.041A.305.305,0,0,1,187.764,116.254Z" fill="#5f266d"/><circle cx="78.097" cy="109.165" r="5.632" transform="translate(-52.645 139.542) rotate(-67.5)" fill="#5f266d"/><circle cx="119.5" cy="109.165" r="5.632" fill="#5f266d"/><path d="M97.11,66.31h10a4,4,0,1,0,0-8h-10a4,4,0,0,0,0,8Z" fill="#5f266d"/><path d="M122.11,66.31H127.1a4,4,0,0,0,0-8H122.11a4,4,0,0,0,0,8Z" fill="#5f266d"/><path d="M95.932,131.316c.013.014.029.023.043.036s.02.027.033.04a4.04,4.04,0,0,0,5.656-.076l1.318-1.353c2.258,1.893,5.895,3.611,11.659,3.611a4,4,0,0,0,0-8c-4.529,0-6.391-1.456-7.1-2.324a5.927,5.927,0,0,0-4.326-2.184A5.865,5.865,0,0,0,98.8,122.8a5.843,5.843,0,0,0-4.42-1.73,5.925,5.925,0,0,0-4.325,2.184c-.707.868-2.569,2.324-7.1,2.324a4,4,0,1,0,0,8c5.763,0,9.4-1.718,11.659-3.611Z" fill="#5f266d"/><circle cx="102.407" cy="209.296" r="5.04" transform="translate(-45.347 29.127) rotate(-13.283)" fill="#5f266d"/><circle cx="102.407" cy="230.776" r="5.04" transform="translate(-50.282 29.702) rotate(-13.283)" fill="#5f266d"/><path d="M190.852,70.431a4,4,0,0,0-4,4v26.7a4,4,0,1,0,8,0v-26.7A4,4,0,0,0,190.852,70.431Z" fill="#5f266d"/><path d="M211.217,101.133v-26.7a4,4,0,0,0-8,0v26.7a4,4,0,1,0,8,0Z" fill="#5f266d"/></svg>