<svg xmlns="http://www.w3.org/2000/svg" viewBox="0 0 256 256"><title>Foodies Expanded</title><path d="M150.935,16.056a22.549,22.549,0,0,0-16.061,6.694,28.027,28.027,0,0,0-51.95,0A22.623,22.623,0,1,0,66.862,61.3V79.935h84.073V61.3a22.624,22.624,0,0,0,0-45.247Z" fill="#ffe2e2"/><path d="M92.571,152.89v14.95H81.921v8.66c-30.2,16.46-51.11,2.92-61-6.79a3.561,3.561,0,0,1,2.53-6.11c27.1.73,45.38-35.24,45.38-35.24l.25-.75A42.351,42.351,0,0,0,92.571,152.89Z" fill="#b76c6c"/><path d="M138.821,79.93l-1.62.6-70.34,22.86v10.78a41.629,41.629,0,0,0,2.22,13.44,42.351,42.351,0,0,0,23.49,25.28,41.663,41.663,0,0,0,15.56,3.31c.26.01.51.01.77.01a41.617,41.617,0,0,0,16.33-3.32,42.187,42.187,0,0,0,25.7-38.72V79.93Z" fill="#ffbb98"/><path d="M125.231,152.89v14.95H92.571V152.89a41.663,41.663,0,0,0,15.56,3.31c.26.01.51.01.77.01A41.617,41.617,0,0,0,125.231,152.89Z" fill="#ffbb98"/><polygon points="138.821 79.93 137.201 80.53 66.861 103.39 66.861 79.93 138.821 79.93" fill="#b76c6c"/><path d="M208.631,250.75H53.561a8.412,8.412,0,0,1-8.41-8.42v-.81a63.643,63.643,0,0,1,24.1-49.94c1-.79,2.01-1.54,3.04-2.27a65.185,65.185,0,0,1,9.63-5.57v-15.9h53.96v15.9a64.574,64.574,0,0,1,9.62,5.57c1.04.73,2.06,1.48,3.04,2.27a63.776,63.776,0,0,1,21.33,31.28h26.27v15.4A12.494,12.494,0,0,0,208.631,250.75Z" fill="#ffe2e2"/><path d="M213.241,173.13a15.731,15.731,0,0,0,7.88,26.52v23.21h-24.98V160.22a4.31,4.31,0,0,1,4.31-4.31h16.37a4.3,4.3,0,0,1,4.3,4.31v8.64A15.6,15.6,0,0,0,213.241,173.13Z" fill="#87828e"/><path d="M226.721,168.52h-2.35a15.784,15.784,0,0,0-3.25.34,15.733,15.733,0,0,0,0,30.79,15.784,15.784,0,0,0,3.25.34h2.35a4.31,4.31,0,0,0,4.31-4.31V172.83A4.31,4.31,0,0,0,226.721,168.52Z" fill="#ffbb98"/><path d="M208.631,222.86h-12.49v15.4a12.49,12.49,0,0,0,24.98,0v-15.4Z" fill="#796e84"/><path d="M59.241,38.68a22.616,22.616,0,0,1,15.12-21.34,22.62,22.62,0,1,0-7.5,43.96V79.93h15V61.3A22.623,22.623,0,0,1,59.241,38.68Z" fill="#ffefee"/><path d="M96.921,167.84v15.9a65.185,65.185,0,0,0-9.63,5.57c-1.03.73-2.04,1.48-3.04,2.27a63.643,63.643,0,0,0-24.1,49.94v.81a8.412,8.412,0,0,0,8.41,8.42h-15a8.412,8.412,0,0,1-8.41-8.42v-.81a63.643,63.643,0,0,1,24.1-49.94c1-.79,2.01-1.54,3.04-2.27a65.185,65.185,0,0,1,9.63-5.57v-15.9Z" fill="#ffefee"/><path d="M150.931,16.06a22.357,22.357,0,0,0-7.49,1.28,22.62,22.62,0,0,1-7.51,43.96V79.93h15V61.3a22.62,22.62,0,1,0,0-45.24Z" fill="#ffcfcf"/><path d="M153.981,196.43a63.793,63.793,0,0,1,15.89,26.43h-15a63.776,63.776,0,0,0-21.33-31.28c-.98-.79-2-1.54-3.04-2.27a64.574,64.574,0,0,0-9.62-5.57v-15.9h15v15.9a64.574,64.574,0,0,1,9.62,5.57c1.04.73,2.06,1.48,3.04,2.27A64.078,64.078,0,0,1,153.981,196.43Z" fill="#ffcfcf"/><path d="M208.631,250.75h-15a12.494,12.494,0,0,1-12.49-12.49v-15.4h15v15.4A12.494,12.494,0,0,0,208.631,250.75Z" fill="#ffcfcf"/><path d="M81.861,103.39v10.78a41.629,41.629,0,0,0,2.22,13.44,42.351,42.351,0,0,0,23.49,25.28,41.3,41.3,0,0,0,8.85,2.64,41.489,41.489,0,0,1-7.52.68c-.26,0-.51,0-.77-.01a41.663,41.663,0,0,1-15.56-3.31,42.351,42.351,0,0,1-23.49-25.28,41.629,41.629,0,0,1-2.22-13.44V103.39L137.2,80.53l1.62-.6h12.11v1.01Z" fill="#ffcaa6"/><path d="M150.931,79.93v34.24a42.187,42.187,0,0,1-25.7,38.72,41.617,41.617,0,0,1-16.33,3.32c-.26,0-.51,0-.77-.01a41.239,41.239,0,0,1-6.71-.67,41.7,41.7,0,0,0,8.81-2.64,42.187,42.187,0,0,0,25.7-38.72V80.94l1.27-.41,1.62-.6Z" fill="#ffaa80"/><path d="M215.451,155.91a4.31,4.31,0,0,0-4.31,4.31v15.51a15.732,15.732,0,0,0,0,17.05v30.08h-15V160.22a4.31,4.31,0,0,1,4.31-4.31Z" fill="#a4a4a5"/><path d="M216.131,248.25a12.493,12.493,0,0,1-19.99-9.99v-15.4h15v15.4A12.481,12.481,0,0,0,216.131,248.25Z" fill="#87828e"/><circle cx="88.197" cy="109.165" r="5.632" transform="translate(-22.722 23.184) rotate(-13.282)" fill="#5f266d"/><circle cx="129.6" cy="109.165" r="5.632" transform="translate(-21.614 32.696) rotate(-13.282)" fill="#5f266d"/><path d="M107.21,66.31h10a4,4,0,0,0,0-8h-10a4,4,0,1,0,0,8Z" fill="#5f266d"/><path d="M132.21,66.31H137.2a4,4,0,0,0,0-8H132.21a4,4,0,0,0,0,8Z" fill="#5f266d"/><circle cx="112.507" cy="209.296" r="5.04" transform="translate(-45.076 31.448) rotate(-13.282)" fill="#5f266d"/><circle cx="112.507" cy="230.776" r="5.04" transform="translate(-130.231 147.147) rotate(-45)" fill="#5f266d"/><path d="M117.071,119.914a4,4,0,0,0-4,4,4.172,4.172,0,0,1-8.344,0,4,4,0,0,0-8,0,12.172,12.172,0,1,0,24.344,0A4,4,0,0,0,117.071,119.914Z" fill="#5f266d"/><path d="M234.941,53.488a28.884,28.884,0,0,0-20.032-12.366c-.048-.01-.1-.013-.147-.021a55.842,55.842,0,0,0-12.24,0c-.057.01-.117.013-.174.025a28.879,28.879,0,0,0-20.019,12.364,31.507,31.507,0,0,0-2.893,29.317c2.42,6.146,1.511,2.483,10.05,20.945,2.781,6.016,14.121,24.141,15.381,26.423V151.91h-4.416a8.32,8.32,0,0,0-8.31,8.31v58.64h-19.38a67.809,67.809,0,0,0-32.88-37.607V167.84a4,4,0,0,0-4-4h-6.649v-8.4a46.022,46.022,0,0,0,25.7-41.273v-34.2c0-.013,0-.025,0-.038V65A26.625,26.625,0,1,0,136.19,16.5a32.04,32.04,0,0,0-54.582,0A26.627,26.627,0,1,0,62.863,65V114.17a45.6,45.6,0,0,0,1.952,13.216C56.5,142.5,41,160.07,23.551,159.6a7.4,7.4,0,0,0-7.1,4.595,7.537,7.537,0,0,0,1.666,8.367c7.016,6.888,19.314,15.707,36.284,15.706a54.228,54.228,0,0,0,16.017-2.52C52.33,198.2,41.152,218.476,41.152,242.33a12.428,12.428,0,0,0,12.409,12.42h155.07a16.508,16.508,0,0,0,16.49-16.49V203.99h1.6a8.32,8.32,0,0,0,8.31-8.31V172.83a8.32,8.32,0,0,0-8.31-8.31h-1.6v-4.3a8.314,8.314,0,0,0-8.3-8.31h-3.954V130.078c.375-.681,1.673-2.89,2.944-5.051,17.282-29.395,10.155-19.19,19.561-36.869a40.923,40.923,0,0,0,2.462-5.354A31.5,31.5,0,0,0,234.941,53.488Zm-88.01,60.682a38.041,38.041,0,0,1-74.062,12.155l0-.005a37.614,37.614,0,0,1-2.005-12.15V106.3l67.576-21.962c.051-.016.1-.034.153-.053l.936-.346h7.4Zm-25.7,44.357v5.313H96.571v-5.315A46.164,46.164,0,0,0,121.232,158.527ZM70.862,97.884V83.935h42.922L82.853,93.987ZM48.239,38.68A18.622,18.622,0,0,1,80.084,25.567a4,4,0,0,0,6.547-1.314,24.027,24.027,0,0,1,44.537,0,4,4,0,0,0,6.546,1.313A18.623,18.623,0,1,1,150.935,57.3a4,4,0,0,0-4,4V75.93H70.863V61.3a4,4,0,0,0-4-4A18.645,18.645,0,0,1,48.239,38.68ZM24.507,167.61c21.55-.144,37.349-20.411,44.177-31.081a46.512,46.512,0,0,0,19.887,18.924v8.387h-6.65a4,4,0,0,0-4,4v6.243C53.05,186.651,35.306,177.82,24.507,167.61ZM88.919,203.9V246.75H53.561a4.419,4.419,0,0,1-4.409-4.42c0-25.005,13.833-45.261,34.471-54.97a4,4,0,0,0,2.3-3.62v-11.9h45.96v7.905H113.076A24.184,24.184,0,0,0,88.919,203.9Zm8,42.849V203.9a16.175,16.175,0,0,1,16.157-16.156h21.878a59.741,59.741,0,0,1,31.092,36.285,4,4,0,0,0,3.825,2.83h22.27v11.4a16.637,16.637,0,0,0,2.357,8.49ZM188.959,84.4a33.263,33.263,0,0,1-2.078-4.522,23.511,23.511,0,0,1,2.061-21.883,20.643,20.643,0,0,1,6.632-6.209,30.487,30.487,0,0,0-4.449,25.577L195.9,98.572C191.711,89.568,190.005,86.36,188.959,84.4Zm9.955-8.865c-.01-.049-.022-.1-.035-.145-1.969-7.436-.076-16.6,5.988-22v48.581ZM217.121,238.26a8.49,8.49,0,0,1-16.98,0v-11.4h16.98Zm7.25-65.74h2.35a.31.31,0,0,1,.31.31v22.85a.31.31,0,0,1-.31.31,20.335,20.335,0,0,1-4.776-.255C208.458,192.9,210.129,172.52,224.371,172.52Zm-7.55-12.61a.3.3,0,0,1,.3.31v5.673a20.247,20.247,0,0,0-6.7,4.4,19.567,19.567,0,0,0-5.787,13.954,19.928,19.928,0,0,0,12.49,18.358V218.86h-16.98V160.22a.31.31,0,0,1,.31-.31Zm1.571-84.523c-.013.048-.025.1-.035.145L212.867,99.9V53.823C218.557,59.27,220.309,68.146,218.392,75.387Zm12,4.488A33.056,33.056,0,0,1,228.31,84.4c-1.045,1.965-2.752,5.174-6.943,14.175l4.779-21.214A30.492,30.492,0,0,0,221.7,51.787a20.643,20.643,0,0,1,6.626,6.2A23.511,23.511,0,0,1,230.389,79.875Z" fill="#5f266d"/></svg>