<svg xmlns="http://www.w3.org/2000/svg" viewBox="0 0 256 256"><title>Foodies Expanded</title><rect x="109.67" y="37.59" width="36.66" height="38.91" fill="#ffe2e2"/><rect x="80.67" y="76.5" width="94.66" height="172.35" rx="20" ry="20" fill="#ffe2e2"/><rect x="109.67" y="37.59" width="15" height="38.91" fill="#ffefee"/><path d="M95.67,228.85V96.5a19.994,19.994,0,0,1,20-20h-15a19.994,19.994,0,0,0-20,20V228.85a20,20,0,0,0,20,20h15A20,20,0,0,1,95.67,228.85Z" fill="#ffefee"/><path d="M175.33,96.5V228.85a20,20,0,0,1-20,20h-15a20,20,0,0,0,20-20V96.5a19.994,19.994,0,0,0-20-20h15A19.994,19.994,0,0,1,175.33,96.5Z" fill="#ffcfcf"/><path d="M148.33,7.15H107.67a10,10,0,0,0-10,10V32.59a5,5,0,0,0,5,5h50.66a5,5,0,0,0,5-5V17.15A10,10,0,0,0,148.33,7.15Z" fill="#87828e"/><path d="M117.67,37.59h-15a5,5,0,0,1-5-5V17.15a10,10,0,0,1,10-10h15a10,10,0,0,0-10,10V32.59A5,5,0,0,0,117.67,37.59Z" fill="#a4a4a5"/><rect x="80.67" y="108.29" width="94.66" height="108.77" fill="#f9d335"/><polygon points="80.67 108.29 80.67 217.06 95.67 217.06 95.67 164.06 95.67 148.2 95.67 108.29 80.67 108.29" fill="#f9e27d"/><path d="M158.33,17.15V32.59a5,5,0,0,1-5,5h-15a5,5,0,0,0,5-5V17.15a10,10,0,0,0-10-10h15A10,10,0,0,1,158.33,17.15Z" fill="#796e84"/><rect x="160.33" y="108.29" width="15" height="108.77" fill="#f2c300"/><rect x="160.33" y="108.29" width="15" height="108.77" fill="#f2c300"/><polygon points="147.498 125.587 108.767 125.587 90.03 157.94 90.027 157.941 128.546 199.754 165.973 157.941 147.498 125.587" fill="#5fcdff"/><polygon points="105.03 157.94 123.77 125.59 108.77 125.59 95.67 148.2 90.03 157.94 95.67 164.06 128.55 199.75 135.94 191.49 105.03 157.94" fill="#73d7f9"/><path d="M155.33,72.5h-5V41.59h3a9.011,9.011,0,0,0,9-9V17.15a14.015,14.015,0,0,0-14-14H107.67a14.015,14.015,0,0,0-14,14V32.59a9.011,9.011,0,0,0,9,9h3V72.5h-5a24.028,24.028,0,0,0-24,24V228.85a24.027,24.027,0,0,0,24,24h54.66a24.027,24.027,0,0,0,24-24V96.5A24.028,24.028,0,0,0,155.33,72.5ZM101.67,32.59V17.15a6.006,6.006,0,0,1,6-6h40.66a6.006,6.006,0,0,1,6,6V32.59a1,1,0,0,1-1,1H102.67A1,1,0,0,1,101.67,32.59Zm12,9h28.66V72.5H113.67Zm-13,38.91h54.66a16.019,16.019,0,0,1,16,16v7.79H84.67V96.5A16.019,16.019,0,0,1,100.67,80.5Zm70.66,132.56H84.67V112.29h86.66Zm-16,31.79H100.67a16.019,16.019,0,0,1-16-16v-7.79h86.66v7.79A16.019,16.019,0,0,1,155.33,244.85Z" fill="#5f266d"/><path d="M87.085,160.651,125.6,202.464a4,4,0,0,0,5.923-.042l37.426-41.813a4,4,0,0,0,.493-4.651L150.971,123.6a4,4,0,0,0-3.473-2.017H108.767a4,4,0,0,0-3.462,2L86.632,155.826A4.034,4.034,0,0,0,87.085,160.651Zm23.126,1.289,7.493,20.14L99.15,161.94Zm46.814,0-18.2,20.331,7.033-20.331Zm-19.63,0-8.985,25.974-9.663-25.974Zm-18.389-8,9-21.452,9,21.452Zm40.076,0H145.671L135.46,129.587h9.715Zm-48.01-24.353h9.47L110.331,153.94H96.969Z" fill="#5f266d"/><path d="M62.449,153.941H39.115a4,4,0,0,0,0,8H62.449a4,4,0,0,0,0-8Z" fill="#5f266d"/><path d="M37.121,126.879c25.3,14.551,23.842,13.952,25.324,13.952a4,4,0,0,0,2-7.468L41.109,119.944a4,4,0,0,0-3.988,6.935Z" fill="#5f266d"/><path d="M60.455,175.585,37.121,189a4,4,0,1,0,3.988,6.934L64.443,182.52a4,4,0,0,0-3.988-6.935Z" fill="#5f266d"/><path d="M193.551,161.941h23.334a4,4,0,0,0,0-8H193.551a4,4,0,0,0,0,8Z" fill="#5f266d"/><path d="M218.879,189l-23.334-13.419a4,4,0,0,0-3.988,6.935c25.3,14.551,23.843,13.952,25.324,13.952a4,4,0,0,0,2-7.468Z" fill="#5f266d"/><path d="M195.545,140.3l23.334-13.418a4,4,0,0,0-3.988-6.935l-23.334,13.419a4,4,0,0,0,3.988,6.934Z" fill="#5f266d"/><path d="M141.333,229.034h-10a4,4,0,1,0,0,8h10a4,4,0,0,0,0-8Z" fill="#5f266d"/><path d="M157.833,229.034h-1.5a4,4,0,1,0,0,8h1.5a4,4,0,0,0,0-8Z" fill="#5f266d"/></svg>