<svg xmlns="http://www.w3.org/2000/svg" viewBox="0 0 256 256"><title>Foodies Expanded</title><circle cx="128" cy="128" r="120.5" fill="#f9d335"/><circle cx="128" cy="128" r="95.263" fill="#ffe2e2"/><path d="M135.953,222.93q-3.929.334-7.953.329a95.259,95.259,0,0,1,0-190.518q4.024,0,7.953.329a95.263,95.263,0,0,0,0,189.86Z" fill="#ffefee"/><path d="M223.259,128A95.262,95.262,0,0,1,128,223.259q-4.025,0-7.953-.329a95.263,95.263,0,0,0,0-189.86q3.928-.334,7.953-.329A95.262,95.262,0,0,1,223.259,128Z" fill="#ffcfcf"/><rect x="59.312" y="61.181" width="19.625" height="133.637" rx="9.637" ry="9.637" fill="#ffcfcf"/><rect x="49.5" y="83.133" width="39.25" height="89.735" rx="19.625" ry="19.625" fill="#b76c6c"/><rect x="98.562" y="61.181" width="19.625" height="133.637" rx="9.637" ry="9.637" fill="#ffcfcf"/><rect x="88.75" y="83.133" width="39.25" height="89.735" rx="19.625" ry="19.625" fill="#b76c6c"/><rect x="137.813" y="61.181" width="19.625" height="133.637" rx="9.637" ry="9.637" fill="#ffcfcf"/><rect x="128" y="83.133" width="39.25" height="89.735" rx="19.625" ry="19.625" fill="#b76c6c"/><rect x="177.063" y="61.181" width="19.625" height="133.637" rx="9.637" ry="9.637" fill="#ffcfcf"/><rect x="167.25" y="83.133" width="39.25" height="89.735" rx="19.625" ry="19.625" fill="#b76c6c"/><path d="M76.62,171.39A19.64,19.64,0,0,1,49.5,153.24V102.76A19.64,19.64,0,0,1,76.62,84.61,19.657,19.657,0,0,0,64.5,102.76v50.48A19.657,19.657,0,0,0,76.62,171.39Z" fill="#c98585"/><path d="M115.88,171.39a19.667,19.667,0,0,1-7.5,1.48h-.01a19.63,19.63,0,0,1-19.62-19.63V102.76a19.63,19.63,0,0,1,19.62-19.63h.01a19.667,19.667,0,0,1,7.5,1.48,19.651,19.651,0,0,0-12.13,18.15v50.48A19.651,19.651,0,0,0,115.88,171.39Z" fill="#c98585"/><path d="M155.12,171.39a19.654,19.654,0,0,1-7.49,1.48h-.01A19.63,19.63,0,0,1,128,153.24V102.76a19.63,19.63,0,0,1,19.62-19.63h.01a19.654,19.654,0,0,1,7.49,1.48A19.657,19.657,0,0,0,143,102.76v50.48A19.657,19.657,0,0,0,155.12,171.39Z" fill="#c98585"/><path d="M194.38,171.39a19.649,19.649,0,0,1-27.13-18.15V102.76a19.649,19.649,0,0,1,27.13-18.15,19.651,19.651,0,0,0-12.13,18.15v50.48A19.651,19.651,0,0,0,194.38,171.39Z" fill="#c98585"/><path d="M128,3.5A124.5,124.5,0,1,0,252.5,128,124.642,124.642,0,0,0,128,3.5Zm0,241A116.5,116.5,0,1,1,244.5,128,116.632,116.632,0,0,1,128,244.5Z" fill="#5f266d"/><path d="M128,28.737A99.263,99.263,0,1,0,227.263,128,99.376,99.376,0,0,0,128,28.737ZM187.05,65.18a5.646,5.646,0,0,1,5.64,5.64v9.039a23.635,23.635,0,0,0-11.63,0V70.82a5.646,5.646,0,0,1,5.64-5.64Zm-1.486-7.943a13.652,13.652,0,0,0-12.5,13.583V83.611a23.791,23.791,0,0,0-5.81,6.009,23.791,23.791,0,0,0-5.81-6.009V70.82A13.656,13.656,0,0,0,147.8,57.18h-.35a13.656,13.656,0,0,0-13.64,13.64V83.611A23.791,23.791,0,0,0,128,89.62a23.791,23.791,0,0,0-5.81-6.009V70.82a13.656,13.656,0,0,0-13.64-13.64h-.35A13.656,13.656,0,0,0,94.56,70.82V83.611a23.791,23.791,0,0,0-5.81,6.009,23.791,23.791,0,0,0-5.81-6.009V70.82a13.652,13.652,0,0,0-12.5-13.583A91.042,91.042,0,0,1,185.564,57.237Zm-37.939,111.63A15.644,15.644,0,0,1,132,153.242V102.758a15.625,15.625,0,1,1,31.25,0v50.484A15.644,15.644,0,0,1,147.625,168.867Zm5.815,7.274v9.039c0,7.512-11.63,7.532-11.63,0v-9.039A23.635,23.635,0,0,0,153.44,176.141ZM141.81,79.859V70.82a5.646,5.646,0,0,1,5.64-5.64h.35a5.646,5.646,0,0,1,5.64,5.64v9.039A23.635,23.635,0,0,0,141.81,79.859Zm-33.435,89.008A15.644,15.644,0,0,1,92.75,153.242V102.758a15.625,15.625,0,1,1,31.25,0v50.484A15.644,15.644,0,0,1,108.375,168.867Zm5.815,7.274v9.039c0,7.512-11.63,7.532-11.63,0v-9.039A23.635,23.635,0,0,0,114.19,176.141ZM102.56,79.859V70.82a5.646,5.646,0,0,1,5.64-5.64h.35a5.646,5.646,0,0,1,5.64,5.64v9.039A23.635,23.635,0,0,0,102.56,79.859ZM63.31,70.82c0-7.4,11.63-7.58,11.63,0v9.039a23.635,23.635,0,0,0-11.63,0Zm-8,112.294a91.028,91.028,0,0,1,0-110.228V83.611a23.6,23.6,0,0,0-9.81,19.147v50.484a23.6,23.6,0,0,0,9.81,19.147ZM53.5,153.242V102.758a15.625,15.625,0,1,1,31.25,0v50.484a15.625,15.625,0,0,1-31.25,0Zm9.81,31.938v-9.039a23.635,23.635,0,0,0,11.63,0v9.039C74.94,192.692,63.31,192.712,63.31,185.18Zm7.126,13.583a13.652,13.652,0,0,0,12.5-13.583V172.389a23.791,23.791,0,0,0,5.81-6.009,23.791,23.791,0,0,0,5.81,6.009V185.18a13.816,13.816,0,0,0,27.63,0V172.389A23.791,23.791,0,0,0,128,166.38a23.791,23.791,0,0,0,5.81,6.009V185.18a13.816,13.816,0,0,0,27.63,0V172.389a23.791,23.791,0,0,0,5.81-6.009,23.791,23.791,0,0,0,5.81,6.009V185.18a13.652,13.652,0,0,0,12.5,13.583A91.042,91.042,0,0,1,70.436,198.763ZM192.69,185.18c0,7.512-11.63,7.532-11.63,0v-9.039a23.635,23.635,0,0,0,11.63,0Zm-5.815-16.313a15.644,15.644,0,0,1-15.625-15.625V102.758a15.625,15.625,0,1,1,31.25,0v50.484A15.644,15.644,0,0,1,186.875,168.867Zm13.815,3.522a23.6,23.6,0,0,0,9.81-19.147V102.758a23.6,23.6,0,0,0-9.81-19.147V72.886a91.028,91.028,0,0,1,0,110.228Z" fill="#5f266d"/><path d="M152,126.333a4,4,0,0,0-4,4v4a4,4,0,0,0,8,0v-4A4,4,0,0,0,152,126.333Z" fill="#5f266d"/><path d="M152,97.333a4,4,0,0,0-4,4v14a4,4,0,0,0,8,0v-14A4,4,0,0,0,152,97.333Z" fill="#5f266d"/></svg>