<svg xmlns="http://www.w3.org/2000/svg" viewBox="0 0 256 256"><title>Foodies Expanded</title><path d="M243.48,193.61v25.04a31.112,31.112,0,0,1-31.11,31.11H104.11A31.106,31.106,0,0,1,73,218.65V193.61a22.939,22.939,0,0,0-22.94-22.94H35.46a22.939,22.939,0,0,1-22.94-22.94v-9.49a22.931,22.931,0,0,1,22.94-22.93H90.78v47.78a5.106,5.106,0,0,0,5.11,5.11h70.76a5.1,5.1,0,0,0,5.11-5.11V115.31h2.91a22.922,22.922,0,0,1,22.93,22.93v9.49a22.944,22.944,0,0,0,22.94,22.94A22.939,22.939,0,0,1,243.48,193.61Z" fill="#ffbb98"/><rect x="62.72" y="6.24" width="80.98" height="80.98" rx="5.11" ry="5.11" fill="#ffbb98"/><path d="M166.65,87.22H95.89a5.113,5.113,0,0,0-5.11,5.11v70.76a5.106,5.106,0,0,0,5.11,5.11h70.76a5.1,5.1,0,0,0,5.11-5.11V92.33A5.106,5.106,0,0,0,166.65,87.22Z" fill="#ffbb98"/><path d="M82.83,87.22h-15a5.113,5.113,0,0,1-5.11-5.11V11.35a5.113,5.113,0,0,1,5.11-5.11h15a5.113,5.113,0,0,0-5.11,5.11V82.11A5.113,5.113,0,0,0,82.83,87.22Z" fill="#ffcaa6"/><path d="M110.89,168.2h-15a5.106,5.106,0,0,1-5.11-5.11V92.33a5.113,5.113,0,0,1,5.11-5.11h15a5.113,5.113,0,0,0-5.11,5.11v70.76A5.106,5.106,0,0,0,110.89,168.2Z" fill="#ffcaa6"/><path d="M143.7,11.35V82.11a5.1,5.1,0,0,1-5.1,5.11h-15a5.1,5.1,0,0,0,5.1-5.11V11.35a5.1,5.1,0,0,0-5.1-5.11h15A5.1,5.1,0,0,1,143.7,11.35Z" fill="#ffaa80"/><path d="M171.76,92.33v70.76a5.1,5.1,0,0,1-5.11,5.11h-15a5.1,5.1,0,0,0,5.11-5.11V92.33a5.106,5.106,0,0,0-5.11-5.11h15A5.106,5.106,0,0,1,171.76,92.33Z" fill="#ffaa80"/><path d="M243.48,193.61v25.04a31.112,31.112,0,0,1-31.11,31.11h-15a31.112,31.112,0,0,0,31.11-31.11V193.61a22.939,22.939,0,0,0-22.94-22.94,22.944,22.944,0,0,1-22.94-22.94v-9.49a22.885,22.885,0,0,0-10.84-19.48v-3.45h2.91a22.922,22.922,0,0,1,22.93,22.93v9.49a22.944,22.944,0,0,0,22.94,22.94A22.939,22.939,0,0,1,243.48,193.61Z" fill="#ffaa80"/><path d="M119.11,249.76h-15A31.106,31.106,0,0,1,73,218.65V193.61a22.939,22.939,0,0,0-22.94-22.94H35.46a22.939,22.939,0,0,1-22.94-22.94v-9.49a22.931,22.931,0,0,1,22.94-22.93h15a22.931,22.931,0,0,0-22.94,22.93v9.49a22.939,22.939,0,0,0,22.94,22.94h14.6A22.939,22.939,0,0,1,88,193.61v25.04A31.106,31.106,0,0,0,119.11,249.76Z" fill="#ffcaa6"/><path d="M128,55.25a4,4,0,0,0,4-4v-3.5a4,4,0,0,0-8,0v3.5A4,4,0,0,0,128,55.25Z" fill="#5f266d"/><path d="M128,36.75a4,4,0,0,0,4-4v-10a4,4,0,0,0-8,0v10A4,4,0,0,0,128,36.75Z" fill="#5f266d"/><path d="M220.54,166.67a18.942,18.942,0,0,1-18.94-18.94v-9.49a26.959,26.959,0,0,0-25.84-26.9V92.33a9.121,9.121,0,0,0-9.11-9.11H147.626a9.25,9.25,0,0,0,.074-1.11V11.35a9.115,9.115,0,0,0-9.1-9.11H67.83a9.121,9.121,0,0,0-9.11,9.11V82.11a9.121,9.121,0,0,0,9.11,9.11H86.855a9.021,9.021,0,0,0-.075,1.11v18.98H35.46A26.966,26.966,0,0,0,8.52,138.24v9.49a26.97,26.97,0,0,0,26.94,26.94h14.6A18.962,18.962,0,0,1,69,193.61v25.04a35.149,35.149,0,0,0,35.11,35.11H212.37a35.149,35.149,0,0,0,35.11-35.11V193.61A26.97,26.97,0,0,0,220.54,166.67ZM66.72,82.11V11.35a1.111,1.111,0,0,1,1.11-1.11H138.6a1.106,1.106,0,0,1,1.1,1.11V82.11a1.106,1.106,0,0,1-1.1,1.11H67.83A1.111,1.111,0,0,1,66.72,82.11Zm99.93,9.11a1.111,1.111,0,0,1,1.11,1.11v70.76a1.1,1.1,0,0,1-1.11,1.11H95.89a1.111,1.111,0,0,1-1.11-1.11V92.33a1.111,1.111,0,0,1,1.11-1.11Zm72.83,127.43a27.141,27.141,0,0,1-27.11,27.11H104.11A27.141,27.141,0,0,1,77,218.65V193.61a26.97,26.97,0,0,0-26.94-26.94H35.46a18.962,18.962,0,0,1-18.94-18.94v-9.49a18.957,18.957,0,0,1,18.94-18.93H86.78v43.78a9.121,9.121,0,0,0,9.11,9.11h70.76a9.121,9.121,0,0,0,9.11-9.11V119.341a18.954,18.954,0,0,1,17.84,18.9v9.49a26.942,26.942,0,0,0,26.94,26.94,18.962,18.962,0,0,1,18.94,18.94Z" fill="#5f266d"/></svg>