<svg xmlns="http://www.w3.org/2000/svg" viewBox="0 0 256 256"><title>Foodies Expanded</title><path d="M103.614,71.524a4,4,0,0,1-4-4V61.458a36.342,36.342,0,1,0-72.684,0v6.066a4,4,0,0,1-8,0V61.458a44.342,44.342,0,0,1,88.684,0v6.066A4,4,0,0,1,103.614,71.524Z" fill="#5f266d"/><path d="M110.728,91.345H15.816a13.91,13.91,0,1,1,0-27.819h94.912a13.91,13.91,0,0,1,0,27.819ZM15.816,71.526a5.91,5.91,0,1,0,0,11.819h94.912a5.91,5.91,0,0,0,0-11.819Z" fill="#5f266d"/><path d="M22.93,235V124.24a9.248,9.248,0,0,1,.3-2.35L30.19,94.54a9.539,9.539,0,0,1,9.257-7.194H86.8a9.548,9.548,0,0,1,9.228,7.1l7.27,27.4a9.661,9.661,0,0,1,.315,2.446V235Z" fill="#ffe2e2"/><path d="M103.614,61.458v6.066H22.93V61.458a40.342,40.342,0,0,1,80.684,0Z" fill="#f9d335"/><path d="M110.731,67.524H15.813a9.911,9.911,0,0,0,0,19.822h94.918a9.911,9.911,0,0,0,0-19.822Z" fill="#87828e"/><path d="M57.653,87.35a9.537,9.537,0,0,0-9.26,7.184l-6.966,27.355a9.553,9.553,0,0,0-.291,2.354V234.992h-18.2V124.243a9.553,9.553,0,0,1,.291-2.354l6.966-27.355a9.537,9.537,0,0,1,9.26-7.184Z" fill="#ffefee"/><path d="M72.362,22.143a40.352,40.352,0,0,0-31.226,39.32v6.056h-18.2V61.463a40.361,40.361,0,0,1,49.43-39.32Z" fill="#f9e27d"/><path d="M103.612,124.292v110.7h-18.2v-110.7a9.862,9.862,0,0,0-.315-2.452l-7.27-27.391a9.542,9.542,0,0,0-9.223-7.1H86.8a9.542,9.542,0,0,1,9.223,7.1l7.27,27.391A9.862,9.862,0,0,1,103.612,124.292Z" fill="#ffcfcf"/><path d="M103.612,61.463v6.056h-18.2V61.463a40.38,40.38,0,0,0-29.587-38.9c-.547-.157-1.1-.291-1.663-.424a40.365,40.365,0,0,1,49.454,39.32Z" fill="#f2c300"/><path d="M233.07,71.524a4,4,0,0,1-4-4V61.458a36.343,36.343,0,1,0-72.685,0v6.066a4,4,0,0,1-8,0V61.458a44.343,44.343,0,0,1,88.685,0v6.066A4,4,0,0,1,233.07,71.524Z" fill="#5f266d"/><path d="M240.183,91.345H145.271a13.91,13.91,0,0,1,0-27.819h94.912a13.91,13.91,0,1,1,0,27.819ZM145.271,71.526a5.91,5.91,0,0,0,0,11.819h94.912a5.91,5.91,0,1,0,0-11.819Z" fill="#5f266d"/><path d="M152.385,235V124.24a9.249,9.249,0,0,1,.3-2.35l6.964-27.35a9.538,9.538,0,0,1,9.256-7.194h47.354a9.548,9.548,0,0,1,9.229,7.1l7.269,27.4a9.618,9.618,0,0,1,.316,2.446V235Z" fill="#87828e"/><path d="M233.07,61.458v6.066H152.385V61.458a40.343,40.343,0,0,1,80.685,0Z" fill="#ff4a73"/><path d="M240.187,67.524H145.269a9.911,9.911,0,0,0,0,19.822h94.918a9.911,9.911,0,0,0,0-19.822Z" fill="#87828e"/><path d="M187.109,87.35a9.537,9.537,0,0,0-9.26,7.184l-6.966,27.355a9.553,9.553,0,0,0-.291,2.354V234.992H152.387V124.243a9.553,9.553,0,0,1,.292-2.354l6.966-27.355a9.537,9.537,0,0,1,9.26-7.184Z" fill="#a4a4a5"/><path d="M201.818,22.143a40.352,40.352,0,0,0-31.226,39.32v6.056H152.387V61.463a40.362,40.362,0,0,1,49.431-39.32Z" fill="#f973a3"/><path d="M233.068,124.292v110.7h-18.2v-110.7a9.817,9.817,0,0,0-.316-2.452l-7.269-27.391a9.543,9.543,0,0,0-9.224-7.1h18.2a9.543,9.543,0,0,1,9.224,7.1l7.269,27.391A9.817,9.817,0,0,1,233.068,124.292Z" fill="#796e84"/><path d="M233.068,61.463v6.056h-18.2V61.463a40.382,40.382,0,0,0-29.588-38.9c-.546-.157-1.1-.291-1.663-.424a40.367,40.367,0,0,1,49.455,39.32Z" fill="#ea2a6a"/><path d="M110.731,63.524h-3.117V61.458A44.051,44.051,0,0,0,94.626,30.1c-28.274-28.277-75.7-7.518-75.7,31.354v2.066H15.813A13.776,13.776,0,0,0,5.982,67.6C-2.679,76.261,3.4,91.347,15.813,91.347H27.08a13.46,13.46,0,0,0-.766,2.206l-6.957,27.321a13.3,13.3,0,0,0-.427,3.366V235a4,4,0,0,0,4,4h80.684a4,4,0,0,0,4-4V124.287a13.721,13.721,0,0,0-.449-3.472L99.9,93.42a13.584,13.584,0,0,0-.737-2.073h11.572a13.912,13.912,0,0,0,0-27.823ZM99.614,61.458v2.066H84.907c0-12.176-1.31-24.26-10.574-36.672A36.282,36.282,0,0,1,99.614,61.458ZM63.272,26.415c8.583,8.046,13.635,20.174,13.635,33.123v3.986H49.637V59.538C49.637,46.589,54.689,34.461,63.272,26.415ZM26.93,61.458A36.4,36.4,0,0,1,52.215,26.847c-8.646,11.581-10.578,23.18-10.578,36.677H26.93Zm72.5,61.4a5.676,5.676,0,0,1,.185,1.434V231H26.93V124.24a5.273,5.273,0,0,1,.173-1.363L34.068,95.52a5.534,5.534,0,0,1,5.379-4.173H86.8a5.55,5.55,0,0,1,5.362,4.124Zm11.3-39.508H15.816a5.91,5.91,0,0,1,0-11.819h94.912a5.91,5.91,0,0,1,0,11.819Z" fill="#5f266d"/><path d="M240.187,63.524H237.07c0-12.763-3.4-23.831-12.989-33.42-28.289-28.293-75.7-7.508-75.7,31.354v2.066h-3.116a13.773,13.773,0,0,0-9.831,4.076c-8.683,8.682-2.581,23.747,9.831,23.747h11.267a13.557,13.557,0,0,0-.767,2.206l-6.956,27.321a13.25,13.25,0,0,0-.428,3.366V235a4,4,0,0,0,4,4H233.07a4,4,0,0,0,4-4V124.287a13.721,13.721,0,0,0-.449-3.472l-7.27-27.395a13.474,13.474,0,0,0-.736-2.073h11.572a13.777,13.777,0,0,0,9.831-4.077C258.773,78.514,252.465,63.524,240.187,63.524ZM229.07,61.458v2.066H214.362c0-12.176-1.309-24.26-10.573-36.672A36.305,36.305,0,0,1,229.07,61.458ZM192.728,26.415c8.583,8.047,13.634,20.174,13.634,33.123v3.986H179.093V59.538C179.093,46.589,184.145,34.462,192.728,26.415ZM156.385,61.458A36.4,36.4,0,0,1,181.67,26.847c-8.645,11.581-10.577,23.18-10.577,36.677H156.385Zm72.5,61.4a5.722,5.722,0,0,1,.185,1.434V231H156.385V124.24a5.317,5.317,0,0,1,.173-1.363l6.966-27.357a5.533,5.533,0,0,1,5.378-4.173h47.354a5.549,5.549,0,0,1,5.362,4.124Zm11.3-39.508H145.271a5.91,5.91,0,0,1,0-11.819h94.912a5.91,5.91,0,1,1,0,11.819Z" fill="#5f266d"/><path d="M40.293,173.191a4,4,0,0,0-4,4v4.5a4,4,0,0,0,8,0v-4.5A4,4,0,0,0,40.293,173.191Z" fill="#5f266d"/><path d="M40.293,192.691a4,4,0,0,0-4,4v19a4,4,0,0,0,8,0v-19A4,4,0,0,0,40.293,192.691Z" fill="#5f266d"/></svg>