<svg xmlns="http://www.w3.org/2000/svg" viewBox="0 0 256 256"><title>Foodies Expanded</title><path d="M60.5,24.167H104.1a10,10,0,0,1,10,10V221.833a10,10,0,0,1-10,10H60.5A49.835,49.835,0,0,1,10.668,182V74A49.835,49.835,0,0,1,60.5,24.167Z" fill="#ffbb98"/><path d="M75.5,231.833h-15a49.833,49.833,0,0,1-49.83-49.84V74A49.839,49.839,0,0,1,60.5,24.163h15A49.839,49.839,0,0,0,25.672,74v107.99A49.833,49.833,0,0,0,75.5,231.833Z" fill="#ffcaa6"/><path d="M230.332,40.173H145a15,15,0,0,0-15,15v8a15.005,15.005,0,0,0,15,15h4.33V97.5H226V78.173h4.33a15,15,0,0,0,15-15v-8A14.993,14.993,0,0,0,230.332,40.173Z" fill="#87828e"/><path d="M230.332,97.5H145a15.005,15.005,0,0,0-15,15v104.33a15,15,0,0,0,15,15h85.33a14.993,14.993,0,0,0,15-15V112.5A15,15,0,0,0,230.332,97.5Z" fill="#ff4a73"/><path d="M44.3,91.864H39.5a11.59,11.59,0,0,0-11.589,11.589v70.34A11.589,11.589,0,0,0,39.5,185.382h4.8a11.588,11.588,0,0,0,11.589-11.589v-7.377a11.59,11.59,0,0,1,11.59-11.59H80.133a15.719,15.719,0,0,0,15.719-15.719V84.4A15.719,15.719,0,0,0,80.133,68.685H67.478a11.59,11.59,0,0,0-11.59,11.589h0A11.589,11.589,0,0,1,44.3,91.864Z" fill="#ff4a73"/><circle cx="187.668" cy="164.67" r="35.833" fill="#f9d335"/><path d="M160,78.173H145a15.005,15.005,0,0,1-15-15v-8a15,15,0,0,1,15-15h15a15,15,0,0,0-15,15v8A15.005,15.005,0,0,0,160,78.173Z" fill="#a4a4a5"/><rect x="149.332" y="78.173" width="15" height="19.33" fill="#a4a4a5"/><path d="M160,231.833H145a15,15,0,0,1-15-15V112.5a15.005,15.005,0,0,1,15-15h15a15.005,15.005,0,0,0-15,15v104.33A15,15,0,0,0,160,231.833Z" fill="#f973a3"/><path d="M44.3,91.864H39.5a11.59,11.59,0,0,0-11.589,11.589v70.34A11.589,11.589,0,0,0,39.5,185.382h4.8a11.588,11.588,0,0,0,11.589-11.589v-7.377a11.59,11.59,0,0,1,11.59-11.59H80.133a15.719,15.719,0,0,0,15.719-15.719V84.4A15.719,15.719,0,0,0,80.133,68.685H67.478a11.59,11.59,0,0,0-11.59,11.589h0A11.589,11.589,0,0,1,44.3,91.864Z" fill="#ff4a73"/><path d="M245.332,55.173v8a15,15,0,0,1-15,15h-15a15,15,0,0,0,15-15v-8a14.993,14.993,0,0,0-15-15h15A14.993,14.993,0,0,1,245.332,55.173Z" fill="#796e84"/><rect x="211.002" y="78.173" width="15" height="19.33" fill="#796e84"/><path d="M245.332,112.5v104.33a14.993,14.993,0,0,1-15,15h-15a14.993,14.993,0,0,0,15-15V112.5a15,15,0,0,0-15-15h15A15,15,0,0,1,245.332,112.5Z" fill="#ea2a6a"/><path d="M95.852,84.4v54.7a15.716,15.716,0,0,1-15.72,15.72H67.482a11.591,11.591,0,0,0-11.59,11.59v7.38a11.591,11.591,0,0,1-11.59,11.59H39.5a11.484,11.484,0,0,1-5.1-1.18,11.59,11.59,0,0,0,6.49-10.41v-7.38a11.591,11.591,0,0,1,11.59-11.59h12.65a15.716,15.716,0,0,0,15.72-15.72V84.4a15.72,15.72,0,0,0-14.46-15.67c.36-.03.72-.05,1.09-.05h12.65A15.722,15.722,0,0,1,95.852,84.4Z" fill="#ea2a6a"/><path d="M81.392,68.733a11.6,11.6,0,0,0-10.5,11.54A11.591,11.591,0,0,1,59.3,91.863H54.5a11.591,11.591,0,0,0-11.59,11.59v70.34A11.59,11.59,0,0,0,49.4,184.2a11.484,11.484,0,0,1-5.1,1.18H39.5a11.591,11.591,0,0,1-11.59-11.59v-70.34A11.591,11.591,0,0,1,39.5,91.863h4.8a11.591,11.591,0,0,0,11.59-11.59,11.591,11.591,0,0,1,11.59-11.59h12.65C80.552,68.683,80.972,68.7,81.392,68.733Z" fill="#f973a3"/><path d="M195.172,199.713a35.835,35.835,0,1,1,0-70.09,35.838,35.838,0,0,0,0,70.09Z" fill="#f9e27d"/><path d="M223.5,164.673a35.846,35.846,0,0,1-43.33,35.04,35.841,35.841,0,0,0,0-70.09,35.846,35.846,0,0,1,43.33,35.05Z" fill="#f2c300"/><path d="M114.1,34.163v187.67a10,10,0,0,1-10,10h-15a10,10,0,0,0,10-10V34.163a10,10,0,0,0-10-10h15A10,10,0,0,1,114.1,34.163Z" fill="#ffaa80"/><circle cx="74.293" cy="92.337" r="5.542" transform="translate(-44.01 99.392) rotate(-54.593)" fill="#5f266d"/><circle cx="58.543" cy="106.087" r="5.542" transform="translate(-61.842 92.339) rotate(-54.593)" fill="#5f266d"/><circle cx="45.293" cy="143.67" r="5.542" transform="translate(-98.048 97.347) rotate(-54.593)" fill="#5f266d"/><path d="M203.5,164.67a15.726,15.726,0,0,1-1.093,5.784,4,4,0,1,0,7.443,2.932,23.819,23.819,0,0,0-5.336-25.563,4,4,0,1,0-5.658,5.658A15.722,15.722,0,0,1,203.5,164.67Z" fill="#5f266d"/><path d="M187.668,188.5a23.575,23.575,0,0,0,10.162-2.276A4,4,0,0,0,194.409,179a15.64,15.64,0,0,1-6.741,1.508,4,4,0,0,0,0,8Z" fill="#5f266d"/><path d="M230.332,82.173a19.022,19.022,0,0,0,19-19v-8a19.022,19.022,0,0,0-19-19H145a19.022,19.022,0,0,0-19,19v8a19.022,19.022,0,0,0,19,19h.331V93.5H145a19.022,19.022,0,0,0-19,19v104.33a19.022,19.022,0,0,0,19,19h85.331a19.022,19.022,0,0,0,19-19V112.5a19.022,19.022,0,0,0-19-19H230V82.173Zm0,19.33a11.013,11.013,0,0,1,11,11v104.33a11.012,11.012,0,0,1-11,11H145a11.012,11.012,0,0,1-11-11V112.5a11.013,11.013,0,0,1,11-11Zm-77-8V82.173H222V93.5ZM226,74.173H145a11.012,11.012,0,0,1-11-11v-8a11.013,11.013,0,0,1,11-11h85.331a11.013,11.013,0,0,1,11,11v8a11.012,11.012,0,0,1-11,11Z" fill="#5f266d"/><path d="M80.133,64.685H67.478A15.606,15.606,0,0,0,51.889,80.274a7.6,7.6,0,0,1-7.59,7.59H39.5a15.606,15.606,0,0,0-15.589,15.589v70.34A15.607,15.607,0,0,0,39.5,189.383h4.8a15.608,15.608,0,0,0,15.59-15.59v-7.377a7.6,7.6,0,0,1,7.589-7.59H80.133a19.741,19.741,0,0,0,19.719-19.719V84.4A19.741,19.741,0,0,0,80.133,64.685Zm11.719,74.422a11.732,11.732,0,0,1-11.719,11.719H67.478a15.607,15.607,0,0,0-15.589,15.59v7.377a7.6,7.6,0,0,1-7.59,7.59H39.5a7.6,7.6,0,0,1-7.589-7.59v-70.34A7.6,7.6,0,0,1,39.5,95.864h4.8a15.608,15.608,0,0,0,15.59-15.59,7.6,7.6,0,0,1,7.589-7.589H80.133A11.732,11.732,0,0,1,91.852,84.4Z" fill="#5f266d"/><path d="M187.668,204.5a39.833,39.833,0,1,0-39.833-39.833A39.878,39.878,0,0,0,187.668,204.5Zm0-71.666a31.833,31.833,0,1,1-31.833,31.833A31.869,31.869,0,0,1,187.668,132.837Z" fill="#5f266d"/><path d="M104.1,20.167H60.5A53.9,53.9,0,0,0,6.668,74V182A53.9,53.9,0,0,0,60.5,235.833h43.6a14.016,14.016,0,0,0,14-14V34.167A14.016,14.016,0,0,0,104.1,20.167Zm6,201.666a6.007,6.007,0,0,1-6,6H60.5A45.887,45.887,0,0,1,14.668,182V74A45.887,45.887,0,0,1,60.5,28.167h43.6a6.007,6.007,0,0,1,6,6Z" fill="#5f266d"/></svg>