<svg xmlns="http://www.w3.org/2000/svg" viewBox="0 0 256 256"><title>Foodies Expanded</title><path d="M248.94,56.744v171.34a20,20,0,0,1-20,20H27.06a20,20,0,0,1-20-20V56.744a20,20,0,0,1,20-20H228.94A20,20,0,0,1,248.94,56.744Z" fill="#ffe2e2"/><path d="M42.06,248.084h-15a20,20,0,0,1-20-20V56.744a20,20,0,0,1,20-20h15a20,20,0,0,0-20,20v171.34A20,20,0,0,0,42.06,248.084Z" fill="#ffefee"/><rect x="51.78" y="7.914" width="19.316" height="53" rx="5" ry="5" fill="#ff4a73"/><rect x="184.904" y="7.914" width="19.316" height="53" rx="5" ry="5" fill="#ff4a73"/><path d="M248.94,56.744v171.34a20,20,0,0,1-20,20h-15a20,20,0,0,0,20-20V56.744a20,20,0,0,0-20-20h15A20,20,0,0,1,248.94,56.744Z" fill="#ffcfcf"/><path d="M248.94,83.594v144.49a20,20,0,0,1-20,20H27.06a20,20,0,0,1-20-20V83.594Z" fill="#44c7b6"/><rect x="52.433" y="193.491" width="151.134" height="26.745" rx="6.22" ry="6.22" fill="#796e84"/><path d="M128,134.093h0a58.877,58.877,0,0,1,58.877,58.877v.521a0,0,0,0,1,0,0H69.123a0,0,0,0,1,0,0v-.521A58.877,58.877,0,0,1,128,134.093Z" fill="#87828e"/><path d="M186.882,192.969v.522H168.223v-.522a58.859,58.859,0,0,0-49.546-58.13,57.6,57.6,0,0,1,9.317-.746h.012A58.875,58.875,0,0,1,186.882,192.969Z" fill="#796e84"/><path d="M77.316,220.236H58.656a6.221,6.221,0,0,1-6.219-6.22v-14.3a6.222,6.222,0,0,1,6.219-6.22h18.66a6.222,6.222,0,0,0-6.22,6.22v14.3A6.222,6.222,0,0,0,77.316,220.236Z" fill="#87828e"/><path d="M137.336,134.839a58.87,58.87,0,0,0-49.559,58.13v.522H69.118v-.522a58.875,58.875,0,0,1,58.876-58.876h.012A57.764,57.764,0,0,1,137.336,134.839Z" fill="#a4a4a5"/><path d="M203.563,199.711v14.3a6.221,6.221,0,0,1-6.219,6.22h-18.66a6.222,6.222,0,0,0,6.22-6.22v-14.3a6.222,6.222,0,0,0-6.22-6.22h18.66A6.222,6.222,0,0,1,203.563,199.711Z" fill="#796e84"/><path d="M42.06,248.084h-15a20,20,0,0,1-20-20V83.594h15v144.49A20,20,0,0,0,42.06,248.084Z" fill="#4bdbc3"/><path d="M248.94,83.594v144.49a20,20,0,0,1-20,20h-15a20,20,0,0,0,20-20V83.594Z" fill="#3bb2a0"/><path d="M228.94,32.745H208.22V12.915a9.01,9.01,0,0,0-9-9H189.9a9.01,9.01,0,0,0-9,9v19.83H75.1V12.915a9.01,9.01,0,0,0-9-9H56.78a9.01,9.01,0,0,0-9,9v19.83H27.06a24.027,24.027,0,0,0-24,24v171.34a24.027,24.027,0,0,0,24,24H228.94a24.027,24.027,0,0,0,24-24V56.745A24.027,24.027,0,0,0,228.94,32.745ZM188.9,12.915a1,1,0,0,1,1-1h9.316a1,1,0,0,1,1,1v43a1,1,0,0,1-1,1H189.9a1,1,0,0,1-1-1Zm-133.124,0a1,1,0,0,1,1-1H66.1a1,1,0,0,1,1,1v43a1,1,0,0,1-1,1H56.78a1,1,0,0,1-1-1Zm189.16,215.17a16.017,16.017,0,0,1-16,16H27.06a16.017,16.017,0,0,1-16-16V87.6H244.94Zm0-148.486H11.06V56.745a16.017,16.017,0,0,1,16-16H47.78v15.17a9.01,9.01,0,0,0,9,9H66.1a9.01,9.01,0,0,0,9-9V40.745H180.9v15.17a9.01,9.01,0,0,0,9,9h9.316a9.01,9.01,0,0,0,9-9V40.745h20.72a16.017,16.017,0,0,1,16,16Z" fill="#5f266d"/><path d="M58.652,224.237h138.7a10.232,10.232,0,0,0,10.219-10.22V199.711a10.232,10.232,0,0,0-10.219-10.219h-6.572A62.955,62.955,0,0,0,132,130.235V112.947c0-.121-.025-.235-.036-.354h13.388a4,4,0,0,0,0-8h-34.7a4,4,0,0,0,0,8h13.388c-.011.119-.036.233-.036.354v17.288a62.955,62.955,0,0,0-58.776,59.257H58.652a10.232,10.232,0,0,0-10.219,10.219v14.306A10.232,10.232,0,0,0,58.652,224.237ZM128,138.094a54.95,54.95,0,0,1,54.768,51.4H73.232A54.95,54.95,0,0,1,128,138.094ZM56.433,199.711a2.222,2.222,0,0,1,2.219-2.219h138.7a2.222,2.222,0,0,1,2.219,2.219v14.306a2.222,2.222,0,0,1-2.219,2.22H58.652a2.222,2.222,0,0,1-2.219-2.22Z" fill="#5f266d"/><path d="M220.9,112.593H227a4,4,0,0,0,0-8h-6.1a4,4,0,0,0,0,8Z" fill="#5f266d"/><path d="M184.9,112.593h21a4,4,0,0,0,0-8h-21a4,4,0,0,0,0,8Z" fill="#5f266d"/></svg>