<svg xmlns="http://www.w3.org/2000/svg" viewBox="0 0 256 256"><title>Foodies Expanded</title><rect x="75.544" y="138.435" width="104.913" height="18.565" rx="4.318" ry="4.318" fill="#796e84"/><path d="M128,97.2h0a40.871,40.871,0,0,1,40.871,40.871v.362a0,0,0,0,1,0,0H87.13a0,0,0,0,1,0,0v-.362A40.871,40.871,0,0,1,128,97.2Z" fill="#87828e"/><path d="M94.861,157h-15a4.321,4.321,0,0,1-4.32-4.32v-9.93a4.328,4.328,0,0,1,4.32-4.32h15a4.328,4.328,0,0,0-4.32,4.32v9.93A4.321,4.321,0,0,0,94.861,157Z" fill="#87828e"/><path d="M135.5,97.89a40.877,40.877,0,0,0-33.37,40.18v.36h-15v-.36A40.89,40.89,0,0,1,135.5,97.89Z" fill="#a4a4a5"/><path d="M222.422,128c38.986-63.116,13.6-109.521-48.333-99.67-26.683-34-64.953-34.692-92.176,0C20.544,18.566-5.742,64.34,33.58,128c-38.586,62.468-14.252,109.609,48.328,99.664,26.686,34.013,64.961,34.7,92.186,0C235.485,237.423,261.727,191.632,222.422,128Zm-4.813-7.376a210.042,210.042,0,0,0-15.792-20.155c-3.013-22.567-10.082-45.811-22.474-64.8C233.735,29.073,247.236,70.185,217.609,120.624Zm-14.4-6.1Q208.535,121.236,213,128q-4.455,6.748-9.794,13.474A206.76,206.76,0,0,0,203.205,114.526Zm-8.992,37.546A240.61,240.61,0,0,1,128,203.349a240.612,240.612,0,0,1-66.212-51.277,203.024,203.024,0,0,1,0-48.144A240.61,240.61,0,0,1,128,52.651a240.612,240.612,0,0,1,66.212,51.277A203.024,203.024,0,0,1,194.213,152.072ZM170.733,37.058c9.686,13.736,17.145,32.029,21.281,52.979a248.6,248.6,0,0,0-55.136-41.705A157.5,157.5,0,0,1,170.733,37.058Zm-5.473-7A174.435,174.435,0,0,0,128,43.689,174.4,174.4,0,0,0,90.742,30.06C113.318,4.1,142.667,4.081,165.26,30.06Zm-80,7a156.863,156.863,0,0,1,33.86,11.268A248.609,248.609,0,0,0,63.988,90.037C68.123,69.091,75.581,50.8,85.264,37.064Zm-8.6-1.4C64.269,54.654,57.2,77.9,54.185,100.469a210.2,210.2,0,0,0-15.792,20.155C8.241,69.291,23.107,29.161,76.664,35.661ZM52.8,141.474Q47.468,134.765,43,128q4.455-6.748,9.794-13.474A206.936,206.936,0,0,0,52.8,141.474Zm-14.4-6.1a210.087,210.087,0,0,0,15.792,20.156c3.013,22.565,10.082,45.811,22.474,64.8C22.262,226.926,8.769,185.811,38.393,135.375Zm46.876,83.567c-9.686-13.736-17.145-32.029-21.281-52.979a248.631,248.631,0,0,0,55.136,41.705A157.518,157.518,0,0,1,85.269,218.942Zm5.465,6.988A173.441,173.441,0,0,0,128,212.311a173.471,173.471,0,0,0,37.267,13.619C142.688,251.9,113.33,251.922,90.734,225.93Zm80-6.988a157.481,157.481,0,0,1-33.855-11.274,248.64,248.64,0,0,0,55.136-41.705C187.878,186.913,180.419,205.206,170.733,218.942Zm8.61,1.39c12.369-18.953,19.454-42.184,22.474-64.8a209.928,209.928,0,0,0,15.792-20.156C247.751,186.693,232.877,226.823,179.343,220.332Z" fill="#5f266d"/><path d="M176.14,134.435h-3.429A44.929,44.929,0,0,0,132,93.39V83.5h8.045a4,4,0,0,0,0-8h-24.09a4,4,0,0,0,0,8H124v9.89a44.929,44.929,0,0,0-40.71,41.045H79.862a8.326,8.326,0,0,0-8.317,8.317v9.931A8.326,8.326,0,0,0,79.862,161H176.14a8.327,8.327,0,0,0,8.318-8.317v-9.931A8.327,8.327,0,0,0,176.14,134.435ZM128,101.2a36.921,36.921,0,0,1,36.692,33.233H91.309A36.921,36.921,0,0,1,128,101.2Zm48.457,51.481a.319.319,0,0,1-.318.317H79.862a.318.318,0,0,1-.317-.317v-9.931a.317.317,0,0,1,.317-.317H176.14a.318.318,0,0,1,.318.317Z" fill="#5f266d"/><path d="M154.934,122.623a31.339,31.339,0,0,0-2.868-4.161,4,4,0,0,0-6.2,5.058c2.3,2.812,2.6,5.1,5.6,5.1A4,4,0,0,0,154.934,122.623Z" fill="#5f266d"/><path d="M138.144,108.719a30.91,30.91,0,0,0-10.143-1.7,4,4,0,0,0,0,8,22.939,22.939,0,0,1,7.524,1.26,4,4,0,0,0,2.619-7.559Z" fill="#5f266d"/></svg>