<svg xmlns="http://www.w3.org/2000/svg" viewBox="0 0 256 256"><title>Foodies Expanded</title><rect x="10.154" y="85.483" width="235.692" height="163.187" rx="24.368" ry="24.368" fill="#b76c6c"/><path d="M79.367,218.177c-58.622-17.343-27.119-95.622,46.48-103.511,27.778-2.977,65.585,6.985,76.872,23.984,4.43,6.672,6.319,15.712,1.945,23.383-3.161,5.543-8.335,9.186-14.149,11.63-19.228,8.085-42.962-3.7-66.269,28.344C116.927,212.07,101.78,224.808,79.367,218.177Z" fill="#ff4a73"/><circle cx="87.097" cy="178.263" r="10.153" fill="#ffe2e2"/><path d="M34.526,248.669h0A24.367,24.367,0,0,1,10.159,224.3V109.852A24.366,24.366,0,0,1,34.526,85.485h0a9.744,9.744,0,0,0-9.747,9.747v143.69A9.745,9.745,0,0,0,34.526,248.669Z" fill="#c98585"/><path d="M245.841,109.852V224.3a24.367,24.367,0,0,1-24.367,24.368h0a9.745,9.745,0,0,0,9.747-9.747V95.232a9.744,9.744,0,0,0-9.747-9.747h0A24.366,24.366,0,0,1,245.841,109.852Z" fill="#965959"/><path d="M93.983,218.18a46.985,46.985,0,0,0,4.669,1.131,39.789,39.789,0,0,1-19.29-1.131c-58.618-17.349-27.116-95.628,46.484-103.513a104.169,104.169,0,0,1,17.759-.273c-1.062.068-2.1.166-3.139.273C66.867,122.552,35.364,200.831,93.983,218.18Z" fill="#f973a3"/><path d="M204.66,162.037c-3.158,5.537-8.333,9.182-14.143,11.629-19.231,8.08-42.964-3.7-66.27,28.344-6.8,9.347-20.351,21-40.216,17.3,12.028-2.388,20.615-10.459,25.6-17.3,23.3-32.048,47.039-20.264,66.27-28.344,5.809-2.447,10.985-6.092,14.143-11.629,4.376-7.68,2.485-16.716-1.94-23.383-9.006-13.567-34.9-22.661-59.116-24.26,27.419-1.959,62.869,7.885,73.737,24.26C207.146,145.321,209.037,154.357,204.66,162.037Z" fill="#ea2a6a"/><path d="M147.714,135.881a36.278,36.278,0,0,1-25.727-10.631l-.011-.012-.011-.01h0a36.4,36.4,0,0,1,.011-51.468l3.443-3.446a4,4,0,1,1,5.658,5.657l-3.444,3.445a28.376,28.376,0,0,0-.012,40.153l.009.009,0,0,.009.009a28.435,28.435,0,0,0,40.155-.009l3.444-3.444a4,4,0,1,1,5.656,5.656l-3.444,3.444A36.286,36.286,0,0,1,147.714,135.881Z" fill="#5f266d"/><path d="M183.739,129.329a11.923,11.923,0,0,1-8.456-3.5l-53.9-53.9a11.958,11.958,0,1,1,16.911-16.911l53.9,53.9a11.953,11.953,0,0,1-8.455,20.409Zm-53.9-69.813a3.958,3.958,0,0,0-2.8,6.756l53.9,53.9a3.959,3.959,0,0,0,5.6-5.6l-53.9-53.9A3.932,3.932,0,0,0,129.837,59.516Z" fill="#5f266d"/><path d="M239.883,53.151l-33.6,33.6a7.462,7.462,0,0,1-1.5,1.166L185.289,99.5a7.661,7.661,0,0,1-9.342-1.172L149.054,71.434a7.669,7.669,0,0,1-1.21-9.272l11.431-19.688a7.773,7.773,0,0,1,1.21-1.568L194.062,7.33Z" fill="#ffe2e2"/><path d="M124.8,76.588l3.445-3.445,45.822,45.821-3.445,3.446A32.4,32.4,0,0,1,124.8,76.588Z" fill="#f9d335"/><path d="M124.207,69.1l4.041,4.042,45.822,45.821,4.042,4.042a7.96,7.96,0,0,0,11.257-11.257l-4.042-4.042L139.506,61.886l-4.042-4.042A7.96,7.96,0,0,0,124.207,69.1Z" fill="#87828e"/><path d="M165.609,87.986a7.659,7.659,0,0,0,9.339,1.178l19.491-11.579a7.7,7.7,0,0,0,1.5-1.171l33.6-33.6,10.338,10.339-33.6,33.6a7.685,7.685,0,0,1-1.5,1.172L185.286,99.5a7.659,7.659,0,0,1-9.338-1.179Z" fill="#ffefee"/><path d="M120.224,116.664a32.409,32.409,0,0,0,40.064-4.6l3.44-3.439,10.338,10.338-3.439,3.439a32.419,32.419,0,0,1-50.4-5.741Z" fill="#f9e27d"/><path d="M160.488,40.905,194.06,7.333,204.4,17.672,170.827,51.243a7.881,7.881,0,0,0-1.213,1.572L158.186,72.5a7.665,7.665,0,0,0,1.207,9.27L149.054,71.431a7.665,7.665,0,0,1-1.206-9.27l11.427-19.684A7.926,7.926,0,0,1,160.488,40.905Z" fill="#ffcfcf"/><path d="M124.808,76.586l3.439-3.439,10.338,10.338-3.439,3.439a32.428,32.428,0,0,0-5.286,38.893c.22.4.461.793.7,1.185a32.419,32.419,0,0,1-5.755-50.416Z" fill="#f2c300"/><path d="M102.176,149.474a4,4,0,0,1-2.959-6.691l8.76-9.635a4,4,0,1,1,5.919,5.381l-8.759,9.635A3.992,3.992,0,0,1,102.176,149.474Z" fill="#5f266d"/><path d="M133.811,160.4a4,4,0,0,1-3.953-3.413l-1.913-12.881a4,4,0,1,1,7.914-1.175l1.913,12.88a4,4,0,0,1-3.961,4.589Z" fill="#5f266d"/><path d="M88.976,109.542l12.676,2.98a4,4,0,1,0,1.83-7.788l-12.676-2.979a4,4,0,1,0-1.83,7.787Z" fill="#5f266d"/><path d="M221.48,81.48h-4.27l25.5-25.5a4.008,4.008,0,0,0,0-5.66L196.89,4.5a4.008,4.008,0,0,0-5.66,0L157.66,38.08a11.616,11.616,0,0,0-1.84,2.39L144.39,60.15c-.12.21-.23.42-.34.63l-5.76-5.76a11.963,11.963,0,0,0-19.3,3.42c-2.72,5.61-.79,10.31,3.6,14.7a38.088,38.088,0,0,0-6.52,8.34H34.52A28.406,28.406,0,0,0,6.15,109.85V224.3a28.406,28.406,0,0,0,28.37,28.37H221.48a28.406,28.406,0,0,0,28.37-28.37V109.85A28.406,28.406,0,0,0,221.48,81.48ZM151.3,64.17l11.43-19.68a4.247,4.247,0,0,1,.58-.76l30.75-30.74,40.17,40.16L205.9,81.48,180.77,97.5,151.86,68.59A3.69,3.69,0,0,1,151.3,64.17ZM126.655,61.8a3.982,3.982,0,0,1,6.272-.839c12.572,12.574,20.132,20.14,28.5,28.52h.01c13.462,13.472,4.046,3.828,24.581,24.362a3.926,3.926,0,0,1-5.4,5.7c-3.031-2.605,3.654,4-53.333-52.957A3.973,3.973,0,0,1,126.655,61.8ZM161.18,111.73l7.23,7.23a30.309,30.309,0,0,1-3.14,2.86h-.01c-6.924,5.815-18.295,8.062-28.24,3.99-.03,0-.04-.02-.07-.03C147.33,123.62,154.28,118.55,161.18,111.73Zm-32.61,6.91c0-11.318,5.106-19.521,12.58-26.94l14.37,14.37C148.1,113.5,139.818,118.757,128.57,118.64Zm-5.24-33.72c0-.12,1.52-2.28,1.6-2.38a31,31,0,0,1,3.32-3.74l7.24,7.24c-6.59,6.59-11.82,13.49-14.06,24.21-.01-.01-.01-.03-.02-.04-.3-.74-.67-1.79-.9-2.55a.037.037,0,0,0-.01-.03A28.444,28.444,0,0,1,123.33,84.92Zm-5.73,35.03a36.749,36.749,0,0,0,13.19,11.78c13.08,6.93,30.46,5.71,43.28-7.11,4.62,4.62,6.74,4.63,11.07,4.63,6.38,3.36,11.39,7.31,14.25,11.61,7.46,11.25,4,23.04-10.43,29.12-5.49,2.31-11.67,2.85-18.21,3.42-15.34,1.34-32.72,2.86-49.74,26.25-3.96,5.44-13.85,16.34-29.62,16.34-14.01,0-40.84-10.24-38.38-37.47C55.19,154.48,79.64,127.3,117.6,119.95ZM241.85,224.3a20.4,20.4,0,0,1-20.37,20.37H34.52A20.4,20.4,0,0,1,14.15,224.3V109.85A20.4,20.4,0,0,1,34.52,89.48H112.7a36.985,36.985,0,0,0-.01,19.92c0,.28.95,2.9,1.05,3.17-40.34,8.77-66.29,38.67-68.7,65.23-2.89,31.29,26.43,46.24,46.58,46.24,19.14,0,31.09-13.12,35.86-19.68,22.16-30.46,44.21-18.44,64.59-27.01,7.39-3.11,12.79-7.59,16.07-13.34,6.06-10.63,3.81-27.67-14.93-39.33a12,12,0,0,0-1.01-15.76h-.01l-5.57-5.58c.24-.13.48-.26.71-.4l21.78-13.36.1-.1h12.27a20.4,20.4,0,0,1,20.37,20.37Z" fill="#5f266d"/><path d="M97.17,188.21a14.154,14.154,0,1,0-23.18-15.28C68.14,187.31,86.46,199.09,97.17,188.21Zm-10.06-16.1a6.152,6.152,0,1,1-2.33,11.85C78.56,181.44,80.37,172.11,87.11,172.11Z" fill="#5f266d"/><path d="M35.728,107.945a6.173,6.173,0,1,0,6.173,6.173A6.173,6.173,0,0,0,35.728,107.945Z" fill="#5f266d"/><path d="M29.555,141.328a6.173,6.173,0,1,0-6.173-6.174A6.174,6.174,0,0,0,29.555,141.328Z" fill="#5f266d"/><path d="M179.659,202.734a6.173,6.173,0,1,0,6.173,6.173A6.173,6.173,0,0,0,179.659,202.734Z" fill="#5f266d"/><path d="M212.721,100.324a6.173,6.173,0,1,0,6.173,6.173A6.173,6.173,0,0,0,212.721,100.324Z" fill="#5f266d"/><path d="M226.105,122.808a6.173,6.173,0,1,0,6.173,6.174A6.174,6.174,0,0,0,226.105,122.808Z" fill="#5f266d"/><path d="M30.9,212.806a6.173,6.173,0,1,0,6.173,6.173A6.172,6.172,0,0,0,30.9,212.806Z" fill="#5f266d"/><path d="M195.579,218.979a6.173,6.173,0,1,0,6.173,6.173A6.173,6.173,0,0,0,195.579,218.979Z" fill="#5f266d"/><path d="M214.386,184.43a4,4,0,0,0-4.277,3.7,15.584,15.584,0,0,1-9.644,13.821,4,4,0,0,0,2.548,7.583,23.493,23.493,0,0,0,15.075-20.83A4,4,0,0,0,214.386,184.43Z" fill="#5f266d"/><path d="M48.854,135.44a3.974,3.974,0,0,0,1.262-.206A23.488,23.488,0,0,0,65.19,114.405a4,4,0,0,0-7.978-.574,15.585,15.585,0,0,1-9.644,13.82,4,4,0,0,0,1.286,7.789Z" fill="#5f266d"/><path d="M152.141,218.575a4,4,0,0,0,2.263,7.674,15.587,15.587,0,0,1,16.325,4.178c3.342,4.08,9.517-.948,6.208-5.047A23.505,23.505,0,0,0,152.141,218.575Z" fill="#5f266d"/></svg>