<svg xmlns="http://www.w3.org/2000/svg" viewBox="0 0 256 256"><title>Foodies Expanded</title><path d="M196.925,108.917a52.743,52.743,0,0,0-39.962-18.325H99.038A52.746,52.746,0,0,0,50.95,165c10.121,22.174,25.573,49.34,44.746,69.6a44.509,44.509,0,0,0,64.614,0c19.177-20.262,34.623-47.431,44.741-69.6A52.58,52.58,0,0,0,196.925,108.917Z" fill="#ff4a73"/><path d="M126.182,90.592s-42.971.589-46.847-34.484C79.335,56.108,119.978,51.6,126.182,90.592Z" fill="#44c7b6"/><path d="M126.182,90.592s42.972.589,46.848-34.484C173.03,56.108,132.387,51.6,126.182,90.592Z" fill="#44c7b6"/><path d="M135.5,247.86A44.454,44.454,0,0,1,95.7,234.6C76.52,214.34,61.07,187.17,50.95,165A52.755,52.755,0,0,1,99.04,90.59h15A52.755,52.755,0,0,0,65.95,165c10.12,22.17,25.57,49.34,44.75,69.6A44.278,44.278,0,0,0,135.5,247.86Z" fill="#f973a3"/><path d="M205.05,165c-10.12,22.16-25.56,49.33-44.74,69.6a44.438,44.438,0,0,1-39.81,13.26,44.183,44.183,0,0,0,24.81-13.26c19.18-20.27,34.62-47.44,44.74-69.6a52.755,52.755,0,0,0-48.09-74.41h15A52.755,52.755,0,0,1,205.05,165Z" fill="#ea2a6a"/><path d="M199.956,106.308h0a56.691,56.691,0,0,0-42.663-19.7C168.771,80,175.547,69.747,177.005,56.548a4,4,0,0,0-3.534-4.415c-.353-.039-28.218-2.814-43.044,17.219,1.93-16.655,8.592-40.273,29.308-58.887a4,4,0,1,0-5.347-5.95c-23.333,20.966-30.361,47.129-32.182,65.2C107.452,49.284,79.25,52.093,78.894,52.133a4,4,0,0,0-3.535,4.415c1.468,13.285,8.326,23.58,19.944,30.181a56.727,56.727,0,0,0-47.992,79.932c7.453,16.327,23.271,47.222,45.479,70.686a48.465,48.465,0,0,0,70.425,0c22.2-23.454,38.02-54.353,45.474-70.684A56.712,56.712,0,0,0,199.956,106.308ZM168.33,59.928c-4.908,20.984-27.1,25.465-37.165,26.413C137.46,62.9,159.041,60.04,168.33,59.928Zm-84.294,0c9.294.112,30.87,2.977,37.164,26.412C111.138,85.393,88.943,80.912,84.036,59.929Zm117.376,103.41c-7.249,15.879-22.6,45.894-44.008,68.507a40.471,40.471,0,0,1-58.8,0c-21.413-22.624-36.766-52.634-44.013-68.509a48.745,48.745,0,0,1,44.45-68.746h57.925a48.706,48.706,0,0,1,36.931,16.935h0A48.692,48.692,0,0,1,201.412,163.339Z" fill="#5f266d"/><ellipse cx="92.381" cy="122.686" rx="5.841" ry="8.811" fill="#5f266d"/><ellipse cx="128.11" cy="122.686" rx="5.841" ry="8.811" fill="#5f266d"/><ellipse cx="163.839" cy="122.686" rx="5.841" ry="8.811" fill="#5f266d"/><ellipse cx="92.381" cy="187.81" rx="5.841" ry="8.811" fill="#5f266d"/><ellipse cx="128.11" cy="187.81" rx="5.841" ry="8.811" fill="#5f266d"/><ellipse cx="163.839" cy="187.81" rx="5.841" ry="8.811" fill="#5f266d"/><ellipse cx="109.511" cy="153.547" rx="5.841" ry="8.811" fill="#5f266d"/><ellipse cx="145.24" cy="153.547" rx="5.841" ry="8.811" fill="#5f266d"/><ellipse cx="180.97" cy="153.547" rx="5.841" ry="8.811" fill="#5f266d"/><ellipse cx="75.03" cy="153.547" rx="5.841" ry="8.811" fill="#5f266d"/><path d="M110.135,207.319c-3.225,0-5.84,3.945-5.84,8.811s2.615,8.811,5.84,8.811,5.841-3.945,5.841-8.811S113.361,207.319,110.135,207.319Z" fill="#5f266d"/><path d="M145.865,207.319c-3.226,0-5.841,3.945-5.841,8.811s2.615,8.811,5.841,8.811,5.841-3.945,5.841-8.811S149.091,207.319,145.865,207.319Z" fill="#5f266d"/><path d="M64.937,141.859a4,4,0,0,0-7.976-.622,36.051,36.051,0,0,0,.166,7.216,4,4,0,0,0,7.94-.979A28.042,28.042,0,0,1,64.937,141.859Z" fill="#5f266d"/><path d="M77.109,108.5A53.432,53.432,0,0,0,61.88,125.4a4,4,0,1,0,6.99,3.891,46.019,46.019,0,0,1,12.7-14.144,4,4,0,0,0-4.458-6.642Z" fill="#5f266d"/></svg>