<svg xmlns="http://www.w3.org/2000/svg" viewBox="0 0 256 256"><title>Foodies Expanded</title><path d="M225.89,191.7l-21.13,30.38a9.983,9.983,0,0,1-8.21,4.3H57.52a10.031,10.031,0,0,1-8.18-4.24L27.88,191.7Z" fill="#ffe2e2"/><rect x="5.336" y="169.583" width="242.991" height="22.121" rx="10.667" ry="10.667" fill="#ffe2e2"/><path d="M209.52,169.58H58.96c.27-.6.56-1.2.85-1.79V142.76a87.991,87.991,0,0,1,149.71,26.82Z" fill="#f9d335"/><path d="M144.6,48.542h95.228a10.833,10.833,0,0,1,10.833,10.833v0a10.833,10.833,0,0,1-10.833,10.833H144.6a5,5,0,0,1-5-5V53.542a5,5,0,0,1,5-5Z" fill="#ff4a73"/><path d="M59.81,37.19V169.58H44.68V37.19a7.565,7.565,0,0,1,15.13,0Z" fill="#f9d335"/><path d="M72.52,226.38h-15a10.031,10.031,0,0,1-8.18-4.24L27.88,191.7h15l21.46,30.44A10.031,10.031,0,0,0,72.52,226.38Z" fill="#ffefee"/><path d="M31,191.7H16A10.657,10.657,0,0,1,5.34,181.04v-.79A10.665,10.665,0,0,1,16,169.58H31a10.665,10.665,0,0,0-10.66,10.67v.79A10.657,10.657,0,0,0,31,191.7Z" fill="#ffefee"/><path d="M225.89,191.7l-21.13,30.38a9.983,9.983,0,0,1-8.21,4.3h-15a9.983,9.983,0,0,0,8.21-4.3l21.13-30.38Z" fill="#ffcfcf"/><path d="M248.33,180.25v.79a10.665,10.665,0,0,1-10.67,10.66h-15a10.665,10.665,0,0,0,10.67-10.66v-.79a10.674,10.674,0,0,0-10.67-10.67h15A10.674,10.674,0,0,1,248.33,180.25Z" fill="#ffcfcf"/><path d="M134.3,112.07a87.923,87.923,0,0,0-59.49,30.69v25.03c-.29.59-.58,1.19-.85,1.79h-15c.27-.6.56-1.2.85-1.79V142.76a87.889,87.889,0,0,1,67.02-31.01Q130.61,111.75,134.3,112.07Z" fill="#f9e27d"/><path d="M209.52,169.58h-15a88.194,88.194,0,0,0-75.22-57.51q3.735-.315,7.53-.32A88.164,88.164,0,0,1,209.52,169.58Z" fill="#f2c300"/><path d="M190.511,213.042h3.25a4,4,0,0,0,0-8h-3.25a4,4,0,0,0,0,8Z" fill="#5f266d"/><path d="M160.511,213.042h15a4,4,0,0,0,0-8h-15a4,4,0,0,0,0,8Z" fill="#5f266d"/><path d="M237.66,165.583h-25.4C188.269,105.81,111.218,88.155,63.81,132.767V78.42h9.63c5.613,0,10.18-5.194,10.18-11.58V63.69H135.6v1.518a9.01,9.01,0,0,0,9,9h95.227a14.833,14.833,0,1,0,0-29.666H144.6a9.01,9.01,0,0,0-9,9V55.69H83.62V52.54c0-6.386-4.567-11.58-10.18-11.58H63.81V37.189a11.565,11.565,0,1,0-23.13,0V40.96h-8.6a4,4,0,0,0,0,8h8.6v6.73h-8.6a4,4,0,0,0,0,8h8.6v6.73h-8.6a4,4,0,0,0,0,8h8.6v87.163H16A14.683,14.683,0,0,0,1.336,180.25v.788A14.682,14.682,0,0,0,16,195.7h9.807l20.269,28.751A14.059,14.059,0,0,0,57.52,230.38H196.55a13.974,13.974,0,0,0,11.494-6.016l19.934-28.66h9.682c7.5,0,14.667-5.722,14.667-15.454A14.683,14.683,0,0,0,237.66,165.583ZM143.6,53.542a1,1,0,0,1,1-1h95.227a6.833,6.833,0,1,1,0,13.666H144.6a1,1,0,0,1-1-1ZM63.81,48.96h9.63c1.029,0,2.18,1.531,2.18,3.58v3.15H63.81Zm0,14.73H75.62v3.15c0,2.049-1.151,3.58-2.18,3.58H63.81Zm0,80.562c40.8-46.243,115.026-34.032,139.771,21.328h-6.36c-25.939-52.221-98.035-59.261-133.411-11.957ZM91.4,165.58h-8.85c20.687-26.162,59.964-29.164,84.129-5a56.569,56.569,0,0,1,4.442,5h-8.885C143.439,146.033,110.924,145.261,91.4,165.58Zm58.489,0H103.73A41.816,41.816,0,0,1,149.887,165.58Zm-77.164,0H65.5c27.111-47.453,95.553-47.544,122.66,0h-7.258a64.615,64.615,0,0,0-8.573-10.656C143.285,125.873,94.935,131.2,72.723,165.58ZM48.68,37.189a3.565,3.565,0,1,1,7.13,0V165.58H48.68ZM201.47,219.806a5.981,5.981,0,0,1-4.92,2.574H57.52a6.042,6.042,0,0,1-4.911-2.544L35.6,195.7H218.233Zm36.19-32.1-209.78,0c-.019,0-.037,0-.056,0H16a6.673,6.673,0,0,1-6.666-6.666v-.788A6.674,6.674,0,0,1,16,173.583H237.66C246.561,173.583,246.563,187.7,237.66,187.7Z" fill="#5f266d"/></svg>