<svg xmlns="http://www.w3.org/2000/svg" viewBox="0 0 256 256"><title>Foodies Expanded</title><path d="M126.81,185.027c0,6.9-6.87,12.5-15.34,12.5s-15.33-5.6-15.33-12.5,6.87-12.5,15.33-12.5S126.81,178.127,126.81,185.027Z" fill="#ffefee"/><path d="M234.93,72.207c-22.92-14.58-81.56,8.37-106.62,19.07a141.268,141.268,0,0,0-29.41,16.81v49.82a3.676,3.676,0,0,1-5.57,3.15l-26.29-15.87c-7.02,14.06-9.44,28.38-7.38,40.93,3.96,24.15,24.46,41.76,60.65,38.42,31.62-2.91,46.49-24.74,48.24-40.43,2.63-23.57,18.72-43.52,41.45-50.28.62-.18,1.22-.36,1.8-.52a62.47,62.47,0,0,0,25.7-14.14c6.07-5.65,10.72-12.4,11.86-20.42v-6.19C248.19,84.077,242.21,76.827,234.93,72.207ZM111.47,197.527c-8.46,0-15.33-5.6-15.33-12.5s6.87-12.5,15.33-12.5,15.34,5.6,15.34,12.5S119.94,197.527,111.47,197.527Z" fill="#ff4a73"/><path d="M249.36,98.747V124c-1.14,8.02-5.79,14.77-11.86,20.42a61.941,61.941,0,0,1-25.53,14.1c-.63.17-1.29.36-1.97.57-22.73,6.75-38.82,26.71-41.45,50.28-1.75,15.69-16.62,37.51-48.24,40.43-32.56,3-52.42-10.95-58.96-31.36a37.645,37.645,0,0,1-1.69-11.5v-20.82c3.96,24.15,24.46,41.76,60.65,38.42,31.62-2.91,46.49-24.74,48.24-40.43,2.63-23.57,18.72-43.52,41.45-50.28.62-.18,1.22-.36,1.8-.52a62.47,62.47,0,0,0,25.7-14.14C243.57,113.517,248.22,106.767,249.36,98.747Z" fill="#ea2a6a"/><path d="M119.39,224.607c-81.79,6.8-82.24-94.4,8.92-133.33,21.04-8.98,65.73-26.59,93.1-23.39-26.66,2.45-60.58,15.91-78.1,23.39C58.11,127.667,52.93,218.437,119.39,224.607Z" fill="#f973a3"/><path d="M249.36,98.747c-1.14,8.02-5.79,14.77-11.86,20.42a62.47,62.47,0,0,1-25.7,14.14c-.58.16-1.18.34-1.8.52-22.73,6.76-38.82,26.71-41.45,50.28-1.75,15.69-16.62,37.52-48.24,40.43a85.7,85.7,0,0,1-15.92.07c.3-.02.61-.04.92-.07,31.62-2.91,46.49-24.74,48.24-40.43,2.63-23.57,18.72-43.52,41.45-50.28.62-.18,1.22-.36,1.8-.52a62.47,62.47,0,0,0,25.7-14.14c6.07-5.65,10.72-12.4,11.86-20.42,1.58-11.1-5.43-20.82-14.43-26.54a31.814,31.814,0,0,0-13.52-4.32c11.48-1.06,21.62-.07,28.52,4.32C243.93,77.927,250.94,87.647,249.36,98.747Z" fill="#ea2a6a"/><path d="M62.94,118.417a55.976,55.976,0,0,1-35.96-12.99v52.48a3.676,3.676,0,0,0,5.57,3.15l28.49-17.2a3.7,3.7,0,0,1,3.8,0l2.2,1.33,26.29,15.87a3.676,3.676,0,0,0,5.57-3.15v-52.48A55.976,55.976,0,0,1,62.94,118.417Z" fill="#f9d335"/><path d="M62.94,5.817a56.294,56.294,0,1,0,56.3,56.3A56.3,56.3,0,0,0,62.94,5.817Z" fill="#f9d335"/><path d="M76.742,46.531h.351A14.308,14.308,0,0,1,91.4,60.839V81.414A14.308,14.308,0,0,1,77.093,95.722H65.6a24.5,24.5,0,0,1-16.963-6.794,3.162,3.162,0,0,0-2.192-.869H35.791a5.724,5.724,0,0,1-5.723-5.724V58.286a5.723,5.723,0,0,1,5.723-5.723H48.227a3.213,3.213,0,0,0,2.152-.818c5.76-5.219,14.405-18.459,18.727-24.9a2.863,2.863,0,0,1,3.971-.79c5.557,3.745,6.046,9.077,3.562,13.013L74.5,42.46A2.655,2.655,0,0,0,76.742,46.531Z" fill="#ffbb98"/><path d="M41.98,105.427a55.973,55.973,0,0,0,28.46,12.5,57.964,57.964,0,0,1-7.5.49,56.3,56.3,0,1,1,7.5-112.1,56.294,56.294,0,0,0-28.46,99.11Z" fill="#f9e27d"/><path d="M119.24,62.117a56.318,56.318,0,0,1-56.3,56.3,57.964,57.964,0,0,1-7.5-.49,56.308,56.308,0,0,0,0-111.61,56.313,56.313,0,0,1,63.8,55.8Z" fill="#f2c300"/><path d="M41.98,114.387v40.98l-9.43,5.69a3.676,3.676,0,0,1-5.57-3.15v-52.48A56.01,56.01,0,0,0,41.98,114.387Z" fill="#f9e27d"/><path d="M111.47,197.527c-8.46,0-15.33-5.6-15.33-12.5s6.87-12.5,15.33-12.5,15.34,5.6,15.34,12.5S119.94,197.527,111.47,197.527Z" fill="#ffefee"/><path d="M98.9,105.427v52.48a3.676,3.676,0,0,1-5.57,3.15l-9.43-5.69v-40.98A56.01,56.01,0,0,0,98.9,105.427Z" fill="#f2c300"/><path d="M77.093,99.722A18.329,18.329,0,0,0,95.4,81.414V60.839a18.334,18.334,0,0,0-16.289-18.2l.91-1.443C87.606,29.181,72,15.32,65.784,24.613c-4.122,6.164-12.557,19-17.854,23.95H35.791a9.734,9.734,0,0,0-9.723,9.724V82.335a9.734,9.734,0,0,0,9.723,9.724H46.123A28.461,28.461,0,0,0,65.6,99.722ZM46.442,84.059H35.791a1.725,1.725,0,0,1-1.723-1.724V58.287a1.725,1.725,0,0,1,1.723-1.724H48.227a7.2,7.2,0,0,0,4.838-1.854c5.917-5.362,14.254-18.005,18.7-24.649,7.235,6.056-4.912,9.667-.85,17.031a6.682,6.682,0,0,0,6.178,3.44A10.319,10.319,0,0,1,87.4,60.839V81.414A10.319,10.319,0,0,1,77.093,91.722H65.6a20.488,20.488,0,0,1-14.189-5.675A7.122,7.122,0,0,0,46.442,84.059Z" fill="#5f266d"/><path d="M198.236,81.289C184.9,84.432,177.7,89.14,177.4,89.339a4,4,0,0,0,4.409,6.676c.063-.041,6.445-4.154,18.263-6.94a4,4,0,0,0-1.836-7.786Z" fill="#5f266d"/><path d="M221.778,78.507h-.051c-2.723.034-5.446.161-8.094.378a4,4,0,0,0,.323,7.987c.11,0,.22,0,.332-.013,2.463-.2,5-.321,7.539-.353a4,4,0,0,0-.049-8Z" fill="#5f266d"/><path d="M237.074,68.83C215.034,54.815,164.909,71.3,126.741,87.6q-6.353,2.711-12.3,5.9A60.319,60.319,0,1,0,22.98,107.236v50.671a7.683,7.683,0,0,0,11.638,6.574l26.5-16c-5.469,12.886-7.356,25.885-5.463,37.911v20.547a41.586,41.586,0,0,0,1.881,12.72c8.553,26.694,34.66,36.748,63.137,34.123,34.8-3.214,50.072-28.056,51.848-43.97,2.429-21.767,17.2-41.135,40.523-47.442a66.22,66.22,0,0,0,27.177-15.024c7.537-7.016,11.942-14.682,13.094-22.785a4.063,4.063,0,0,0,.04-.562V92.557C253.36,88.372,249.754,76.877,237.074,68.83ZM29.535,102.349A52.3,52.3,0,1,1,115.24,62.117C115.24,106.29,63.5,130.631,29.535,102.349Zm29.438,38.084-27.993,16.9V113.249a60.371,60.371,0,0,0,63.92,0v44.083L66.894,140.425A7.692,7.692,0,0,0,58.973,140.433Zm105.6,68.49c-1.485,13.309-14.6,34.117-44.632,36.891-37.562,3.462-56.283-17.061-56.283-38.9,20.879,30.653,79.9,30.1,101.813-3.73Q164.9,206.014,164.575,208.923Zm70.2-67.437c-9.023,8.385-17.629,11.205-25.916,13.766a62.066,62.066,0,0,0-36.291,28.953,54.775,54.775,0,0,1,40.315-47.048c13.885-3.915,25.328-11.668,32.474-20.53C245.36,121.616,247.015,130.093,234.778,141.486ZM208.86,129.993a62.905,62.905,0,0,0-44.285,53.67c-1.5,13.428-14.753,34.141-44.632,36.891-27.8,2.559-51.846-7.7-56.336-35.085-1.751-10.671.086-22.8,5.178-34.557,23.976,14.473,25.245,16.548,30.221,13.673h0c1-.8,3.894-2.373,3.894-6.678v-47.8a138.578,138.578,0,0,1,26.98-15.151C180.594,73.3,218.1,66.242,232.784,75.582l0,0C258.189,91.7,243.037,120,208.86,129.993Z" fill="#5f266d"/><path d="M111.47,168.527c-10.658,0-19.33,7.4-19.33,16.5s8.672,16.5,19.33,16.5,19.34-7.4,19.34-16.5S122.134,168.527,111.47,168.527Zm0,25c-6.141,0-11.33-3.893-11.33-8.5s5.189-8.5,11.33-8.5,11.34,3.892,11.34,8.5S117.617,193.527,111.47,193.527Z" fill="#5f266d"/></svg>