<svg xmlns="http://www.w3.org/2000/svg" viewBox="0 0 256 256"><title>Foodies Expanded</title><path d="M61.537,118.83a55.976,55.976,0,0,1-35.96-12.99v52.48a3.676,3.676,0,0,0,5.57,3.15l28.49-17.2a3.7,3.7,0,0,1,3.8,0l2.2,1.33,26.29,15.87a3.676,3.676,0,0,0,5.57-3.15V105.84A55.976,55.976,0,0,1,61.537,118.83Z" fill="#f9d335"/><path d="M61.537,6.23a56.294,56.294,0,1,0,56.3,56.3A56.3,56.3,0,0,0,61.537,6.23Z" fill="#f9d335"/><path d="M75.339,46.945h.351A14.307,14.307,0,0,1,90,61.253V81.828A14.307,14.307,0,0,1,75.69,96.136h-11.5a24.5,24.5,0,0,1-16.964-6.794,3.162,3.162,0,0,0-2.192-.87H34.388a5.723,5.723,0,0,1-5.723-5.723V58.7a5.723,5.723,0,0,1,5.723-5.723H46.825a3.217,3.217,0,0,0,2.152-.818c5.759-5.219,14.4-18.459,18.726-24.9a2.866,2.866,0,0,1,3.972-.79c5.556,3.746,6.045,9.078,3.561,13.014l-2.142,3.395A2.655,2.655,0,0,0,75.339,46.945Z" fill="#ffbb98"/><path d="M40.577,105.84a55.973,55.973,0,0,0,28.46,12.5,57.964,57.964,0,0,1-7.5.49,56.3,56.3,0,1,1,7.5-112.1,56.294,56.294,0,0,0-28.46,99.11Z" fill="#f9e27d"/><path d="M117.837,62.53a56.318,56.318,0,0,1-56.3,56.3,57.964,57.964,0,0,1-7.5-.49,56.308,56.308,0,0,0,0-111.61,56.313,56.313,0,0,1,63.8,55.8Z" fill="#f2c300"/><path d="M40.577,114.8v40.98l-9.43,5.69a3.676,3.676,0,0,1-5.57-3.15V105.84A56.01,56.01,0,0,0,40.577,114.8Z" fill="#f9e27d"/><path d="M97.5,105.84v52.48a3.676,3.676,0,0,1-5.57,3.15l-9.43-5.69V114.8A56.01,56.01,0,0,0,97.5,105.84Z" fill="#f2c300"/><rect x="120.235" y="72.094" width="130.527" height="177.66" rx="5" ry="5" fill="#ffbb98"/><path d="M147.4,7.122h0a16.333,16.333,0,0,1,16.333,16.333V72.094a0,0,0,0,1,0,0H131.065a0,0,0,0,1,0,0V23.455A16.333,16.333,0,0,1,147.4,7.122Z" fill="#b76c6c"/><path d="M228.605,53.592c-.2,0-.39.01-.58.02a13.843,13.843,0,0,0,.139-1.94,13.545,13.545,0,0,0-13.549-13.54,13.9,13.9,0,0,0-3.25.39,10.142,10.142,0,0,0-19.951,0,13.9,13.9,0,0,0-3.25-.39,13.546,13.546,0,0,0-13.549,13.54,13.694,13.694,0,0,0,.14,1.94c-.19-.01-.39-.02-.58-.02a10.437,10.437,0,0,0-6.63,18.5h67.679a10.431,10.431,0,0,0-6.619-18.5Z" fill="#44c7b6"/><path d="M239.605,36.162,228.034,53.5a12.187,12.187,0,0,0,.13-1.83,13.545,13.545,0,0,0-13.549-13.54,13.9,13.9,0,0,0-3.25.39,10.31,10.31,0,0,0-.81-2.52l17.33-11.58a1.927,1.927,0,0,1,2.45.24l9.03,9.05A1.938,1.938,0,0,1,239.605,36.162Z" fill="#3bb2a0"/><path d="M192.1,36.322a9.69,9.69,0,0,0-.681,2.2,13.9,13.9,0,0,0-3.25-.39,13.546,13.546,0,0,0-13.549,13.54,13.694,13.694,0,0,0,.14,1.94c-.19-.01-.39-.02-.58-.02a10.435,10.435,0,0,0-10.44,10.44V23.452a16.1,16.1,0,0,0-2.19-8.15,24.37,24.37,0,0,1,5.77-.68A24.994,24.994,0,0,1,192.1,36.322Z" fill="#ff4a73"/><path d="M140.239,249.758h-15a5,5,0,0,1-5-5V77.1a5,5,0,0,1,5-5h15a5,5,0,0,0-5,5v167.66A5,5,0,0,0,140.239,249.758Z" fill="#ffcaa6"/><path d="M250.759,77.1v167.66a5,5,0,0,1-5,5h-15a5,5,0,0,0,5-5V77.1a5,5,0,0,0-5-5h15A5,5,0,0,1,250.759,77.1Z" fill="#ffaa80"/><path d="M154.9,8.948a16.319,16.319,0,0,0-8.83,14.51V72.1h-15V23.458A16.337,16.337,0,0,1,147.4,7.118,16.147,16.147,0,0,1,154.9,8.948Z" fill="#c98585"/><path d="M201.389,30.208a10.137,10.137,0,0,0-9.97,8.31,13.9,13.9,0,0,0-3.25-.39,13.546,13.546,0,0,0-13.55,13.54,13.843,13.843,0,0,0,.14,1.94c-.19-.01-.39-.02-.58-.02a10.437,10.437,0,0,0-6.63,18.5h15a10.437,10.437,0,0,1,6.63-18.5c.19,0,.39.01.58.02a13.843,13.843,0,0,1-.14-1.94,13.546,13.546,0,0,1,13.55-13.54,13.9,13.9,0,0,1,3.25.39,10.124,10.124,0,0,1,2.47-4.98A10.043,10.043,0,0,0,201.389,30.208Z" fill="#4bdbc3"/><path d="M245.762,68.094h-3.32a14.343,14.343,0,0,0-7.86-17.2l8.345-12.506a5.943,5.943,0,0,0-.731-7.5l-9.033-9.053a5.939,5.939,0,0,0-7.5-.737l-14.11,9.428a14.136,14.136,0,0,0-17.544-2.233A28.905,28.905,0,0,0,163.362,10.9a20.313,20.313,0,0,0-36.3,12.553V68.094h-1.828a8.921,8.921,0,0,0-3.741.825A60.3,60.3,0,1,0,1.238,62.545a60.093,60.093,0,0,0,20.339,45.12v50.67a7.682,7.682,0,0,0,11.638,6.574l28.322-17.1,28.332,17.1a7.683,7.683,0,0,0,11.628-6.58v-50.67a60.219,60.219,0,0,0,14.739-19.719V244.755a9.01,9.01,0,0,0,9,9H245.762a9.01,9.01,0,0,0,9-9V77.094A9.01,9.01,0,0,0,245.762,68.094ZM93.5,157.76,65.49,140.852a7.7,7.7,0,0,0-7.92.009l-27.993,16.9V113.677a60.365,60.365,0,0,0,63.92,0Zm1.44-54.979a52.293,52.293,0,1,1,18.9-40.236A52.29,52.29,0,0,1,94.937,102.781ZM228.7,28.687l6.641,6.656L230.033,43.3a17.838,17.838,0,0,0-10.521-8.474ZM193.6,41.872c1.737-1.131,1.681-2.836,2.137-3.889a6.127,6.127,0,0,1,11.438.329c.362,1.032.364,2.491,2.007,3.561,1.958,1.273,3.122.259,5.434.259a9.55,9.55,0,0,1,9.449,10.917c-.27,1.9.849,4.543,4.54,4.543a6.443,6.443,0,0,1,4.991,10.5H169.179a6.434,6.434,0,0,1,5.371-10.486,4,4,0,0,0,4.166-4.551,9.55,9.55,0,0,1,9.449-10.923C190.487,42.132,191.643,43.15,193.6,41.872Zm-6.009-7.731a17.616,17.616,0,0,0-16.9,15.875,16.234,16.234,0,0,0-2.958,1.093c0-28.934.248-29.1-.582-32.487A21.057,21.057,0,0,1,187.59,34.141ZM135.064,23.455A12.326,12.326,0,0,1,158.129,17.4c1.968,3.435,1.6,6.223,1.6,11.385L135.064,45.962Zm0,32.255,24.667-17.178V68.094H135.064Zm111.7,189.045a1,1,0,0,1-1,1H125.236a1,1,0,0,1-1-1V77.094a1,1,0,0,1,1-1H245.762a1,1,0,0,1,1,1Z" fill="#5f266d"/><path d="M231.5,178.788a4,4,0,0,0-4,4v31a4,4,0,0,0,8,0v-31A4,4,0,0,0,231.5,178.788Z" fill="#5f266d"/><path d="M231.5,224.788a4,4,0,0,0-4,4v3.334a4,4,0,0,0,8,0v-3.334A4,4,0,0,0,231.5,224.788Z" fill="#5f266d"/><path d="M77.708,43.07l.911-1.442c3.261-5.167,3.178-13.15-4.729-18.479a6.878,6.878,0,0,0-9.509,1.892c-4.1,6.128-12.548,18.993-17.854,23.95H34.388a9.735,9.735,0,0,0-9.723,9.724V82.764a9.734,9.734,0,0,0,9.723,9.723H44.721a28.461,28.461,0,0,0,19.474,7.663h11.5A18.328,18.328,0,0,0,94,81.843V61.267A18.335,18.335,0,0,0,77.708,43.07ZM86,81.843A10.319,10.319,0,0,1,75.691,92.15h-11.5A20.487,20.487,0,0,1,50,86.471a7.131,7.131,0,0,0-4.963-1.984H34.388a1.725,1.725,0,0,1-1.723-1.723V58.715a1.726,1.726,0,0,1,1.723-1.724H46.824a7.2,7.2,0,0,0,4.838-1.854c5.907-5.351,14.24-17.979,18.7-24.649,2.437,2.04,2.988,4.5,1.491,6.87l-2.143,3.4A6.661,6.661,0,0,0,75.691,50.96,10.319,10.319,0,0,1,86,61.267Z" fill="#5f266d"/></svg>