<svg xmlns="http://www.w3.org/2000/svg" viewBox="0 0 256 256"><title>Foodies Expanded</title><path d="M197.357,250.23a114.7,114.7,0,0,0-28.21-3.52h-82.3a114.437,114.437,0,0,0-28.21,3.52,4.124,4.124,0,0,1-5.14-3.99,4.057,4.057,0,0,1,.41-1.79c5.49-11.44,9.29-19.33,11.32-28.72a84.235,84.235,0,0,0,1.74-18.29V105.39a85.014,85.014,0,0,0-1.73-18.28c-.44-2.04-.97-4.01-1.58-5.96-2.18-7.03-5.45-13.81-9.75-22.77a4.129,4.129,0,0,1,3.69-5.91,4.232,4.232,0,0,1,1.04.13,114.7,114.7,0,0,0,28.21,3.52H100.7l17.89,30.99,5.85,10.14a4.111,4.111,0,0,0,7.12,0l5.85-10.14L155.3,56.12h13.85a116.329,116.329,0,0,0,14.21-.88,115.44,115.44,0,0,0,14-2.64,4.129,4.129,0,0,1,5.14,3.99,4.027,4.027,0,0,1-.41,1.79c-5.49,11.45-9.3,19.34-11.33,28.73a84.884,84.884,0,0,0-1.73,18.28v92.05a84.235,84.235,0,0,0,1.74,18.29c2.03,9.39,5.83,17.28,11.32,28.72A4.122,4.122,0,0,1,197.357,250.23Z" fill="#f9d335"/><path d="M80.237,87.11a85.014,85.014,0,0,1,1.73,18.28v92.05a84.235,84.235,0,0,1-1.74,18.29c-2.03,9.39-5.83,17.28-11.32,28.72a4.057,4.057,0,0,0-.41,1.79,4.135,4.135,0,0,0,.46,1.87q-5.2.825-10.32,2.12a4.124,4.124,0,0,1-5.14-3.99,4.057,4.057,0,0,1,.41-1.79c5.49-11.44,9.29-19.33,11.32-28.72a84.235,84.235,0,0,0,1.74-18.29V105.39a85.014,85.014,0,0,0-1.73-18.28c-.44-2.04-.97-4.01-1.58-5.96-2.18-7.03-5.45-13.81-9.75-22.77a4.129,4.129,0,0,1,3.69-5.91,4.232,4.232,0,0,1,1.04.13q5.115,1.3,10.32,2.12a4.024,4.024,0,0,0-.05,3.66c4.3,8.96,7.57,15.74,9.75,22.77C79.267,83.1,79.8,85.07,80.237,87.11Z" fill="#f9e27d"/><path d="M197.357,250.23q-5.115-1.3-10.32-2.12a4.024,4.024,0,0,0,.05-3.66c-5.49-11.44-9.29-19.33-11.32-28.72a84.235,84.235,0,0,1-1.74-18.29V105.39a84.884,84.884,0,0,1,1.73-18.28c2.03-9.39,5.84-17.28,11.33-28.73a4.027,4.027,0,0,0,.41-1.79,4.145,4.145,0,0,0-.46-1.88q5.205-.81,10.32-2.11a4.129,4.129,0,0,1,5.14,3.99,4.027,4.027,0,0,1-.41,1.79c-5.49,11.45-9.3,19.34-11.33,28.73a84.884,84.884,0,0,0-1.73,18.28v92.05a84.235,84.235,0,0,0,1.74,18.29c2.03,9.39,5.83,17.28,11.32,28.72A4.122,4.122,0,0,1,197.357,250.23Z" fill="#f2c300"/><path d="M66.967,197.44V105.39a85.014,85.014,0,0,0-1.73-18.28h125.52a84.884,84.884,0,0,0-1.73,18.28v92.05a84.235,84.235,0,0,0,1.74,18.29H65.227A84.235,84.235,0,0,0,66.967,197.44Z" fill="#ff4a73"/><path d="M140.317,9.74V41.79h-24.64V9.74a4.1,4.1,0,0,1,4.1-4.11h16.44A4.1,4.1,0,0,1,140.317,9.74Z" fill="#3bb2a0"/><path d="M156.457,41.79H99.537a4.108,4.108,0,0,0-3.56,6.16l4.72,8.17,23.74,41.13a4.111,4.111,0,0,0,7.12,0L155.3,56.12l4.72-8.17A4.108,4.108,0,0,0,156.457,41.79Z" fill="#44c7b6"/><path d="M81.967,105.39v92.05a84.235,84.235,0,0,1-1.74,18.29h-15a84.235,84.235,0,0,0,1.74-18.29V105.39a85.014,85.014,0,0,0-1.73-18.28h15A85.014,85.014,0,0,1,81.967,105.39Z" fill="#f973a3"/><path d="M189.027,197.44V105.39a84.884,84.884,0,0,1,1.73-18.28h-15a84.884,84.884,0,0,0-1.73,18.28v92.05a84.235,84.235,0,0,0,1.74,18.29h15A84.235,84.235,0,0,1,189.027,197.44Z" fill="#ea2a6a"/><path d="M193.027,197.44c0-113.094-3.26-104.145,12.573-137.133l.077-.162a8.131,8.131,0,0,0-9.3-11.422c-14.957,3.786-25.712,3.4-34.147,3.4l1.254-2.172a8.106,8.106,0,0,0-7.025-12.158h-12.14V9.74a8.114,8.114,0,0,0-8.1-8.11h-16.44a8.114,8.114,0,0,0-8.1,8.11V37.79H99.537a8.106,8.106,0,0,0-7.023,12.161l1.252,2.169c-8.523,0-19.247.383-34.155-3.4a8.126,8.126,0,0,0-9.139,11.746C66.285,93.415,62.967,84.744,62.967,197.44c0,18.887-4.2,27.632-12.559,45.056l-.1.213a8.129,8.129,0,0,0,9.315,11.4c17.3-4.391,20.269-3.4,109.526-3.4a110.218,110.218,0,0,1,27.227,3.4,8.123,8.123,0,0,0,9.212-11.611C197.225,225.072,193.027,216.327,193.027,197.44ZM198.4,56.466a.179.179,0,0,1,.082.183l-.094.2c-4.9,10.2-8.542,17.8-10.777,26.265H144.338L157.61,60.12C171.283,60.12,182,60.607,198.4,56.466ZM70.008,91.11h46.266l4.7,8.139a8.11,8.11,0,0,0,14.049,0l4.7-8.14h46.256c-1.271,8.638-.949,5.954-.949,106.33a97.616,97.616,0,0,0,.949,14.286H70.018a97.477,97.477,0,0,0,.949-14.286C70.967,97.073,71.3,99.846,70.008,91.11ZM119.677,9.74a.1.1,0,0,1,.1-.11h16.44a.1.1,0,0,1,.1.11V37.79h-16.64Zm-20.235,36.1c.032-.055.049-.055.1-.055h56.92c.046,0,.063,0,.095.055s.024.066,0,.1c-7.081,12.267,1.905-3.307-28.461,49.3a.106.106,0,0,1-.191,0c-4.036-6.993-24.318-42.125-28.459-49.3A.082.082,0,0,1,99.442,45.845ZM57.493,56.593a.167.167,0,0,1,.16-.116C73.914,60.6,84.9,60.12,98.384,60.12l13.272,22.99H68.38C65.687,72.917,60.659,63.426,57.493,56.593Zm140.914,189.77a.259.259,0,0,1-.066-.01h0a118.787,118.787,0,0,0-29.194-3.643c-88.909,0-92.856-1.075-111.556,3.654a.172.172,0,0,1-.077-.184l.107-.223c4.89-10.189,8.53-17.779,10.763-26.231H187.61c2.841,10.752,8.628,21.469,10.892,26.516A.208.208,0,0,1,198.407,246.363Z" fill="#5f266d"/><path d="M155.4,227.386h-14a4,4,0,0,0,0,8h14a4,4,0,0,0,0-8Z" fill="#5f266d"/><path d="M171.707,227.386H170.4a4,4,0,0,0-4,4c0,5.421,9.308,5.4,9.308,0A4,4,0,0,0,171.707,227.386Z" fill="#5f266d"/></svg>