<svg xmlns="http://www.w3.org/2000/svg" viewBox="0 0 256 256"><title>Foodies Expanded</title><rect x="39.95" y="35.825" width="28.568" height="30.321" fill="#ffe2e2"/><path d="M91.12,81.73V121.4H17.35V81.73A15.582,15.582,0,0,1,32.94,66.15H75.53A15.582,15.582,0,0,1,91.12,81.73Z" fill="#ffe2e2"/><path d="M70.076,12.1H38.391A7.79,7.79,0,0,0,30.6,19.9V31.929a3.9,3.9,0,0,0,3.9,3.9H73.973a3.9,3.9,0,0,0,3.9-3.9V19.9A7.79,7.79,0,0,0,70.076,12.1Z" fill="#f9d335"/><rect x="113.716" y="35.825" width="28.568" height="30.321" fill="#ffe2e2"/><path d="M164.88,81.73V121.4H91.12V81.73A15.573,15.573,0,0,1,106.7,66.15h42.6A15.573,15.573,0,0,1,164.88,81.73Z" fill="#ffe2e2"/><path d="M143.842,12.1H112.157a7.791,7.791,0,0,0-7.793,7.793V31.929a3.9,3.9,0,0,0,3.9,3.9h39.478a3.9,3.9,0,0,0,3.9-3.9V19.9A7.79,7.79,0,0,0,143.842,12.1Z" fill="#ff4a73"/><rect x="187.482" y="35.825" width="28.568" height="30.321" fill="#ffe2e2"/><path d="M238.65,81.73V121.4H164.88V81.73a15.582,15.582,0,0,1,15.59-15.58h42.59A15.582,15.582,0,0,1,238.65,81.73Z" fill="#ffe2e2"/><path d="M217.608,12.1H185.923A7.791,7.791,0,0,0,178.13,19.9V31.929a3.9,3.9,0,0,0,3.9,3.9h39.478a3.9,3.9,0,0,0,3.9-3.9V19.9A7.79,7.79,0,0,0,217.608,12.1Z" fill="#44c7b6"/><path d="M6.02,126.4V233.9a10,10,0,0,0,10,10H239.98a10,10,0,0,0,10-10V126.4a5,5,0,0,0-5-5H11.02A5,5,0,0,0,6.02,126.4Z" fill="#b76c6c"/><path d="M31.02,243.9h-15a10,10,0,0,1-10-10V126.4a5,5,0,0,1,5-5h15a5,5,0,0,0-5,5V233.9A10,10,0,0,0,31.02,243.9Z" fill="#c98585"/><path d="M249.98,126.4V233.9a10,10,0,0,1-10,10h-15a10,10,0,0,0,10-10V126.4a5,5,0,0,0-5-5h15A5,5,0,0,1,249.98,126.4Z" fill="#965959"/><path d="M47.94,66.15A15.582,15.582,0,0,0,32.35,81.73V121.4h-15V81.73A15.582,15.582,0,0,1,32.94,66.15Z" fill="#ffefee"/><path d="M49.5,35.83h-15a3.9,3.9,0,0,1-3.9-3.9V19.9a7.8,7.8,0,0,1,7.79-7.8h15a7.8,7.8,0,0,0-7.79,7.8V31.93A3.9,3.9,0,0,0,49.5,35.83Z" fill="#f9e27d"/><path d="M121.7,66.15a15.573,15.573,0,0,0-15.58,15.58V121.4h-15V81.73A15.573,15.573,0,0,1,106.7,66.15Z" fill="#ffefee"/><path d="M123.26,35.83h-15a3.905,3.905,0,0,1-3.9-3.9V19.9a7.8,7.8,0,0,1,7.8-7.8h15a7.8,7.8,0,0,0-7.8,7.8V31.93A3.905,3.905,0,0,0,123.26,35.83Z" fill="#f973a3"/><path d="M195.47,66.15a15.582,15.582,0,0,0-15.59,15.58V121.4h-15V81.73a15.582,15.582,0,0,1,15.59-15.58Z" fill="#ffefee"/><path d="M197.03,35.83h-15a3.905,3.905,0,0,1-3.9-3.9V19.9a7.8,7.8,0,0,1,7.79-7.8h15a7.8,7.8,0,0,0-7.79,7.8V31.93A3.905,3.905,0,0,0,197.03,35.83Z" fill="#4bdbc3"/><rect x="17.35" y="90.92" width="73.77" height="30.48" fill="#f9d335"/><rect x="17.35" y="90.92" width="15" height="30.48" fill="#f9e27d"/><rect x="17.35" y="90.92" width="15" height="30.48" fill="#f9e27d"/><rect x="91.12" y="90.92" width="73.76" height="30.48" fill="#ff4a73"/><rect x="91.12" y="90.92" width="15" height="30.48" fill="#f973a3"/><rect x="91.12" y="90.92" width="15" height="30.48" fill="#f973a3"/><rect x="164.88" y="90.92" width="73.77" height="30.48" fill="#44c7b6"/><rect x="164.88" y="90.92" width="15" height="30.48" fill="#4bdbc3"/><rect x="164.88" y="90.92" width="15" height="30.48" fill="#4bdbc3"/><path d="M244.98,117.4h-2.33V81.73a19.608,19.608,0,0,0-19.591-19.58H220.05V39.825h1.455a7.9,7.9,0,0,0,7.9-7.9V19.9A11.807,11.807,0,0,0,217.608,8.1H185.923A11.806,11.806,0,0,0,174.131,19.9V31.929a7.9,7.9,0,0,0,7.9,7.9h1.454V62.15h-3.012a19.552,19.552,0,0,0-15.588,7.771A19.538,19.538,0,0,0,149.3,62.15h-3.016V39.825h1.455a7.9,7.9,0,0,0,7.9-7.9V19.9A11.806,11.806,0,0,0,143.843,8.1H112.157A11.806,11.806,0,0,0,100.365,19.9V31.929a7.9,7.9,0,0,0,7.9,7.9h1.455V62.15H106.7a19.541,19.541,0,0,0-15.581,7.771A19.555,19.555,0,0,0,75.53,62.15H72.518V39.825h1.455a7.9,7.9,0,0,0,7.9-7.9V19.9A11.807,11.807,0,0,0,70.076,8.1H38.391A11.807,11.807,0,0,0,26.6,19.9V31.929a7.906,7.906,0,0,0,7.9,7.9H35.95V62.15H32.94A19.607,19.607,0,0,0,13.35,81.73V117.4H11.02a9.01,9.01,0,0,0-9,9V233.9a14.015,14.015,0,0,0,14,14H239.98a14.015,14.015,0,0,0,14-14V126.4A9.01,9.01,0,0,0,244.98,117.4ZM182.131,19.9a3.8,3.8,0,0,1,3.792-3.793h31.685A3.8,3.8,0,0,1,221.4,19.9V31.825h-39.27ZM212.05,39.825V62.146H191.481V39.825ZM108.365,19.9a3.8,3.8,0,0,1,3.792-3.793h31.686a3.8,3.8,0,0,1,3.792,3.793V31.825h-39.27Zm29.919,19.928V62.146H117.716V39.825ZM34.6,19.9A3.8,3.8,0,0,1,38.391,16.1H70.076A3.8,3.8,0,0,1,73.869,19.9V31.825H34.6Zm29.92,19.928V62.146H43.95V39.825Zm30.6,55.1h65.76V117.4H95.12ZM168.88,117.4V94.92h65.77V117.4ZM180.469,70.15h42.59A11.6,11.6,0,0,1,234.65,81.73v5.19H168.88V81.73A11.6,11.6,0,0,1,180.469,70.15Zm-73.769,0h42.6a11.593,11.593,0,0,1,11.58,11.58v5.19H95.12V81.73A11.593,11.593,0,0,1,106.7,70.15Zm-73.76,0H75.53A11.6,11.6,0,0,1,87.12,81.73v5.19H21.35V81.73A11.6,11.6,0,0,1,32.94,70.15ZM21.35,94.92H87.12V117.4H21.35ZM245.98,233.9a6.006,6.006,0,0,1-6,6H16.02a6.006,6.006,0,0,1-6-6V126.4a1,1,0,0,1,1-1H244.98a1,1,0,0,1,1,1Z" fill="#5f266d"/><path d="M204.362,213.06h-27a4,4,0,0,0,0,8h27a4,4,0,1,0,0-8Z" fill="#5f266d"/><path d="M225.4,213.06h-6.039a4,4,0,0,0,0,8H225.4a4,4,0,0,0,0-8Z" fill="#5f266d"/></svg>