<svg xmlns="http://www.w3.org/2000/svg" viewBox="0 0 256 256"><title>Foodies Expanded</title><path d="M183.16,114.145A77.994,77.994,0,0,0,50,169.3v51.02H75V169.3a53,53,0,0,1,106,0v51.02h25V169.3A77.752,77.752,0,0,0,183.16,114.145Z" fill="#b76c6c"/><path d="M160.93,14.2v84.38a78.117,78.117,0,0,0-65.86,0V14.2a4.415,4.415,0,0,1,4.42-4.42h57.02A4.415,4.415,0,0,1,160.93,14.2Z" fill="#b76c6c"/><path d="M128,116.3a52.989,52.989,0,0,0-53,53v51.02H181V169.3A53,53,0,0,0,128,116.3Z" fill="#f9d335"/><rect x="16.5" y="220.315" width="223" height="25.91" rx="10" ry="10" fill="#b76c6c"/><path d="M154.831,220.315c25.236-26.666-6.795-52.319-14.63-59.136a9.461,9.461,0,0,1-3.213-6.235c-.433-4.625,1.316-9.011,2.62-11.553a1.118,1.118,0,0,0-1.195-1.67c-18.969,5.421-19.68,27.554-19.68,27.554.013-10.188-8.575-14.01-12.567-16.4a1.117,1.117,0,0,0-1.589,1.271l.938,5.19a30.173,30.173,0,0,1-6.7,24.919h0a29.736,29.736,0,0,0-5.279,29.77l2.509,6.293Z" fill="#ff4a73"/><path d="M129.181,184.075c-.789,6.681-7.064,11.389-9.881,13.187a12.69,12.69,0,0,0-4.467,5.155c-3.931,7.96,1.533,17.9,1.533,17.9h23.542C149.788,200.723,129.181,184.075,129.181,184.075Z" fill="#f9d335"/><path d="M135.5,116.825A52.993,52.993,0,0,0,90,169.3v51.02H75V169.3a53.022,53.022,0,0,1,60.5-52.47Z" fill="#f9e27d"/><path d="M181,169.3v51.02H166V169.3a53.009,53.009,0,0,0-45.5-52.47A53.022,53.022,0,0,1,181,169.3Z" fill="#f2c300"/><path d="M118.73,169.075a29.814,29.814,0,0,1-6.85,15.18,29.04,29.04,0,0,0-4.79,7.73,29.668,29.668,0,0,0-.49,22.04l2.51,6.29H96.04l-2.51-6.29a29.843,29.843,0,0,1-1.74-13.24,30.374,30.374,0,0,1,2.23-8.8,29.04,29.04,0,0,1,4.79-7.73,30.167,30.167,0,0,0,6.7-24.92l-.93-5.19a1.115,1.115,0,0,1,1.59-1.27C110.14,155.255,118.64,159.035,118.73,169.075Z" fill="#f973a3"/><path d="M118.96,166.945c-.04.68-.12,1.35-.22,2.02C118.77,168.585,118.83,167.885,118.96,166.945Z" fill="#f973a3"/><path d="M118.74,169.025c0,.1-.01.17-.01.21v-.16A.433.433,0,0,0,118.74,169.025Z" fill="#f973a3"/><path d="M154.83,220.315h-15c25.24-26.67-6.79-52.32-14.63-59.14a9.437,9.437,0,0,1-3.05-5.2c2.7-5.77,7.56-11.77,16.26-14.25a1.119,1.119,0,0,1,1.2,1.67,21.736,21.736,0,0,0-2.62,11.55,9.457,9.457,0,0,0,3.21,6.23C148.04,168,180.07,193.645,154.83,220.315Z" fill="#ea2a6a"/><path d="M114.49,9.775a4.415,4.415,0,0,0-4.42,4.42v79.18a77.558,77.558,0,0,0-15,5.2V14.2a4.415,4.415,0,0,1,4.42-4.42Z" fill="#c98585"/><path d="M160.93,14.2v84.38a77.558,77.558,0,0,0-15-5.2V14.2a4.415,4.415,0,0,0-4.42-4.42h15A4.415,4.415,0,0,1,160.93,14.2Z" fill="#965959"/><path d="M229.5,216.314H210V169.3a81.456,81.456,0,0,0-24.012-57.979h0A81.722,81.722,0,0,0,164.93,96.087V14.2a8.431,8.431,0,0,0-8.42-8.42H99.49a8.43,8.43,0,0,0-8.42,8.42V96.079A82.332,82.332,0,0,0,46,169.3v47.019H26.5a14.016,14.016,0,0,0-14,14v5.911a14.016,14.016,0,0,0,14,14h203a14.016,14.016,0,0,0,14-14v-5.911A14.016,14.016,0,0,0,229.5,216.314Zm-66.45,0c13.8-21.577-.96-41.533-20.225-58.153-3.353-2.916-1.656-9.046.343-12.945a5.118,5.118,0,0,0-5.854-7.341c-11.156,3.188-16.8,11.195-19.662,18.313-3.258-3.486-7.288-5.461-9.43-6.748a4.965,4.965,0,0,0-5.427.184c-3.456,2.388-1.989,6.144-1.217,10.42a26.175,26.175,0,0,1-5.79,21.593,33.748,33.748,0,0,0-5.645,34.677H79V169.3a48.813,48.813,0,0,1,14.347-34.65C124.11,103.912,177,125.727,177,169.3v47.019Zm-44.1,0c-3.2-8.2-.918-13.5,2.5-15.68a29.541,29.541,0,0,0,9.362-9.328c4.47,5.142,10.417,14.522,6.486,25.008Zm12.748-35.35a4,4,0,0,0-6.486,2.641c-.609,5.159-6.324,9.176-8.062,10.286-6,3.829-9.646,11.813-6.625,22.423H98.755c-1.258-3.154-3.687-8.14-2.988-15.129a26,26,0,0,1,6.074-14.318,34.237,34.237,0,0,0,7.792-27.127c3.016,2.265,5.106,5.041,5.1,9.531-.007,5.17,7.828,5.41,8,.133.005-.165.591-14.187,10.8-21.076-1.889,8.117.469,12.78,5.05,16.738,18.083,15.561,30.285,33.232,14.484,51.248h-7.4C149.693,200.757,138.815,186.716,131.7,180.964ZM54,169.3a73.5,73.5,0,0,1,3.145-21.238l15.227,8.791A57.464,57.464,0,0,0,71,169.3v11.962H54Zm42.762-67.1A73.088,73.088,0,0,1,124,95.4v17.047a56.478,56.478,0,0,0-26.648,8.782l-8.5-14.722A73.462,73.462,0,0,1,96.762,102.2Zm70.391,4.3-8.524,14.762A56.592,56.592,0,0,0,132,112.451V95.4A73.387,73.387,0,0,1,167.153,106.5ZM202,169.3v11.962H185c0-12.518.315-16.8-1.384-24.4l15.292-8.829A74.3,74.3,0,0,1,202,169.3Zm-17,19.962h17v27.057H185Zm11.149-48.875-14.9,8.6a57.217,57.217,0,0,0-16.156-22.918l8.632-14.949a74.708,74.708,0,0,1,6.609,5.854A73.9,73.9,0,0,1,196.149,140.382ZM99.07,14.2a.416.416,0,0,1,.42-.42h57.02a.416.416,0,0,1,.42.42V92.548a82.2,82.2,0,0,0-57.686-.062c-.058.022-.116.04-.174.062ZM82.286,111.134l8.607,14.908c-1.095.941-2.169,1.913-3.2,2.944a56.821,56.821,0,0,0-12.962,19.986l-14.811-8.551A74.549,74.549,0,0,1,82.286,111.134ZM54,189.257H71v27.057H54Zm181.5,46.968a6.007,6.007,0,0,1-6,6H26.5a6.007,6.007,0,0,1-6-6v-5.911a6.007,6.007,0,0,1,6-6h203a6.007,6.007,0,0,1,6,6Z" fill="#5f266d"/><path d="M145.667,43.725a4,4,0,0,0,4-4v-14a4,4,0,1,0-8,0v14A4,4,0,0,0,145.667,43.725Z" fill="#5f266d"/><path d="M145.667,61.725a4,4,0,0,0,4-4v-3a4,4,0,1,0-8,0v3A4,4,0,0,0,145.667,61.725Z" fill="#5f266d"/></svg>