<svg xmlns="http://www.w3.org/2000/svg" viewBox="0 0 256 256"><title>Foodies Expanded</title><rect x="45.333" y="11.335" width="165.333" height="233.33" rx="10" ry="10" fill="#ffe2e2"/><rect x="82.217" y="83.615" width="91.566" height="16.204" rx="3.768" ry="3.768" fill="#796e84"/><path d="M128,47.628h0A35.671,35.671,0,0,1,163.671,83.3v.316a0,0,0,0,1,0,0H92.329a0,0,0,0,1,0,0V83.3A35.671,35.671,0,0,1,128,47.628Z" fill="#87828e"/><circle cx="81.801" cy="146.942" r="13.25" fill="#4bdbc3"/><circle cx="174.199" cy="180.899" r="13.25" fill="#4bdbc3"/><path d="M70.33,244.67h-15a10,10,0,0,1-10-10V21.33a10,10,0,0,1,10-10h15a10,10,0,0,0-10,10V234.67A10,10,0,0,0,70.33,244.67Z" fill="#ffefee"/><path d="M210.67,21.33V234.67a10,10,0,0,1-10,10h-15a10,10,0,0,0,10-10V21.33a10,10,0,0,0-10-10h15A10,10,0,0,1,210.67,21.33Z" fill="#ffcfcf"/><path d="M200.667,7.335H55.333a14.015,14.015,0,0,0-14,14v213.33a14.015,14.015,0,0,0,14,14H200.667a14.015,14.015,0,0,0,14-14V21.335A14.015,14.015,0,0,0,200.667,7.335Zm6,227.33a6.006,6.006,0,0,1-6,6H55.333a6.006,6.006,0,0,1-6-6V21.335a6.006,6.006,0,0,1,6-6H200.667a6.006,6.006,0,0,1,6,6Z" fill="#5f266d"/><path d="M138.275,57.669A27.406,27.406,0,0,0,128,55.687a4,4,0,0,0,0,8,19.428,19.428,0,0,1,7.289,1.4,4,4,0,1,0,2.986-7.422Z" fill="#5f266d"/><path d="M151.944,69.556q-.231-.4-.472-.791a4,4,0,0,0-6.8,4.217c.118.189.232.381.344.575a4,4,0,0,0,6.927-4Z" fill="#5f266d"/><path d="M174.2,198.149a17.25,17.25,0,1,0-8.389-32.31l-31.344-62.021h35.549a7.777,7.777,0,0,0,7.768-7.768V87.383a7.777,7.777,0,0,0-7.768-7.768h-2.521A39.738,39.738,0,0,0,132,43.829V36.178h6.513a4,4,0,1,0,0-8H117.487a4,4,0,0,0,0,8H124v7.651A39.738,39.738,0,0,0,88.506,79.615H85.985a7.777,7.777,0,0,0-7.768,7.768V96.05a7.777,7.777,0,0,0,7.768,7.768h33.58L90.611,132.139a17.292,17.292,0,1,0,5.74,5.576l30.972-30.294,32.405,64.121A17.254,17.254,0,0,0,174.2,198.149Zm0-26.5a9.25,9.25,0,1,1-9.25,9.25A9.26,9.26,0,0,1,174.2,171.649ZM81.8,156.192a9.25,9.25,0,1,1,9.25-9.25A9.26,9.26,0,0,1,81.8,156.192ZM128,51.628a31.717,31.717,0,0,1,31.458,27.987H96.542A31.717,31.717,0,0,1,128,51.628ZM86.217,95.818v-8.2h83.566v8.2Z" fill="#5f266d"/><path d="M102.5,173.75H64a4,4,0,0,0,0,8h38.5a4,4,0,0,0,0-8Z" fill="#5f266d"/><path d="M102.5,190.149H64a4,4,0,0,0,0,8h38.5a4,4,0,0,0,0-8Z" fill="#5f266d"/><path d="M102.5,206.547H64a4,4,0,0,0,0,8h38.5a4,4,0,1,0,0-8Z" fill="#5f266d"/><path d="M193.033,206.547h-38.5a4,4,0,0,0,0,8h38.5a4,4,0,0,0,0-8Z" fill="#5f266d"/><path d="M193.033,221.25h-38.5a4,4,0,0,0,0,8h38.5a4,4,0,1,0,0-8Z" fill="#5f266d"/></svg>