<svg xmlns="http://www.w3.org/2000/svg" viewBox="0 0 256 256"><title>Foodies Expanded</title><rect x="7.444" y="78.8" width="130" height="25" rx="5" ry="5" fill="#b76c6c"/><path d="M24.451,103.8h95.986a0,0,0,0,1,0,0V214.713a30,30,0,0,1-30,30H54.451a30,30,0,0,1-30-30V103.8A0,0,0,0,1,24.451,103.8Z" fill="#b76c6c"/><path d="M89.682,42.994a22.724,22.724,0,0,0-34.475,0L24.451,78.8h95.986Z" fill="#ffe2e2"/><path d="M152.518,10.149a8.423,8.423,0,0,0-11.621-.071L96.254,50.646l10.777,12.547L152.4,22.383A8.423,8.423,0,0,0,152.518,10.149Z" fill="#b76c6c"/><path d="M27.44,103.8h-15a5,5,0,0,1-5-5v-15a5,5,0,0,1,5-5h15a5,5,0,0,0-5,5v15A5,5,0,0,0,27.44,103.8Z" fill="#c98585"/><path d="M69.45,244.714h-15a30,30,0,0,1-30-30V103.8h15v110.91A30,30,0,0,0,69.45,244.714Z" fill="#c98585"/><path d="M137.44,83.8v15a5,5,0,0,1-5,5h-15a5,5,0,0,0,5-5v-15a4.989,4.989,0,0,0-5-5h15A4.989,4.989,0,0,1,137.44,83.8Z" fill="#965959"/><path d="M120.44,103.8v110.91a30,30,0,0,1-30,30h-15a30,30,0,0,0,30-30V103.8Z" fill="#965959"/><path d="M79.94,36.344a22.473,22.473,0,0,0-9.73,6.65L39.45,78.8h-15l30.76-35.81A22.692,22.692,0,0,1,79.94,36.344Z" fill="#ffefee"/><path d="M223.645,238.033a57.663,57.663,0,0,1-82.92-75.86l11.72,10.72a42.32,42.32,0,0,0,59.48,54.42Z" fill="#ff4a73"/><path d="M248.555,190.573a57.309,57.309,0,0,1-10.42,33.05l-11.43-10.45a42.321,42.321,0,0,0-61.48-56.24l-11.44-10.47a57.651,57.651,0,0,1,94.77,44.11Z" fill="#ff4a73"/><path d="M226.705,213.175l-61.48-56.24-11.44-10.47a57.976,57.976,0,0,0-13.06,15.71l11.72,10.72,59.48,54.42,11.72,10.72a57.685,57.685,0,0,0,14.49-14.41Z" fill="#ff4a73"/><path d="M132.444,107.8a9.01,9.01,0,0,0,9-9v-15a9.01,9.01,0,0,0-9-9H122.275l-9.662-11.248,42.513-38.239a12.423,12.423,0,1,0-16.92-18.195l-41.6,37.8-3.892-4.531a26.724,26.724,0,0,0-40.544,0L22.614,74.8H12.444a9.01,9.01,0,0,0-9,9v15a9.01,9.01,0,0,0,9,9h8.007V214.713a34.038,34.038,0,0,0,34,34H90.437a34.038,34.038,0,0,0,34-34V107.8Zm11.2-94.81a4.424,4.424,0,0,1,6.09,6.419L107.4,57.482l-5.576-6.492ZM58.24,45.6a18.728,18.728,0,0,1,28.407,0l25.082,29.2H33.16Zm-46.8,53.2v-15a1,1,0,0,1,1-1h120a1,1,0,0,1,1,1v15a1,1,0,0,1-1,1h-120A1,1,0,0,1,11.444,98.8ZM116.438,214.713a26.03,26.03,0,0,1-26,26H54.451a26.029,26.029,0,0,1-26-26V107.8h87.987Z" fill="#5f266d"/><path d="M100.57,223.874a4,4,0,0,0,4-4v-7a4,4,0,1,0-8,0v7A4,4,0,0,0,100.57,223.874Z" fill="#5f266d"/><path d="M100.57,201.874a4,4,0,0,0,4-4v-31a4,4,0,1,0-8,0v31A4,4,0,0,0,100.57,201.874Z" fill="#5f266d"/><path d="M252.556,190.573c0-52.353-61.46-80.768-101.348-47.17a61.818,61.818,0,0,0-13.955,16.787l0,.007c-23.22,40.868,6.471,92.027,53.657,92.027A61.654,61.654,0,0,0,252.556,190.573Zm-8,0a53.261,53.261,0,0,1-7.225,26.9l-5.544-5.072a46.165,46.165,0,0,0,5.468-21.824c0-36.949-41.269-58.843-71.711-38.773l-5.551-5.078C195.406,121.757,244.556,147.162,244.556,190.573Zm-18.914,16.2-53.968-49.367C203.574,138.731,241.637,172.614,225.642,206.775Zm-20.787,19.49c-29.735,11.646-59.629-16.181-50.749-46.428Zm-13.95,17.959c-38.8,0-64.806-40.152-48.994-75.543l5.746,5.257c-15.073,38.885,25.765,76.872,63.653,58.233l5.751,5.261A53.352,53.352,0,0,1,190.905,244.224Zm33.019-11.356c-14.826-13.559-73.3-67.063-78.075-71.43a53.66,53.66,0,0,1,7.911-9.574l70.245,64.262h0l8.758,8.007A53.522,53.522,0,0,1,223.924,232.868Z" fill="#5f266d"/></svg>