<svg xmlns="http://www.w3.org/2000/svg" viewBox="0 0 256 256"><title>Foodies Expanded</title><circle cx="128" cy="128" r="113.633" fill="#f9d335"/><circle cx="128" cy="128" r="89.834" fill="#ffe2e2"/><path d="M135.5,217.52q-3.7.315-7.5.31a89.83,89.83,0,0,1,0-179.66q3.8,0,7.5.31a89.834,89.834,0,0,0,0,179.04Z" fill="#ffefee"/><path d="M217.83,128A89.832,89.832,0,0,1,128,217.83q-3.8,0-7.5-.31a89.834,89.834,0,0,0,0-179.04q3.7-.315,7.5-.31A89.832,89.832,0,0,1,217.83,128Z" fill="#ffcfcf"/><rect x="100.458" y="58.075" width="55.083" height="139.85" rx="5" ry="5" transform="translate(256 256) rotate(180)" fill="#f9d335"/><path d="M120.46,197.93h-15a5,5,0,0,1-5-5V63.07a5,5,0,0,1,5-5h15a5,5,0,0,0-5,5V192.93A5,5,0,0,0,120.46,197.93Z" fill="#f9e27d"/><path d="M155.54,63.07V192.93a5,5,0,0,1-5,5h-15a5,5,0,0,0,5-5V63.07a5,5,0,0,0-5-5h15A5,5,0,0,1,155.54,63.07Z" fill="#f2c300"/><path d="M128,10.367A117.633,117.633,0,1,0,245.633,128,117.766,117.766,0,0,0,128,10.367Zm0,227.266A109.633,109.633,0,1,1,237.633,128,109.757,109.757,0,0,1,128,237.633Z" fill="#5f266d"/><path d="M128,34.166A93.834,93.834,0,1,0,221.834,128,93.941,93.941,0,0,0,128,34.166Zm0,179.668A85.834,85.834,0,1,1,213.834,128,85.931,85.931,0,0,1,128,213.834Z" fill="#5f266d"/><path d="M63.347,156.6a4,4,0,1,0-7.377,3.1,69.084,69.084,0,0,0,17.1,24.045,4,4,0,1,0,5.393-5.91A61,61,0,0,1,63.347,156.6Z" fill="#5f266d"/><path d="M56.222,147.69a4,4,0,0,0,3.413-4.51c-.185-1.339-.317-2.694-.391-4.027a4,4,0,0,0-7.988.446c.087,1.549.239,3.124.455,4.678a4,4,0,0,0,3.957,3.452A3.862,3.862,0,0,0,56.222,147.69Z" fill="#5f266d"/><path d="M150.542,54.075H105.458a9.01,9.01,0,0,0-9,9v129.85a9.01,9.01,0,0,0,9,9h45.084a9.01,9.01,0,0,0,9-9V63.075A9.01,9.01,0,0,0,150.542,54.075Zm1,9V124h-7.25V62.075h6.25A1,1,0,0,1,151.542,63.075Zm-46.084-1h10.9V71.06a4,4,0,0,0,8,0V62.075h11.937V124H104.458V63.075A1,1,0,0,1,105.458,62.075Zm45.084,131.85H141.5v-13a4,4,0,0,0-8,0v13H105.458a1,1,0,0,1-1-1V132h14.267l-7.408,9a4,4,0,0,0,6.178,5.084L128,133.32l10.5,12.766A4,4,0,0,0,144.683,141l-7.408-9h14.267v60.925A1,1,0,0,1,150.542,193.925Z" fill="#5f266d"/><path d="M137.5,158.075a4,4,0,0,0-4,4v3.85a4,4,0,0,0,8,0v-3.85A4,4,0,0,0,137.5,158.075Z" fill="#5f266d"/><path d="M118.5,148.862a4,4,0,0,0-4,4v23.344a4,4,0,1,0,8,0V152.862A4,4,0,0,0,118.5,148.862Z" fill="#5f266d"/><path d="M120.355,103.06a4,4,0,0,0,4-4v-13a4,4,0,0,0-8,0v13A4,4,0,0,0,120.355,103.06Z" fill="#5f266d"/></svg>