<svg xmlns="http://www.w3.org/2000/svg" viewBox="0 0 256 256"><title>Foodies Expanded</title><path d="M101.892,128.25V238.17a10,10,0,0,1-10,10H31.772a10,10,0,0,1-10-10V128.28a5.143,5.143,0,0,1,.08-.88l15.13-87.45,1.75-10.12h47.13l1.58,9.66,14.38,87.93A4.651,4.651,0,0,1,101.892,128.25Z" fill="#ff4a73"/><path d="M53.732,29.83l-1.75,10.12-.21,1.22L36.852,127.4a5.143,5.143,0,0,0-.08.88V238.17a10,10,0,0,0,10,10h-15a10,10,0,0,1-10-10V128.28a5.143,5.143,0,0,1,.08-.88l15.13-87.45,1.75-10.12Z" fill="#f973a3"/><path d="M101.892,128.25V238.17a10,10,0,0,1-10,10h-15a10,10,0,0,0,10-10V128.25a4.651,4.651,0,0,0-.07-.83L72.712,41.17l-.27-1.68-1.58-9.66h15l1.58,9.66,14.38,87.93A4.651,4.651,0,0,1,101.892,128.25Z" fill="#ea2a6a"/><rect x="31.764" y="7.833" width="60.136" height="33.333" rx="10" ry="10" fill="#87828e"/><path d="M56.762,41.17h-15a10,10,0,0,1-10-10V17.83a10,10,0,0,1,10-10h15a10,10,0,0,0-10,10V31.17A10,10,0,0,0,56.762,41.17Z" fill="#a4a4a5"/><path d="M91.9,17.83V31.17a10,10,0,0,1-10,10h-15a10,10,0,0,0,10-10V17.83a10,10,0,0,0-10-10h15A10,10,0,0,1,91.9,17.83Z" fill="#796e84"/><rect x="21.772" y="148.67" width="80.12" height="55" fill="#f9d335"/><rect x="21.772" y="148.67" width="15" height="55" fill="#f9e27d"/><rect x="86.892" y="148.67" width="15" height="55" fill="#f2c300"/><ellipse cx="177.19" cy="199.911" rx="57.177" ry="48.259" fill="#ff4a73"/><path d="M184.69,247.75a66.14,66.14,0,0,1-7.5.42c-31.58,0-57.18-21.61-57.18-48.26s25.6-48.26,57.18-48.26a66.14,66.14,0,0,1,7.5.42c-28.04,3.09-49.68,23.34-49.68,47.84S156.65,244.66,184.69,247.75Z" fill="#f973a3"/><path d="M234.37,199.91c0,26.65-25.6,48.26-57.18,48.26a66.14,66.14,0,0,1-7.5-.42c28.04-3.09,49.68-23.34,49.68-47.84s-21.64-44.75-49.68-47.84a66.14,66.14,0,0,1,7.5-.42C208.77,151.65,234.37,173.26,234.37,199.91Z" fill="#ea2a6a"/><path d="M91.755,41.077A13.939,13.939,0,0,0,95.9,31.17V17.83a14.015,14.015,0,0,0-14-14H41.762a14.015,14.015,0,0,0-14,14V31.17A13.981,13.981,0,0,0,32.61,41.76C15.157,142.634,17.772,120.473,17.772,148.67v89.5a14.015,14.015,0,0,0,14,14h60.12a14.015,14.015,0,0,0,14-14v-89.5C105.892,119.522,108.915,146.007,91.755,41.077ZM35.762,17.83a6.006,6.006,0,0,1,6-6H81.9a6.006,6.006,0,0,1,6,6V31.17a6.014,6.014,0,0,1-6,6c-44.043,0-40.943.362-43.022-.742a5.988,5.988,0,0,1-3.118-5.258Zm4.392,27.247c1,.116,42.123.233,44.131-.1,16.328,99.838,13.607,76.127,13.607,99.7H25.772C25.772,121.15,22.9,144.833,40.154,45.077ZM97.892,199.67H25.772v-47h72.12Zm-6,44.5H31.772a6.007,6.007,0,0,1-6-6v-30.5h72.12v30.5A6.007,6.007,0,0,1,91.892,244.17Z" fill="#5f266d"/><path d="M75.317,86.662A4,4,0,0,0,79.257,90a4.091,4.091,0,0,0,.666-.056,4,4,0,0,0,3.283-4.606L78.579,57.725a4,4,0,1,0-7.89,1.322Z" fill="#5f266d"/><path d="M81.079,96.849a4,4,0,0,0-3.283,4.606l.341,2.039a4,4,0,0,0,3.94,3.34,4.073,4.073,0,0,0,.666-.056,4,4,0,0,0,3.284-4.606l-.342-2.039A4,4,0,0,0,81.079,96.849Z" fill="#5f266d"/><path d="M181.19,147.775V117.667a4,4,0,1,0-8,0v30.108c-31.874,1.768-57.177,24.469-57.177,52.136,0,28.816,27.444,52.259,61.177,52.259s61.177-23.443,61.177-52.259C238.367,172.244,213.064,149.543,181.19,147.775Zm-4,96.395c-29.321,0-53.177-19.855-53.177-44.259,0-20.431,16.723-37.663,39.37-42.738a78.428,78.428,0,0,0-19.257,21.535c-2.608,4.659,4.423,8.475,6.98,3.908a71.1,71.1,0,0,1,22.073-22.509c-6.115,19.641,3.886,30.731,8.8,25.961a4,4,0,0,0,.087-5.655c-5.045-5.2-2.34-15.629-.149-21.083,13.621,5.924,20.272,24.887,20.363,25.153a4,4,0,0,0,7.576-2.568c-.278-.821-5.058-14.564-15.456-23.872,20.9,5.967,35.969,22.475,35.969,41.868C230.367,224.315,206.511,244.17,177.19,244.17Z" fill="#5f266d"/></svg>