<svg xmlns="http://www.w3.org/2000/svg" viewBox="0 0 256 256"><title>Foodies Expanded</title><path d="M89.394,7.411h77.213a20,20,0,0,1,20,20V46.738a5,5,0,0,1-5,5H74.394a5,5,0,0,1-5-5V27.411A20,20,0,0,1,89.394,7.411Z" fill="#87828e"/><path d="M176.04,75.079h-2.665V51.738H82.625V75.079H79.96A19.99,19.99,0,0,0,60.11,97.5l5.24,42.9,3.82,31.27,8.85,72.52a5.008,5.008,0,0,0,4.96,4.4h90.04a5.008,5.008,0,0,0,4.96-4.4l8.85-72.52,3.82-31.27,5.24-42.9A19.99,19.99,0,0,0,176.04,75.079Z" fill="#ffe2e2"/><path d="M84.39,27.41V46.74a5,5,0,0,0,5,5h-15a5,5,0,0,1-5-5V27.41a20.007,20.007,0,0,1,20-20h15A20.007,20.007,0,0,0,84.39,27.41Z" fill="#a4a4a5"/><rect x="82.62" y="51.74" width="15" height="23.34" fill="#ffefee"/><path d="M97.98,248.59h-15a5.009,5.009,0,0,1-4.96-4.4l-8.85-72.52L65.35,140.4,60.11,97.5A19.99,19.99,0,0,1,79.96,75.08h15A19.99,19.99,0,0,0,75.11,97.5l5.24,42.9,3.82,31.27,8.85,72.52A5.009,5.009,0,0,0,97.98,248.59Z" fill="#ffefee"/><path d="M186.61,27.41V46.74a5,5,0,0,1-5,5h-15a5,5,0,0,0,5-5V27.41a20.007,20.007,0,0,0-20-20h15A20.007,20.007,0,0,1,186.61,27.41Z" fill="#796e84"/><rect x="158.37" y="51.74" width="15" height="23.34" fill="#ffcfcf"/><path d="M195.89,97.5l-5.24,42.9-3.82,31.27-8.85,72.52a5.009,5.009,0,0,1-4.96,4.4h-15a5.009,5.009,0,0,0,4.96-4.4l8.85-72.52,3.82-31.27,5.24-42.9a19.99,19.99,0,0,0-19.85-22.42h15A19.99,19.99,0,0,1,195.89,97.5Z" fill="#ffcfcf"/><path d="M190.65,140.4l-3.82,31.27H154.3a30.284,30.284,0,0,1-52.6,0H69.17L65.35,140.4h37.12a30.266,30.266,0,0,1,51.06,0Z" fill="#b76c6c"/><polygon points="84.17 171.67 69.17 171.67 65.35 140.4 80.35 140.4 84.17 171.67" fill="#965959"/><polygon points="190.65 140.4 186.83 171.67 171.83 171.67 175.65 140.4 190.65 140.4" fill="#965959"/><polygon points="80.35 140.4 84.17 171.67 69.17 171.67 65.35 140.4 80.35 140.4" fill="#c98585"/><polygon points="190.65 140.4 186.83 171.67 171.83 171.67 175.65 140.4 190.65 140.4" fill="#965959"/><path d="M170.667,31.078h-2.334a4,4,0,1,0,0,8h2.334a4,4,0,0,0,0-8Z" fill="#5f266d"/><path d="M153.333,31.078h-15a4,4,0,1,0,0,8h15a4,4,0,0,0,0-8Z" fill="#5f266d"/><path d="M177.375,71.118V55.737h4.231a9.01,9.01,0,0,0,9-9V27.411a24.027,24.027,0,0,0-24-24H89.394a24.027,24.027,0,0,0-24,24V46.737a9.01,9.01,0,0,0,9,9h4.231V71.118A24,24,0,0,0,56.14,97.984l17.91,146.7a9.017,9.017,0,0,0,8.93,7.909h90.04a9.016,9.016,0,0,0,8.93-7.916L199.86,97.985A24,24,0,0,0,177.375,71.118ZM74.394,47.737a1,1,0,0,1-1-1V27.411a16.018,16.018,0,0,1,16-16h77.212a16.018,16.018,0,0,1,16,16V46.737a1,1,0,0,1-1,1Zm94.981,8V71.075H86.625V55.737ZM174.01,243.7a1.007,1.007,0,0,1-.99.89H82.98a1.006,1.006,0,0,1-.99-.885l-8.306-68.035H99.476a34.277,34.277,0,0,0,57.048,0h25.792Zm9.279-76.03H154.3a4,4,0,0,0-3.472,2.013,26.284,26.284,0,0,1-45.656,0,4,4,0,0,0-3.472-2.013H72.711L69.868,144.4h32.6a4,4,0,0,0,3.371-1.846,26.267,26.267,0,0,1,44.318,0,4,4,0,0,0,3.371,1.846h32.6Zm8.63-70.655L187.11,136.4H155.637a34.266,34.266,0,0,0-55.274,0H68.89L64.081,97.013A16,16,0,0,1,79.96,79.079h96.08A16,16,0,0,1,191.919,97.014Z" fill="#5f266d"/><path d="M86.785,104.832a4,4,0,0,0-4-4H78.118a4,4,0,0,0,0,8h4.667A4,4,0,0,0,86.785,104.832Z" fill="#5f266d"/><path d="M103.451,87H98.785a4,4,0,0,0,0,8h4.666a4,4,0,0,0,0-8Z" fill="#5f266d"/><path d="M122.785,103.165h-4.667a4,4,0,0,0,0,8h4.667a4,4,0,0,0,0-8Z" fill="#5f266d"/><path d="M138.917,84.665H134.25a4,4,0,0,0,0,8h4.667a4,4,0,0,0,0-8Z" fill="#5f266d"/><path d="M174,106.5h-4.667a4,4,0,0,0,0,8H174a4,4,0,0,0,0-8Z" fill="#5f266d"/><path d="M164.667,190.943h4.666a4,4,0,0,0,0-8h-4.666a4,4,0,0,0,0,8Z" fill="#5f266d"/><path d="M154.764,210.749a4,4,0,0,0,4,4h4.667a4,4,0,0,0,0-8h-4.667A4,4,0,0,0,154.764,210.749Z" fill="#5f266d"/><path d="M145.681,200h-4.667a4,4,0,0,0,0,8h4.667a4,4,0,0,0,0-8Z" fill="#5f266d"/><path d="M115.181,214.749h-4.667a4,4,0,1,0,0,8h4.667a4,4,0,1,0,0-8Z" fill="#5f266d"/><path d="M99.764,214.749a4,4,0,0,0,0-8H95.1a4,4,0,0,0,0,8Z" fill="#5f266d"/><path d="M96.549,188.749a4,4,0,0,0-4-4H87.882a4,4,0,1,0,0,8h4.667A4,4,0,0,0,96.549,188.749Z" fill="#5f266d"/><path d="M138.917,226.165H134.25a4,4,0,0,0,0,8h4.667a4,4,0,0,0,0-8Z" fill="#5f266d"/><path d="M101.118,232.5H96.451a4,4,0,0,0,0,8h4.667a4,4,0,0,0,0-8Z" fill="#5f266d"/><path d="M161.1,230.249h-4.666a4,4,0,0,0,0,8H161.1a4,4,0,0,0,0-8Z" fill="#5f266d"/><path d="M155.25,99.249h-4.667a4,4,0,0,0,0,8h4.667a4,4,0,0,0,0-8Z" fill="#5f266d"/><path d="M169.333,122.389h-4.666a4,4,0,1,0,0,8h4.666a4,4,0,0,0,0-8Z" fill="#5f266d"/><path d="M178.667,87H174a4,4,0,0,0,0,8h4.667a4,4,0,0,0,0-8Z" fill="#5f266d"/><path d="M92.549,119.5H87.882a4,4,0,0,0,0,8h4.667a4,4,0,0,0,0-8Z" fill="#5f266d"/></svg>