<svg xmlns="http://www.w3.org/2000/svg" viewBox="0 0 256 256"><title>Foodies Expanded</title><rect x="58.987" y="5.333" width="138.025" height="245.333" rx="10" ry="10" fill="#5fcdff"/><path d="M83.99,250.67h-15a10,10,0,0,1-10-10V15.33a10,10,0,0,1,10-10h15a10,10,0,0,0-10,10V240.67A10,10,0,0,0,83.99,250.67Z" fill="#73d7f9"/><rect x="58.987" y="37.5" width="138.025" height="182.5" fill="#ffe2e2"/><path d="M164.029,84.878a18.364,18.364,0,0,0-14.9,5.354,22.793,22.793,0,0,0-42.248,0,18.4,18.4,0,1,0-13.062,31.352V176.5a5,5,0,0,0,5,5h58.372a5,5,0,0,0,5-5V121.584a18.4,18.4,0,0,0,1.843-36.706Z" fill="#ff4a73"/><path d="M139.022,123.25l-17.166-9.911a5,5,0,0,0-7.5,4.33V137.49a5,5,0,0,0,7.5,4.331l17.166-9.911A5,5,0,0,0,139.022,123.25Z" fill="#87828e"/><rect x="58.99" y="37.5" width="15" height="182.5" fill="#ffefee"/><path d="M197.01,15.33V240.67a10,10,0,0,1-10,10h-15a10,10,0,0,0,10-10V15.33a10,10,0,0,0-10-10h15A10,10,0,0,1,197.01,15.33Z" fill="#30b6ff"/><path d="M108.81,176.5V121.58a18.389,18.389,0,0,1-7.49-35.19,18.4,18.4,0,1,0-7.51,35.19V176.5a5,5,0,0,0,5,5h15A5,5,0,0,1,108.81,176.5Z" fill="#f973a3"/><path d="M180.47,101.07a18.4,18.4,0,0,0-25.79-14.68,18.389,18.389,0,0,1-7.49,35.19V176.5a5,5,0,0,1-5,5h15a5,5,0,0,0,5-5V121.58A18.409,18.409,0,0,0,180.47,101.07Z" fill="#ea2a6a"/><rect x="182.01" y="37.5" width="15" height="182.5" fill="#ffcfcf"/><path d="M151.043,16.844H125.97a4,4,0,0,0,0,8h25.073a4,4,0,0,0,0-8Z" fill="#5f266d"/><path d="M110.279,15.522a5.323,5.323,0,1,0,5.322,5.322A5.322,5.322,0,0,0,110.279,15.522Z" fill="#5f266d"/><path d="M187.013,1.333H68.987a14.017,14.017,0,0,0-14,14V240.667a14.017,14.017,0,0,0,14,14H187.013a14.017,14.017,0,0,0,14-14V15.333A14.017,14.017,0,0,0,187.013,1.333Zm6,239.334a6.007,6.007,0,0,1-6,6H68.987a6.007,6.007,0,0,1-6-6V224H193.013Zm0-24.667H62.987V41.5H193.013Zm0-182.5H62.987V15.333a6.007,6.007,0,0,1,6-6H187.013a6.007,6.007,0,0,1,6,6Z" fill="#5f266d"/><path d="M109.479,239h37.042a4,4,0,0,0,0-8H109.479a4,4,0,1,0,0,8Z" fill="#5f266d"/><path d="M89.814,125.223V176.5a9.011,9.011,0,0,0,9,9h58.372a9.011,9.011,0,0,0,9-9V125.223a22.4,22.4,0,1,0-15.759-41.1,26.808,26.808,0,0,0-44.854,0,22.4,22.4,0,1,0-15.759,41.1Zm-10.3-23.708c1.33-11.926,16.042-17.022,24.526-8.466a4,4,0,0,0,6.546-1.313,18.793,18.793,0,0,1,34.836,0,4,4,0,0,0,6.546,1.313,14.4,14.4,0,1,1,10.222,24.535,4,4,0,0,0-4,4V176.5a1,1,0,0,1-1,1H98.814a1,1,0,0,1-1-1V121.584a4,4,0,0,0-4-4,14.4,14.4,0,0,1-14.3-16.069Z" fill="#5f266d"/><path d="M123.856,145.284l17.165-9.91a9,9,0,0,0,0-15.589h0l-17.165-9.911a9,9,0,0,0-13.5,7.794V137.49A9,9,0,0,0,123.856,145.284Zm-5.5-27.615a1,1,0,0,1,1.5-.866l17.165,9.91h0a1,1,0,0,1,0,1.732l-17.165,9.91a1,1,0,0,1-1.5-.866Z" fill="#5f266d"/><path d="M74.338,205h16a4,4,0,0,0,0-8h-16a4,4,0,1,0,0,8Z" fill="#5f266d"/><path d="M108.4,197h-3.062a4,4,0,1,0,0,8H108.4a4,4,0,0,0,0-8Z" fill="#5f266d"/></svg>