<svg xmlns="http://www.w3.org/2000/svg" viewBox="0 0 256 256"><title>Foodies Expanded</title><path d="M229.563,108H208.937V58a5,5,0,0,0-5-5H11.437a5,5,0,0,0-5,5V198a5,5,0,0,0,5,5h192.5a5,5,0,0,0,5-5V148h20.626a20,20,0,0,0,20-20h0A20,20,0,0,0,229.563,108Z" fill="#b76c6c"/><rect x="47.687" y="41.75" width="120" height="172.5" transform="translate(235.687 20.313) rotate(90)" fill="#b76c6c"/><rect x="21.44" y="68" width="172.5" height="15" fill="#c98585"/><rect x="21.44" y="173" width="172.5" height="15" fill="#965959"/><path d="M125.591,98.667A13.126,13.126,0,0,1,113.437,90.5a13.128,13.128,0,0,0-12.155-8.167H76.11a13.128,13.128,0,0,0-11.884,7.55l-.579,1.234a13.128,13.128,0,0,1-11.884,7.55H21.437v17.5H51.763a13.129,13.129,0,0,1,11.884,7.549l.579,1.234A13.128,13.128,0,0,0,76.11,132.5h25.172a13.128,13.128,0,0,0,12.155-8.167,13.126,13.126,0,0,1,12.154-8.166h68.346v-17.5Z" fill="#965959"/><path d="M193.937,64H21.437a4,4,0,0,0-4,4V188a4,4,0,0,0,4,4h172.5a4,4,0,0,0,4-4V68A4,4,0,0,0,193.937,64Zm-168.5,38.666H51.764c6.511,0,12.452-3.357,16.084-11.084a9.162,9.162,0,0,1,8.261-5.249h25.173a9.093,9.093,0,0,1,8.451,5.679,17.065,17.065,0,0,0,15.858,10.654h64.346v9.5H125.591a17.066,17.066,0,0,0-15.858,10.655,9.093,9.093,0,0,1-8.451,5.679H76.109a9.162,9.162,0,0,1-8.262-5.252l-.579-1.23a17.194,17.194,0,0,0-15.5-9.852H25.437ZM189.937,72v7.333H173.77a4,4,0,0,0,0,8h16.167v7.333H125.591a9.093,9.093,0,0,1-8.451-5.678,17.066,17.066,0,0,0-15.858-10.655H76.109c-6.495,0-12.444,3.34-16.084,11.085a9.161,9.161,0,0,1-8.261,5.248H25.437V72ZM25.437,184V173.667H35.6a4,4,0,1,0,0-8H25.437V155.083h85a4,4,0,0,0,0-8h-85V137.75H35.6a4,4,0,0,0,0-8H25.437v-9.584H51.764a9.162,9.162,0,0,1,8.262,5.253l.579,1.23a17.192,17.192,0,0,0,15.5,9.851h25.173a17.066,17.066,0,0,0,15.858-10.655,9.093,9.093,0,0,1,8.451-5.679h64.346v10h-12a4,4,0,0,0,0,8h12v27.5H176.07a4,4,0,0,0,0,8h13.867V184Z" fill="#5f266d"/><path d="M229.563,104H212.937V58a9.01,9.01,0,0,0-9-9H11.437a9.01,9.01,0,0,0-9,9V198a9.01,9.01,0,0,0,9,9h192.5a9.01,9.01,0,0,0,9-9V152h16.626a24,24,0,0,0,0-48Zm0,40H208.937a4,4,0,0,0-4,4v50a1,1,0,0,1-1,1H11.437a1,1,0,0,1-1-1V58a1,1,0,0,1,1-1h192.5a1,1,0,0,1,1,1v50a4,4,0,0,0,4,4h20.626a16,16,0,0,1,0,32Z" fill="#5f266d"/><path d="M88.32,120.167a12.75,12.75,0,1,0-12.75-12.75A12.764,12.764,0,0,0,88.32,120.167Zm0-17.5a4.75,4.75,0,1,1-4.75,4.75A4.756,4.756,0,0,1,88.32,102.667Z" fill="#5f266d"/><path d="M125.437,155.083h24a4,4,0,0,0,0-8h-24a4,4,0,1,0,0,8Z" fill="#5f266d"/><path d="M161.07,165.667h-64a4,4,0,1,0,0,8h64a4,4,0,0,0,0-8Z" fill="#5f266d"/><path d="M140.77,87.333h18a4,4,0,0,0,0-8h-18a4,4,0,0,0,0,8Z" fill="#5f266d"/><path d="M162.937,130.167h-13a4,4,0,0,0,0,8h13a4,4,0,0,0,0-8Z" fill="#5f266d"/><path d="M62.937,165.667H50.6a4,4,0,0,0,0,8H62.937a4,4,0,0,0,0-8Z" fill="#5f266d"/></svg>