<svg xmlns="http://www.w3.org/2000/svg" viewBox="0 0 256 256"><title>Foodies Expanded</title><path d="M63.57,49.1V65.52H12.17a5,5,0,0,1-5-5V54.1a5,5,0,0,1,5-5Z" fill="#87828e"/><path d="M248.83,54.1v81.38a5,5,0,0,1-5,5H207.76a5,5,0,0,1-5-5V49.1h41.07A5,5,0,0,1,248.83,54.1Z" fill="#87828e"/><path d="M114.35,102.86,69.82,219.39a16.75,16.75,0,0,0-11.25-4.3,17.011,17.011,0,0,0-5.6.95L96.22,102.86Z" fill="#87828e"/><path d="M69.82,219.39a16.75,16.75,0,0,0-11.25-4.3,16.88,16.88,0,1,0,16.88,16.88A16.8,16.8,0,0,0,69.82,219.39Z" fill="#796e84"/><path d="M213.37,216.05a16.85,16.85,0,0,0-16.85,3.34L151.98,102.86h18.13Z" fill="#87828e"/><path d="M177.76,7.15H88.57a25,25,0,0,0-25,25V97.86a5,5,0,0,0,5,5H197.76a5,5,0,0,0,5-5V32.15A25,25,0,0,0,177.76,7.15Z" fill="#87828e"/><path d="M213.37,216.05a16.88,16.88,0,1,0,11.27,15.92A16.776,16.776,0,0,0,213.37,216.05Z" fill="#796e84"/><path d="M78.57,32.15V97.86a5,5,0,0,0,5,5h-15a5,5,0,0,1-5-5V32.15a25,25,0,0,1,25-25h15A25,25,0,0,0,78.57,32.15Z" fill="#a4a4a5"/><path d="M202.76,32.15V97.86a5,5,0,0,1-5,5h-15a5,5,0,0,0,5-5V32.15a25,25,0,0,0-25-25h15A25,25,0,0,1,202.76,32.15Z" fill="#796e84"/><path d="M222.76,140.48h-15a5,5,0,0,1-5-5V49.1h15v86.38A5,5,0,0,0,222.76,140.48Z" fill="#a4a4a5"/><path d="M248.83,54.1v81.38a5,5,0,0,1-5,5h-15a5,5,0,0,0,5-5V54.1a5,5,0,0,0-5-5h15A5,5,0,0,1,248.83,54.1Z" fill="#796e84"/><path d="M175.667,59.313a4,4,0,0,0-4,4v11h-77v-11a4,4,0,0,0-8,0v15a4,4,0,0,0,4,4h85a4,4,0,0,0,4-4v-15A4,4,0,0,0,175.667,59.313Z" fill="#5f266d"/><path d="M243.83,45.1H206.76V32.15a29.034,29.034,0,0,0-29-29H88.57a29.033,29.033,0,0,0-29,29V45.1H12.17a9.01,9.01,0,0,0-9,9v6.42a9.011,9.011,0,0,0,9,9h4.749L59.57,92.135v5.724a9.01,9.01,0,0,0,9,9H90.409L49.848,213A20.878,20.878,0,0,0,58.57,252.85c17.8,0,27.378-20.939,15.9-34.409L117.1,106.859h32.124L191.875,218.44c-11.539,13.523-1.862,34.41,15.885,34.41a20.875,20.875,0,0,0,8.731-39.838l-40.57-106.153H197.76a8.935,8.935,0,0,0,1-.059v28.68a9.01,9.01,0,0,0,9,9h36.07a9.01,9.01,0,0,0,9-9V54.1A9.01,9.01,0,0,0,243.83,45.1ZM11.17,60.52V54.1a1,1,0,0,1,1-1h47.4v8.42H12.17A1,1,0,0,1,11.17,60.52ZM34,69.52H59.57V83.08ZM58.57,244.85a12.882,12.882,0,1,1,12.88-12.88A12.9,12.9,0,0,1,58.57,244.85Zm9.305-31.577a21.159,21.159,0,0,0-8.734-2.175L98.973,106.859h9.567ZM207.76,244.85a12.88,12.88,0,1,1,12.88-12.88A12.9,12.9,0,0,1,207.76,244.85ZM207.2,211.1a21.126,21.126,0,0,0-8.73,2.177L157.791,106.859h9.565ZM197.76,98.859H68.57a1,1,0,0,1-1-1V32.15a21.024,21.024,0,0,1,21-21h89.19a21.024,21.024,0,0,1,21,21V97.859A.99.99,0,0,1,197.76,98.859Zm47.07,36.621a1,1,0,0,1-1,1H207.76a1,1,0,0,1-1-1V53.1h37.07a1,1,0,0,1,1,1Z" fill="#5f266d"/><path d="M168.667,28.479h1.75a4,4,0,0,0,0-8h-1.75a4,4,0,0,0,0,8Z" fill="#5f266d"/><path d="M140.667,28.479h13a4,4,0,0,0,0-8h-13a4,4,0,0,0,0,8Z" fill="#5f266d"/></svg>